<?xml version="1.0"?>
<svg xmlns="http://www.w3.org/2000/svg" viewBox="0 0 64 64" width="512" height="512"><g id="Sketch"><path d="M56.54,42a10.468,10.468,0,0,1-.68,1.62l3.16,3.16-4.24,4.24L53,49.24l-1.38-1.38a10.468,10.468,0,0,1-1.62.68V53H44V48.54a10.468,10.468,0,0,1-1.62-.68l-3.16,3.16-4.24-4.24,3.16-3.16A10.468,10.468,0,0,1,37.46,42H33V36h4.46a10.468,10.468,0,0,1,.68-1.62l-3.16-3.16,4.24-4.24,3.16,3.16A10.468,10.468,0,0,1,44,29.46V25h6v4.46a10.468,10.468,0,0,1,1.62.68l3.16-3.16,4.24,4.24-3.16,3.16A10.468,10.468,0,0,1,56.54,36H61v6Z" style="fill:#ff7956"/><path d="M53,49.24V59a2.006,2.006,0,0,1-2,2H13a2.006,2.006,0,0,1-2-2V5a2.006,2.006,0,0,1,2-2H51a2.006,2.006,0,0,1,2,2V28.76l-1.38,1.38A10.468,10.468,0,0,0,50,29.46V25H49V7H15V57H49V53h1V48.54a10.468,10.468,0,0,0,1.62-.68Z" style="fill:#ffb655"/><circle cx="47" cy="39" r="7" style="fill:#fee9ab"/><path d="M49,53v4H15V7H49V25H44v4.46a10.468,10.468,0,0,0-1.62.68l-3.16-3.16-4.24,4.24,3.16,3.16A10.468,10.468,0,0,0,37.46,36H33v6h4.46a10.468,10.468,0,0,0,.68,1.62l-3.16,3.16,4.24,4.24,3.16-3.16a10.468,10.468,0,0,0,1.62.68V53Z" style="fill:#46f8ff"/><path d="M7,16V59a2,2,0,0,1-4,0V16Z" style="fill:#b2fa09"/><polygon points="5 9 7 16 3 16 5 9" style="fill:#b39a7c"/><path d="M61,35H57.246c-.055-.139-.112-.277-.174-.416l2.656-2.655a1,1,0,0,0,0-1.414l-4.243-4.243a1.029,1.029,0,0,0-1.414,0L54,26.343V5a3,3,0,0,0-3-3H13a3,3,0,0,0-3,3V59a3,3,0,0,0,3,3H51a3,3,0,0,0,3-3V51.657l.071.071a1.029,1.029,0,0,0,1.414,0l4.243-4.243a1,1,0,0,0,0-1.414l-2.656-2.655c.062-.139.119-.277.174-.416H61a1,1,0,0,0,1-1V36A1,1,0,0,0,61,35ZM52,59a1,1,0,0,1-1,1H13a1,1,0,0,1-1-1V5a1,1,0,0,1,1-1H51a1,1,0,0,1,1,1V28.344l-.584.584c-.139-.061-.277-.119-.416-.175V25a1,1,0,0,0-1-1V7a1,1,0,0,0-1-1H15a1,1,0,0,0-1,1V57a1,1,0,0,0,1,1H49a1,1,0,0,0,1-1V54a1,1,0,0,0,1-1V49.247c.139-.056.277-.114.416-.175l.584.584ZM34.272,31.929l2.656,2.655c-.062.139-.119.277-.174.416H33a1,1,0,0,0-1,1v6a1,1,0,0,0,1,1h3.754c.055.139.112.277.174.416l-2.656,2.655a1,1,0,0,0,0,1.414l4.243,4.243a1.029,1.029,0,0,0,1.414,0l2.655-2.656c.139.061.277.119.416.175V53a1,1,0,0,0,1,1h4v2H16V8H48V24H44a1,1,0,0,0-1,1v3.753c-.139.056-.277.114-.416.175l-2.655-2.656a1.029,1.029,0,0,0-1.414,0l-4.243,4.243A1,1,0,0,0,34.272,31.929ZM60,41H56.541a1,1,0,0,0-.954.7,9.078,9.078,0,0,1-.61,1.458,1,1,0,0,0,.179,1.17l2.45,2.45-2.828,2.828-2.45-2.45a1,1,0,0,0-1.17-.179,8.953,8.953,0,0,1-1.459.61,1,1,0,0,0-.7.954V52H45V48.541a1,1,0,0,0-.7-.954,8.953,8.953,0,0,1-1.459-.61,1,1,0,0,0-1.17.179l-2.45,2.45-2.828-2.828,2.45-2.45a1,1,0,0,0,.179-1.17,9.078,9.078,0,0,1-.61-1.458,1,1,0,0,0-.954-.7H34V37h3.459a1,1,0,0,0,.954-.7,9.078,9.078,0,0,1,.61-1.458,1,1,0,0,0-.179-1.17l-2.45-2.45,2.828-2.828,2.45,2.45a1,1,0,0,0,1.17.179,8.953,8.953,0,0,1,1.459-.61,1,1,0,0,0,.7-.954V26h4v3.459a1,1,0,0,0,.7.954,8.953,8.953,0,0,1,1.459.61,1,1,0,0,0,1.17-.179l2.45-2.45,2.828,2.828-2.45,2.45a1,1,0,0,0-.179,1.17,9.078,9.078,0,0,1,.61,1.458,1,1,0,0,0,.954.7H60Z"/><path d="M47,31a8,8,0,1,0,8,8A8.009,8.009,0,0,0,47,31Zm0,14a6,6,0,1,1,6-6A6.006,6.006,0,0,1,47,45Z"/><path d="M5.962,8.725a1,1,0,0,0-1.924,0l-2,7A1.02,1.02,0,0,0,2,16V59a3,3,0,0,0,6,0V16a1.02,1.02,0,0,0-.038-.275ZM5,12.64,5.674,15H4.326ZM5,60a1,1,0,0,1-1-1V17H6V59A1,1,0,0,1,5,60Z"/><path d="M23,12a3,3,0,0,1,3,3h2a5,5,0,0,0-10,0h2A3,3,0,0,1,23,12Z"/><path d="M27,20a3,3,0,0,1-3-3H22a5,5,0,0,0,10,0H30A3,3,0,0,1,27,20Z"/><path d="M26,29h2a5,5,0,0,0-10,0h2a3,3,0,0,1,6,0Z"/><path d="M27,34a3,3,0,0,1-3-3H22a5,5,0,0,0,10,0H30A3,3,0,0,1,27,34Z"/></g></svg>
