<?xml version="1.0" encoding="utf-8"?>
<!-- Generator: Adobe Illustrator 22.1.0, SVG Export Plug-In . SVG Version: 6.00 Build 0)  -->
<svg version="1.1" id="apps_development" xmlns="http://www.w3.org/2000/svg" xmlns:xlink="http://www.w3.org/1999/xlink" x="0px"
	 y="0px" viewBox="0 0 500 500" style="enable-background:new 0 0 500 500;" xml:space="preserve">
<style type="text/css">
	.st0{fill:#F2F2F2;}
	.st1{fill:#B7BFC7;}
	.st2{fill:#2D333A;}
	.st3{fill:#FFFFFF;}
	.st4{fill:#00BFFF;}
	.st5{fill:#4C5258;}
	.st6{opacity:0.2;}
	.st7{fill:#FF5B40;}
	.st8{fill:#FFB13E;}
	.st9{clip-path:url(#XMLID_2_);}
	.st10{fill:#DCE4E8;}
</style>
<g>
	<g>
		<path class="st0" d="M307.7,182h-205c-10.8,0-19.6,8.8-19.6,19.6l0,0c0,10.8,8.8,19.6,19.6,19.6H149c6.5,0,11.8,5.3,11.8,11.8l0,0
			c0,6.5-5.3,11.8-11.8,11.8H52.3c-9.6,0-17.5,7.8-17.5,17.5v0c0,9.6,7.8,17.5,17.5,17.5h135.6c7.7,0,13.8,6.2,13.8,13.9l0,0
			c0,7.6-6.2,13.7-13.8,13.7H26.5c-7.8,0-14.1,6.3-14.1,14.1v1.9c0,7.8,6.3,14.1,14.1,14.1h399.9c10.9,0,19.8-8.9,19.8-19.8v0
			c0-10.9-8.9-19.8-19.8-19.8H398c-7.9,0-14.2-6.4-14.2-14.2l0,0c0-7.9,6.4-14.2,14.2-14.2h71.8c9.9,0,18-8,18-18l0,0
			c0-9.9-8-18-18-18h-204c-6.4,0-11.6-5.2-11.6-11.6l0,0c0-6.4,5.2-11.6,11.6-11.6H406c7.8,0,14.1-6.3,14.1-14.1l0,0
			c0-7.8-6.3-14.1-14.1-14.1H307.7z"/>
	</g>
	<g id="XMLID_64_">
		<path class="st1" d="M272,427.9c0,1.1-0.9,2-2,2c-1.1,0-2-0.9-2-2c0-1.1,0.9-2,2-2C271.1,425.9,272,426.8,272,427.9z"/>
	</g>
	<g id="XMLID_5267_">
		<path class="st1" d="M121.2,158.1c0,0.9-0.7,1.6-1.6,1.6c-0.9,0-1.6-0.7-1.6-1.6c0-0.9,0.7-1.6,1.6-1.6
			C120.5,156.5,121.2,157.2,121.2,158.1z"/>
	</g>
	<g id="XMLID_63_">
		<path class="st1" d="M205.3,101.3c0,1.4-1.1,2.5-2.5,2.5c-1.4,0-2.5-1.1-2.5-2.5c0-1.4,1.1-2.5,2.5-2.5
			C204.2,98.8,205.3,99.9,205.3,101.3z"/>
	</g>
	<g id="XMLID_62_">
		<path class="st1" d="M243.4,77.5c-5,1.3-6.1,2.4-7.4,7.4c-1.3-5-2.4-6.1-7.4-7.4c5-1.3,6.1-2.4,7.4-7.4
			C237.3,75.1,238.4,76.1,243.4,77.5z"/>
	</g>
	<g id="XMLID_61_">
		<path class="st1" d="M410.4,370.5c-3.9,1-4.8,1.9-5.8,5.8c-1-3.9-1.9-4.8-5.8-5.8c3.9-1,4.8-1.9,5.8-5.8
			C405.6,368.6,406.5,369.5,410.4,370.5z"/>
	</g>
	<g id="XMLID_60_">
		<path class="st1" d="M433.1,144.8c-7.8,2.1-9.4,3.7-11.5,11.5c-2.1-7.8-3.7-9.4-11.5-11.5c7.8-2.1,9.4-3.7,11.5-11.5
			C423.7,141,425.4,142.7,433.1,144.8z"/>
	</g>
	<g id="XMLID_59_">
		<path class="st1" d="M139.1,407.5c-5.4,1.4-6.6,2.6-8,8c-1.4-5.4-2.6-6.6-8-8c5.4-1.4,6.6-2.6,8-8
			C132.5,404.9,133.7,406.1,139.1,407.5z"/>
	</g>
	<g id="XMLID_58_">
		<path class="st1" d="M80.1,323.4c-2.8,0.8-3.5,1.4-4.2,4.2c-0.8-2.8-1.4-3.5-4.2-4.2c2.8-0.8,3.5-1.4,4.2-4.2
			C76.7,322.1,77.3,322.7,80.1,323.4z"/>
	</g>
	<g>
		<g>
			<path class="st2" d="M311.5,263.7l0-3.9c1.4,0,2.9-0.1,4.3-0.1l0.2,3.9C314.6,263.7,313.1,263.7,311.5,263.7z M307,263.7
				c-1.5-0.1-3-0.2-4.5-0.3l0.4-3.9c1.4,0.1,2.9,0.2,4.3,0.3L307,263.7z M320.5,263.2l-0.4-3.9c1.4-0.2,2.9-0.3,4.3-0.6l0.6,3.9
				C323.5,262.9,322,263.1,320.5,263.2z M298.1,262.8c-1.5-0.2-3-0.5-4.4-0.8l0.8-3.9c1.4,0.3,2.8,0.5,4.2,0.7L298.1,262.8z
				 M329.4,261.8l-0.8-3.9c1.4-0.3,2.8-0.6,4.2-1l1,3.8C332.4,261.2,330.9,261.5,329.4,261.8z M289.2,261.1
				c-1.4-0.4-2.9-0.8-4.3-1.2l1.1-3.8c1.4,0.4,2.8,0.8,4.2,1.1L289.2,261.1z M338.2,259.5l-1.2-3.7c1.4-0.4,2.7-0.9,4.1-1.4l1.4,3.7
				C341,258.6,339.6,259.1,338.2,259.5z M280.6,258.5c-1.4-0.5-2.8-1.1-4.2-1.6l1.5-3.6c1.3,0.6,2.7,1.1,4,1.6L280.6,258.5z
				 M346.6,256.3l-1.6-3.6c1.3-0.6,2.6-1.2,3.9-1.8l1.8,3.5C349.3,255.1,348,255.7,346.6,256.3z M272.3,255c-1.4-0.7-2.7-1.3-4-2.1
				l1.9-3.5c1.3,0.7,2.5,1.3,3.8,2L272.3,255z M354.6,252.3l-1.9-3.4c1.2-0.7,2.5-1.4,3.7-2.2l2.1,3.3
				C357.3,250.8,355.9,251.6,354.6,252.3z M264.3,250.7c-1.3-0.8-2.5-1.6-3.8-2.5l2.2-3.3c1.2,0.8,2.4,1.6,3.6,2.3L264.3,250.7z
				 M362.3,247.5l-2.3-3.2c1.2-0.8,2.3-1.7,3.5-2.6l2.4,3.1C364.7,245.8,363.5,246.7,362.3,247.5z M256.9,245.6
				c-1.2-0.9-2.4-1.8-3.5-2.8l2.5-3c1.1,0.9,2.2,1.8,3.4,2.7L256.9,245.6z M369.4,242l-2.6-3c1.1-0.9,2.2-1.9,3.2-2.9l2.7,2.8
				C371.6,240,370.5,241,369.4,242z M250,239.8c-1.1-1-2.2-2.1-3.2-3.2l2.8-2.7c1,1,2,2.1,3.1,3L250,239.8z M375.9,235.8L373,233
				c1-1,1.9-2.1,2.9-3.2l3,2.6C377.9,233.5,376.9,234.7,375.9,235.8z M243.7,233.3c-1-1.1-2-2.3-2.9-3.5l3.1-2.4
				c0.9,1.1,1.8,2.2,2.8,3.3L243.7,233.3z M381.7,228.9l-3.1-2.4c0.9-1.1,1.7-2.3,2.5-3.5l3.2,2.2
				C383.5,226.5,382.6,227.7,381.7,228.9z M238.1,226.2c-0.9-1.2-1.7-2.5-2.5-3.7l3.3-2.1c0.8,1.2,1.6,2.4,2.4,3.6L238.1,226.2z
				 M386.9,221.5l-3.3-2.1c0.8-1.2,1.5-2.5,2.2-3.7l3.4,1.9C388.4,218.9,387.7,220.2,386.9,221.5z M233.3,218.6
				c-0.7-1.3-1.5-2.6-2.1-4l3.5-1.8c0.6,1.3,1.3,2.5,2,3.8L233.3,218.6z M391.2,213.6l-3.5-1.7c0.6-1.3,1.2-2.6,1.8-3.9l3.6,1.5
				C392.5,210.9,391.9,212.3,391.2,213.6z M229.2,210.6c-0.6-1.4-1.2-2.8-1.7-4.2l3.7-1.4c0.5,1.3,1.1,2.7,1.6,4L229.2,210.6z
				 M394.8,205.3l-3.7-1.4c0.5-1.3,1-2.7,1.4-4.1l3.8,1.2C395.8,202.4,395.3,203.9,394.8,205.3z M226,202.2
				c-0.5-1.4-0.9-2.9-1.3-4.3l3.8-1c0.4,1.4,0.8,2.8,1.2,4.1L226,202.2z M397.5,196.7l-3.8-1c0.4-1.4,0.7-2.8,1-4.2l3.9,0.8
				C398.2,193.7,397.9,195.2,397.5,196.7z M223.6,193.5c-0.3-1.5-0.6-2.9-0.8-4.4l3.9-0.6c0.2,1.4,0.5,2.8,0.8,4.2L223.6,193.5z
				 M399.3,187.8l-3.9-0.6c0.2-1.4,0.4-2.8,0.5-4.3l3.9,0.4C399.7,184.9,399.5,186.4,399.3,187.8z M222.1,184.6
				c-0.2-1.5-0.3-3-0.4-4.5l3.9-0.3c0.1,1.4,0.2,2.9,0.4,4.3L222.1,184.6z M400.2,178.9l-3.9-0.2c0.1-1.4,0.1-2.9,0.1-4.3
				c0-0.8,0-1.6,0-2.4l3.9-0.1c0,0.8,0,1.7,0,2.5C400.3,175.9,400.3,177.4,400.2,178.9z M221.5,175.6c0-0.4,0-0.8,0-1.3
				c0-1.1,0-2.2,0.1-3.2l3.9,0.1c0,1-0.1,2.1-0.1,3.1c0,0.4,0,0.8,0,1.2L221.5,175.6z M396.1,167.6c-0.1-1.4-0.3-2.9-0.4-4.3
				l3.9-0.5c0.2,1.5,0.3,3,0.5,4.5L396.1,167.6z M225.8,167l-3.9-0.3c0.1-1.5,0.3-3,0.5-4.5l3.9,0.5
				C226.1,164.1,225.9,165.5,225.8,167z M395,159.1c-0.3-1.4-0.5-2.8-0.9-4.2l3.8-0.9c0.3,1.5,0.6,2.9,0.9,4.4L395,159.1z
				 M227,158.4l-3.9-0.7c0.3-1.5,0.6-2.9,0.9-4.4l3.8,0.9C227.5,155.6,227.2,157,227,158.4z M393,150.7c-0.4-1.4-0.8-2.7-1.3-4.1
				l3.7-1.3c0.5,1.4,0.9,2.9,1.4,4.3L393,150.7z M229,150l-3.8-1.1c0.4-1.4,0.9-2.9,1.4-4.3l3.7,1.3
				C229.8,147.3,229.4,148.7,229,150z M390.2,142.6c-0.5-1.3-1.1-2.7-1.7-4l3.6-1.6c0.6,1.3,1.2,2.7,1.8,4.1L390.2,142.6z
				 M231.9,141.9l-3.6-1.5c0.6-1.4,1.2-2.8,1.8-4.1l3.6,1.7C233,139.3,232.4,140.6,231.9,141.9z M386.6,134.8
				c-0.7-1.3-1.4-2.5-2.1-3.8l3.4-2c0.8,1.3,1.5,2.6,2.2,3.9L386.6,134.8z M235.5,134.1l-3.5-1.9c0.7-1.3,1.5-2.6,2.2-3.9l3.4,2
				C236.9,131.6,236.2,132.8,235.5,134.1z M382.3,127.3c-0.8-1.2-1.6-2.4-2.5-3.5l3.2-2.3c0.9,1.2,1.8,2.4,2.6,3.7L382.3,127.3z
				 M240,126.7l-3.3-2.2c0.8-1.2,1.7-2.5,2.6-3.7l3.2,2.4C241.6,124.3,240.8,125.5,240,126.7z M377.2,120.4
				c-0.9-1.1-1.9-2.2-2.8-3.3l2.9-2.6c1,1.1,2,2.3,2.9,3.4L377.2,120.4z M245.2,119.8l-3-2.5c1-1.2,2-2.3,3-3.4l2.9,2.7
				C247,117.6,246.1,118.7,245.2,119.8z M371.4,114c-1-1-2.1-2-3.1-3l2.6-2.9c1.1,1,2.2,2.1,3.3,3.1L371.4,114z M251,113.5l-2.8-2.8
				c1.1-1.1,2.2-2.1,3.3-3.1l2.6,2.9C253.1,111.5,252,112.5,251,113.5z M365,108.2c-1.1-0.9-2.2-1.8-3.4-2.6l2.3-3.2
				c1.2,0.9,2.4,1.8,3.6,2.8L365,108.2z M257.4,107.7l-2.5-3.1c1.2-0.9,2.4-1.9,3.6-2.7l2.3,3.2C259.7,106,258.5,106.8,257.4,107.7z
				 M358.1,103.1c-1.2-0.8-2.4-1.6-3.7-2.3l2-3.4c1.3,0.8,2.6,1.6,3.8,2.4L358.1,103.1z M264.4,102.7l-2.1-3.3
				c1.3-0.8,2.5-1.6,3.8-2.4l2,3.4C266.8,101.1,265.6,101.9,264.4,102.7z M350.6,98.7c-1.3-0.7-2.6-1.3-3.9-1.9l1.7-3.6
				c1.4,0.6,2.7,1.3,4,2L350.6,98.7z M271.8,98.4l-1.8-3.5c1.3-0.7,2.7-1.3,4.1-2l1.6,3.6C274.4,97.1,273.1,97.7,271.8,98.4z
				 M342.8,95.1c-1.3-0.5-2.7-1-4-1.5l1.3-3.7c1.4,0.5,2.8,1,4.2,1.6L342.8,95.1z M279.7,94.8l-1.4-3.7c1.4-0.6,2.8-1.1,4.2-1.5
				l1.3,3.7C282.4,93.8,281,94.3,279.7,94.8z M334.7,92.3c-1.4-0.4-2.8-0.8-4.2-1.1l0.9-3.8c1.5,0.3,2.9,0.7,4.4,1.1L334.7,92.3z
				 M287.8,92.1l-1.1-3.8c1.4-0.4,2.9-0.8,4.4-1.1L292,91C290.6,91.3,289.2,91.7,287.8,92.1z M326.3,90.3c-1.4-0.3-2.8-0.5-4.3-0.7
				l0.5-3.9c1.5,0.2,3,0.4,4.5,0.7L326.3,90.3z M296.2,90.2l-0.7-3.9c1.5-0.3,3-0.5,4.5-0.7l0.5,3.9
				C299.1,89.7,297.7,89.9,296.2,90.2z M317.7,89.2c-1.4-0.1-2.9-0.2-4.3-0.2l0.1-3.9c1.5,0,3,0.1,4.5,0.2L317.7,89.2z M304.8,89.1
				l-0.3-3.9c1.5-0.1,3-0.2,4.5-0.2l0.1,3.9C307.7,89,306.2,89,304.8,89.1z"/>
		</g>
		<g>
			<path class="st2" d="M180.4,349.1l0-3.9c1.4,0,2.9-0.1,4.3-0.1l0.2,3.9C183.4,349,181.9,349.1,180.4,349.1z M175.9,349
				c-1.5-0.1-3-0.2-4.5-0.3l0.4-3.9c1.4,0.1,2.9,0.2,4.3,0.3L175.9,349z M189.4,348.6l-0.4-3.9c1.4-0.2,2.9-0.3,4.3-0.6l0.6,3.9
				C192.4,348.2,190.9,348.4,189.4,348.6z M166.9,348.2c-1.5-0.2-3-0.5-4.4-0.8l0.8-3.9c1.4,0.3,2.8,0.5,4.2,0.7L166.9,348.2z
				 M198.3,347.2l-0.8-3.9c1.4-0.3,2.8-0.6,4.2-1l1,3.8C201.2,346.5,199.7,346.9,198.3,347.2z M158.1,346.4
				c-1.4-0.4-2.9-0.8-4.3-1.2l1.1-3.8c1.4,0.4,2.8,0.8,4.2,1.1L158.1,346.4z M207,344.9l-1.2-3.7c1.4-0.4,2.7-0.9,4.1-1.4l1.4,3.7
				C209.9,343.9,208.4,344.4,207,344.9z M149.4,343.8c-1.4-0.5-2.8-1.1-4.2-1.6l1.5-3.6c1.3,0.6,2.7,1.1,4,1.6L149.4,343.8z
				 M215.4,341.7l-1.6-3.6c1.3-0.6,2.6-1.2,3.9-1.8l1.8,3.5C218.2,340.5,216.8,341.1,215.4,341.7z M141.1,340.3
				c-1.4-0.7-2.7-1.3-4-2.1l1.9-3.5c1.3,0.7,2.5,1.3,3.8,2L141.1,340.3z M223.5,337.7l-1.9-3.4c1.2-0.7,2.5-1.4,3.7-2.2l2.1,3.3
				C226.1,336.2,224.8,336.9,223.5,337.7z M133.2,336c-1.3-0.8-2.5-1.6-3.8-2.5l2.2-3.3c1.2,0.8,2.4,1.6,3.6,2.3L133.2,336z
				 M231.1,332.9l-2.3-3.2c1.2-0.8,2.3-1.7,3.5-2.6l2.4,3.1C233.5,331.1,232.3,332,231.1,332.9z M125.7,330.9
				c-1.2-0.9-2.4-1.8-3.5-2.8l2.5-3c1.1,0.9,2.2,1.8,3.4,2.7L125.7,330.9z M238.2,327.3l-2.6-3c1.1-0.9,2.2-1.9,3.2-2.9l2.7,2.8
				C240.5,325.3,239.3,326.4,238.2,327.3z M118.8,325.1c-1.1-1-2.2-2.1-3.2-3.2l2.8-2.7c1,1,2,2.1,3.1,3L118.8,325.1z M244.7,321.1
				l-2.9-2.7c1-1,1.9-2.1,2.9-3.2l3,2.6C246.8,318.9,245.7,320,244.7,321.1z M112.5,318.6c-1-1.1-2-2.3-2.9-3.5l3.1-2.4
				c0.9,1.1,1.8,2.2,2.8,3.3L112.5,318.6z M250.6,314.2l-3.1-2.4c0.9-1.1,1.7-2.3,2.5-3.5l3.2,2.2
				C252.4,311.8,251.5,313.1,250.6,314.2z M107,311.6c-0.9-1.2-1.7-2.5-2.5-3.7l3.3-2.1c0.8,1.2,1.6,2.4,2.4,3.6L107,311.6z
				 M255.7,306.8l-3.3-2.1c0.8-1.2,1.5-2.5,2.2-3.7l3.4,1.9C257.3,304.3,256.5,305.6,255.7,306.8z M102.1,304
				c-0.7-1.3-1.5-2.6-2.1-4l3.5-1.8c0.6,1.3,1.3,2.5,2,3.8L102.1,304z M260.1,298.9l-3.5-1.7c0.6-1.3,1.2-2.6,1.8-3.9l3.6,1.5
				C261.4,296.2,260.7,297.6,260.1,298.9z M98,296c-0.6-1.4-1.2-2.8-1.7-4.2l3.7-1.4c0.5,1.3,1.1,2.7,1.6,4L98,296z M263.6,290.6
				l-3.7-1.4c0.5-1.3,1-2.7,1.4-4.1l3.8,1.2C264.6,287.8,264.2,289.2,263.6,290.6z M94.8,287.6c-0.5-1.4-0.9-2.9-1.3-4.3l3.8-1
				c0.4,1.4,0.8,2.8,1.2,4.1L94.8,287.6z M266.3,282l-3.8-1c0.4-1.4,0.7-2.8,1-4.2l3.9,0.8C267,279.1,266.7,280.6,266.3,282z
				 M92.4,278.9c-0.3-1.5-0.6-2.9-0.8-4.4l3.9-0.6c0.2,1.4,0.5,2.8,0.8,4.2L92.4,278.9z M268.1,273.2l-3.9-0.6
				c0.2-1.4,0.4-2.8,0.5-4.3l3.9,0.4C268.5,270.2,268.3,271.7,268.1,273.2z M91,270c-0.2-1.5-0.3-3-0.4-4.5l3.9-0.3
				c0.1,1.4,0.2,2.9,0.4,4.3L91,270z M269,264.2l-3.9-0.2c0.1-1.4,0.1-2.9,0.1-4.3c0-0.8,0-1.6,0-2.4l3.9-0.1c0,0.8,0,1.7,0,2.5
				C269.1,261.2,269.1,262.7,269,264.2z M90.4,261c0-0.4,0-0.8,0-1.3c0-1.1,0-2.2,0.1-3.2l3.9,0.1c0,1-0.1,2.1-0.1,3.1
				c0,0.4,0,0.8,0,1.2L90.4,261z M264.9,253c-0.1-1.4-0.3-2.9-0.4-4.3l3.9-0.5c0.2,1.5,0.3,3,0.5,4.5L264.9,253z M94.6,252.3
				l-3.9-0.3c0.1-1.5,0.3-3,0.5-4.5l3.9,0.5C94.9,249.4,94.8,250.9,94.6,252.3z M263.8,244.5c-0.3-1.4-0.5-2.8-0.9-4.2l3.8-0.9
				c0.3,1.5,0.6,2.9,0.9,4.4L263.8,244.5z M95.8,243.8l-3.9-0.7c0.3-1.5,0.6-2.9,0.9-4.4l3.8,0.9C96.4,240.9,96.1,242.4,95.8,243.8z
				 M261.9,236.1c-0.4-1.4-0.8-2.7-1.3-4.1l3.7-1.3c0.5,1.4,0.9,2.9,1.4,4.3L261.9,236.1z M97.8,235.4l-3.8-1.1
				c0.4-1.4,0.9-2.9,1.4-4.3l3.7,1.3C98.7,232.6,98.2,234,97.8,235.4z M259.1,227.9c-0.5-1.3-1.1-2.7-1.7-4l3.6-1.6
				c0.6,1.3,1.2,2.7,1.8,4.1L259.1,227.9z M100.7,227.3l-3.6-1.5c0.6-1.4,1.2-2.8,1.8-4.1l3.6,1.7
				C101.8,224.6,101.2,225.9,100.7,227.3z M255.5,220.1c-0.7-1.3-1.4-2.5-2.1-3.8l3.4-2c0.8,1.3,1.5,2.6,2.2,3.9L255.5,220.1z
				 M104.4,219.5l-3.5-1.9c0.7-1.3,1.5-2.6,2.2-3.9l3.4,2C105.8,216.9,105.1,218.2,104.4,219.5z M251.1,212.7
				c-0.8-1.2-1.6-2.4-2.5-3.5l3.2-2.3c0.9,1.2,1.8,2.4,2.6,3.7L251.1,212.7z M108.8,212.1l-3.3-2.2c0.8-1.2,1.7-2.5,2.6-3.7l3.2,2.4
				C110.5,209.7,109.6,210.9,108.8,212.1z M246,205.8c-0.9-1.1-1.9-2.2-2.8-3.3l2.9-2.6c1,1.1,2,2.3,2.9,3.4L246,205.8z M114,205.2
				l-3-2.5c1-1.2,2-2.3,3-3.4l2.9,2.7C115.9,203,114.9,204.1,114,205.2z M240.2,199.4c-1-1-2.1-2-3.1-3l2.6-2.9
				c1.1,1,2.2,2.1,3.3,3.1L240.2,199.4z M119.8,198.8l-2.8-2.8c1.1-1.1,2.2-2.1,3.3-3.1l2.6,2.9
				C121.9,196.8,120.8,197.8,119.8,198.8z M233.8,193.6c-1.1-0.9-2.2-1.8-3.4-2.6l2.3-3.2c1.2,0.9,2.4,1.8,3.6,2.8L233.8,193.6z
				 M126.3,193.1l-2.5-3.1c1.2-0.9,2.4-1.9,3.6-2.7l2.3,3.2C128.5,191.3,127.4,192.2,126.3,193.1z M226.9,188.4
				c-1.2-0.8-2.4-1.6-3.7-2.3l2-3.4c1.3,0.8,2.6,1.6,3.8,2.4L226.9,188.4z M133.2,188l-2.1-3.3c1.3-0.8,2.5-1.6,3.8-2.4l2,3.4
				C135.7,186.5,134.4,187.3,133.2,188z M219.5,184.1c-1.3-0.7-2.6-1.3-3.9-1.9l1.7-3.6c1.4,0.6,2.7,1.3,4,2L219.5,184.1z
				 M140.7,183.7l-1.8-3.5c1.3-0.7,2.7-1.3,4.1-2l1.6,3.6C143.3,182.4,141.9,183.1,140.7,183.7z M211.6,180.4c-1.3-0.5-2.7-1-4-1.5
				l1.3-3.7c1.4,0.5,2.8,1,4.2,1.6L211.6,180.4z M148.5,180.2l-1.4-3.7c1.4-0.6,2.8-1.1,4.2-1.5l1.3,3.7
				C151.2,179.1,149.9,179.6,148.5,180.2z M203.5,177.6c-1.4-0.4-2.8-0.8-4.2-1.1l0.9-3.8c1.5,0.3,2.9,0.7,4.4,1.1L203.5,177.6z
				 M156.7,177.4l-1.1-3.8c1.4-0.4,2.9-0.8,4.4-1.1l0.9,3.8C159.5,176.7,158.1,177,156.7,177.4z M195.1,175.6
				c-1.4-0.3-2.8-0.5-4.3-0.7l0.5-3.9c1.5,0.2,3,0.4,4.5,0.7L195.1,175.6z M165.1,175.5l-0.7-3.9c1.5-0.3,3-0.5,4.5-0.7l0.5,3.9
				C167.9,175.1,166.5,175.3,165.1,175.5z M186.6,174.5c-1.4-0.1-2.9-0.2-4.3-0.2l0.1-3.9c1.5,0,3,0.1,4.5,0.2L186.6,174.5z
				 M173.6,174.5l-0.3-3.9c1.5-0.1,3-0.2,4.5-0.2l0.1,3.9C176.5,174.3,175.1,174.4,173.6,174.5z"/>
		</g>
		<g id="XMLID_5731_">
			<g id="XMLID_5733_">
				<path class="st3" d="M391,133.2c12.9-10.1,15.3-28.7,5.2-41.7c-10.1-12.9-28.7-15.3-41.7-5.2c-11.2,8.7-14.4,23.8-8.7,36.1
					l-10.6,16.3c-0.3,0.4,0.1,1,0.6,0.8l18.3-6.5C364.7,141.3,379.9,141.8,391,133.2z"/>
			</g>
			<g id="XMLID_5732_">
				<path class="st2" d="M372.8,140.8c-6.6,0-13.2-2.1-18.7-6.3l-17.6,6.2c-0.7,0.3-1.6,0-2-0.6c-0.5-0.6-0.5-1.5-0.1-2.1l10.2-15.7
					c-5.7-12.9-1.8-28.3,9.3-37c6.5-5.1,14.7-7.3,22.9-6.3c8.2,1,15.5,5.2,20.6,11.7c5.1,6.5,7.3,14.7,6.3,22.9
					c-1,8.2-5.2,15.5-11.7,20.6C386.2,138.6,379.5,140.8,372.8,140.8z M354.5,131.5l0.6,0.5c10.3,8.2,24.7,8.3,35.1,0.2l0,0
					c6-4.7,9.8-11.4,10.8-18.9c0.9-7.5-1.1-15-5.7-21c-4.7-6-11.4-9.8-18.9-10.8c-7.5-1-15,1.1-21,5.7c-10.4,8.1-13.9,22.6-8.3,34.5
					l0.3,0.7l-9.7,15L354.5,131.5z"/>
			</g>
			<g>
				
					<ellipse transform="matrix(0.9252 -0.3794 0.3794 0.9252 -13.7744 149.5908)" class="st4" cx="372.6" cy="109.7" rx="24.3" ry="24.3"/>
			</g>
			<g>
				<path class="st2" d="M372.6,114.4c-2.6,0-4.7-2.1-4.7-4.7c0-2.6,2.1-4.7,4.7-4.7c2.6,0,4.7,2.1,4.7,4.7
					C377.3,112.3,375.2,114.4,372.6,114.4z M372.6,107.7c-1.1,0-2.1,0.9-2.1,2.1c0,1.1,0.9,2.1,2.1,2.1c1.1,0,2.1-0.9,2.1-2.1
					C374.7,108.6,373.8,107.7,372.6,107.7z"/>
			</g>
			<g>
				<path class="st2" d="M386.5,114.4c-2.6,0-4.7-2.1-4.7-4.7c0-2.6,2.1-4.7,4.7-4.7c2.6,0,4.7,2.1,4.7,4.7
					C391.2,112.3,389.1,114.4,386.5,114.4z M386.5,107.7c-1.1,0-2.1,0.9-2.1,2.1c0,1.1,0.9,2.1,2.1,2.1c1.1,0,2.1-0.9,2.1-2.1
					C388.6,108.6,387.6,107.7,386.5,107.7z"/>
			</g>
			<g>
				<path class="st2" d="M358.8,114.4c-2.6,0-4.7-2.1-4.7-4.7c0-2.6,2.1-4.7,4.7-4.7c2.6,0,4.7,2.1,4.7,4.7
					C363.4,112.3,361.3,114.4,358.8,114.4z M358.8,107.7c-1.1,0-2.1,0.9-2.1,2.1c0,1.1,0.9,2.1,2.1,2.1c1.1,0,2.1-0.9,2.1-2.1
					C360.8,108.6,359.9,107.7,358.8,107.7z"/>
			</g>
		</g>
		<g>
			<g id="XMLID_5804_">
				<g id="XMLID_5805_">
					<g id="XMLID_5812_">
						<path class="st3" d="M294.8,123.4l56.7,56.7v198c0,9-7.3,16.2-16.2,16.2H166c-9,0-16.2-7.3-16.2-16.2V139.6
							c0-9,7.3-16.2,16.2-16.2H294.8z"/>
					</g>
					<g id="XMLID_5811_">
						<polygon class="st4" points="294.8,180.1 294.8,123.4 351.5,180.1 						"/>
					</g>
					<g id="XMLID_5810_">
						<path class="st2" d="M351.5,184.1h-51c-5.3,0-9.6-4.3-9.6-9.6v-51h7.9v51c0,0.9,0.8,1.7,1.7,1.7h51V184.1z"/>
					</g>
				</g>
			</g>
			<g id="XMLID_5803_">
				<g>
					<path class="st2" d="M335.3,398.2H166c-11.1,0-20.1-9-20.1-20.1V139.6c0-11.1,9-20.1,20.1-20.1h130.4l59,59v199.6
						C355.4,389.2,346.4,398.2,335.3,398.2z M166,127.3c-6.8,0-12.3,5.5-12.3,12.3v238.5c0,6.8,5.5,12.3,12.3,12.3h169.3
						c6.8,0,12.3-5.5,12.3-12.3V181.7l-54.4-54.4H166z"/>
				</g>
			</g>
		</g>
		<g id="XMLID_5729_">
			<path class="st5" d="M291.9,248.1h-53.7c-0.8,0-1.4-0.6-1.4-1.4v-10.9c0-0.8,0.6-1.4,1.4-1.4h53.7c3.8,0,6.8,3,6.8,6.8l0,0
				C298.7,245,295.7,248.1,291.9,248.1z"/>
		</g>
		<g id="XMLID_5747_">
			<path class="st5" d="M291.9,267.1h-42.7c-0.8,0-1.4-0.6-1.4-1.4v-10.9c0-0.8,0.6-1.4,1.4-1.4h42.7c3.8,0,6.8,3,6.8,6.8l0,0
				C298.7,264.1,295.7,267.1,291.9,267.1z"/>
		</g>
		<g id="XMLID_5748_">
			<path class="st5" d="M291.9,229h-42.7c-0.8,0-1.4-0.6-1.4-1.4v-10.9c0-0.8,0.6-1.4,1.4-1.4h42.7c3.8,0,6.8,3,6.8,6.8v0
				C298.7,226,295.7,229,291.9,229z"/>
		</g>
		<g id="XMLID_5736_">
			<g id="XMLID_5746_">
				
					<rect x="324.5" y="271.9" transform="matrix(0.7071 -0.7071 0.7071 0.7071 -103.679 314.1341)" class="st2" width="5.7" height="20.6"/>
			</g>
			<g id="XMLID_5743_">
				<path class="st1" d="M251.6,206.5c-19.4,19.4-19.4,50.9,0,70.3c19.4,19.4,50.9,19.4,70.3,0c19.4-19.4,19.4-50.9,0-70.3
					C302.5,187.1,271,187.1,251.6,206.5z M313.4,268.3c-14.7,14.7-38.6,14.7-53.4,0c-14.7-14.7-14.7-38.6,0-53.4
					c14.7-14.7,38.6-14.7,53.4,0C328.2,229.7,328.2,253.6,313.4,268.3z"/>
			</g>
			<g id="XMLID_5742_">
				<path class="st2" d="M286.7,294.1c-13.5,0-26.9-5.1-37.2-15.4c-20.5-20.5-20.5-53.8,0-74.3l0,0c9.9-9.9,23.1-15.4,37.2-15.4
					c14,0,27.2,5.5,37.2,15.4c20.5,20.5,20.5,53.8,0,74.3C313.7,289,300.2,294.1,286.7,294.1z M253.6,208.5
					c-18.3,18.3-18.3,48,0,66.2c18.3,18.3,48,18.3,66.2,0c18.3-18.3,18.3-48,0-66.2c-8.8-8.8-20.6-13.7-33.1-13.7
					C274.2,194.8,262.5,199.7,253.6,208.5L253.6,208.5z"/>
			</g>
			<g id="XMLID_800_" class="st6">
				<path class="st2" d="M286.7,298.2c-13.5,0-26.9-5.1-37.2-15.4c-20.5-20.5-20.5-53.8,0-74.3l0,0c9.9-9.9,23.1-15.4,37.2-15.4
					c14,0,27.2,5.5,37.2,15.4c20.5,20.5,20.5,53.8,0,74.3C313.7,293,300.2,298.2,286.7,298.2z M253.6,212.5
					c-18.3,18.3-18.3,48,0,66.2c18.3,18.3,48,18.3,66.2,0c18.3-18.3,18.3-48,0-66.2c-8.8-8.8-20.6-13.7-33.1-13.7
					C274.2,198.8,262.5,203.7,253.6,212.5L253.6,212.5z"/>
			</g>
			<g id="XMLID_5730_" class="st6">
				<path class="st2" d="M369.9,343.5c-2.1,0-4.1-0.8-5.6-2.3l-45-45l17.9-17.9l24.8,24.8l-4,4.1l-20.8-20.8l-9.8,9.8l40.9,40.9
					c0.8,0.8,2.2,0.8,3.1,0l6.8-6.8c0.4-0.4,0.6-0.9,0.6-1.5c0-0.6-0.2-1.1-0.6-1.5l-6.5-6.5l4.1-4l6.5,6.5c3.1,3.1,3.1,8.1,0,11.2
					l-6.8,6.8C374,342.7,372,343.5,369.9,343.5z"/>
			</g>
			<g id="XMLID_5740_">
				
					<rect x="343.8" y="275.6" transform="matrix(0.7071 -0.7071 0.7071 0.7071 -114.5518 340.3898)" class="st7" width="19.6" height="65.8"/>
			</g>
			<g id="XMLID_5739_">
				<path class="st2" d="M369.9,339.5c-2.1,0-4.1-0.8-5.6-2.3l-45-45l17.9-17.9l24.8,24.8l-4,4.1l-20.8-20.8l-9.8,9.8l40.9,40.9
					c0.8,0.8,2.2,0.8,3.1,0l6.8-6.8c0.4-0.4,0.6-0.9,0.6-1.5c0-0.6-0.2-1.1-0.6-1.5l-6.5-6.5l4.1-4l6.5,6.5c3.1,3.1,3.1,8.1,0,11.2
					l-6.8,6.8C374,338.6,372,339.5,369.9,339.5z"/>
			</g>
			<g id="XMLID_5738_">
				
					<rect x="364.4" y="303.1" transform="matrix(0.7072 -0.707 0.707 0.7072 -110.3922 349.8955)" class="st2" width="5.7" height="10.3"/>
			</g>
			<g id="XMLID_5737_">
				
					<rect x="330" y="292.3" transform="matrix(0.7071 -0.7071 0.7071 0.7071 -109.0558 327.0905)" class="st2" width="20.6" height="5.7"/>
			</g>
		</g>
		<g>
			<path class="st4" d="M200.2,214.2c0-8.7-7.1-15.8-15.8-15.8c-8.7,0-15.8,7.1-15.8,15.8c0,8.7,7.1,15.8,15.8,15.8
				c4.1,0,7.9-1.6,10.7-4.2v1.4c0,1.4,1.1,2.5,2.5,2.5c1.4,0,2.5-1.1,2.5-2.5L200.2,214.2L200.2,214.2z M195.2,214.2
				c0,5.9-4.8,10.7-10.7,10.7c-5.9,0-10.7-4.8-10.7-10.7c0-5.9,4.8-10.7,10.7-10.7C190.4,203.5,195.2,208.3,195.2,214.2L195.2,214.2
				z"/>
		</g>
		<g id="XMLID_5741_">
			<path class="st8" d="M307.4,262.3L307.4,262.3c-1-1-1.1-2.6-0.2-3.6c4-4.8,6.1-10.7,6.1-17c0-6.3-2.2-12.3-6.1-17
				c-0.9-1.1-0.8-2.7,0.2-3.6l0,0c1.1-1.1,3-1,4,0.2c4.8,5.7,7.4,12.9,7.4,20.5c0,7.6-2.6,14.7-7.4,20.5
				C310.4,263.3,308.6,263.4,307.4,262.3z"/>
		</g>
		<path class="st2" d="M224.5,238.4H171c-1.5,0-2.8,1.3-2.8,2.8v0.1c0,1.5,1.3,2.8,2.8,2.8h53.5c1.6,0,2.8-1.3,2.8-2.8
			c0,0,0,0,0-0.1C227.3,239.7,226.1,238.4,224.5,238.4z"/>
		<g>
			<path class="st2" d="M214.8,329.4H171c-1.5,0-2.8,1.3-2.8,2.8v0.1c0,1.5,1.3,2.8,2.8,2.8h43.8c1.6,0,2.8-1.3,2.8-2.8
				c0,0,0,0,0-0.1C217.6,330.7,216.4,329.4,214.8,329.4z"/>
			<path class="st2" d="M214.8,346.5H171c-1.5,0-2.8,1.3-2.8,2.8v0.1c0,1.5,1.3,2.8,2.8,2.8h43.8c1.6,0,2.8-1.3,2.8-2.8
				c0,0,0,0,0-0.1C217.6,347.8,216.4,346.5,214.8,346.5z"/>
			<path class="st2" d="M214.8,363.6H171c-1.5,0-2.8,1.3-2.8,2.8v0.1c0,1.5,1.3,2.8,2.8,2.8h43.8c1.6,0,2.8-1.3,2.8-2.8
				c0,0,0,0,0-0.1C217.6,364.8,216.4,363.6,214.8,363.6z"/>
		</g>
		<path class="st2" d="M226.8,221.4h-18.6c-1.5,0-2.8,1.3-2.8,2.8v0.1c0,1.5,1.3,2.8,2.8,2.8h18.6c1.3,0,2.4-0.8,2.7-2.1
			c0,0,0-0.1,0-0.1C230,223.1,228.7,221.4,226.8,221.4z"/>
		<path class="st2" d="M234.2,204.3h-26c-1.5,0-2.8,1.3-2.8,2.8v0.1c0,1.5,1.3,2.8,2.8,2.8h25.9c1,0,1.9-0.5,2.4-1.4
			c0,0,0-0.1,0-0.1C237.7,206.7,236.4,204.3,234.2,204.3z"/>
		<path class="st2" d="M248.2,289.6h-77.5c-1.5,0-2.8,1.3-2.8,2.8v0.1c0,1.5,1.3,2.8,2.8,2.8h77.7c2.6,0,3.8-3.3,1.8-4.9
			c0,0-0.1-0.1-0.1-0.1C249.5,289.8,248.8,289.6,248.2,289.6z"/>
		<path class="st2" d="M226.6,255.5h-56c-1.5,0-2.8,1.3-2.8,2.8v0.1c0,1.5,1.3,2.8,2.8,2.8h56.1c1.8,0,3.2-1.7,2.7-3.5
			c0,0,0-0.1,0-0.1C229,256.3,227.9,255.5,226.6,255.5z"/>
		<path class="st2" d="M233.7,272.5h-63.1c-1.5,0-2.8,1.3-2.8,2.8v0.1c0,1.5,1.3,2.8,2.8,2.8h63.2c2.2,0,3.5-2.4,2.4-4.3
			c0,0,0,0,0-0.1C235.6,273.1,234.7,272.5,233.7,272.5z"/>
		<path class="st2" d="M233.7,149.8h-63.1c-1.5,0-2.8,1.3-2.8,2.8v0.1c0,1.5,1.3,2.8,2.8,2.8h63.2c2.2,0,3.5-2.4,2.4-4.3
			c0,0,0,0,0-0.1C235.6,150.3,234.7,149.8,233.7,149.8z"/>
		<path class="st2" d="M307.7,306.7H170.6c-1.5,0-2.8,1.3-2.8,2.8v0.1c0,1.5,1.3,2.8,2.8,2.8h137.1c2.2,0,3.5-2.4,2.4-4.3
			c0,0,0,0,0-0.1C309.6,307.2,308.7,306.7,307.7,306.7z"/>
		<g>
			<g>
				<defs>
					<path id="XMLID_83_" d="M297.9,366h-57.9c-2.2,0-3.9-1.8-3.9-3.9v-25.4c0-2.2,1.8-3.9,3.9-3.9h57.9c2.2,0,3.9,1.8,3.9,3.9v25.4
						C301.8,364.2,300,366,297.9,366z"/>
				</defs>
				<clipPath id="XMLID_2_">
					<use xlink:href="#XMLID_83_"  style="overflow:visible;"/>
				</clipPath>
				<g class="st9">
					<path id="XMLID_193_" class="st7" d="M297.9,366h-57.9c-2.2,0-3.9-1.8-3.9-3.9v-25.4c0-2.2,1.8-3.9,3.9-3.9h57.9
						c2.2,0,3.9,1.8,3.9,3.9v25.4C301.8,364.2,300,366,297.9,366z"/>
					<polygon id="XMLID_110_" class="st1" points="269.4,367.7 254.7,348.7 239.2,367.7 					"/>
					<g id="XMLID_109_">
						<polygon class="st2" points="240.2,368.5 238.2,366.9 254.7,346.7 260.2,353.8 258.3,355.4 254.7,350.8 						"/>
					</g>
					<polygon id="XMLID_108_" class="st0" points="290.3,367.3 271.4,343 251.4,367.3 					"/>
					<path id="XMLID_106_" class="st3" d="M295.3,349.5c0-0.4-0.3-0.8-0.8-0.8c-0.1,0-0.2,0-0.3,0.1c-0.1-0.3-0.4-0.5-0.8-0.6
						c0-0.1,0-0.1,0-0.2c0-0.7-0.6-1.3-1.3-1.3c-0.3,0-0.6,0.1-0.9,0.3c-0.1-1.2-1.1-2.2-2.3-2.2c-1.1,0-2,0.7-2.3,1.7
						c-0.1,0-0.2,0-0.3,0c-0.8,0-1.4,0.5-1.6,1.2c-0.2-0.1-0.4-0.1-0.5-0.1c-0.8,0-1.5,0.7-1.5,1.5c0,0.3,0.1,0.5,0.2,0.7h12.1
						C295.2,349.7,295.3,349.6,295.3,349.5z"/>
					<path id="XMLID_195_" class="st3" d="M248.1,351c0-0.2-0.2-0.4-0.4-0.4c-0.1,0-0.1,0-0.2,0c-0.1-0.2-0.2-0.3-0.4-0.3
						c0,0,0-0.1,0-0.1c0-0.4-0.3-0.7-0.7-0.7c-0.2,0-0.4,0.1-0.5,0.2c0-0.7-0.6-1.2-1.3-1.2c-0.6,0-1.1,0.4-1.3,1
						c-0.1,0-0.1,0-0.2,0c-0.4,0-0.8,0.3-0.9,0.7c-0.1,0-0.2-0.1-0.3-0.1c-0.5,0-0.8,0.4-0.8,0.8c0,0.2,0.1,0.3,0.1,0.4h6.8
						C248.1,351.2,248.1,351.1,248.1,351z"/>
					<path id="XMLID_105_" class="st3" d="M265.1,344.3c0-0.4-0.3-0.7-0.7-0.7c-0.1,0-0.2,0-0.3,0.1c-0.1-0.3-0.4-0.4-0.7-0.5
						c0-0.1,0-0.1,0-0.2c0-0.6-0.5-1.1-1.1-1.1c-0.3,0-0.5,0.1-0.7,0.3c-0.1-1.1-0.9-1.9-2-1.9c-0.9,0-1.7,0.6-2,1.5
						c-0.1,0-0.2,0-0.3,0c-0.6,0-1.2,0.4-1.3,1c-0.1-0.1-0.3-0.1-0.5-0.1c-0.7,0-1.3,0.6-1.3,1.3c0,0.2,0.1,0.4,0.2,0.6H265
						C265,344.5,265.1,344.4,265.1,344.3z"/>
					<g id="XMLID_196_">
						<polygon class="st2" points="252.4,368.1 250.4,366.5 271.4,341 291.3,366.5 289.3,368.1 271.3,345 						"/>
					</g>
				</g>
			</g>
			<g id="XMLID_112_">
				<path class="st2" d="M298,375.2h-58.2c-6.9,0-12.5-5.6-12.5-12.5V336c0-6.9,5.6-12.5,12.5-12.5H298c6.9,0,12.5,5.6,12.5,12.5
					v26.6C310.5,369.6,304.9,375.2,298,375.2z M239.8,328.2c-4.3,0-7.8,3.5-7.8,7.8v26.6c0,4.3,3.5,7.8,7.8,7.8H298
					c4.3,0,7.8-3.5,7.8-7.8V336c0-4.3-3.5-7.8-7.8-7.8H239.8z"/>
			</g>
		</g>
	</g>
	<g>
		<circle class="st8" cx="97.1" cy="259.7" r="27.5"/>
		<g>
			<path class="st2" d="M97.1,289.7c-7.4,0-14.5-2.7-20-7.6l3.3-3.7c4.6,4.1,10.5,6.4,16.7,6.4c13.8,0,25.1-11.3,25.1-25.1
				c0-13.8-11.3-25.1-25.1-25.1c-6.7,0-13,2.6-17.7,7.3l-3.5-3.5c5.7-5.7,13.2-8.8,21.2-8.8c16.5,0,30,13.5,30,30
				C127.1,276.3,113.7,289.7,97.1,289.7z"/>
		</g>
		<g>
			<polygon class="st2" points="94.1,269.9 83.5,259.4 87.2,255.6 94.1,262.5 107,249.5 110.7,253.3 			"/>
		</g>
	</g>
	<path class="st7" d="M172.7,97.3H136c-6.8,0-12.3,5.5-12.3,12.3v17.7c0,2.1-1.7,3.9-3.9,3.9h0c-2.1,0-3.9-1.7-3.9-3.9v-17.7
		c0-11.1,9-20.1,20.1-20.1h36.7c2.8,0,4.7,2.8,3.6,5.4v0C175.7,96.3,174.2,97.3,172.7,97.3z"/>
	<path class="st4" d="M328.6,420.2h36.7c6.8,0,12.3-5.5,12.3-12.3v-17.7c0-2.1,1.7-3.9,3.9-3.9l0,0c2.1,0,3.9,1.7,3.9,3.9v17.7
		c0,11.1-9,20.1-20.1,20.1h-36.7c-2.8,0-4.7-2.8-3.6-5.4l0,0C325.6,421.1,327,420.2,328.6,420.2z"/>
	<g>
		<g id="XMLID_31_">
			<g id="XMLID_32_">
				<path class="st10" d="M383.7,273h5.7v-11.5c0-5.7,4.7-10.4,10.4-10.4c5.7,0,10.4,4.7,10.4,10.4V273h5.7v-11.5
					c0-8.9-7.2-16.1-16.1-16.1c-8.9,0-16.1,7.2-16.1,16.1V273z"/>
			</g>
		</g>
		<g id="XMLID_29_">
			<g id="XMLID_30_">
				<path class="st2" d="M417.1,274.2H409v-12.7c0-5.1-4.1-9.2-9.2-9.2c-5.1,0-9.2,4.1-9.2,9.2v12.7h-8.1v-12.7
					c0-9.5,7.8-17.3,17.3-17.3c9.5,0,17.3,7.8,17.3,17.3V274.2z M411.4,271.8h3.2v-10.2c0-8.2-6.7-14.9-14.9-14.9
					s-14.9,6.7-14.9,14.9v10.2h3.3v-10.2c0-6.4,5.2-11.6,11.6-11.6c6.4,0,11.6,5.2,11.6,11.6V271.8z"/>
			</g>
		</g>
		<g id="XMLID_28_">
			<circle class="st3" cx="399.9" cy="283.6" r="20.8"/>
		</g>
		<g id="XMLID_596_">
			
				<ellipse transform="matrix(0.9734 -0.229 0.229 0.9734 -54.3249 99.123)" class="st7" cx="399.9" cy="283.6" rx="11.8" ry="11.8"/>
		</g>
		<g id="XMLID_27_">
			<path class="st4" d="M395,283.6c0,2.7,2.2,4.9,4.9,4.9c2.7,0,4.9-2.2,4.9-4.9c0-2.7-2.2-4.9-4.9-4.9
				C397.2,278.7,395,280.9,395,283.6z"/>
		</g>
		<g id="XMLID_26_">
			<circle class="st2" cx="399.9" cy="283.6" r="1.9"/>
		</g>
		<g id="XMLID_593_">
			<path class="st2" d="M399.9,289.7c-3.4,0-6.1-2.8-6.1-6.1s2.8-6.1,6.1-6.1c3.4,0,6.1,2.7,6.1,6.1S403.3,289.7,399.9,289.7z
				 M399.9,279.9c-2,0-3.7,1.7-3.7,3.7c0,2,1.7,3.7,3.7,3.7c2,0,3.7-1.7,3.7-3.7C403.6,281.6,401.9,279.9,399.9,279.9z"/>
		</g>
		<g id="XMLID_25_">
			<path class="st2" d="M399.9,305.6c-6.6,0-12.9-3-17.1-8.1l1.9-1.5c3.7,4.6,9.3,7.2,15.2,7.2c10.8,0,19.6-8.8,19.6-19.6
				c0-10.8-8.8-19.6-19.6-19.6s-19.6,8.8-19.6,19.6c0,2.1,0.3,4.1,1,6.1l-2.3,0.8c-0.7-2.2-1.1-4.5-1.1-6.8c0-12.1,9.9-22,22-22
				c12.1,0,22,9.9,22,22C421.9,295.7,412,305.6,399.9,305.6z"/>
		</g>
		<g id="XMLID_591_">
			<path class="st2" d="M381.4,295.5c-0.3-0.5-0.6-1-0.9-1.5l2.1-1.2c0.2,0.5,0.5,0.9,0.8,1.3L381.4,295.5z"/>
		</g>
		<g id="XMLID_590_">
			<rect x="398.6" y="274.4" class="st2" width="2.4" height="2.7"/>
		</g>
		<g id="XMLID_589_">
			
				<rect x="394.7" y="275.5" transform="matrix(0.8659 -0.5002 0.5002 0.8659 -85.3837 235.1125)" class="st2" width="2.4" height="2.7"/>
		</g>
		<g id="XMLID_588_">
			
				<rect x="391.8" y="278.4" transform="matrix(0.5002 -0.8659 0.8659 0.5002 -45.7758 480.1588)" class="st2" width="2.4" height="2.7"/>
		</g>
		<g id="XMLID_587_">
			<rect x="390.7" y="282.5" class="st2" width="2.7" height="2.4"/>
		</g>
		<g id="XMLID_586_">
			
				<rect x="391.8" y="286.4" transform="matrix(0.8662 -0.4998 0.4998 0.8662 -91.1171 234.9559)" class="st2" width="2.7" height="2.4"/>
		</g>
		<g id="XMLID_585_">
			
				<rect x="394.7" y="289.2" transform="matrix(0.5006 -0.8657 0.8657 0.5006 -53.6604 487.8723)" class="st2" width="2.7" height="2.4"/>
		</g>
		<g id="XMLID_75_">
			<rect x="398.7" y="290.1" class="st2" width="2.4" height="2.7"/>
		</g>
		<g id="XMLID_583_">
			
				<rect x="402.6" y="289" transform="matrix(0.8663 -0.4995 0.4995 0.8663 -91.0501 240.5379)" class="st2" width="2.4" height="2.7"/>
		</g>
		<g id="XMLID_582_">
			
				<rect x="405.5" y="286.1" transform="matrix(0.5008 -0.8655 0.8655 0.5008 -45.8045 495.52)" class="st2" width="2.4" height="2.7"/>
		</g>
		<g id="XMLID_581_">
			<rect x="406.4" y="282.3" class="st2" width="2.7" height="2.4"/>
		</g>
		<g id="XMLID_580_">
			
				<rect x="405.3" y="278.4" transform="matrix(0.8667 -0.4988 0.4988 0.8667 -85.2703 240.0911)" class="st2" width="2.7" height="2.4"/>
		</g>
		<g id="XMLID_579_">
			
				<rect x="402.4" y="275.5" transform="matrix(0.5006 -0.8657 0.8657 0.5006 -37.946 487.7439)" class="st2" width="2.7" height="2.4"/>
		</g>
	</g>
</g>
</svg>
