<svg height="512" viewBox="0 0 512 512" width="512" xmlns="http://www.w3.org/2000/svg"><g id="Reject-2" data-name="Reject"><path d="m48 16h336v480h-336z" fill="#e0e0e2"/><path d="m80 64h112v112h-112z" fill="#ffda44"/><circle cx="384" cy="392" fill="#d80027" r="80"/><circle cx="136" cy="104" fill="#d9ccbc" r="24"/><path d="m176 176h-80v-8a32 32 0 0 1 32-32h16a32 32 0 0 1 32 32z" fill="#3d9ae2"/><path d="m80 208h272v32h-272z" fill="#ffda44"/><path d="m472 392a88.118 88.118 0 0 0 -80-87.633v-288.367a8 8 0 0 0 -8-8h-336a8 8 0 0 0 -8 8v480a8 8 0 0 0 8 8h336a8 8 0 0 0 8-8v-16.367a88.118 88.118 0 0 0 80-87.633zm-416 96v-464h320v280.367a88 88 0 0 0 0 175.266v8.367zm328-24a72 72 0 1 1 72-72 72.081 72.081 0 0 1 -72 72z"/><path d="m80 184h112a8 8 0 0 0 8-8v-112a8 8 0 0 0 -8-8h-112a8 8 0 0 0 -8 8v112a8 8 0 0 0 8 8zm24-16a24.027 24.027 0 0 1 24-24h16a24.027 24.027 0 0 1 24 24zm32-48a16 16 0 1 1 16-16 16.019 16.019 0 0 1 -16 16zm-48-48h96v96a40.062 40.062 0 0 0 -28.823-38.4 32 32 0 1 0 -38.354 0 40.062 40.062 0 0 0 -28.823 38.4z"/><path d="m224 112h128a8 8 0 0 0 0-16h-128a8 8 0 0 0 0 16z"/><path d="m224 136h128a8 8 0 0 0 0-16h-128a8 8 0 0 0 0 16z"/><path d="m224 160h48a8 8 0 0 0 0-16h-48a8 8 0 0 0 0 16z"/><path d="m296 144a8 8 0 0 0 0 16h8a8 8 0 0 0 0-16z"/><path d="m208 264h-128a8 8 0 0 0 0 16h128a8 8 0 0 0 0-16z"/><path d="m208 288h-128a8 8 0 0 0 0 16h128a8 8 0 0 0 0-16z"/><path d="m128 312h-48a8 8 0 0 0 0 16h48a8 8 0 0 0 0-16z"/><path d="m160 312h-8a8 8 0 0 0 0 16h8a8 8 0 0 0 0-16z"/><path d="m80 248h272a8 8 0 0 0 8-8v-32a8 8 0 0 0 -8-8h-272a8 8 0 0 0 -8 8v32a8 8 0 0 0 8 8zm8-32h256v16h-256z"/><path d="m429.657 346.343a8 8 0 0 0 -11.314 0l-34.343 34.344-34.343-34.344a8 8 0 0 0 -11.314 11.314l34.344 34.343-34.344 34.343a8 8 0 0 0 11.314 11.314l34.343-34.344 34.343 34.344a8 8 0 0 0 11.314-11.314l-34.344-34.343 34.344-34.343a8 8 0 0 0 0-11.314z"/></g></svg>