<?xml version="1.0" encoding="utf-8"?>
<!-- Generator: Adobe Illustrator 22.1.0, SVG Export Plug-In . SVG Version: 6.00 Build 0)  -->
<svg version="1.1" id="apps_development" xmlns="http://www.w3.org/2000/svg" xmlns:xlink="http://www.w3.org/1999/xlink" x="0px"
	 y="0px" viewBox="0 0 500 428" style="enable-background:new 0 0 500 428;" xml:space="preserve">
<style type="text/css">
	.st0{fill:#FF5B40;}
	.st1{fill:#2D333A;}
	.st2{fill:#FFFFFF;}
	.st3{fill:#DCE4E8;}
	.st4{fill:#00BFFF;}
	.st5{fill:#FFB13E;}
</style>
<g id="XMLID_3786_">
	<g id="XMLID_15821_">
		<path class="st0" d="M427.2,137H73.3c-5.5,0-9.9,4.4-9.9,9.9v270.9h354.2c11.1,0,20.1-9,20.1-20.1V147.4
			C437.6,141.6,433,137,427.2,137z"/>
	</g>
	<g id="XMLID_15817_">
		<path class="st1" d="M408.2,423H63.4v-10.4h344.8c13.3,0,24.2-10.8,24.2-24.2V152.2c0-5.5-4.5-10-10-10h-23v-10.4h23
			c11.3,0,20.4,9.2,20.4,20.4v236.2C442.8,407.5,427.3,423,408.2,423z"/>
	</g>
	<g id="XMLID_15019_">
		<rect x="89.1" y="131.8" class="st1" width="209.3" height="10.4"/>
	</g>
	<g id="XMLID_15016_">
		<g id="XMLID_15018_">
			<path class="st2" d="M303.6,31.9l74.5,74.5v260.2c0,11.8-9.5,21.3-21.3,21.3H134.2c-11.8,0-21.3-9.5-21.3-21.3V53.3
				c0-11.8,9.5-21.3,21.3-21.3H303.6z"/>
		</g>
		<g id="XMLID_15017_">
			<path class="st1" d="M356.8,393.3H134.2v-10.4h222.6c8.9,0,16.1-7.2,16.1-16.1V108.6l-71.5-71.5H134.2c-8.9,0-16.1,7.2-16.1,16.1
				v106.1h-10.4V53.3c0-14.6,11.9-26.6,26.6-26.6h171.5l77.6,77.6v262.4C383.3,381.4,371.4,393.3,356.8,393.3z"/>
		</g>
	</g>
	<g id="XMLID_15011_">
		<g id="XMLID_15015_">
			<path class="st3" d="M347,10.2l74.5,74.5V345c0,11.8-9.5,21.3-21.3,21.3H177.7c-11.8,0-21.3-9.5-21.3-21.3V31.5
				c0-11.8,9.5-21.3,21.3-21.3H347z"/>
		</g>
		<g id="XMLID_15014_">
			<polygon class="st4" points="347,84.8 347,10.2 421.5,84.8 			"/>
		</g>
		<g id="XMLID_15013_">
			<path class="st1" d="M421.5,90h-67.1c-7,0-12.7-5.7-12.7-12.7V10.2h10.4v67.1c0,1.2,1,2.2,2.2,2.2h67.1V90z"/>
		</g>
		<g id="XMLID_15012_">
			<path class="st1" d="M400.2,371.6h-9.8v-10.4h9.8c8.9,0,16.1-7.2,16.1-16.1V86.9l-71.5-71.5H177.7c-8.9,0-16.1,7.2-16.1,16.1
				v156.1h-10.4V31.5C151.1,16.9,163,5,177.7,5h171.5l77.6,77.6V345C426.8,359.7,414.9,371.6,400.2,371.6z"/>
		</g>
	</g>
	<g id="XMLID_15001_">
		<g id="XMLID_15010_">
			<path class="st2" d="M390.4,42.8l74.5,74.5v260.2c0,11.8-9.5,21.3-21.3,21.3H221.1c-11.8,0-21.3-9.5-21.3-21.3V64.1
				c0-11.8,9.5-21.3,21.3-21.3H390.4z"/>
		</g>
		<g id="XMLID_15008_">
			<polygon class="st4" points="390.4,117.3 390.4,42.8 465,117.3 			"/>
		</g>
		<g id="XMLID_15007_">
			<path class="st1" d="M465,122.6h-67.1c-7,0-12.7-5.7-12.7-12.7V42.8h10.4v67.1c0,1.2,1,2.2,2.2,2.2H465V122.6z"/>
		</g>
		<g id="XMLID_15006_">
			<rect x="239.5" y="152.3" class="st1" width="189.7" height="10.4"/>
		</g>
		<g id="XMLID_15005_">
			<rect x="239.5" y="193.5" class="st1" width="189.7" height="10.4"/>
		</g>
		<g id="XMLID_15004_">
			<rect x="239.5" y="233.1" class="st1" width="189.7" height="10.4"/>
		</g>
		<g id="XMLID_15003_">
			<rect x="239.5" y="275.4" class="st1" width="189.7" height="10.4"/>
		</g>
		<g id="XMLID_15002_">
			<path class="st1" d="M443.6,404.1h-49.3v-10.4h49.3c8.9,0,16.1-7.2,16.1-16.1V119.5L388.2,48H221.1c-8.9,0-16.1,7.2-16.1,16.1
				v123.5h-10.4V64.1c0-14.6,11.9-26.6,26.5-26.6h171.5l77.6,77.6v262.4C470.2,392.2,458.3,404.1,443.6,404.1z"/>
		</g>
	</g>
	<g id="XMLID_15000_">
		<path class="st5" d="M407.7,417.8H50.5c-8.6,0-15.5-6.9-15.5-15.5V180.6c0-7.2,5.8-13,13-13h61c4.5,0,8.6,2.3,11,6.1l15.8,25
			h227.1c8.2,0,14.8,6.6,14.8,14.8v174.3C377.7,401.8,387.7,417.8,407.7,417.8z"/>
	</g>
	<g id="XMLID_14999_">
		<path class="st0" d="M377.7,387.8v-25.2H35v39.7c0,8.6,6.9,15.5,15.5,15.5h357.1C387.7,417.8,377.7,401.8,377.7,387.8z"/>
	</g>
	<g id="XMLID_14998_">
		<path class="st1" d="M407.7,423H50.5c-11.4,0-20.7-9.3-20.7-20.7h10.4c0,5.7,4.6,10.3,10.3,10.3h331.6c-6.4-6.7-9.7-15.9-9.7-24.7
			V213.5c0-5.3-4.3-9.6-9.6-9.6h-230l-17.3-27.5c-1.4-2.3-3.9-3.6-6.5-3.6H93v-10.4h16c6.3,0,12,3.2,15.4,8.5l14.2,22.6h224.2
			c11.1,0,20.1,9,20.1,20.1v174.3c0,12,8.7,24.7,24.7,24.7V423z"/>
	</g>
</g>
</svg>
