<?xml version="1.0" encoding="utf-8"?>
<!-- Svg Vector Icons : http://www.onlinewebfonts.com/icon -->
<!DOCTYPE svg PUBLIC "-//W3C//DTD SVG 1.1//EN" "http://www.w3.org/Graphics/SVG/1.1/DTD/svg11.dtd">
<svg version="1.1" xmlns="http://www.w3.org/2000/svg" xmlns:xlink="http://www.w3.org/1999/xlink" x="0px" y="0px" viewBox="0 0 1000 1000" enable-background="new 0 0 1000 1000" xml:space="preserve">
<metadata> Svg Vector Icons : http://www.onlinewebfonts.com/icon </metadata>
<g><path d="M353.4,81.8c-28,0.1-53.8,6.7-74.6,19.1c-10.5,6.3-19.6,14.1-26.6,24c-7,9.8-11.6,22-11.6,35v309.9C113.1,470.9,10,574.4,10,702.4c0,128.5,104.1,232.7,232.7,232.7c47,0,90.7-14.1,127.4-38l514.7,38v-95.6l105.2-4.6v-770L353.4,81.8L353.4,81.8z M317.7,735.4l25.8,114.4l-100.8-59.9L142,849.8l25.8-114.4L79.7,658l116.8-10.9l46.4-107.6l46.4,107.6L406.1,658L317.7,735.4L317.7,735.4z M668.2,579l-219.9-16.3l5-61.5l219.9,16.3L668.2,579L668.2,579z M766,432.3l-381-29l5.2-61.5l381,29L766,432.3L766,432.3z M932.4,782.6l-47.7,2.1V222.2l-529.6-39.2h-1.3c-18.4,0-34.6-4.7-44.3-10.6c-4.9-2.9-7.9-6-9.5-8.2c-1.5-2.4-1.7-3.5-1.8-4.5c0-1.1,0.1-2.2,1.8-4.5c2.2-3.3,8.4-8.5,18-12.4c9.5-3.9,22.2-6.4,35.8-6.4h0.3l578.4-15.3v661.4H932.4z"/></g>
</svg>