<?xml version="1.0" encoding="utf-8"?>
<!-- Generator: Adobe Illustrator 22.1.0, SVG Export Plug-In . SVG Version: 6.00 Build 0)  -->
<svg version="1.1" id="apps_development" xmlns="http://www.w3.org/2000/svg" xmlns:xlink="http://www.w3.org/1999/xlink" x="0px"
	 y="0px" viewBox="0 0 500 285" style="enable-background:new 0 0 500 285;" xml:space="preserve">
<style type="text/css">
	.st0{fill:#DCE4E8;}
	.st1{fill:#FFFFFF;}
	.st2{fill:#2D333A;}
	.st3{fill:#FF5B40;}
</style>
<g>
	<g>
		<g>
			<g id="XMLID_3790_">
				<path class="st0" d="M431.1,123.4h-1.8C421.4,96.1,396.1,76,366.2,76c-13.1,0-25.2,3.9-35.5,10.4c-6.6-43.1-43.8-76.2-88.8-76.2
					c-40.4,0-74.6,26.6-85.9,63.3c-5.1-1.4-10.5-2.2-16.1-2.2c-30.8,0-56.3,22.6-61,52.1H68.9c-25.4,0-46.1,20.8-46.1,46.1v3.4
					c0,25.4,20.8,46.1,46.1,46.1h362.2c25.4,0,46.1-20.8,46.1-46.1v-3.4C477.3,144.2,456.5,123.4,431.1,123.4z"/>
			</g>
			<g id="XMLID_3789_">
				<path class="st1" d="M388.7,134.8h-1.6c-7-24.1-29.2-41.8-55.6-41.8c-11.5,0-22.2,3.4-31.3,9.2c-5.9-38-38.6-67.2-78.3-67.2
					c-35.6,0-65.7,23.5-75.8,55.8c-4.5-1.2-9.2-1.9-14.2-1.9c-27.2,0-49.6,19.9-53.8,45.9h-8.9c-22.4,0-40.7,18.3-40.7,40.7v3
					c0,22.4,18.3,40.7,40.7,40.7h319.3c22.4,0,40.7-18.3,40.7-40.7v-3C429.4,153.1,411,134.8,388.7,134.8z"/>
			</g>
			<g id="XMLID_3788_">
				<path class="st2" d="M300.4,79.2c-1.6,1.1-3.8,0.6-4.9-1c-13.4-18.6-34.8-29.6-57.8-29.6c-11.6,0-23.1,2.8-33.3,8.2
					c-1.7,0.9-3.8,0.4-4.8-1.3v0c-1-1.8-0.5-4.1,1.4-5c11.3-6,23.9-9.1,36.8-9.1c25.4,0,49,12.2,63.8,32.7
					C302.6,75.8,302.1,78.1,300.4,79.2L300.4,79.2z"/>
			</g>
			<g id="XMLID_3787_">
				<path class="st2" d="M431.1,222.7h-99.8c-2,0-3.6-1.6-3.6-3.6l0,0c0-2,1.6-3.6,3.6-3.6h99.8c23.5,0,42.5-19,42.5-42.5v-3.4
					c0-23.5-19-42.5-42.5-42.5h-4.5l-0.2-0.7c-7.1-24.5-27.7-43.4-53.1-46.3c-14.3-1.6-28.6,1.7-40.6,9.5l-4.7,3l-0.5-3.3
					c-6.1-39.3-37.3-70.9-76.9-74.9c-28.7-2.9-56.5,8.6-74.8,30.3c-3.5,4.2-6.7,8.7-9.3,13.5c-2.9,5.2-5.3,10.8-7.1,16.5l-1,3.3
					L155,77c-5.1-1.4-10.2-2.1-15.1-2.1c-28.8,0-52.9,20.6-57.4,49L82,127H68.9c-23.5,0-42.5,19-42.5,42.5v3.4
					c0,23.5,19,42.5,42.5,42.5H171c2,0,3.6,1.6,3.6,3.6l0,0c0,2-1.6,3.6-3.6,3.6H68.9c-27.5,0-49.8-22.3-49.8-49.8v-3.4
					c0-27.5,22.3-49.8,49.8-49.8h7.1c6.2-30.4,32.7-52.1,64-52.1c4.5,0,9.1,0.5,13.7,1.5c1.8-5.1,4-10,6.6-14.7
					c2.9-5.2,6.3-10.1,10.1-14.6c17.8-21.2,43.9-33.3,71.6-33.3c44.7,0,82.3,30.8,91.4,74.1c10.1-5.5,21.3-8.3,32.8-8.3
					c29.7,0,56.4,19.4,65.8,47.4c27,0.5,48.9,22.6,48.9,49.8v3.4C480.9,200.5,458.6,222.7,431.1,222.7z"/>
			</g>
		</g>
		<g>
			<g id="XMLID_14996_">
				<g>
					<path class="st2" d="M250,271.8c-4.6,0-9.2-0.6-13.6-1.8l1.9-7c9.6,2.6,20,1.9,29.2-2c5.3-2.3,10.2-5.5,14.3-9.6
						c4.1-4.1,7.4-8.9,9.6-14.3c1.9-4.5,3-9.2,3.4-14c0.1-1.9,1.7-3.5,3.6-3.5h0c2.1,0,3.8,1.7,3.6,3.8c-0.4,5.7-1.7,11.3-4,16.5
						c-2.6,6.2-6.4,11.8-11.2,16.6c-4.8,4.8-10.4,8.5-16.6,11.2C263.9,270.4,257,271.8,250,271.8z"/>
				</g>
				<g>
					<g>
						<polygon class="st2" points="251.4,260.7 239,267 245.2,279.4 237.3,276.7 231.1,264.4 243.5,258.1 						"/>
					</g>
				</g>
			</g>
			<g id="XMLID_14995_">
				<g>
					<path class="st2" d="M205.4,238.5c-1.9,0.8-4.1-0.1-4.8-2.1c-1.8-5.4-2.8-11-2.8-16.8c0-7,1.4-13.9,4.1-20.3
						c2.6-6.2,6.4-11.8,11.2-16.6s10.4-8.5,16.6-11.2c12.9-5.4,27.7-5.4,40.6,0c4,1.7,7.8,3.9,11.2,6.5l-4.4,5.8
						c-3-2.3-6.2-4.1-9.7-5.6c-11.1-4.7-23.9-4.7-35,0c-5.3,2.3-10.2,5.5-14.3,9.6c-4.1,4.1-7.4,8.9-9.6,14.3
						c-2.3,5.5-3.5,11.4-3.5,17.5c0,4.9,0.8,9.7,2.3,14.2C208,235.7,207.2,237.7,205.4,238.5L205.4,238.5z"/>
				</g>
				<g>
					<g>
						<polygon class="st2" points="264.2,181 278,179.9 276.9,166.1 283.2,171.5 284.3,185.3 270.5,186.4 						"/>
					</g>
				</g>
			</g>
			<g id="XMLID_14994_">
				<path class="st3" d="M274.5,219.6c0,14.5-11.8,26.3-26.3,26.3c-14.5,0-26.3-11.8-26.3-26.3s11.8-26.3,26.3-26.3
					C262.7,193.4,274.5,205.1,274.5,219.6z"/>
			</g>
			<g id="XMLID_14993_">
				<path class="st2" d="M248.2,249.5c-16.5,0-29.9-13.4-29.9-29.9s13.4-29.9,29.9-29.9s29.9,13.4,29.9,29.9
					S264.7,249.5,248.2,249.5z M248.2,197c-12.5,0-22.7,10.2-22.7,22.7s10.2,22.7,22.7,22.7c12.5,0,22.7-10.2,22.7-22.7
					S260.7,197,248.2,197z"/>
			</g>
		</g>
	</g>
	<path class="st2" d="M141.1,67.7v7c15.7,0,28.4,12.7,28.4,28.4c0,2,1.6,3.6,3.6,3.6c2,0,3.6-1.6,3.6-3.6
		C176.7,83.4,160.7,67.7,141.1,67.7z"/>
</g>
</svg>
