<?xml version="1.0" encoding="utf-8"?>
<!-- Generator: Adobe Illustrator 22.1.0, SVG Export Plug-In . SVG Version: 6.00 Build 0)  -->
<svg version="1.1" id="apps_development" xmlns="http://www.w3.org/2000/svg" xmlns:xlink="http://www.w3.org/1999/xlink" x="0px"
	 y="0px" viewBox="0 0 500 500" style="enable-background:new 0 0 500 500;" xml:space="preserve">
<style type="text/css">
	.st0{fill:#FFFFFF;}
	.st1{fill:#2D333A;}
	.st2{fill:#B7BFC7;}
	.st3{fill:#00BFFF;}
	.st4{fill:#FFB13E;}
	.st5{fill:#FF5B40;}
	.st6{fill:#DCE4E8;}
	.st7{fill:#F2F2F2;}
</style>
<g>
	<g>
		<path class="st0" d="M162.4,141.5H69.8c-14,0-25.3,11.3-25.3,25.3l0,0c0,14,11.3,25.3,25.3,25.3h30.4c8.4,0,15.2,6.8,15.2,15.2
			l0,0c0,8.4-6.8,15.2-15.2,15.2H77.3c-12.4,0-22.5,10.1-22.5,22.5v0c0,12.4,10.1,22.5,22.5,22.5h73.1c9.9,0,17.9,8,17.8,17.9l0,0
			c-0.1,9.8-8,17.7-17.8,17.7H23.5c-10.1,0-18.3,8.2-18.3,18.3v2.4c0,10.1,8.2,18.3,18.3,18.3h445.7c14.1,0,25.6-11.4,25.6-25.6v0
			c0-14.1-11.4-25.6-25.6-25.6H368.5c-10.1,0-18.4-8.2-18.4-18.4l0,0c0-10.1,8.2-18.4,18.4-18.4h49.3c12.8,0,23.2-10.4,23.2-23.2
			l0,0c0-12.8-10.4-23.2-23.2-23.2h-194c-8.2,0-14.9-6.7-14.9-14.9l0,0c0-8.2,6.7-14.9,14.9-14.9H390c10.1,0,18.3-8.2,18.3-18.3l0,0
			c0-10.1-8.2-18.3-18.3-18.3H162.4z"/>
	</g>
	<g>
		<path class="st1" d="M298.6,277.2l0-4.5c1.6,0,3.3-0.1,4.9-0.2l0.3,4.5C302,277.1,300.3,277.2,298.6,277.2z M293.5,277.1
			c-1.7-0.1-3.4-0.2-5.1-0.3l0.4-4.5c1.6,0.2,3.3,0.3,4.9,0.3L293.5,277.1z M308.8,276.6l-0.5-4.5c1.6-0.2,3.2-0.4,4.9-0.6l0.7,4.4
			C312.2,276.2,310.5,276.4,308.8,276.6z M283.3,276.1c-1.7-0.2-3.4-0.5-5.1-0.9l0.9-4.4c1.6,0.3,3.2,0.6,4.8,0.8L283.3,276.1z
			 M318.9,275l-0.9-4.4c1.6-0.3,3.2-0.7,4.8-1.1l1.1,4.3C322.3,274.2,320.6,274.6,318.9,275z M273.2,274.2c-1.6-0.4-3.3-0.9-4.9-1.4
			l1.3-4.3c1.6,0.5,3.2,0.9,4.7,1.3L273.2,274.2z M328.8,272.4l-1.4-4.3c1.6-0.5,3.1-1,4.6-1.6l1.6,4.2
			C332.1,271.3,330.5,271.9,328.8,272.4z M263.4,271.2c-1.6-0.6-3.2-1.2-4.8-1.9l1.7-4.1c1.5,0.6,3,1.2,4.6,1.8L263.4,271.2z
			 M338.4,268.8l-1.8-4.1c1.5-0.6,3-1.3,4.4-2.1l2,4C341.5,267.4,340,268.1,338.4,268.8z M253.9,267.2c-1.5-0.7-3.1-1.5-4.6-2.3
			l2.1-3.9c1.4,0.8,2.9,1.5,4.4,2.2L253.9,267.2z M347.6,264.2l-2.2-3.9c1.4-0.8,2.8-1.6,4.2-2.5l2.4,3.8
			C350.5,262.5,349.1,263.4,347.6,264.2z M244.9,262.3c-1.4-0.9-2.9-1.8-4.3-2.8l2.5-3.7c1.3,0.9,2.7,1.8,4.1,2.7L244.9,262.3z
			 M356.2,258.7l-2.6-3.7c1.3-0.9,2.7-1.9,3.9-2.9l2.8,3.5C359,256.7,357.6,257.8,356.2,258.7z M236.4,256.5c-1.3-1-2.7-2.1-4-3.2
			l2.9-3.4c1.3,1.1,2.5,2.1,3.8,3.1L236.4,256.5z M364.3,252.4l-2.9-3.4c1.2-1.1,2.4-2.2,3.6-3.3l3.1,3.2
			C366.9,250.2,365.6,251.3,364.3,252.4z M228.6,249.9c-1.2-1.1-2.5-2.4-3.7-3.6l3.2-3.1c1.1,1.2,2.3,2.3,3.5,3.4L228.6,249.9z
			 M371.7,245.4l-3.3-3.1c1.1-1.2,2.2-2.4,3.3-3.6l3.4,2.9C374,242.8,372.9,244.1,371.7,245.4z M221.4,242.6
			c-1.1-1.3-2.2-2.6-3.3-3.9l3.5-2.8c1,1.3,2.1,2.5,3.1,3.8L221.4,242.6z M378.4,237.6l-3.5-2.7c1-1.3,2-2.6,2.9-4l3.7,2.6
			C380.4,234.8,379.4,236.2,378.4,237.6z M215.1,234.5c-1-1.4-2-2.8-2.9-4.2l3.8-2.4c0.9,1.4,1.8,2.7,2.7,4.1L215.1,234.5z
			 M384.2,229.1l-3.8-2.4c0.9-1.4,1.7-2.8,2.5-4.2l3.9,2.2C386,226.2,385.1,227.7,384.2,229.1z M209.6,225.9c-0.8-1.5-1.7-3-2.4-4.5
			l4-2c0.7,1.4,1.5,2.9,2.3,4.3L209.6,225.9z M389.2,220.2l-4-2c0.7-1.5,1.4-3,2-4.5l4.1,1.8C390.7,217.1,389.9,218.6,389.2,220.2z
			 M204.9,216.8c-0.7-1.5-1.3-3.1-2-4.7l4.2-1.6c0.6,1.5,1.2,3,1.9,4.5L204.9,216.8z M393.2,210.7l-4.2-1.5c0.6-1.5,1.1-3.1,1.6-4.6
			l4.3,1.3C394.4,207.5,393.8,209.1,393.2,210.7z M201.3,207.2c-0.5-1.6-1-3.3-1.5-4.9l4.3-1.2c0.4,1.6,0.9,3.2,1.4,4.7L201.3,207.2
			z M396.3,200.9l-4.3-1.1c0.4-1.6,0.8-3.2,1.1-4.8l4.4,0.9C397.1,197.6,396.7,199.3,396.3,200.9z M198.6,197.3
			c-0.4-1.7-0.7-3.3-1-5l4.4-0.7c0.3,1.6,0.6,3.2,0.9,4.8L198.6,197.3z M398.3,190.9l-4.4-0.7c0.2-1.6,0.4-3.2,0.6-4.9l4.5,0.4
			C398.8,187.5,398.6,189.2,398.3,190.9z M196.9,187.2c-0.2-1.7-0.3-3.4-0.5-5.1l4.5-0.3c0.1,1.6,0.2,3.3,0.4,4.9L196.9,187.2z
			 M399.4,180.7l-4.5-0.2c0.1-1.6,0.1-3.3,0.1-4.9c0-0.9,0-1.8,0-2.7l4.5-0.1c0,1,0,1.9,0,2.9C399.5,177.3,399.4,179,399.4,180.7z
			 M196.2,177c0-0.5,0-1,0-1.4c0-1.2,0-2.5,0.1-3.7l4.5,0.2c0,1.2-0.1,2.4-0.1,3.5c0,0.5,0,0.9,0,1.4L196.2,177z M394.7,167.9
			c-0.1-1.6-0.3-3.2-0.5-4.9l4.4-0.6c0.2,1.7,0.4,3.4,0.5,5.1L394.7,167.9z M201.1,167.1l-4.5-0.4c0.1-1.7,0.3-3.4,0.6-5.1l4.4,0.6
			C201.4,163.9,201.2,165.5,201.1,167.1z M393.5,158.2c-0.3-1.6-0.6-3.2-1-4.8l4.4-1c0.4,1.7,0.7,3.3,1,5L393.5,158.2z M202.4,157.4
			l-4.4-0.8c0.3-1.7,0.7-3.4,1.1-5l4.4,1.1C203,154.2,202.7,155.8,202.4,157.4z M391.2,148.7c-0.4-1.5-0.9-3.1-1.5-4.7l4.2-1.5
			c0.6,1.6,1.1,3.3,1.5,4.9L391.2,148.7z M204.7,147.9l-4.3-1.3c0.5-1.6,1-3.3,1.6-4.9l4.2,1.5C205.7,144.8,205.2,146.3,204.7,147.9
			z M388.1,139.4c-0.6-1.5-1.3-3-1.9-4.5l4.1-1.9c0.7,1.5,1.4,3.1,2,4.7L388.1,139.4z M208,138.7l-4.1-1.7c0.6-1.6,1.3-3.2,2.1-4.7
			l4,1.9C209.3,135.6,208.6,137.1,208,138.7z M384,130.5c-0.8-1.4-1.6-2.9-2.4-4.3l3.9-2.3c0.9,1.5,1.7,3,2.5,4.5L384,130.5z
			 M212.2,129.8l-3.9-2.1c0.8-1.5,1.7-3,2.5-4.5l3.8,2.3C213.7,126.9,212.9,128.3,212.2,129.8z M379,122.1c-0.9-1.4-1.8-2.7-2.8-4
			l3.6-2.7c1,1.4,2,2.8,2.9,4.2L379,122.1z M217.2,121.4l-3.7-2.5c1-1.4,2-2.8,3-4.2l3.6,2.7C219.1,118.7,218.1,120,217.2,121.4z
			 M373.2,114.2c-1-1.3-2.1-2.5-3.2-3.7l3.3-3c1.1,1.3,2.3,2.6,3.3,3.9L373.2,114.2z M223.1,113.5l-3.4-2.9c1.1-1.3,2.2-2.6,3.4-3.9
			l3.3,3C225.2,111,224.1,112.3,223.1,113.5z M366.6,106.9c-1.1-1.1-2.3-2.3-3.5-3.4l3-3.3c1.3,1.1,2.5,2.3,3.7,3.5L366.6,106.9z
			 M229.7,106.3l-3.1-3.2c1.2-1.2,2.5-2.4,3.7-3.5l3,3.3C232.1,104,230.9,105.2,229.7,106.3z M359.4,100.3c-1.3-1-2.6-2-3.9-3
			l2.7-3.6c1.4,1,2.7,2.1,4,3.1L359.4,100.3z M237,99.8l-2.8-3.5c1.3-1.1,2.7-2.1,4.1-3.1l2.6,3.6C239.6,97.8,238.3,98.8,237,99.8z
			 M351.5,94.5c-1.4-0.9-2.8-1.8-4.2-2.6l2.3-3.9c1.5,0.9,2.9,1.8,4.3,2.7L351.5,94.5z M245,94.1l-2.4-3.8c1.4-0.9,2.9-1.8,4.4-2.7
			l2.2,3.9C247.7,92.3,246.3,93.2,245,94.1z M343,89.5c-1.4-0.8-2.9-1.5-4.4-2.2l1.9-4.1c1.5,0.7,3.1,1.5,4.6,2.3L343,89.5z
			 M253.4,89.1l-2.1-4c1.5-0.8,3.1-1.5,4.6-2.2l1.8,4.1C256.4,87.7,254.9,88.4,253.4,89.1z M334.1,85.4c-1.5-0.6-3.1-1.2-4.6-1.7
			l1.5-4.2c1.6,0.6,3.2,1.2,4.8,1.8L334.1,85.4z M262.3,85.1l-1.6-4.2c1.6-0.6,3.2-1.2,4.8-1.8l1.4,4.2
			C265.4,83.9,263.9,84.5,262.3,85.1z M324.9,82.2c-1.6-0.5-3.2-0.9-4.7-1.2l1-4.4c1.7,0.4,3.3,0.8,5,1.3L324.9,82.2z M271.6,82
			l-1.2-4.3c1.6-0.5,3.3-0.9,5-1.3l1,4.4C274.8,81.1,273.2,81.6,271.6,82z M315.3,80c-1.6-0.3-3.2-0.5-4.8-0.8l0.6-4.4
			c1.7,0.2,3.4,0.5,5.1,0.8L315.3,80z M281.2,79.8l-0.8-4.4c1.7-0.3,3.4-0.5,5.1-0.7l0.5,4.4C284.4,79.3,282.8,79.6,281.2,79.8z
			 M305.6,78.7c-1.6-0.1-3.3-0.2-4.9-0.3l0.1-4.5c1.7,0,3.4,0.1,5.1,0.3L305.6,78.7z M290.9,78.7l-0.3-4.5c1.7-0.1,3.4-0.2,5.1-0.2
			l0.1,4.5C294.2,78.5,292.5,78.5,290.9,78.7z"/>
	</g>
	<g id="XMLID_472_">
		<path class="st2" d="M223.6,96.6c0,1.3-1.1,2.4-2.4,2.4c-1.3,0-2.4-1.1-2.4-2.4c0-1.3,1.1-2.4,2.4-2.4
			C222.6,94.2,223.6,95.3,223.6,96.6z"/>
	</g>
	<g id="XMLID_471_">
		<path class="st2" d="M105.7,99.6c0,1.8-1.4,3.2-3.2,3.2s-3.2-1.4-3.2-3.2c0-1.8,1.4-3.2,3.2-3.2S105.7,97.8,105.7,99.6z"/>
	</g>
	<g id="XMLID_469_">
		<path class="st2" d="M172.8,62.5c-7,1.8-8.5,3.3-10.3,10.3c-1.8-7-3.3-8.5-10.3-10.3c7-1.8,8.5-3.3,10.3-10.3
			C164.4,59.2,165.9,60.7,172.8,62.5z"/>
	</g>
	<g id="XMLID_468_">
		<path class="st2" d="M344.4,425c-5.8,1.5-7,2.8-8.6,8.6c-1.5-5.8-2.8-7-8.6-8.6c5.8-1.5,7-2.8,8.6-8.6
			C337.3,422.2,338.6,423.5,344.4,425z"/>
	</g>
	<g id="XMLID_466_">
		<path class="st2" d="M454.6,126.1c-9.6,2.5-11.6,4.6-14.2,14.2c-2.5-9.6-4.6-11.6-14.2-14.2c9.6-2.5,11.6-4.6,14.2-14.2
			C443,121.5,445.1,123.5,454.6,126.1z"/>
	</g>
	<g id="XMLID_459_">
		<path class="st2" d="M54.2,372c-7.3,1.9-8.8,3.5-10.7,10.7c-1.9-7.3-3.5-8.8-10.7-10.7c7.3-1.9,8.8-3.5,10.7-10.7
			C45.4,368.5,47,370.1,54.2,372z"/>
	</g>
	<g id="XMLID_458_">
		<path class="st2" d="M434.1,330.2c-4.2,1.1-5.1,2-6.2,6.2c-1.1-4.2-2-5.1-6.2-6.2c4.2-1.1,5.1-2,6.2-6.2
			C429,328.2,429.9,329.1,434.1,330.2z"/>
	</g>
	<g id="XMLID_438_">
		<g id="XMLID_440_">
			<path class="st0" d="M388.9,128.7c14.7-11.4,17.4-32.6,6-47.4c-11.4-14.7-32.6-17.4-47.4-6c-12.7,9.9-16.4,27-9.8,41l-12,18.5
				c-0.3,0.5,0.2,1.1,0.7,0.9l20.8-7.3C359.1,138,376.3,138.5,388.9,128.7z"/>
		</g>
		<g id="XMLID_439_">
			<path class="st1" d="M368.2,137.3c-7.5,0-15-2.4-21.3-7.2l-20.1,7.1c-0.8,0.3-1.8,0-2.3-0.7c-0.6-0.7-0.6-1.7-0.1-2.4l11.6-17.8
				c-6.5-14.6-2.1-32.2,10.6-42c7.4-5.8,16.7-8.3,26-7.1c9.3,1.2,17.7,5.9,23.4,13.3c5.8,7.4,8.3,16.7,7.1,26
				c-1.2,9.3-5.9,17.7-13.3,23.4C383.4,134.9,375.8,137.3,368.2,137.3z M347.4,126.8l0.6,0.5c11.7,9.3,28.1,9.4,39.9,0.3l0,0
				c6.8-5.3,11.2-12.9,12.2-21.5c1.1-8.6-1.2-17-6.5-23.8c-5.3-6.8-12.9-11.2-21.5-12.2c-8.5-1.1-17,1.2-23.8,6.5
				c-11.8,9.2-15.8,25.7-9.4,39.2l0.4,0.7l-11.1,17L347.4,126.8z"/>
		</g>
		<g>
			
				<ellipse transform="matrix(0.9252 -0.3794 0.3794 0.9252 -11.2107 147.2727)" class="st3" cx="368" cy="102.1" rx="27.6" ry="27.6"/>
		</g>
		<g>
			<path class="st1" d="M368,107.4c-2.9,0-5.3-2.4-5.3-5.3c0-2.9,2.4-5.3,5.3-5.3c2.9,0,5.3,2.4,5.3,5.3
				C373.3,105,371,107.4,368,107.4z M368,99.7c-1.3,0-2.4,1.1-2.4,2.4c0,1.3,1.1,2.4,2.4,2.4c1.3,0,2.4-1.1,2.4-2.4
				C370.4,100.8,369.3,99.7,368,99.7z"/>
		</g>
		<g>
			<path class="st1" d="M383.8,107.4c-2.9,0-5.3-2.4-5.3-5.3c0-2.9,2.4-5.3,5.3-5.3c2.9,0,5.3,2.4,5.3,5.3
				C389.1,105,386.7,107.4,383.8,107.4z M383.8,99.7c-1.3,0-2.4,1.1-2.4,2.4c0,1.3,1.1,2.4,2.4,2.4c1.3,0,2.4-1.1,2.4-2.4
				C386.1,100.8,385.1,99.7,383.8,99.7z"/>
		</g>
		<g>
			<path class="st1" d="M352.3,107.4c-2.9,0-5.3-2.4-5.3-5.3c0-2.9,2.4-5.3,5.3-5.3c2.9,0,5.3,2.4,5.3,5.3
				C357.6,105,355.2,107.4,352.3,107.4z M352.3,99.7c-1.3,0-2.4,1.1-2.4,2.4c0,1.3,1.1,2.4,2.4,2.4c1.3,0,2.4-1.1,2.4-2.4
				C354.6,100.8,353.6,99.7,352.3,99.7z"/>
		</g>
	</g>
	<g>
		<g id="XMLID_322_">
			<g>
				<path class="st1" d="M73.3,167.8c-2.8,0-5.6-0.4-8.3-1.1l1.2-4.3c5.9,1.6,12.3,1.2,17.9-1.2c3.3-1.4,6.2-3.4,8.8-5.9
					c2.5-2.5,4.5-5.5,5.9-8.8c1.4-3.4,2.2-7,2.2-10.7h4.4c0,4.3-0.8,8.5-2.5,12.5c-1.6,3.8-3.9,7.2-6.9,10.2
					c-2.9,2.9-6.4,5.3-10.2,6.9C81.8,166.9,77.6,167.8,73.3,167.8z"/>
			</g>
			<g>
				<g>
					<polygon class="st1" points="74.2,161 66.5,164.8 70.4,172.4 65.5,170.8 61.7,163.2 69.3,159.4 					"/>
				</g>
			</g>
		</g>
		<g id="XMLID_321_">
			<g>
				<path class="st1" d="M43.8,148.2c-1.7-4-2.5-8.2-2.5-12.5c0-4.3,0.8-8.5,2.5-12.5c1.6-3.8,3.9-7.2,6.9-10.2
					c2.9-2.9,6.4-5.3,10.2-6.9c7.9-3.3,17.1-3.3,25,0c2.5,1,4.8,2.4,6.9,4l-2.7,3.5c-1.8-1.4-3.8-2.5-5.9-3.4
					c-6.8-2.9-14.7-2.9-21.5,0c-3.3,1.4-6.2,3.4-8.8,5.9c-2.5,2.5-4.5,5.5-5.9,8.8c-1.4,3.4-2.2,7-2.2,10.7s0.7,7.3,2.2,10.7
					L43.8,148.2z"/>
			</g>
			<g>
				<g>
					<polygon class="st1" points="82,112 90.5,111.3 89.8,102.8 93.7,106.1 94.4,114.6 85.9,115.3 					"/>
				</g>
			</g>
		</g>
		<g id="XMLID_320_">
			<path class="st3" d="M88.4,135.7c0,8.9-7.2,16.2-16.2,16.2s-16.2-7.2-16.2-16.2s7.2-16.2,16.2-16.2S88.4,126.8,88.4,135.7z"/>
		</g>
		<g id="XMLID_319_">
			<path class="st1" d="M72.2,154.1c-10.1,0-18.4-8.2-18.4-18.4s8.2-18.4,18.4-18.4c10.1,0,18.4,8.2,18.4,18.4
				S82.3,154.1,72.2,154.1z M72.2,121.8c-7.7,0-13.9,6.3-13.9,13.9s6.3,13.9,13.9,13.9c7.7,0,13.9-6.2,13.9-13.9
				S79.9,121.8,72.2,121.8z"/>
		</g>
	</g>
	<g>
		<g id="XMLID_842_">
			<g id="XMLID_843_">
				<g id="XMLID_850_">
					<path class="st0" d="M211.1,115l73.2,19.6l93.5,161.9c4.2,7.3,1.7,16.7-5.6,20.9l-138.5,79.9c-7.3,4.2-16.7,1.7-20.9-5.6
						l-112.6-195c-4.2-7.3-1.7-16.7,5.6-20.9L211.1,115z"/>
				</g>
				<g id="XMLID_849_">
					<polygon class="st3" points="237.9,161.3 211.1,115 284.3,134.6 					"/>
				</g>
				<g id="XMLID_848_">
					<path class="st1" d="M286.2,137.8l-41.7,24.1c-4.3,2.5-9.9,1-12.4-3.3l-24.1-41.7l6.5-3.8l24.1,41.7c0.4,0.8,1.4,1,2.2,0.6
						l41.7-24.1L286.2,137.8z"/>
				</g>
				<g id="XMLID_847_">
					
						<rect x="147.9" y="200.4" transform="matrix(0.866 -0.5 0.5 0.866 -73.1136 135.3832)" class="st1" width="136.3" height="7.5"/>
				</g>
				<g id="XMLID_846_">
					
						<rect x="163.1" y="226.7" transform="matrix(0.866 -0.5 0.5 0.866 -84.2338 146.5034)" class="st1" width="136.3" height="7.5"/>
				</g>
				<g id="XMLID_845_">
					<rect x="178.3" y="253" transform="matrix(0.866 -0.5 0.5 0.866 -95.3542 157.6238)" class="st1" width="136.3" height="7.5"/>
				</g>
				<g id="XMLID_844_">
					
						<rect x="193.5" y="279.3" transform="matrix(0.866 -0.5 0.5 0.866 -106.4745 168.7441)" class="st1" width="136.3" height="7.5"/>
				</g>
			</g>
		</g>
		<g id="XMLID_841_">
			<g>
				<path class="st1" d="M374,320.6l-138.5,79.9c-9.1,5.2-20.7,2.1-25.9-7L97,198.6c-5.2-9.1-2.1-20.7,7-25.9L210.6,111l76.1,20.4
					l94.2,163.2C386.2,303.7,383.1,315.4,374,320.6z M107.6,179c-5.6,3.2-7.5,10.4-4.3,15.9l112.6,195c3.2,5.6,10.4,7.5,15.9,4.3
					l138.5-79.9c5.6-3.2,7.5-10.4,4.3-15.9l-92.7-160.6l-70.2-18.8L107.6,179z"/>
			</g>
		</g>
	</g>
	<g>
		<g id="XMLID_805_">
			<g id="XMLID_807_">
				<g id="XMLID_840_">
					<path class="st0" d="M247.5,112.1l65.6,37.9l48.4,180.6c2.2,8.2-2.7,16.6-10.8,18.8l-154.4,41.4c-8.2,2.2-16.6-2.7-18.8-10.8
						l-58.3-217.5c-2.2-8.2,2.7-16.6,10.8-18.8L247.5,112.1z"/>
				</g>
				<g id="XMLID_839_">
					<polygon class="st3" points="261.3,163.8 247.5,112.1 313,149.9 					"/>
				</g>
				<g id="XMLID_838_">
					<path class="st1" d="M314,153.6L267.5,166c-4.8,1.3-9.8-1.6-11.1-6.4L243.8,113l7.2-1.9l12.5,46.6c0.2,0.9,1.1,1.4,2,1.1
						l46.6-12.5L314,153.6z"/>
				</g>
				<g id="XMLID_837_">
					
						<rect x="161" y="195.7" transform="matrix(0.9659 -0.2588 0.2588 0.9659 -43.8195 66.1081)" class="st1" width="136.3" height="7.5"/>
				</g>
				<g id="XMLID_836_">
					
						<rect x="168.9" y="225.1" transform="matrix(0.9659 -0.2588 0.2588 0.9659 -51.1468 69.1432)" class="st1" width="136.3" height="7.5"/>
				</g>
				<g id="XMLID_835_">
					
						<rect x="176.8" y="254.4" transform="matrix(0.9659 -0.2588 0.2588 0.9659 -58.4742 72.1783)" class="st1" width="136.3" height="7.5"/>
				</g>
				<g id="XMLID_834_">
					
						<rect x="184.6" y="283.8" transform="matrix(0.9659 -0.2588 0.2588 0.9659 -65.8016 75.2134)" class="st1" width="136.3" height="7.5"/>
				</g>
			</g>
		</g>
		<g id="XMLID_804_">
			<g>
				<path class="st1" d="M351.6,352.9l-154.4,41.4c-10.1,2.7-20.6-3.3-23.3-13.4l-58.3-217.5c-2.7-10.1,3.3-20.6,13.4-23.3l119-31.9
					l68.2,39.4L365,329.6C367.7,339.7,361.7,350.1,351.6,352.9z M130.9,147.1c-6.2,1.7-9.9,8.1-8.2,14.3l58.3,217.5
					c1.7,6.2,8.1,9.9,14.3,8.2l154.4-41.4c6.2-1.7,9.9-8.1,8.2-14.3l-48-179.1l-63-36.4L130.9,147.1z"/>
			</g>
		</g>
	</g>
	<g id="XMLID_780_">
		<g id="XMLID_806_">
			<g id="XMLID_833_">
				<path class="st0" d="M282,118.5l53.6,53.6v187c0,8.5-6.9,15.3-15.3,15.3H160.3c-8.5,0-15.3-6.9-15.3-15.3V133.8
					c0-8.5,6.9-15.3,15.3-15.3H282z"/>
			</g>
			<g id="XMLID_832_">
				<polygon class="st3" points="282,172.1 282,118.5 335.5,172.1 				"/>
			</g>
			<g id="XMLID_831_">
				<path class="st1" d="M335.5,175.8h-48.2c-5,0-9.1-4.1-9.1-9.1v-48.2h7.5v48.2c0,0.9,0.7,1.6,1.6,1.6h48.2V175.8z"/>
			</g>
			<g id="XMLID_830_">
				<rect x="173.6" y="194.4" class="st1" width="136.3" height="7.5"/>
			</g>
			<g id="XMLID_829_">
				<rect x="173.6" y="216" class="st1" width="136.3" height="7.5"/>
			</g>
			<g id="XMLID_828_">
				<rect x="173.6" y="237.6" class="st1" width="136.3" height="7.5"/>
			</g>
			<g id="XMLID_815_">
				<rect x="173.6" y="259.2" class="st1" width="136.3" height="7.5"/>
			</g>
		</g>
	</g>
	<g id="XMLID_781_">
		<g>
			<path class="st1" d="M320.2,378H160.3c-10.5,0-19-8.5-19-19V133.8c0-10.5,8.5-19,19-19h123.2l55.7,55.7V359
				C339.2,369.5,330.7,378,320.2,378z M160.3,122.2c-6.4,0-11.7,5.2-11.7,11.6V359c0,6.4,5.2,11.6,11.7,11.6h159.9
				c6.4,0,11.6-5.2,11.6-11.6V173.6l-51.4-51.4H160.3z"/>
		</g>
	</g>
	<rect x="242.8" y="288.7" class="st4" width="59.7" height="35.8"/>
	<g>
		<path class="st3" d="M208.1,157.9c0-9.5-7.7-17.3-17.3-17.3c-9.5,0-17.3,7.7-17.3,17.3c0,9.5,7.7,17.3,17.3,17.3
			c4.5,0,8.6-1.7,11.7-4.6v1.5c0,1.5,1.2,2.8,2.8,2.8c1.5,0,2.8-1.2,2.8-2.8L208.1,157.9L208.1,157.9z M202.5,157.9L202.5,157.9
			c0,6.5-5.2,11.7-11.7,11.7c-6.5,0-11.7-5.2-11.7-11.7c0-6.5,5.2-11.7,11.7-11.7C197.3,146.2,202.5,151.5,202.5,157.9L202.5,157.9z
			"/>
	</g>
	<g>
		<g id="XMLID_168_">
			<g id="XMLID_169_">
				<path class="st0" d="M394.8,276.8c-0.2-1.3-0.2-1.8-0.2-2.6c0-0.2,0-0.5,0-0.8c0-4.1,0.8-8.1,2.4-11.9c1.5-3.7,3.8-6.9,6.6-9.7
					c0.2-0.2,0.4-0.4,0.5-0.5c0.5-0.5,0.8-0.9,1.7-1.5l5,6.6c-0.4,0.3-0.4,0.3-0.7,0.6c-0.2,0.2-0.4,0.4-0.6,0.7
					c-2.1,2.1-3.7,4.4-4.8,7.1c-1.2,2.8-1.8,5.7-1.8,8.7c0,0.4,0,0.8,0,1c0,0.5,0,0.5,0.1,1.1L394.8,276.8z"/>
			</g>
		</g>
		<g id="XMLID_165_">
			<g id="XMLID_166_">
				<path class="st2" d="M425.3,304.1c-4.1,0-8.1-0.8-11.9-2.4c-3.7-1.5-6.9-3.8-9.7-6.6c-2.8-2.8-5-6.1-6.6-9.7
					c-0.4-1-0.8-2.1-1.1-3.2l7.9-2.4c0.2,0.8,0.5,1.6,0.8,2.3c1.1,2.7,2.7,5,4.8,7.1c2.1,2.1,4.4,3.7,7.1,4.8
					c5.5,2.3,11.9,2.3,17.4,0c2.7-1.1,5-2.7,7.1-4.8c2.1-2.1,3.7-4.4,4.8-7.1l7.6,3.2c-1.5,3.6-3.7,6.9-6.6,9.7
					c-2.8,2.8-6.1,5-9.7,6.6C433.4,303.3,429.4,304.1,425.3,304.1z"/>
			</g>
		</g>
		<g id="XMLID_157_">
			<g id="XMLID_164_">
				<path class="st3" d="M455.3,279.8l-8.1-1.7c0.3-1.5,0.5-3.1,0.5-4.6c0-3-0.6-5.9-1.8-8.7c-1.1-2.7-2.7-5-4.8-7.1
					c-2.1-2.1-4.4-3.7-7.1-4.8c-5.5-2.3-11.9-2.3-17.4,0c-0.4,0.2-0.6,0.3-0.9,0.4c-0.4,0.1-0.4,0.2-0.9,0.4l-4.3-7.1
					c0.9-0.6,1.4-0.8,2.1-1c0.2-0.1,0.4-0.1,0.7-0.3c7.6-3.2,16.3-3.2,23.8,0c3.6,1.5,6.9,3.7,9.7,6.6c2.8,2.8,5,6.1,6.6,9.7
					c1.6,3.8,2.4,7.8,2.4,11.9C455.9,275.6,455.7,277.7,455.3,279.8z"/>
			</g>
		</g>
		<g id="XMLID_136_">
			<g id="XMLID_141_">
				<path class="st1" d="M395.7,278.5c-0.6,0-1.2-0.2-1.7-0.6c-0.6-0.5-1-1.2-1-1.9c-0.1-0.7-0.1-1.2,0-1.8l0-0.8
					c0-6.3,1.7-12.2,5.2-17.6c1.1-1.8,2.6-3.6,4.4-5.4l0.3-0.4c0.4-0.4,0.6-0.7,1-1c0.6-0.5,1.3-0.7,2.1-0.7
					c0.8,0.1,1.4,0.5,1.9,1.1l3.9,5.1c0.8,1.1,0.7,2.7-0.3,3.6l-0.7,0.7c-1.9,1.9-3.4,4.1-4.4,6.5c-1.1,2.5-1.6,5.2-1.6,8
					c0,0.4,0,0.8,0,1c0,0.4,0,0.4,0.1,0.8l0.3,1.8l-9,1.4C395.9,278.4,395.8,278.5,395.7,278.5z M405.6,252.4c0,0-0.1,0.1-0.1,0.2
					l-0.4,0.4c-1.7,1.7-2.9,3.3-4,4.8c-3.1,4.8-4.6,10.1-4.6,15.7c0,0.4,0,0.6,0,0.9c0,0.2,0,0.3,0,0.5l4.8-0.7c0-0.2,0-0.4,0-0.6
					c0-3.3,0.6-6.4,1.9-9.4c1.2-2.9,3-5.5,5.2-7.7l0.2-0.2L405.6,252.4z"/>
			</g>
		</g>
		<g id="XMLID_134_">
			<g id="XMLID_135_">
				<path class="st1" d="M425.3,305.8c-4.4,0-8.6-0.9-12.6-2.5c-3.9-1.6-7.3-4-10.3-6.9c-3-3-5.3-6.4-6.9-10.3
					c-0.4-0.8-0.7-1.7-0.9-2.5c-0.2-0.7-0.2-1.4,0.2-2c0.3-0.6,0.9-1.1,1.6-1.3l6.3-1.9c1.3-0.4,2.8,0.3,3.2,1.7
					c0.2,0.5,0.3,1,0.5,1.4c1,2.4,2.5,4.6,4.4,6.5c2.9,2.9,6.3,4.7,10.4,5.6c2.7,0.6,5.6,0.6,8.3,0c4-0.9,7.5-2.8,10.4-5.6
					c1.7-1.7,3.1-3.6,4.1-5.8c0.6-1.3,2.1-1.9,3.4-1.3l6,2.5c0.7,0.3,1.2,0.8,1.5,1.5c0.3,0.7,0.2,1.4-0.1,2.1
					c-1.6,3.5-3.8,6.7-6.5,9.4c-3,3-6.4,5.3-10.3,6.9C433.9,305,429.7,305.8,425.3,305.8z M398.2,283.3c0.2,0.5,0.3,0.9,0.5,1.3
					c1.5,3.4,3.5,6.5,6.2,9.2c2.6,2.7,5.7,4.7,9.2,6.2c7.1,3,15.3,3,22.5,0c3.4-1.5,6.5-3.5,9.2-6.2c2.2-2.2,4.1-4.8,5.4-7.6
					l-4.4-1.9c-1.1,2.2-2.6,4.3-4.4,6.1c-3.3,3.3-7.4,5.6-12.1,6.6c-3.2,0.7-6.6,0.7-9.8,0c-4.7-1-8.8-3.2-12.1-6.6
					c-2.2-2.2-4-4.8-5.2-7.7c-0.1-0.3-0.2-0.6-0.3-0.8L398.2,283.3z"/>
			</g>
		</g>
		<g id="XMLID_131_">
			<g id="XMLID_133_">
				<path class="st1" d="M454.6,281.4c-0.2,0-0.4,0-0.5-0.1l-6.4-1.3c-1.4-0.3-2.3-1.6-2.1-3c0.2-1.1,0.3-2.3,0.3-3.5
					c0-2.8-0.5-5.5-1.6-8c-1-2.4-2.5-4.6-4.4-6.5c-1.9-1.9-4.1-3.4-6.5-4.4c-5.1-2.1-10.9-2.1-16,0l-1,0.4c-1.2,0.5-2.7,0.1-3.3-1.1
					l-3.4-5.6c-0.4-0.6-0.5-1.4-0.3-2.1c0.2-0.7,0.7-1.3,1.3-1.6c0.5-0.3,1-0.5,1.5-0.7l0.4-0.2c4-1.7,8.1-2.6,12.2-2.7l0.1,3.5
					c-3.6,0.1-7.3,0.9-11,2.4l-0.5,0.2c-0.1,0-0.2,0.1-0.2,0.1l2.5,4.1l0.3-0.1c6-2.5,12.8-2.5,18.8,0c2.9,1.2,5.5,3,7.7,5.2
					c2.2,2.2,4,4.8,5.2,7.7c1.3,3,1.9,6.1,1.9,9.4c0,1.1-0.1,2.2-0.2,3.3l4.7,1c0.2-1.4,0.3-2.8,0.3-4.2c0-3.9-0.8-7.7-2.3-11.2
					c-1.5-3.4-3.5-6.5-6.2-9.2c-2.6-2.6-5.7-4.7-9.2-6.2l1.4-3.3c3.9,1.6,7.3,4,10.3,6.9c3,3,5.3,6.4,6.9,10.3
					c1.7,4,2.5,8.2,2.5,12.6c0,1.9-0.2,3.9-0.5,5.8c-0.1,0.7-0.5,1.3-1.1,1.7C455.6,281.2,455.1,281.4,454.6,281.4z"/>
			</g>
			<g id="XMLID_132_">
				<path class="st1" d="M433.9,245.9c-1.1-0.4-2.3-0.7-3.5-0.9l0.7-3.5c1.3,0.3,2.7,0.6,3.9,1L433.9,245.9z"/>
			</g>
		</g>
		<g id="XMLID_130_">
			<rect x="410.8" y="272.6" class="st4" width="6.3" height="12.4"/>
		</g>
		<g id="XMLID_129_">
			<rect x="421.5" y="267.7" class="st5" width="6.3" height="17.2"/>
		</g>
		<g id="XMLID_128_">
			<rect x="432.3" y="260.6" class="st4" width="6.3" height="24.4"/>
		</g>
		<g id="XMLID_122_">
			<path class="st1" d="M418.9,286.7h-9.9v-15.9h9.9V286.7z M412.6,283.2h2.8v-8.8h-2.8V283.2z"/>
		</g>
		<g id="XMLID_120_">
			<path class="st1" d="M429.7,286.7h-9.9v-20.8h9.9V286.7z M423.3,283.2h2.8v-13.7h-2.8V283.2z"/>
		</g>
		<g id="XMLID_119_">
			<path class="st1" d="M440.4,286.7h-9.9v-27.9h9.9V286.7z M434,283.2h2.8v-20.8H434V283.2z"/>
		</g>
	</g>
	<g id="XMLID_347_">
		<path id="XMLID_346_" class="st0" d="M279.1,423.1L166.3,310.3l12-12L291,411.1l9.2,20.6c0.2,0.4-0.2,0.8-0.6,0.6L279.1,423.1z"/>
		
			<rect id="XMLID_345_" x="148.9" y="352.2" transform="matrix(0.7071 0.7071 -0.7071 0.7071 322.0365 -56.0502)" class="st5" width="159.5" height="16.9"/>
		
			<rect id="XMLID_344_" x="151.9" y="353.5" transform="matrix(0.7071 0.7071 -0.7071 0.7071 320.7955 -59.0462)" class="st4" width="159.5" height="8.5"/>
		
			<rect id="XMLID_343_" x="169.4" y="302.4" transform="matrix(0.7071 0.7071 -0.7071 0.7071 272.6346 -35.5873)" class="st0" width="19.8" height="17.9"/>
		<g id="XMLID_342_">
			<path class="st1" d="M163.8,310.3l14.4-14.4l114.3,114.5l9.2,20.6c0.4,0.9,0.2,1.8-0.5,2.5c-0.7,0.7-1.6,0.8-2.5,0.5l-21.1-9.6
				L163.8,310.3z M178.3,300.8l-9.5,9.5l111.3,111.3l17.3,7.8l-7.8-17.3L178.3,300.8z"/>
		</g>
		<g id="XMLID_341_">
			
				<rect x="177.4" y="316.7" transform="matrix(0.7071 -0.7071 0.7071 0.7071 -170.68 224.8722)" class="st1" width="17.4" height="3.5"/>
		</g>
		<g id="XMLID_340_">
			
				<rect x="277.6" y="415.3" transform="matrix(0.7071 -0.7071 0.7071 0.7071 -211.4323 323.7233)" class="st1" width="14.8" height="3.5"/>
		</g>
	</g>
	<g>
		<path class="st1" d="M309.8,331.9h-74.4v-50.5h74.4V331.9z M242.8,324.5h59.7v-35.8h-59.7V324.5z"/>
	</g>
	<g>
		
			<rect x="268.9" y="271.8" transform="matrix(0.5144 -0.8575 0.8575 0.5144 -130.5469 382.6519)" class="st1" width="7.3" height="69.6"/>
	</g>
	<g>
		
			<rect x="237.8" y="302.9" transform="matrix(0.8575 -0.5145 0.5145 0.8575 -118.8956 183.9554)" class="st1" width="69.6" height="7.3"/>
	</g>
	<g>
		<g id="XMLID_745_">
			<g id="XMLID_746_">
				<path class="st6" d="M85.6,403.1h7.8v-15.7c0-7.9,6.4-14.3,14.3-14.3c7.9,0,14.3,6.4,14.3,14.3v15.7h7.8v-15.7
					c0-12.2-9.9-22.1-22.1-22.1c-12.2,0-22.1,9.9-22.1,22.1V403.1z"/>
			</g>
		</g>
		<g id="XMLID_743_">
			<g id="XMLID_744_">
				<path class="st1" d="M131.4,404.8h-11.1v-17.4c0-7-5.7-12.6-12.6-12.6c-7,0-12.6,5.7-12.6,12.6v17.4H83.9v-17.4
					c0-13.1,10.6-23.7,23.7-23.7c13.1,0,23.7,10.6,23.7,23.7V404.8z M123.6,401.5h4.5v-14c0-11.2-9.2-20.4-20.4-20.4
					s-20.4,9.2-20.4,20.4v14h4.5v-14c0-8.8,7.1-15.9,15.9-15.9c8.8,0,15.9,7.2,15.9,15.9V401.5z"/>
			</g>
		</g>
		<g id="XMLID_742_">
			<circle class="st0" cx="107.7" cy="417.6" r="28.5"/>
		</g>
		<g id="XMLID_741_">
			
				<ellipse transform="matrix(0.9734 -0.229 0.229 0.9734 -92.7858 35.7735)" class="st4" cx="107.7" cy="417.6" rx="16.2" ry="16.2"/>
		</g>
		<g id="XMLID_738_">
			<path class="st3" d="M101,417.6c0,3.7,3,6.7,6.7,6.7c3.7,0,6.7-3,6.7-6.7c0-3.7-3-6.7-6.7-6.7C104,410.9,101,413.9,101,417.6z"/>
		</g>
		<g id="XMLID_737_">
			<circle class="st1" cx="107.7" cy="417.6" r="2.6"/>
		</g>
		<g id="XMLID_725_">
			<path class="st1" d="M107.7,426c-4.6,0-8.4-3.8-8.4-8.4s3.8-8.4,8.4-8.4c4.6,0,8.4,3.8,8.4,8.4S112.4,426,107.7,426z
				 M107.7,412.5c-2.8,0-5.1,2.3-5.1,5.1c0,2.8,2.3,5.1,5.1,5.1c2.8,0,5.1-2.3,5.1-5.1C112.8,414.8,110.5,412.5,107.7,412.5z"/>
		</g>
		<g id="XMLID_723_">
			<path class="st1" d="M107.7,447.8c-9.1,0-17.6-4.1-23.4-11.1l2.6-2.1c5.1,6.3,12.7,9.9,20.8,9.9c14.8,0,26.8-12,26.8-26.8
				c0-14.8-12-26.8-26.8-26.8s-26.8,12-26.8,26.8c0,2.8,0.4,5.6,1.3,8.3l-3.2,1c-1-3-1.5-6.1-1.5-9.3c0-16.6,13.5-30.2,30.2-30.2
				c16.6,0,30.2,13.5,30.2,30.2C137.9,434.3,124.4,447.8,107.7,447.8z"/>
		</g>
		<g id="XMLID_722_">
			<path class="st1" d="M82.4,434c-0.4-0.7-0.8-1.3-1.2-2l2.9-1.6c0.3,0.6,0.7,1.2,1.1,1.8L82.4,434z"/>
		</g>
		<g id="XMLID_721_">
			<rect x="106" y="405" class="st1" width="3.3" height="3.7"/>
		</g>
		<g id="XMLID_720_">
			
				<rect x="100.6" y="406.5" transform="matrix(0.8659 -0.5002 0.5002 0.8659 -190.5213 105.8818)" class="st1" width="3.3" height="3.7"/>
		</g>
		<g id="XMLID_719_">
			
				<rect x="96.7" y="410.5" transform="matrix(0.5002 -0.8659 0.8659 0.5002 -307.8825 291.2477)" class="st1" width="3.3" height="3.7"/>
		</g>
		<g id="XMLID_718_">
			<rect x="95.1" y="416.1" class="st1" width="3.7" height="3.3"/>
		</g>
		<g id="XMLID_717_">
			
				<rect x="96.6" y="421.4" transform="matrix(0.8662 -0.4998 0.4998 0.8662 -198.2778 105.8259)" class="st1" width="3.7" height="3.3"/>
		</g>
		<g id="XMLID_716_">
			
				<rect x="100.6" y="425.3" transform="matrix(0.5006 -0.8657 0.8657 0.5006 -318.5055 301.919)" class="st1" width="3.7" height="3.3"/>
		</g>
		<g id="XMLID_715_">
			<rect x="106.2" y="426.6" class="st1" width="3.3" height="3.7"/>
		</g>
		<g id="XMLID_470_">
			
				<rect x="111.5" y="425.1" transform="matrix(0.8663 -0.4995 0.4995 0.8663 -198.1018 113.6067)" class="st1" width="3.3" height="3.7"/>
		</g>
		<g id="XMLID_462_">
			
				<rect x="115.4" y="421.1" transform="matrix(0.5008 -0.8655 0.8655 0.5008 -307.6073 312.4684)" class="st1" width="3.3" height="3.7"/>
		</g>
		<g id="XMLID_162_">
			<rect x="116.7" y="415.9" class="st1" width="3.7" height="3.3"/>
		</g>
		<g id="XMLID_160_">
			
				<rect x="115.2" y="410.5" transform="matrix(0.8667 -0.4988 0.4988 0.8667 -189.977 113.2923)" class="st1" width="3.7" height="3.3"/>
		</g>
		<g id="XMLID_159_">
			
				<rect x="111.2" y="406.6" transform="matrix(0.5006 -0.8657 0.8657 0.5006 -296.9559 301.7429)" class="st1" width="3.7" height="3.3"/>
		</g>
	</g>
	<g>
		<rect id="XMLID_112_" x="363" y="361.6" class="st0" width="93.6" height="53.7"/>
		<g id="XMLID_83_">
			<path class="st1" d="M458.1,416.7h-96.6v-56.7h96.6V416.7z M364.5,413.8h90.7V363h-90.7V413.8z"/>
		</g>
		<rect id="XMLID_193_" x="371.3" y="369.2" class="st5" width="77" height="38.9"/>
		<polygon id="XMLID_110_" class="st2" points="408.6,407.3 391.4,385.2 373.2,407.3 		"/>
		<g id="XMLID_109_">
			<polygon class="st1" points="374.3,408.3 372.1,406.4 391.4,382.8 397.9,391.1 395.5,392.9 391.4,387.5 			"/>
		</g>
		<polygon id="XMLID_108_" class="st7" points="433,406.9 410.9,378.4 387.5,406.9 		"/>
		<g id="XMLID_800_">
			<rect x="371.2" y="405.9" class="st1" width="77.3" height="3"/>
		</g>
		<path id="XMLID_106_" class="st0" d="M438.9,386c0-0.5-0.4-0.9-0.9-0.9c-0.1,0-0.3,0-0.4,0.1c-0.2-0.4-0.5-0.6-0.9-0.7
			c0-0.1,0.1-0.2,0.1-0.3c0-0.8-0.7-1.5-1.5-1.5c-0.4,0-0.7,0.2-1,0.4c-0.1-1.4-1.3-2.6-2.7-2.6c-1.3,0-2.3,0.9-2.6,2
			c-0.1,0-0.2,0-0.4,0c-0.9,0-1.6,0.6-1.8,1.4c-0.2-0.1-0.4-0.1-0.6-0.1c-1,0-1.7,0.8-1.7,1.7c0,0.3,0.1,0.6,0.3,0.9h14.2
			C438.8,386.3,438.9,386.2,438.9,386z"/>
		<path id="XMLID_195_" class="st0" d="M383.6,387.8c0-0.3-0.2-0.5-0.5-0.5c-0.1,0-0.1,0-0.2,0.1c-0.1-0.2-0.3-0.3-0.5-0.4
			c0-0.1,0-0.1,0-0.2c0-0.5-0.4-0.8-0.8-0.8c-0.2,0-0.4,0.1-0.6,0.2c-0.1-0.8-0.7-1.4-1.5-1.4c-0.7,0-1.3,0.5-1.5,1.1
			c-0.1,0-0.1,0-0.2,0c-0.5,0-0.9,0.3-1,0.8c-0.1,0-0.2-0.1-0.4-0.1c-0.5,0-1,0.4-1,1c0,0.2,0.1,0.3,0.1,0.5h8
			C383.6,388,383.6,387.9,383.6,387.8z"/>
		<path id="XMLID_105_" class="st0" d="M403.5,379.9c0-0.4-0.3-0.8-0.8-0.8c-0.1,0-0.2,0-0.3,0.1c-0.1-0.3-0.4-0.5-0.8-0.6
			c0-0.1,0-0.2,0-0.2c0-0.7-0.6-1.3-1.3-1.3c-0.3,0-0.6,0.1-0.9,0.4c-0.1-1.2-1.1-2.2-2.4-2.2c-1.1,0-2,0.7-2.3,1.7
			c-0.1,0-0.2,0-0.3,0c-0.8,0-1.4,0.5-1.6,1.2c-0.2-0.1-0.4-0.1-0.6-0.1c-0.8,0-1.5,0.7-1.5,1.5c0,0.3,0.1,0.5,0.2,0.7h12.3
			C403.5,380.2,403.5,380.1,403.5,379.9z"/>
		<g id="XMLID_196_">
			<polygon class="st1" points="388.6,407.8 386.3,405.9 410.9,376 434.2,406 431.8,407.8 410.8,380.8 			"/>
		</g>
	</g>
	<g id="XMLID_208_">
		<g id="XMLID_116_">
			<path class="st1" d="M32.6,324.9l-2.8-2.8l1.9-1.9l2.8,2.8L32.6,324.9z M36.4,321.1l-2.8-2.8l1.9-1.9l2.8,2.8L36.4,321.1z
				 M40.2,317.4l-2.8-2.8l1.9-1.9l2.8,2.8L40.2,317.4z M43.9,313.6l-2.8-2.8l1.9-1.9l2.8,2.8L43.9,313.6z M47.7,309.8l-2.8-2.8
				l1.9-1.9l2.8,2.8L47.7,309.8z M51.5,306.1l-2.8-2.8l1.9-1.9l2.8,2.8L51.5,306.1z M55.2,302.3l-2.8-2.8l1.9-1.9l2.8,2.8
				L55.2,302.3z M59,298.5l-2.8-2.8l1.9-1.9l2.8,2.8L59,298.5z M62.8,294.8l-2.8-2.8l1.9-1.9l2.8,2.8L62.8,294.8z M66.5,291
				l-2.8-2.8l1.9-1.9l2.8,2.8L66.5,291z M70.3,287.2l-2.8-2.8l1.9-1.9l2.8,2.8L70.3,287.2z M74,283.5l-2.8-2.8l1.9-1.9l2.8,2.8
				L74,283.5z M77.8,279.7l-2.8-2.8l1.9-1.9l2.8,2.8L77.8,279.7z M81.6,276l-2.8-2.8l1.9-1.9l2.8,2.8L81.6,276z M85.3,272.2
				l-2.8-2.8l1.9-1.9l2.8,2.8L85.3,272.2z M89.1,268.4l-2.8-2.8l1.9-1.9l2.8,2.8L89.1,268.4z M92.9,264.7l-2.8-2.8l1.9-1.9l2.8,2.8
				L92.9,264.7z M96.6,260.9l-2.8-2.8l1.9-1.9l2.8,2.8L96.6,260.9z M100.4,257.1l-2.8-2.8l1.9-1.9l2.8,2.8L100.4,257.1z
				 M104.2,253.4l-2.8-2.8l1.9-1.9l2.8,2.8L104.2,253.4z M107.9,249.6l-2.8-2.8l1.8-1.8l2.8,2.8L107.9,249.6z"/>
		</g>
		<g id="XMLID_115_">
			<path class="st1" d="M71.8,339.4h-4v-2.7h4V339.4z M71.8,334.1h-4v-2.7h4V334.1z M71.8,328.8h-4v-2.7h4V328.8z M71.8,323.5h-4
				v-2.7h4V323.5z M71.8,318.1h-4v-2.7h4V318.1z M71.8,312.8h-4v-2.7h4V312.8z M71.8,307.5h-4v-2.7h4V307.5z M71.8,302.2h-4v-2.7h4
				V302.2z M71.8,296.8h-4v-2.7h4V296.8z M71.8,291.5h-4v-2.7h4V291.5z M71.8,286.2h-4v-2.7h4V286.2z M71.8,280.9h-4v-2.7h4V280.9z
				 M71.8,275.6h-4v-2.7h4V275.6z M71.8,270.2h-4v-2.7h4V270.2z M71.8,264.9h-4v-2.7h4V264.9z M71.8,259.6h-4v-2.7h4V259.6z
				 M71.8,254.3h-4v-2.7h4V254.3z M71.8,248.9h-4v-2.7h4V248.9z M71.8,243.6h-4V241h4V243.6z M71.8,238.3h-4v-2.7h4V238.3z
				 M71.8,233h-4v-2.5h4V233z"/>
		</g>
		<g id="XMLID_113_">
			<path class="st1" d="M106.9,324.9L105,323l2.8-2.8l1.9,1.9L106.9,324.9z M103.1,321.1l-1.9-1.9l2.8-2.8l1.9,1.9L103.1,321.1z
				 M99.3,317.4l-1.9-1.9l2.8-2.8l1.9,1.9L99.3,317.4z M95.6,313.6l-1.9-1.9l2.8-2.8l1.9,1.9L95.6,313.6z M91.8,309.8l-1.9-1.9
				l2.8-2.8l1.9,1.9L91.8,309.8z M88.1,306.1l-1.9-1.9l2.8-2.8l1.9,1.9L88.1,306.1z M84.3,302.3l-1.9-1.9l2.8-2.8l1.9,1.9
				L84.3,302.3z M80.5,298.5l-1.9-1.9l2.8-2.8l1.9,1.9L80.5,298.5z M76.8,294.8l-1.9-1.9l2.8-2.8l1.9,1.9L76.8,294.8z M73,291
				l-1.9-1.9l2.8-2.8l1.9,1.9L73,291z M69.2,287.2l-1.9-1.9l2.8-2.8l1.9,1.9L69.2,287.2z M65.5,283.5l-1.9-1.9l2.8-2.8l1.9,1.9
				L65.5,283.5z M61.7,279.7l-1.9-1.9l2.8-2.8l1.9,1.9L61.7,279.7z M57.9,276l-1.9-1.9l2.8-2.8l1.9,1.9L57.9,276z M54.2,272.2
				l-1.9-1.9l2.8-2.8l1.9,1.9L54.2,272.2z M50.4,268.4l-1.9-1.9l2.8-2.8l1.9,1.9L50.4,268.4z M46.7,264.7l-1.9-1.9l2.8-2.8l1.9,1.9
				L46.7,264.7z M42.9,260.9L41,259l2.8-2.8l1.9,1.9L42.9,260.9z M39.1,257.1l-1.9-1.9l2.8-2.8l1.9,1.9L39.1,257.1z M35.4,253.4
				l-1.9-1.9l2.8-2.8l1.9,1.9L35.4,253.4z M31.6,249.6l-1.8-1.8l2.8-2.8l1.8,1.8L31.6,249.6z"/>
		</g>
		<g id="XMLID_104_">
			<path class="st1" d="M124.2,286.9h-2.7v-4h2.7V286.9z M118.9,286.9h-2.7v-4h2.7V286.9z M113.6,286.9h-2.7v-4h2.7V286.9z
				 M108.3,286.9h-2.7v-4h2.7V286.9z M102.9,286.9h-2.7v-4h2.7V286.9z M97.6,286.9H95v-4h2.7V286.9z M92.3,286.9h-2.7v-4h2.7V286.9z
				 M87,286.9h-2.7v-4H87V286.9z M81.7,286.9H79v-4h2.7V286.9z M76.3,286.9h-2.7v-4h2.7V286.9z M71,286.9h-2.7v-4H71V286.9z
				 M65.7,286.9H63v-4h2.7V286.9z M60.4,286.9h-2.7v-4h2.7V286.9z M55,286.9h-2.7v-4H55V286.9z M49.7,286.9h-2.7v-4h2.7V286.9z
				 M44.4,286.9h-2.7v-4h2.7V286.9z M39.1,286.9h-2.7v-4h2.7V286.9z M33.8,286.9h-2.7v-4h2.7V286.9z M28.4,286.9h-2.7v-4h2.7V286.9z
				 M23.1,286.9h-2.7v-4h2.7V286.9z M17.8,286.9h-2.5v-4h2.5V286.9z"/>
		</g>
		<path id="XMLID_230_" class="st7" d="M78,321v15.4c0,4.7-3.9,8.6-8.6,8.6l0,0c-4.7,0-8.6-3.9-8.6-8.6V321H78z"/>
		<g id="XMLID_229_">
			<path class="st1" d="M69.4,347c-5.8,0-10.6-4.7-10.6-10.6V319H80v17.4C80,342.3,75.2,347,69.4,347z M62.8,323v13.4
				c0,3.6,3,6.6,6.6,6.6s6.6-3,6.6-6.6V323H62.8z"/>
		</g>
		<path id="XMLID_227_" class="st5" d="M100.9,284.7c0,17.2-13.9,31.1-31.1,31.1c-17.2,0-31.1-13.9-31.1-31.1
			c0-17.2,13.9-31.1,31.1-31.1C86.9,253.6,100.9,267.5,100.9,284.7z"/>
		<rect id="XMLID_226_" x="54.7" y="291.6" class="st5" width="30.1" height="34.2"/>
		<g>
			<path class="st1" d="M86.8,327.8H52.7v-14.7c-9.9-6-16.1-16.7-16.1-28.4c0-18.3,14.9-33.1,33.1-33.1c18.3,0,33.1,14.9,33.1,33.1
				c0,11.6-6.1,22.4-16.1,28.4V327.8z M56.7,323.8h26.1v-13l1-0.6c9.3-5.1,15-14.9,15-25.5c0-16.1-13.1-29.1-29.1-29.1
				c-16.1,0-29.1,13.1-29.1,29.1c0,10.6,5.8,20.4,15,25.5l1,0.6V323.8z"/>
		</g>
		<rect id="XMLID_225_" x="54.5" y="324.2" class="st7" width="30.8" height="8.5"/>
		<g id="XMLID_224_">
			<path class="st1" d="M87.3,334.6H52.5v-12.5h34.8V334.6z M56.5,330.6h26.8v-4.5H56.5V330.6z"/>
		</g>
		<g id="XMLID_103_">
			<rect x="67.4" y="284.7" class="st1" width="4" height="39.4"/>
		</g>
		<g id="XMLID_84_">
			<rect x="59" y="283.3" class="st1" width="21.1" height="4"/>
		</g>
	</g>
</g>
</svg>
