<?xml version="1.0" encoding="utf-8"?>
<!-- Generator: Adobe Illustrator 22.1.0, SVG Export Plug-In . SVG Version: 6.00 Build 0)  -->
<svg version="1.1" id="apps_development" xmlns="http://www.w3.org/2000/svg" xmlns:xlink="http://www.w3.org/1999/xlink" x="0px"
	 y="0px" viewBox="0 0 500 181.7" style="enable-background:new 0 0 500 181.7;" xml:space="preserve">
<style type="text/css">
	.st0{fill:#DCE4E8;}
	.st1{opacity:0.2;fill:#2D333A;}
	.st2{fill:#FFFFFF;}
	.st3{fill:#B7BFC7;}
	.st4{fill:#2D333A;}
	.st5{fill:#FF5B40;}
	.st6{fill:#FFB13E;}
	.st7{fill:#00BFFF;}
	.st8{opacity:0.3;fill:#2D333A;}
	.st9{fill-rule:evenodd;clip-rule:evenodd;fill:#FFFFFF;}
</style>
<g>
	<g>
		<path class="st0" d="M417.1,20.8H85.5c-9.5,0-17.3,7.7-17.3,17.3l0,0c0,9.5,7.7,17.3,17.3,17.3h63.9c5.7,0,10.4,4.6,10.4,10.4l0,0
			c0,5.7-4.6,10.4-10.4,10.4H41.1c-8.5,0-15.4,6.9-15.4,15.4v0c0,8.5,6.9,15.4,15.4,15.4h142.6c6.7,0,12.2,5.5,12.2,12.2l0,0
			c0,6.7-5.5,12.1-12.2,12.1H18.3c-6.9,0-12.5,5.6-12.5,12.5v1.7c0,6.9,5.6,12.5,12.5,12.5h421.7c9.6,0,17.5-7.8,17.5-17.5v0
			c0-9.6-7.8-17.5-17.5-17.5H287.2c-6.9,0-12.5-5.6-12.5-12.5l0,0c0-6.9,5.6-12.5,12.5-12.5h191.1c8.7,0,15.8-7.1,15.8-15.8l0,0
			c0-8.7-7.1-15.8-15.8-15.8h-226c-5.6,0-10.2-4.6-10.2-10.2l0,0c0-5.6,4.6-10.2,10.2-10.2h169.9c6.9,0,12.5-5.6,12.5-12.5l0,0
			c0-6.9-5.6-12.5-12.5-12.5H417.1z"/>
	</g>
	<g>
		<rect x="172.2" y="33.4" class="st1" width="28" height="143.8"/>
		<g>
			<rect x="80" y="26.4" class="st2" width="128.4" height="150.9"/>
			<rect x="80" y="26.4" class="st3" width="128.4" height="11"/>
			<path class="st2" d="M92,31.9c0,0.9-0.7,1.6-1.6,1.6c-0.9,0-1.6-0.7-1.6-1.6c0-0.9,0.7-1.6,1.6-1.6C91.3,30.3,92,31,92,31.9z"/>
			<path class="st2" d="M99.5,31.9c0,0.9-0.7,1.6-1.6,1.6c-0.9,0-1.6-0.7-1.6-1.6c0-0.9,0.7-1.6,1.6-1.6
				C98.8,30.3,99.5,31,99.5,31.9z"/>
			<path class="st2" d="M107,31.9c0,0.9-0.7,1.6-1.6,1.6c-0.9,0-1.6-0.7-1.6-1.6c0-0.9,0.7-1.6,1.6-1.6C106.3,30.3,107,31,107,31.9z
				"/>
			<rect x="92.9" y="159.5" class="st0" width="12.5" height="12.5"/>
			<rect x="110.8" y="159.5" class="st0" width="12.5" height="12.5"/>
			<rect x="128.7" y="159.5" class="st0" width="12.5" height="12.5"/>
			<rect x="146.6" y="159.5" class="st0" width="12.5" height="12.5"/>
			<rect x="164.6" y="159.5" class="st0" width="12.5" height="12.5"/>
			<rect x="182.5" y="159.5" class="st0" width="12.5" height="12.5"/>
			<g>
				<path class="st4" d="M209.6,178.5H78.7V25.1h130.8V178.5z M81.2,176h125.9V27.6H81.2V176z"/>
			</g>
			<g>
				<path class="st4" d="M208.3,38.6H80c-0.7,0-1.2-0.6-1.2-1.2c0-0.7,0.6-1.2,1.2-1.2h128.4c0.7,0,1.2,0.6,1.2,1.2
					C209.6,38,209,38.6,208.3,38.6z"/>
			</g>
			<rect x="88.9" y="47" class="st5" width="110.5" height="48.5"/>
			<rect x="88.9" y="99.4" class="st6" width="52.4" height="25.8"/>
			<rect x="146.9" y="99.4" class="st7" width="52.4" height="25.8"/>
			<g>
				<rect x="101.4" y="134" class="st0" width="85.3" height="1.6"/>
				<rect x="101.5" y="139.1" class="st0" width="85.3" height="1.6"/>
				<rect x="101.5" y="144.3" class="st0" width="85.3" height="1.6"/>
				<rect x="120.9" y="149.4" class="st0" width="43.6" height="1.6"/>
			</g>
		</g>
		<g>
			<path class="st6" d="M249.1,148.3c0.4,0,0.8,0,1.2,0c19.3,0,37.4-7.5,51-21.1l-4-4c-12.5,12.5-29.2,19.5-47,19.5
				c-17.7,0-34.4-6.9-47-19.5c-12.5-12.5-19.4-29.2-19.4-47c0-17.7,6.9-34.4,19.4-47c8-8,17.8-13.8,28.6-16.9L230.3,7
				c-11.7,3.4-22.4,9.7-31,18.3c-13.6,13.6-21.1,31.7-21.1,51c0,19.3,7.5,37.4,21.1,51c12,12,27.5,19.2,44.1,20.8v22.7h-20.7v5.7
				h47.1v-5.7h-20.7V148.3z"/>
			<g>
				<path class="st4" d="M271.4,178h-50.2v-8.8h20.7v-19.8c-16.7-1.9-31.7-9.1-43.7-21.1c-13.9-13.9-21.6-32.4-21.6-52.1
					c0-19.7,7.7-38.2,21.6-52.1C207,15.4,218,8.9,229.9,5.5l1.5-0.4l2.4,8.5l-1.5,0.4c-10.5,3-20.1,8.7-27.9,16.5
					c-12.2,12.2-19,28.5-19,45.9c0,17.3,6.7,33.6,19,45.9c12.2,12.2,28.5,19,45.9,19c17.3,0,33.6-6.7,45.9-19l1.1-1.1l6.2,6.2
					l-1.1,1.1c-13.8,13.8-32.2,21.5-51.7,21.6v19.3h20.7V178z M224.3,174.9h44v-2.6h-20.7v-25.6l2.1,0c0.2,0,0.4,0,0.6,0
					c18.3,0,35.6-6.9,48.8-19.6l-1.8-1.8c-12.7,12.1-29.3,18.8-46.9,18.8c-18.2,0-35.2-7.1-48.1-19.9
					c-12.8-12.8-19.9-29.9-19.9-48.1c0-18.2,7.1-35.2,19.9-48.1c7.8-7.8,17.3-13.6,27.8-16.8l-0.7-2.5c-10.8,3.4-20.8,9.4-28.9,17.5
					c-13.3,13.3-20.7,31-20.7,49.9c0,18.8,7.3,36.6,20.7,49.9c11.8,11.8,26.7,18.8,43.2,20.3l1.4,0.1v25.7h-20.7V174.9z"/>
			</g>
			<path class="st2" d="M198.2,107.4c17.2,28.8,54.4,38.1,83.2,21c28.8-17.2,38.2-54.4,21-83.2c-17.2-28.8-54.4-38.1-83.2-21
				C190.5,41.5,181.1,78.7,198.2,107.4z"/>
			<g>
				<path class="st4" d="M250.4,138.6C250.4,138.6,250.4,138.6,250.4,138.6c-21.8,0-42.3-11.6-53.5-30.3
					c-17.6-29.4-7.9-67.7,21.5-85.3c9.6-5.8,20.7-8.8,31.8-8.8c21.8,0,42.3,11.6,53.5,30.3c8.5,14.3,11,31,6.9,47.1
					c-4.1,16.1-14.2,29.7-28.4,38.2C272.5,135.5,261.5,138.6,250.4,138.6z M250.3,17.3c-10.6,0-21.1,2.9-30.2,8.4
					c-28,16.7-37.1,53-20.4,81c10.6,17.8,30.1,28.8,50.8,28.8c0,0,0,0,0,0c10.6,0,21.1-2.9,30.2-8.4c13.6-8.1,23.1-21,27-36.3
					c3.9-15.3,1.5-31.2-6.6-44.7C290.4,28.3,271,17.3,250.3,17.3z"/>
			</g>
			<g>
				<path class="st4" d="M261.4,137.5c-0.2,0-0.5-0.1-0.7-0.2c-16.5-8.5-31.7-23.3-42.8-41.8c-10.9-18.3-16.8-38.6-16.6-57
					c0-0.9,0.7-1.5,1.6-1.5c0.9,0,1.5,0.7,1.5,1.6c-0.3,17.9,5.5,37.5,16.1,55.4c10.8,18,25.5,32.5,41.5,40.7
					c0.8,0.4,1.1,1.3,0.7,2.1C262.5,137.2,262,137.5,261.4,137.5z"/>
			</g>
			<g>
				<path class="st4" d="M296.2,116.7C296.2,116.7,296.2,116.7,296.2,116.7c-0.9,0-1.6-0.7-1.6-1.6c0.4-18-5.3-37.8-16.1-55.9
					c-10.6-17.8-25.2-32.2-41.1-40.4c-0.8-0.4-1.1-1.3-0.7-2.1c0.4-0.8,1.3-1.1,2.1-0.7c16.4,8.5,31.4,23.3,42.3,41.6
					c11.1,18.5,16.9,38.9,16.5,57.5C297.7,116.1,297,116.7,296.2,116.7z"/>
			</g>
			<g>
				<path class="st4" d="M281.4,130c-0.5,0-1-0.3-1.3-0.8L217.9,25.1c-0.4-0.7-0.2-1.7,0.5-2.1c0.7-0.4,1.7-0.2,2.1,0.5l62.2,104.1
					c0.4,0.7,0.2,1.7-0.5,2.1C281.9,129.9,281.7,130,281.4,130z"/>
			</g>
			<g>
				<path class="st4" d="M198.2,109c-0.5,0-1-0.3-1.3-0.8c-0.4-0.7-0.2-1.7,0.5-2.1l104.1-62.2c0.7-0.4,1.7-0.2,2.1,0.5
					c0.4,0.7,0.2,1.7-0.5,2.1L199,108.8C198.8,108.9,198.5,109,198.2,109z"/>
			</g>
			<g>
				<path class="st4" d="M189.7,80.5c-0.5,0-1-0.3-1.3-0.8c-0.4-0.7-0.2-1.7,0.5-2.1L278.8,24c0.7-0.4,1.7-0.2,2.1,0.5
					c0.4,0.7,0.2,1.7-0.5,2.1l-89.9,53.7C190.2,80.5,189.9,80.5,189.7,80.5z"/>
			</g>
			<g>
				<path class="st4" d="M220.2,129.5c-0.5,0-1-0.3-1.3-0.8c-0.4-0.7-0.2-1.7,0.5-2.1l90.7-54.2c0.7-0.4,1.7-0.2,2.1,0.5
					c0.4,0.7,0.2,1.7-0.5,2.1L221,129.2C220.7,129.4,220.4,129.5,220.2,129.5z"/>
			</g>
		</g>
		<g>
			<rect x="278.1" y="60.5" class="st7" width="194.7" height="116.8"/>
			<g>
				<path class="st4" d="M474,178.5H276.9V59.2H474V178.5z M279.4,176h192.2V61.7H279.4V176z"/>
			</g>
			<rect x="290.1" y="72.9" class="st2" width="169.7" height="91.8"/>
			<g>
				<path class="st4" d="M461.1,166H288.9V71.7h172.2V166z M291.4,163.5h167.2V74.2H291.4V163.5z"/>
			</g>
			<rect x="335.7" y="83.8" class="st0" width="78.6" height="7"/>
			<rect x="302.2" y="103.7" class="st0" width="145.9" height="3.5"/>
			<rect x="302" y="113.3" class="st0" width="145.9" height="3.5"/>
			<rect x="301.9" y="123" class="st0" width="145.9" height="3.5"/>
			<rect x="301.7" y="132.6" class="st0" width="102.8" height="3.5"/>
			<g>
				<polygon class="st0" points="430.2,153.3 430.2,170.5 439.6,176 439.6,153.3 				"/>
				<polygon class="st3" points="420.8,153.3 420.8,176 430.2,170.5 430.2,153.3 				"/>
				<path class="st1" d="M420.8,152.4v8.5c3.1,1.8,6.7,2.9,10.5,2.9c2.9,0,5.7-0.6,8.2-1.7v-9.7h-9.4H420.8z"/>
				<g>
					<path class="st4" d="M419.6,178.2v-26.1h21.2v26.1l-10.6-6.3L419.6,178.2z M430.2,169l8.2,4.8v-19.4H422v19.4L430.2,169z"/>
				</g>
				<path class="st6" d="M448,143.7c0,0.9-1.8,1.7-2,2.6c-0.2,0.9,1.3,2.3,1,3.1c-0.3,0.9-2.3,1-2.7,1.7c-0.5,0.8,0.4,2.5-0.2,3.2
					c-0.6,0.7-2.5,0.1-3.2,0.7c-0.7,0.6-0.5,2.5-1.3,3c-0.8,0.4-2.4-0.7-3.2-0.4c-0.8,0.3-1.3,2.2-2.2,2.4c-0.9,0.2-1.9-1.5-2.9-1.5
					c-0.9,0-2,1.7-2.9,1.5c-0.9-0.2-1.4-2.1-2.2-2.4c-0.9-0.3-2.4,0.9-3.2,0.4c-0.8-0.5-0.5-2.4-1.2-3c-0.7-0.6-2.6,0-3.2-0.7
					c-0.6-0.7,0.3-2.5-0.2-3.2c-0.5-0.8-2.4-0.9-2.7-1.7c-0.3-0.8,1.1-2.2,1-3.1c-0.2-0.9-2-1.6-2-2.6c0-0.9,1.8-1.7,2-2.6
					c0.2-0.9-1.3-2.2-1-3.1c0.3-0.9,2.3-1,2.7-1.8c0.5-0.8-0.4-2.5,0.1-3.2c0.6-0.7,2.5-0.1,3.2-0.7c0.7-0.6,0.5-2.5,1.2-3
					c0.8-0.5,2.4,0.7,3.2,0.4c0.8-0.3,1.3-2.2,2.2-2.4c0.9-0.1,1.9,1.5,2.9,1.5c0.9,0,2-1.6,2.9-1.5c0.9,0.2,1.4,2.1,2.2,2.4
					c0.9,0.3,2.4-0.9,3.2-0.4c0.8,0.5,0.5,2.4,1.2,3c0.7,0.6,2.6,0,3.2,0.7c0.6,0.7-0.3,2.4,0.2,3.2c0.5,0.8,2.4,0.9,2.7,1.8
					c0.3,0.9-1.1,2.2-1,3.1C446.1,141.9,448,142.7,448,143.7z"/>
				<g>
					<path class="st4" d="M434.2,161.7c-0.9,0-1.6-0.6-2.2-1c-0.2-0.2-0.6-0.5-0.7-0.5c0,0-0.4,0.3-0.6,0.5c-0.6,0.5-1.3,1-2.2,1
						l-0.4,0c-1-0.2-1.6-1.1-2-1.8c-0.1-0.2-0.4-0.6-0.5-0.7c0,0.1-0.4,0.2-0.7,0.3c-0.9,0.3-1.9,0.5-2.7,0.1
						c-0.9-0.5-1.1-1.6-1.3-2.4c0-0.2-0.1-0.6-0.2-0.8c-0.2,0-0.6,0-0.8-0.1c-0.9,0-1.9,0-2.6-0.9c-0.7-0.8-0.5-1.9-0.4-2.7
						c0-0.3,0.1-0.7,0.1-0.9c0,0-0.5-0.1-0.7-0.2c-0.8-0.3-1.8-0.7-2.1-1.7c-0.4-1,0.1-1.9,0.5-2.7c0.1-0.2,0.3-0.5,0.4-0.7
						c-0.1-0.1-0.4-0.4-0.6-0.5c-0.6-0.6-1.4-1.3-1.4-2.3c0-1.1,0.8-1.8,1.4-2.3c0.2-0.2,0.4-0.4,0.6-0.5c-0.1-0.2-0.2-0.5-0.4-0.7
						c-0.4-0.7-0.9-1.7-0.6-2.7c0.4-1,1.4-1.4,2.1-1.7c0.2-0.1,0.6-0.2,0.7-0.3c0-0.2-0.1-0.6-0.1-0.8c-0.1-0.8-0.3-1.9,0.4-2.7
						c0.7-0.8,1.7-0.8,2.6-0.8c0.2,0,0.6,0,0.8-0.1c0.1-0.2,0.1-0.5,0.2-0.8c0.2-0.8,0.4-1.9,1.3-2.4c0.8-0.4,1.8-0.2,2.7,0.1
						c0.3,0.1,0.7,0.2,0.9,0.2c0,0,0.2-0.4,0.4-0.7c0.4-0.7,1-1.6,2-1.8l0.3,0c0.9,0,1.6,0.5,2.2,1c0.2,0.2,0.6,0.5,0.8,0.5
						c0,0,0.4-0.3,0.6-0.5c0.6-0.5,1.3-1,2.2-1l0.3,0c1.1,0.2,1.6,1.1,2.1,1.8c0.1,0.2,0.4,0.6,0.5,0.7c0-0.1,0.4-0.2,0.7-0.3
						c0.9-0.3,2-0.5,2.7-0.1c0.9,0.5,1.1,1.5,1.3,2.4c0.1,0.3,0.1,0.7,0.2,0.9c0,0,0.5,0,0.8,0c0.9,0,1.9,0,2.6,0.9
						c0.7,0.8,0.5,1.8,0.4,2.7c0,0.3-0.1,0.7-0.1,0.9c0,0,0.5,0.1,0.7,0.2c0.8,0.3,1.8,0.7,2.1,1.7c0.4,1-0.2,1.9-0.6,2.7
						c-0.1,0.2-0.3,0.5-0.4,0.7c0.1,0.2,0.4,0.4,0.6,0.5c0.6,0.6,1.4,1.3,1.4,2.3c0,1.1-0.8,1.8-1.5,2.3c-0.2,0.2-0.4,0.4-0.6,0.5
						c0.1,0.2,0.2,0.5,0.4,0.7c0.4,0.7,0.9,1.7,0.6,2.6c-0.4,1-1.4,1.4-2.1,1.7c-0.3,0.1-0.7,0.3-0.8,0.4c0,0,0.1,0.5,0.2,0.8
						c0.1,0.8,0.3,1.9-0.4,2.7c-0.7,0.8-1.7,0.8-2.6,0.9c-0.2,0-0.6,0-0.8,0c-0.1,0.2-0.1,0.6-0.2,0.8c-0.2,0.8-0.4,1.9-1.3,2.4
						c-0.8,0.5-1.8,0.2-2.7-0.1c-0.3-0.1-0.7-0.2-0.9-0.2c0,0-0.2,0.4-0.4,0.7c-0.4,0.7-1,1.6-2.1,1.8L434.2,161.7z M431.3,157.7
						c0.9,0,1.6,0.6,2.2,1.1c0.2,0.1,0.4,0.3,0.6,0.4c0.1-0.1,0.2-0.4,0.4-0.6c0.4-0.7,0.9-1.4,1.7-1.7c0.7-0.3,1.7,0,2.4,0.2
						c0.2,0.1,0.4,0.1,0.6,0.2c0.1-0.2,0.1-0.5,0.2-0.7c0.2-0.8,0.3-1.6,1-2.2c0.7-0.6,1.6-0.6,2.3-0.6c0.2,0,0.5,0,0.7,0
						c0-0.1-0.1-0.5-0.1-0.7c-0.1-0.8-0.2-1.7,0.2-2.4c0.4-0.8,1.3-1.1,2-1.4c0.2-0.1,0.4-0.2,0.6-0.3c-0.1-0.2-0.2-0.4-0.3-0.6
						c-0.4-0.7-0.8-1.5-0.7-2.3c0.2-0.9,0.8-1.4,1.4-2c0.2-0.1,0.4-0.3,0.5-0.5c-0.1-0.2-0.4-0.4-0.5-0.5c-0.6-0.5-1.2-1.1-1.4-2
						c-0.2-0.9,0.3-1.7,0.6-2.3c0.1-0.2,0.2-0.4,0.3-0.6c-0.2-0.1-0.4-0.2-0.6-0.3c-0.7-0.3-1.6-0.6-2-1.4c-0.4-0.8-0.3-1.6-0.2-2.4
						c0-0.2,0.1-0.5,0.1-0.7c-0.2,0-0.5,0-0.7,0c-0.8,0-1.7,0-2.3-0.6c-0.7-0.6-0.9-1.4-1-2.2c0-0.2-0.1-0.5-0.2-0.7
						c-0.2,0-0.5,0.1-0.7,0.2c-0.7,0.2-1.7,0.5-2.4,0.2c-0.8-0.3-1.3-1-1.7-1.7c-0.1-0.2-0.3-0.4-0.4-0.6c-0.1,0.1-0.4,0.3-0.5,0.4
						c-0.6,0.5-1.3,1.1-2.2,1.1c-0.9,0-1.6-0.6-2.2-1.1c-0.1-0.1-0.4-0.3-0.5-0.4c-0.1,0.2-0.3,0.4-0.4,0.6
						c-0.4,0.7-0.9,1.4-1.7,1.7c-0.7,0.3-1.7,0-2.4-0.2c-0.2-0.1-0.5-0.2-0.7-0.2c-0.1,0.2-0.1,0.5-0.2,0.7c-0.2,0.8-0.3,1.6-1,2.2
						c-0.7,0.6-1.5,0.6-2.3,0.6c-0.2,0-0.5,0-0.7,0c0,0.2,0.1,0.5,0.1,0.7c0.1,0.8,0.2,1.6-0.2,2.4c-0.4,0.8-1.3,1.1-2,1.4
						c-0.2,0.1-0.5,0.2-0.6,0.3c0.1,0.2,0.2,0.4,0.3,0.6c0.4,0.7,0.8,1.5,0.6,2.3c-0.2,0.9-0.8,1.4-1.4,2c-0.2,0.1-0.4,0.3-0.5,0.5
						c0.1,0.2,0.4,0.4,0.5,0.5c0.6,0.5,1.2,1.1,1.4,1.9c0.1,0.9-0.3,1.7-0.7,2.4c-0.1,0.2-0.2,0.4-0.3,0.6c0.2,0.1,0.5,0.2,0.6,0.3
						c0.7,0.3,1.5,0.6,2,1.4c0.4,0.8,0.3,1.6,0.2,2.4c0,0.2-0.1,0.5-0.1,0.7c0.2,0,0.5,0,0.7,0c0.8,0,1.7,0,2.3,0.6
						c0.7,0.6,0.9,1.4,1,2.2c0,0.2,0.1,0.5,0.2,0.7c0.2,0,0.4-0.1,0.6-0.2c0.7-0.3,1.7-0.5,2.4-0.2c0.8,0.3,1.3,1,1.7,1.7
						c0.1,0.2,0.3,0.4,0.4,0.6c0.1-0.1,0.4-0.3,0.5-0.4C429.7,158.3,430.5,157.7,431.3,157.7z"/>
				</g>
				<path class="st4" d="M431.3,155.1c-6.3,0-11.4-5.1-11.4-11.4c0-6.3,5.1-11.4,11.4-11.4c6.3,0,11.4,5.1,11.4,11.4
					C442.7,149.9,437.6,155.1,431.3,155.1z"/>
				<path class="st6" d="M438.6,136l-14.4,15.3c1.9,1.8,4.4,2.9,7.2,2.9c5.8,0,10.5-4.7,10.5-10.5
					C441.9,140.6,440.6,137.9,438.6,136z"/>
				<path class="st6" d="M431.3,133.1c-5.8,0-10.5,4.7-10.5,10.5c0,3,1.3,5.7,3.3,7.7l14.4-15.3
					C436.7,134.2,434.1,133.1,431.3,133.1z"/>
			</g>
		</g>
		<g>
			
				<rect x="251.1" y="120.6" transform="matrix(5.678270e-03 -1 1 5.678270e-03 166.6753 427.5186)" class="st6" width="94.5" height="18.6"/>
			<g>
				<path class="st4" d="M308.6,178.5l-21.1-0.1l0.6-96.9l21.1,0.1L308.6,178.5z M290,175.9l16.2,0.1l0.5-92l-16.2-0.1L290,175.9z"
					/>
			</g>
			
				<rect x="271.9" y="126.5" transform="matrix(5.648364e-03 -1 1 5.648364e-03 165.5788 428.2758)" class="st2" width="52.5" height="8.8"/>
		</g>
		<g>
			<rect x="280.9" y="81.5" class="st8" width="15" height="95.7"/>
			<rect x="257.9" y="69.3" class="st1" width="22.6" height="81.9"/>
			<rect x="266" y="70.1" class="st5" width="25.4" height="107.1"/>
			<g>
				<path class="st4" d="M292.6,178.5h-27.8V68.9h27.8V178.5z M267.2,176h22.9V71.3h-22.9V176z"/>
			</g>
			<rect x="271.3" y="75.2" class="st2" width="14.8" height="23"/>
			<rect x="271.3" y="144.7" class="st2" width="14.8" height="23"/>
		</g>
		<g>
			<rect x="320.6" y="84.4" class="st7" width="26.9" height="92.8"/>
			<rect x="334" y="84.4" class="st7" width="13.5" height="92.8"/>
			<path class="st2" d="M343.9,103.3c0,5.5-4.4,9.9-9.9,9.9c-5.5,0-9.9-4.4-9.9-9.9c0-5.5,4.4-9.9,9.9-9.9
				C339.5,93.4,343.9,97.9,343.9,103.3z"/>
			<g>
				<path class="st4" d="M348.7,178.5h-29.4V83.2h29.4V178.5z M321.8,176h24.5V85.7h-24.5V176z"/>
			</g>
		</g>
		<g>
			<rect x="301.4" y="82.8" class="st1" width="15.7" height="94.5"/>
			<rect x="312" y="82.7" class="st1" width="15.7" height="94.5"/>
			<rect x="306.3" y="59.1" class="st0" width="15.7" height="118.1"/>
			<rect x="306.3" y="72.5" class="st7" width="15.7" height="13.9"/>
			<rect x="306.3" y="154.3" class="st7" width="15.7" height="13.9"/>
			<g>
				<path class="st4" d="M323.2,178.5H305V57.9h18.1V178.5z M307.5,176h13.2V60.3h-13.2V176z"/>
			</g>
		</g>
		<g>
			<path class="st0" d="M214.6,172.5c0,2.6-2.1,4.7-4.7,4.7h-97.7c-2.6,0-4.7-2.1-4.7-4.7v-60.9c0-2.6,2.1-4.7,4.7-4.7h97.7
				c2.6,0,4.7,2.1,4.7,4.7V172.5z"/>
			<g>
				<path class="st4" d="M209.9,178.5h-97.7c-3.3,0-5.9-2.7-5.9-5.9v-60.9c0-3.3,2.7-5.9,5.9-5.9h97.7c3.3,0,5.9,2.7,5.9,5.9v60.9
					C215.9,175.8,213.2,178.5,209.9,178.5z M112.2,108.2c-1.9,0-3.5,1.6-3.5,3.5v60.9c0,1.9,1.6,3.5,3.5,3.5h97.7
					c1.9,0,3.5-1.6,3.5-3.5v-60.9c0-1.9-1.6-3.5-3.5-3.5H112.2z"/>
			</g>
			<g>
				<rect x="208.3" y="135.5" class="st4" width="2.5" height="13.1"/>
			</g>
			<rect x="117.6" y="115.1" class="st2" width="87.7" height="53.9"/>
			<g>
				<path class="st4" d="M206.5,170.3h-90.2v-56.4h90.2V170.3z M118.8,167.8h85.3v-51.5h-85.3V167.8z"/>
			</g>
			<rect x="124" y="124.2" class="st3" width="21.8" height="21.8"/>
			<rect x="151.2" y="124.2" class="st7" width="21.8" height="21.8"/>
			<rect x="178.5" y="124.2" class="st5" width="21.8" height="21.8"/>
			<rect x="124" y="149" class="st0" width="74.2" height="2.5"/>
			<rect x="124" y="155.8" class="st0" width="74.2" height="2.5"/>
			<rect x="124" y="162.6" class="st0" width="38.2" height="2.5"/>
		</g>
		<g>
			<g>
				<path class="st6" d="M186.2,149.9c0-2.2-1.8-3.9-3.9-3.9h-35.3c-2.2,0-3.9,1.8-3.9,3.9v11.7h43.2V149.9z"/>
				<path class="st6" d="M143,161.6v11.7c0,2.2,1.8,3.9,3.9,3.9h35.3c2.2,0,3.9-1.8,3.9-3.9v-11.7H143z"/>
				<polygon class="st9" points="156.7,152.6 156.7,170.7 172.4,161.6 				"/>
				<g>
					<path class="st4" d="M182.2,178.5h-35.3c-2.8,0-5.2-2.3-5.2-5.2v-23.4c0-2.8,2.3-5.2,5.2-5.2h35.3c2.8,0,5.2,2.3,5.2,5.2v23.4
						C187.4,176.1,185.1,178.5,182.2,178.5z M146.9,147.2c-1.5,0-2.7,1.2-2.7,2.7v23.4c0,1.5,1.2,2.7,2.7,2.7h35.3
						c1.5,0,2.7-1.2,2.7-2.7v-23.4c0-1.5-1.2-2.7-2.7-2.7H146.9z"/>
				</g>
			</g>
		</g>
		<g>
			<polygon class="st0" points="45.5,38.2 35.2,55.5 55.8,55.5 			"/>
			<polygon class="st4" points="45.5,38.8 42.1,44.5 48.9,44.5 			"/>
			<g>
				<polygon class="st4" points="54.7,56.1 45.5,40.6 36.2,55.8 34.1,54.5 45.5,35.9 56.8,54.9 				"/>
			</g>
			<g>
				<polygon class="st5" points="42,177.2 35.2,177.2 35.2,55.5 38.6,52.6 42,55.5 				"/>
				<polygon class="st6" points="48.9,177.2 42,177.2 42,55.5 45.5,52.6 48.9,55.5 				"/>
				<polygon class="st6" points="55.8,177.2 48.9,177.2 48.9,55.5 52.3,52.6 55.8,55.5 				"/>
			</g>
			<rect x="36.3" y="168.4" class="st5" width="19.5" height="8.2"/>
			<rect x="48.9" y="168.4" class="st5" width="6.9" height="8.2"/>
			<rect x="36.3" y="164.2" class="st0" width="19.5" height="5.7"/>
			<rect x="36.3" y="167" class="st2" width="19.5" height="2.8"/>
			<g>
				<path class="st4" d="M57,178.5H33.9V54.9l4.7-4l3.4,2.9l3.4-2.9l3.4,2.9l3.4-2.9l4.7,4V178.5z M36.4,176h18.1V56.1l-2.2-1.9
					l-3.4,2.9l-3.4-2.9L42,57.1l-3.4-2.9l-2.2,1.9V176z"/>
			</g>
		</g>
		<g>
			<path class="st4" d="M63.3,174.6c0,0,0.6-0.1,1.4-0.1l5.4,0c0.8,0,1.4,0,1.4,0l0,2.6c0,0-0.6,0.1-1.4,0.1l-5.5,0
				c-0.8,0-1.4,0-1.4,0L63.3,174.6z"/>
			<polygon class="st4" points="65,126.5 68.9,126.5 69,143.6 65,143.6 			"/>
			<path class="st6" d="M61.2,131.6c0-0.5,0.9-0.9,2-0.9l8,0c1.1,0,2,0.4,2,0.9l0,42.9c0,0.5-0.9,0.9-2,0.9l-8,0c-1.1,0-2-0.4-2-0.9
				L61.2,131.6z"/>
			<path class="st6" d="M68.6,175.4l2.6,0c1.1,0,2-0.4,2-0.9l0-42.9c0-0.5-0.9-0.9-2-0.9h-2.7L68.6,175.4z"/>
			<path class="st2" d="M61.3,139.6c0,0,0.9,0.1,2,0.1l8,0c1.1,0,2,0,2-0.1l0-3.4c0,0-0.9-0.1-2-0.1l-8,0c-1.1,0-2,0-2,0.1
				L61.3,139.6z"/>
			<path class="st0" d="M43.7,104.1c0,12.8,10.4,23.3,23.3,23.2c12.9,0,23.3-10.4,23.3-23.3c0-12.8-10.4-23.2-23.3-23.2
				C54.1,80.8,43.7,91.2,43.7,104.1z M48.9,104.1c0-9.9,8-18,18-18c10,0,18,8,18,18c0,9.9-8,18-18,18C57,122.1,48.9,114,48.9,104.1z
				"/>
			<g>
				<path class="st4" d="M66.9,128.5c-13.5,0-24.5-11-24.5-24.5c0-6.5,2.5-12.7,7.2-17.3c4.6-4.6,10.8-7.2,17.3-7.2
					c13.5,0,24.5,11,24.5,24.5c0,6.6-2.5,12.7-7.2,17.3C79.7,126,73.5,128.5,66.9,128.5L66.9,128.5z M66.9,82
					c-5.9,0-11.4,2.3-15.6,6.5c-4.2,4.2-6.4,9.7-6.4,15.6c0,12.1,9.9,22,22,22v1.2l0-1.2c5.9,0,11.4-2.3,15.6-6.5
					c4.2-4.2,6.4-9.7,6.4-15.6C89,91.9,79.1,82,66.9,82z M67,123.3c-10.6,0-19.3-8.6-19.3-19.2c0-10.6,8.6-19.3,19.2-19.3h0
					c10.6,0,19.3,8.6,19.3,19.2C86.2,114.6,77.6,123.3,67,123.3z M66.9,86l0,1.2c-9.2,0-16.8,7.5-16.8,16.8
					c0,9.2,7.5,16.8,16.8,16.8c9.3,0,16.8-7.5,16.8-16.8c0-9.3-7.5-16.8-16.8-16.8V86z"/>
			</g>
			<g>
				<path class="st4" d="M63.3,176.6L63.3,176.6c-1.9,0-3.2-0.8-3.3-2.1L60,131.6c0-0.4,0.2-0.9,0.5-1.2c0.6-0.6,1.6-0.9,2.7-0.9
					l8,0h0c1.2,0,2.2,0.3,2.7,0.9c0.3,0.3,0.5,0.8,0.5,1.2l0,42.9c0,0.4-0.2,0.9-0.5,1.2c-0.8,0.8-2.2,0.9-2.7,0.9L63.3,176.6z
					 M62.5,174.1c0.2,0,0.4,0.1,0.8,0.1l8,0c0.3,0,0.6,0,0.8-0.1l0-42c-0.2,0-0.4-0.1-0.7-0.1l-8.1,0c-0.4,0-0.6,0-0.8,0.1
					L62.5,174.1z"/>
			</g>
		</g>
		<g>
			<path class="st5" d="M115.9,136.6c-3.4,1.9-7.9,1.6-9.4-1c-1.5-2.6,0.6-6.7,4-8.6c3.4-1.9,10.6,0.3,10.6,0.3
				S119.2,134.7,115.9,136.6z"/>
			<path class="st2" d="M115.9,136.6c-3.4,1.9-7.9,1.6-9.4-1c-1.5-2.6,0.6-6.7,4-8.6c3.4-1.9,10.6,0.3,10.6,0.3
				S119.2,134.7,115.9,136.6z"/>
			<g>
				<path class="st4" d="M107.5,147.9c0,0-0.1,0-0.1,0c-0.7-0.1-1.2-0.7-1.1-1.4c0-0.1,0.9-9.1-2.6-13.4c-1.1-1.3-2.4-2-4.1-2.1
					c-0.7-0.1-1.2-0.7-1.1-1.3c0.1-0.7,0.6-1.2,1.3-1.1c2.3,0.2,4.3,1.2,5.7,3c4.2,5.1,3.2,14.8,3.1,15.2
					C108.7,147.5,108.1,147.9,107.5,147.9z"/>
			</g>
			<path class="st6" d="M126.6,154.9c0,5.6-5.7,17.3-9.4,20.8c-3.5,3.3-7.2,0-9.6,0c-2.8,0-5.9,3.3-9.4,0
				c-3.8-3.6-10.6-15.3-10.6-20.9c0-5.1,1.9-9.7,5.1-13.1c3.6-3.9,8.7,0.3,14.4,0.3c5.7,0,10.8-4.2,14.4-0.3
				C124.6,145.2,126.6,149.8,126.6,154.9z"/>
			<g>
				<path class="st4" d="M101.4,178.5c-1.6,0-2.9-0.6-4.2-1.8c-3.7-3.5-10.9-15.5-10.9-21.7c0-5.2,1.9-10.1,5.4-14
					c1.3-1.4,2.8-2.1,4.8-2.1c1.6,0,3.2,0.5,5,0.9c1.8,0.5,3.7,1,5.6,1c1.9,0,3.8-0.5,5.6-1c1.7-0.5,3.4-0.9,5-0.9
					c1.9,0,3.5,0.7,4.7,2.1c3.5,3.8,5.4,8.8,5.4,14c0,5.9-5.9,18-9.8,21.7c-1.3,1.2-2.7,1.8-4.4,1.8c-1.5,0-2.8-0.5-4-0.9
					c-0.8-0.3-1.6-0.6-2.1-0.6c-0.7,0-1.5,0.3-2.4,0.6C104,178,102.8,178.5,101.4,178.5z M96.4,141.3c-1.2,0-2.1,0.4-2.9,1.3
					c-3.1,3.4-4.8,7.7-4.8,12.3c0,5.1,6.5,16.5,10.2,20c1.1,1,2,1.1,2.5,1.1c0.9,0,1.8-0.3,2.8-0.7c1-0.4,2.1-0.8,3.3-0.8
					c1,0,1.9,0.3,2.9,0.7c1,0.4,2.1,0.8,3.2,0.8c1,0,1.8-0.4,2.7-1.1c3.5-3.3,9.1-14.8,9.1-20c0-4.6-1.7-9-4.8-12.3
					c-0.8-0.9-1.7-1.3-2.9-1.3c-1.3,0-2.7,0.4-4.3,0.8c-1.9,0.5-4,1.1-6.3,1.1c-2.2,0-4.4-0.6-6.3-1.1
					C99.2,141.7,97.7,141.3,96.4,141.3z"/>
			</g>
			<g>
				<path class="st4" d="M116.2,170.4c-0.2,0-0.4-0.1-0.6-0.2c-0.6-0.4-0.8-1.1-0.4-1.7c2.1-3.3,4-7.6,5-11c0.2-0.7,0.9-1,1.5-0.8
					c0.7,0.2,1,0.9,0.8,1.5c-1.1,3.7-3.1,8-5.3,11.6C117.1,170.2,116.7,170.4,116.2,170.4z"/>
			</g>
			<path class="st0" d="M115.9,136.6c3.1-1.7,4.9-8.1,5.1-9.1l-14.6,7.9c0,0,0,0.1,0.1,0.1C108,138.3,112.5,138.6,115.9,136.6z"/>
			<g>
				<path class="st4" d="M111.2,139.1c-2.7,0-4.8-1-5.8-2.9c-1.9-3.4,0.8-8.2,4.5-10.2c1.1-0.6,2.5-0.9,4.3-0.9
					c3.4,0,7.1,1.1,7.2,1.2l1.1,0.3l-0.3,1.1c-0.2,0.8-2,7.9-5.7,10C114.9,138.6,113,139.1,111.2,139.1z M114.2,127.5
					c-1.3,0-2.4,0.2-3.1,0.6c-2.9,1.6-4.6,5-3.5,6.9c0.6,1,1.9,1.6,3.7,1.6c1.4,0,2.8-0.4,4-1.1c2-1.1,3.5-5,4.2-7.3
					C118.3,128,116.2,127.5,114.2,127.5z"/>
			</g>
		</g>
		<g>
			<rect x="353.6" y="1.2" class="st6" width="29.2" height="176"/>
			<rect x="371.9" y="1.2" class="st6" width="10.9" height="176"/>
			<g>
				<path class="st4" d="M384,178.5h-31.6V0H384V178.5z M354.8,176h26.7V2.5h-26.7V176z"/>
			</g>
			<g>
				<rect x="353.6" y="8.7" class="st4" width="14.6" height="2.5"/>
			</g>
			<g>
				<rect x="353.6" y="22.8" class="st4" width="14.6" height="2.5"/>
			</g>
			<g>
				<rect x="353.6" y="36.8" class="st4" width="14.6" height="2.5"/>
			</g>
			<g>
				<rect x="353.6" y="50.9" class="st4" width="14.6" height="2.5"/>
			</g>
			<g>
				<rect x="353.6" y="65" class="st4" width="14.6" height="2.5"/>
			</g>
			<g>
				<rect x="353.6" y="79" class="st4" width="14.6" height="2.5"/>
			</g>
			<g>
				<rect x="353.6" y="93.1" class="st4" width="14.6" height="2.5"/>
			</g>
			<g>
				<rect x="353.6" y="107.2" class="st4" width="14.6" height="2.5"/>
			</g>
			<g>
				<rect x="353.6" y="121.3" class="st4" width="14.6" height="2.5"/>
			</g>
			<g>
				<rect x="353.6" y="135.3" class="st4" width="14.6" height="2.5"/>
			</g>
			<g>
				<rect x="353.6" y="149.4" class="st4" width="14.6" height="2.5"/>
			</g>
			<g>
				<rect x="353.6" y="163.5" class="st4" width="14.6" height="2.5"/>
			</g>
		</g>
		<g>
			<path class="st4" d="M487.3,178.5H12.7c-0.7,0-1.2-0.6-1.2-1.2c0-0.7,0.6-1.2,1.2-1.2h474.5c0.7,0,1.2,0.6,1.2,1.2
				C488.5,177.9,487.9,178.5,487.3,178.5z"/>
		</g>
	</g>
	<g id="XMLID_6356_">
		<path class="st3" d="M488.5,124.2c0,1.4-1.1,2.5-2.5,2.5s-2.5-1.1-2.5-2.5c0-1.4,1.1-2.5,2.5-2.5S488.5,122.9,488.5,124.2z"/>
	</g>
	<g id="XMLID_2_">
		<path class="st3" d="M23.4,143.6c0,1.4-1.1,2.5-2.5,2.5s-2.5-1.1-2.5-2.5c0-1.4,1.1-2.5,2.5-2.5S23.4,142.2,23.4,143.6z"/>
	</g>
	<g id="XMLID_15942_">
		<path class="st3" d="M72.2,61.7c-3.3,0.9-4,1.6-4.9,4.9c-0.9-3.3-1.6-4-4.9-4.9c3.3-0.9,4-1.6,4.9-4.9
			C68.3,60.1,69,60.8,72.2,61.7z"/>
	</g>
	<g id="XMLID_1_">
		<path class="st3" d="M338.9,8.9c-3.3,0.9-4,1.6-4.9,4.9c-0.9-3.3-1.6-4-4.9-4.9c3.3-0.9,4-1.6,4.9-4.9
			C334.9,7.3,335.6,8,338.9,8.9z"/>
	</g>
	<g id="XMLID_6234_">
		<path class="st3" d="M460.8,44.5c-7.5,2-9.1,3.6-11.1,11.1c-2-7.5-3.6-9.1-11.1-11.1c7.5-2,9.1-3.6,11.1-11.1
			C451.6,40.9,453.3,42.5,460.8,44.5z"/>
	</g>
</g>
</svg>
