<?xml version="1.0" encoding="utf-8"?>
<!-- Generator: Adobe Illustrator 22.1.0, SVG Export Plug-In . SVG Version: 6.00 Build 0)  -->
<svg version="1.1" id="apps_development" xmlns="http://www.w3.org/2000/svg" xmlns:xlink="http://www.w3.org/1999/xlink" x="0px"
	 y="0px" viewBox="0 0 500 252.5" style="enable-background:new 0 0 500 252.5;" xml:space="preserve">
<style type="text/css">
	.st0{fill:#DCE4E8;}
	.st1{fill:#FFFFFF;}
	.st2{fill:#2D333A;}
	.st3{fill:#00BFFF;}
	.st4{fill:#FF5B40;}
	.st5{fill:#B7BFC7;}
	.st6{fill:#FFB13E;}
	.st7{opacity:0.3;}
</style>
<g>
	<g>
		<path class="st0" d="M107,223.3h281.1c12.4,0,22.4-10,22.4-22.4l0,0c0-12.4-10-22.4-22.4-22.4h-99.4c-7.4,0-13.5-6-13.5-13.5l0,0
			c0-7.4,6-13.5,13.5-13.5h157c11,0,20-8.9,20-20v0c0-11-8.9-20-20-20H244.2c-8.8,0-15.9-7.1-15.8-15.9l0,0
			c0-8.7,7.1-15.7,15.8-15.7h231.2c8.9,0,16.2-7.3,16.2-16.2v-2.2c0-8.9-7.3-16.2-16.2-16.2H77.2c-12.5,0-22.7,10.2-22.7,22.7v0
			c0,12.5,10.2,22.7,22.7,22.7h32.5c9,0,16.3,7.3,16.3,16.3l0,0c0,9-7.3,16.3-16.3,16.3H27.5c-11.4,0-20.6,9.2-20.6,20.6l0,0
			c0,11.4,9.2,20.6,20.6,20.6h127.6c7.3,0,13.2,5.9,13.2,13.2l0,0c0,7.3-5.9,13.2-13.2,13.2h-54.6c-8.9,0-16.2,7.3-16.2,16.2l0,0
			c0,8.9,7.3,16.2,16.2,16.2H107z"/>
	</g>
	<g>
		<g id="XMLID_14731_">
			<g id="XMLID_16060_">
				<g id="XMLID_16061_">
					<g id="XMLID_16075_">
						<path class="st1" d="M408.5,248.2h-61.5c-3.1,0-5.7-2.5-5.7-5.7V138.1c0-3.1,2.5-5.7,5.7-5.7h61.5c3.1,0,5.7,2.5,5.7,5.7
							v104.5C414.2,245.7,411.7,248.2,408.5,248.2z"/>
					</g>
					<g id="XMLID_16073_">
						<path id="XMLID_16074_" class="st2" d="M343.6,180.5h-4.3v-41.6c0-4.8,3.9-8.6,8.6-8.6h6.2v4.3h-6.2c-2.4,0-4.4,2-4.4,4.4
							V180.5z"/>
					</g>
					<g id="XMLID_16071_">
						<path id="XMLID_16072_" class="st2" d="M407.7,250.4v-4.3c2.4,0,4.4-2,4.4-4.4V138.9c0-2.4-2-4.4-4.4-4.4h-30.1v-4.3h30.1
							c4.8,0,8.6,3.9,8.6,8.6v102.8C416.3,246.5,412.5,250.4,407.7,250.4z"/>
					</g>
					<g id="XMLID_16069_">
						<rect id="XMLID_16070_" x="360.1" y="130.3" class="st2" width="10.3" height="4.3"/>
					</g>
					<g id="XMLID_16067_">
						<rect id="XMLID_16068_" x="367" y="139" class="st2" width="21.5" height="4.3"/>
					</g>
					<g id="XMLID_16063_">
						<path id="XMLID_16064_" class="st2" d="M377.8,244.4c-3.1,0-5.6-2.5-5.6-5.6c0-3.1,2.5-5.6,5.6-5.6c3.1,0,5.6,2.5,5.6,5.6
							C383.4,241.9,380.9,244.4,377.8,244.4z M377.8,237.4c-0.7,0-1.4,0.6-1.4,1.4c0,0.7,0.6,1.4,1.4,1.4s1.4-0.6,1.4-1.4
							C379.2,238,378.6,237.4,377.8,237.4z"/>
					</g>
					<g id="XMLID_16062_">
						<rect x="348.7" y="149.1" class="st3" width="58.2" height="82"/>
					</g>
				</g>
			</g>
			<g id="XMLID_16020_">
				<g id="XMLID_16021_">
					<g id="XMLID_16059_">
						<path class="st1" d="M434,248.2h-11.6V15c0-3.2,2.6-5.8,5.8-5.8l0,0c3.2,0,5.8,2.6,5.8,5.8V248.2z"/>
					</g>
					<g id="XMLID_16057_">
						<path id="XMLID_16058_" class="st2" d="M436.2,248.2h-4.3V14.5c0-1.8-1.4-3.2-3.2-3.2h-1c-1.8,0-3.2,1.4-3.2,3.2v233.8h-4.3
							V14.5c0-4.1,3.3-7.5,7.5-7.5h1c4.1,0,7.5,3.3,7.5,7.5V248.2z"/>
					</g>
					<g id="XMLID_16055_">
						<rect id="XMLID_16056_" x="387.4" y="33" class="st2" width="81.5" height="4.3"/>
					</g>
					<g id="XMLID_16054_">
						<path class="st2" d="M440.5,34.4c0,6.7-5.5,12.2-12.2,12.2s-12.2-5.5-12.2-12.2c0-6.7,5.5-12.2,12.2-12.2
							S440.5,27.6,440.5,34.4z"/>
					</g>
					<g id="XMLID_16050_">
						<path id="XMLID_16051_" class="st2" d="M428.3,48.8c-7.9,0-14.4-6.4-14.4-14.4c0-7.9,6.4-14.4,14.4-14.4s14.4,6.4,14.4,14.4
							C442.6,42.3,436.2,48.8,428.3,48.8z M428.3,24.3c-5.6,0-10.1,4.5-10.1,10.1c0,5.6,4.5,10.1,10.1,10.1s10.1-4.5,10.1-10.1
							C438.4,28.8,433.8,24.3,428.3,24.3z"/>
					</g>
					<g id="XMLID_16048_">
						
							<rect id="XMLID_16049_" x="467.6" y="29.9" transform="matrix(0.9414 -0.3373 0.3373 0.9414 9.5876 161.5687)" class="st2" width="4.3" height="46.6"/>
					</g>
					<g id="XMLID_16046_">
						
							<rect id="XMLID_16047_" x="434.1" y="51.1" transform="matrix(0.362 -0.9322 0.9322 0.362 242.3976 460.541)" class="st2" width="47.1" height="4.3"/>
					</g>
					<g id="XMLID_16045_">
						<path class="st4" d="M483,73.4c0,10.8-8.7,19.5-19.5,19.5c-10.8,0-19.5-8.7-19.5-19.5H483z"/>
					</g>
					<g id="XMLID_16043_">
						
							<rect id="XMLID_16044_" x="363.5" y="51.1" transform="matrix(0.3372 -0.9414 0.9414 0.3372 206.2932 399.4074)" class="st2" width="46.6" height="4.3"/>
					</g>
					<g id="XMLID_16041_">
						
							<rect id="XMLID_16042_" x="396.8" y="29.7" transform="matrix(0.9321 -0.3622 0.3622 0.9321 7.8203 148.1028)" class="st2" width="4.3" height="47.1"/>
					</g>
					<g id="XMLID_16040_">
						<path class="st4" d="M373.5,73.4c0,10.8,8.7,19.5,19.5,19.5s19.5-8.7,19.5-19.5H373.5z"/>
					</g>
					<g id="XMLID_16038_">
						<path id="XMLID_16039_" class="st2" d="M479.9,87.6l-3.2-2.8c1-1.2,1.8-2.4,2.5-3.8l3.8,1.9C482.2,84.5,481.1,86.1,479.9,87.6
							z"/>
					</g>
					<g id="XMLID_16036_">
						<path id="XMLID_16037_" class="st2" d="M463.5,95.1c-11.9,0-21.7-9.7-21.7-21.7v-2.1h43.3v2.1c0,2.6-0.5,5.2-1.4,7.7l-4-1.5
							c0.5-1.3,0.8-2.7,1-4h-34.5c1.1,8.6,8.4,15.3,17.3,15.3c1.5,0,3-0.2,4.5-0.6c1.9-0.5,3.7-1.4,5.4-2.5l2.4,3.5
							c-2.1,1.4-4.3,2.5-6.7,3.1C467.3,94.8,465.4,95.1,463.5,95.1z"/>
					</g>
					<g id="XMLID_16032_">
						<path id="XMLID_16033_" class="st2" d="M393.1,95.1c-11.9,0-21.7-9.7-21.7-21.7v-2.1h43.3v2.1C414.7,85.3,405,95.1,393.1,95.1
							z M375.8,75.5c1.1,8.6,8.4,15.3,17.3,15.3c8.9,0,16.2-6.7,17.3-15.3H375.8z"/>
					</g>
					<g id="XMLID_16031_">
						<path class="st2" d="M468.7,35.1c0,2.8-2.3,5.1-5.1,5.1c-2.8,0-5.1-2.3-5.1-5.1c0-2.8,2.3-5.1,5.1-5.1
							C466.4,30,468.7,32.3,468.7,35.1z"/>
					</g>
					<g id="XMLID_16027_">
						<path id="XMLID_16028_" class="st2" d="M463.5,42.4c-4,0-7.3-3.3-7.3-7.3c0-4,3.3-7.3,7.3-7.3c4,0,7.3,3.3,7.3,7.3
							C470.8,39.1,467.5,42.4,463.5,42.4z M463.5,32.1c-1.7,0-3,1.3-3,3c0,1.7,1.3,3,3,3c1.7,0,3-1.3,3-3
							C466.5,33.5,465.2,32.1,463.5,32.1z"/>
					</g>
					<g id="XMLID_16026_">
						<path class="st2" d="M398.2,35.1c0,2.8-2.3,5.1-5.1,5.1c-2.8,0-5.1-2.3-5.1-5.1c0-2.8,2.3-5.1,5.1-5.1
							C395.9,30,398.2,32.3,398.2,35.1z"/>
					</g>
					<g id="XMLID_16022_">
						<path id="XMLID_16023_" class="st2" d="M393.1,42.4c-4,0-7.3-3.3-7.3-7.3c0-4,3.3-7.3,7.3-7.3c4,0,7.3,3.3,7.3,7.3
							C400.3,39.1,397.1,42.4,393.1,42.4z M393.1,32.1c-1.7,0-3,1.3-3,3c0,1.7,1.3,3,3,3c1.7,0,3-1.3,3-3
							C396.1,33.5,394.7,32.1,393.1,32.1z"/>
					</g>
				</g>
			</g>
			<g id="XMLID_15983_">
				<g id="XMLID_16019_">
					<rect x="65.2" y="111.6" class="st5" width="84.5" height="136.6"/>
				</g>
				<g id="XMLID_16017_">
					<polygon id="XMLID_16018_" class="st2" points="67.3,248.2 63,248.2 63,109.5 132.5,109.5 132.5,113.7 67.3,113.7 					"/>
				</g>
				<g id="XMLID_16016_">
					<rect x="70.9" y="131.6" class="st6" width="72.9" height="116.7"/>
				</g>
				<g id="XMLID_16012_">
					<path id="XMLID_16013_" class="st2" d="M146,250.4H68.8V129.5H146V250.4z M73.1,246.1h68.6V133.7H73.1V246.1z"/>
				</g>
				<g id="XMLID_16010_">
					<rect id="XMLID_16011_" x="81" y="131.6" class="st2" width="4.3" height="116.7"/>
				</g>
				<g id="XMLID_16008_">
					<rect id="XMLID_16009_" x="93" y="131.6" class="st2" width="4.3" height="116.7"/>
				</g>
				<g id="XMLID_16006_">
					<rect id="XMLID_16007_" x="105" y="131.6" class="st2" width="4.3" height="116.7"/>
				</g>
				<g id="XMLID_16004_">
					<rect id="XMLID_16005_" x="117" y="131.6" class="st2" width="4.3" height="116.7"/>
				</g>
				<g id="XMLID_16002_">
					<rect id="XMLID_16003_" x="128.9" y="131.6" class="st2" width="4.3" height="116.7"/>
				</g>
				<g id="XMLID_16000_">
					<rect id="XMLID_16001_" x="70.9" y="190.5" class="st2" width="72.9" height="4.3"/>
				</g>
				<g id="XMLID_15998_">
					<rect id="XMLID_15999_" x="70.9" y="178.5" class="st2" width="72.9" height="4.3"/>
				</g>
				<g id="XMLID_15996_">
					<rect id="XMLID_15997_" x="70.9" y="202.5" class="st2" width="72.9" height="4.3"/>
				</g>
				<g id="XMLID_15994_">
					<rect id="XMLID_15995_" x="70.9" y="214.4" class="st2" width="72.9" height="4.3"/>
				</g>
				<g id="XMLID_15992_">
					<rect id="XMLID_15993_" x="70.9" y="226.4" class="st2" width="72.9" height="4.3"/>
				</g>
				<g id="XMLID_15990_">
					<rect id="XMLID_15991_" x="70.9" y="238.4" class="st2" width="72.9" height="4.3"/>
				</g>
				<g id="XMLID_15988_">
					<rect id="XMLID_15989_" x="70.9" y="166.5" class="st2" width="72.9" height="4.3"/>
				</g>
				<g id="XMLID_15986_">
					<rect id="XMLID_15987_" x="70.9" y="154.5" class="st2" width="72.9" height="4.3"/>
				</g>
				<g id="XMLID_15984_">
					<rect id="XMLID_15985_" x="70.9" y="142.5" class="st2" width="72.9" height="4.3"/>
				</g>
			</g>
			<g id="XMLID_15963_">
				<g id="XMLID_15982_">
					<rect x="148.7" y="40" class="st3" width="43.3" height="19.9"/>
				</g>
				<g id="XMLID_15978_">
					<path id="XMLID_15979_" class="st2" d="M194.2,62h-47.6V37.9h47.6V62z M150.9,57.7h39.1V42.1h-39.1V57.7z"/>
				</g>
				<g id="XMLID_15977_">
					<rect x="139.8" y="53.7" class="st3" width="61.2" height="194.6"/>
				</g>
				<g id="XMLID_15976_">
					<rect x="152.5" y="53.7" class="st4" width="33.6" height="194.6"/>
				</g>
				<g id="XMLID_15974_">
					<rect id="XMLID_15975_" x="146.6" y="3.6" class="st2" width="4.3" height="38.1"/>
				</g>
				<g id="XMLID_15972_">
					<rect id="XMLID_15973_" x="189.9" y="3.6" class="st2" width="4.3" height="38.1"/>
				</g>
				<g id="XMLID_15970_">
					<rect id="XMLID_15971_" x="168.1" y="15.1" class="st2" width="4.3" height="24.8"/>
				</g>
				<g id="XMLID_15968_">
					<polygon id="XMLID_15969_" class="st2" points="141.9,248.2 137.7,248.2 137.7,51.5 203.1,51.5 203.1,77.6 198.8,77.6 
						198.8,55.8 141.9,55.8 					"/>
				</g>
				<g id="XMLID_15966_">
					<rect id="XMLID_15967_" x="150.3" y="53.7" class="st2" width="4.3" height="193.7"/>
				</g>
				<g id="XMLID_15964_">
					<rect id="XMLID_15965_" x="184.8" y="53.7" class="st2" width="4.3" height="27.3"/>
				</g>
			</g>
			<g id="XMLID_15914_" class="st7">
				<path id="XMLID_15915_" class="st2" d="M196.7,80.5c-17.5,0-31.8,14.3-31.8,31.8v98c0,13.3,8.2,24.7,19.9,29.5v8.5h1.4H201V80.5
					H196.7z"/>
			</g>
			<g id="XMLID_14753_">
				<g id="XMLID_15913_">
					<rect x="192.6" y="232.6" class="st5" width="20.4" height="15.7"/>
				</g>
				<g id="XMLID_15909_">
					<path id="XMLID_15910_" class="st2" d="M215.1,250.4h-24.7v-19.9h24.7V250.4z M194.7,246.1h16.1v-11.4h-16.1V246.1z"/>
				</g>
				<g id="XMLID_15908_">
					<path class="st1" d="M300.4,240h-98c-16.4,0-29.7-13.3-29.7-29.7v-98c0-16.4,13.3-29.7,29.7-29.7h98
						c16.4,0,29.7,13.3,29.7,29.7v98C330,226.7,316.7,240,300.4,240z"/>
				</g>
				<g id="XMLID_15907_">
					<path class="st2" d="M297.4,226.5h-92.1c-10.6,0-19.2-8.6-19.2-19.2v-92.1c0-10.6,8.6-19.2,19.2-19.2h92.1
						c10.6,0,19.2,8.6,19.2,19.2v92.1C316.6,217.9,308,226.5,297.4,226.5z"/>
				</g>
				<g id="XMLID_15903_">
					<path id="XMLID_15904_" class="st2" d="M298.9,228.7h-95.1c-10.9,0-19.8-8.9-19.8-19.8v-95.1c0-10.9,8.9-19.8,19.8-19.8h95.1
						c10.9,0,19.8,8.9,19.8,19.8v95.1C318.7,219.8,309.9,228.7,298.9,228.7z M203.8,98.2c-8.6,0-15.6,7-15.6,15.6v95.1
						c0,8.6,7,15.6,15.6,15.6h95.1c8.6,0,15.6-7,15.6-15.6v-95.1c0-8.6-7-15.6-15.6-15.6H203.8z"/>
				</g>
				<g id="XMLID_15899_">
					<path id="XMLID_15900_" class="st2" d="M300.4,242.1h-98c-17.5,0-31.8-14.3-31.8-31.8v-98c0-17.5,14.3-31.8,31.8-31.8h98
						c17.5,0,31.8,14.3,31.8,31.8v98C332.2,227.8,317.9,242.1,300.4,242.1z M202.4,84.7c-15.2,0-27.5,12.4-27.5,27.5v98
						c0,15.2,12.4,27.5,27.5,27.5h98c15.2,0,27.5-12.4,27.5-27.5v-98c0-15.2-12.4-27.5-27.5-27.5H202.4z"/>
				</g>
				<g id="XMLID_15898_">
					<path class="st6" d="M320.1,247.5h-35.7c-0.4,0-0.7-0.3-0.7-0.7v-10.3c0-0.4,0.3-0.7,0.7-0.7h35.7c0.4,0,0.7,0.3,0.7,0.7v10.3
						C320.8,247.2,320.5,247.5,320.1,247.5z"/>
				</g>
				<g id="XMLID_15894_">
					<path id="XMLID_15895_" class="st2" d="M317.9,249.6h-31.4c-1.6,0-2.8-1.3-2.8-2.8v-9c0-1.6,1.3-2.8,2.8-2.8h31.4
						c1.6,0,2.8,1.3,2.8,2.8v9C320.8,248.3,319.5,249.6,317.9,249.6z M288,245.3h28.5v-6.1H288V245.3z"/>
				</g>
				<g id="XMLID_15893_">
					<path class="st6" d="M315,237.1h-31.4c-0.4,0-0.7-0.3-0.7-0.7v-9c0-0.4,0.3-0.7,0.7-0.7H315c0.4,0,0.7,0.3,0.7,0.7v9
						C315.8,236.8,315.4,237.1,315,237.1z"/>
				</g>
				<g id="XMLID_15889_">
					<path id="XMLID_15890_" class="st2" d="M315,239.2h-31.4c-1.6,0-2.8-1.3-2.8-2.8v-9c0-1.6,1.3-2.8,2.8-2.8H315
						c1.6,0,2.8,1.3,2.8,2.8v9C317.9,238,316.6,239.2,315,239.2z M285.1,235h28.5v-6.1h-28.5V235z"/>
				</g>
				<g id="XMLID_15888_">
					<path class="st6" d="M317.2,226.7h-31.4c-0.4,0-0.7-0.3-0.7-0.7v-9c0-0.4,0.3-0.7,0.7-0.7h31.4c0.4,0,0.7,0.3,0.7,0.7v9
						C317.9,226.4,317.6,226.7,317.2,226.7z"/>
				</g>
				<g id="XMLID_15884_">
					<path id="XMLID_15885_" class="st2" d="M317.2,228.9h-31.4c-1.6,0-2.8-1.3-2.8-2.8v-9c0-1.6,1.3-2.8,2.8-2.8h31.4
						c1.6,0,2.8,1.3,2.8,2.8v9C320,227.6,318.7,228.9,317.2,228.9z M287.2,224.6h28.5v-6.1h-28.5V224.6z"/>
				</g>
				<g id="XMLID_15883_">
					<path class="st6" d="M318.1,216.4h-31.4c-0.4,0-0.7-0.3-0.7-0.7v-9c0-0.4,0.3-0.7,0.7-0.7h31.4c0.4,0,0.7,0.3,0.7,0.7v9
						C318.8,216,318.4,216.4,318.1,216.4z"/>
				</g>
				<g id="XMLID_15879_">
					<path id="XMLID_15880_" class="st2" d="M318.1,218.5h-31.4c-1.6,0-2.8-1.3-2.8-2.8v-9c0-1.6,1.3-2.8,2.8-2.8h31.4
						c1.6,0,2.8,1.3,2.8,2.8v9C320.9,217.2,319.6,218.5,318.1,218.5z M288.1,214.2h28.5v-6.1h-28.5V214.2z"/>
				</g>
				<g id="XMLID_15878_">
					<path class="st6" d="M311.4,206H280c-0.4,0-0.7-0.3-0.7-0.7v-9c0-0.4,0.3-0.7,0.7-0.7h31.4c0.4,0,0.7,0.3,0.7,0.7v9
						C312.1,205.7,311.8,206,311.4,206z"/>
				</g>
				<g id="XMLID_15874_">
					<path id="XMLID_15875_" class="st2" d="M311.4,208.1H280c-1.6,0-2.8-1.3-2.8-2.8v-9c0-1.6,1.3-2.8,2.8-2.8h31.4
						c1.6,0,2.8,1.3,2.8,2.8v9C314.2,206.8,313,208.1,311.4,208.1z M281.5,203.8H310v-6.1h-28.5V203.8z"/>
				</g>
				<g id="XMLID_15873_">
					<path class="st6" d="M312.3,195.6h-31.4c-0.4,0-0.7-0.3-0.7-0.7v-9c0-0.4,0.3-0.7,0.7-0.7h31.4c0.4,0,0.7,0.3,0.7,0.7v9
						C313,195.3,312.7,195.6,312.3,195.6z"/>
				</g>
				<g id="XMLID_15869_">
					<path id="XMLID_15870_" class="st2" d="M312.3,197.7h-31.4c-1.6,0-2.8-1.3-2.8-2.8v-9c0-1.6,1.3-2.8,2.8-2.8h31.4
						c1.6,0,2.8,1.3,2.8,2.8v9C315.1,196.5,313.8,197.7,312.3,197.7z M282.3,193.5h28.5v-6.1h-28.5V193.5z"/>
				</g>
				<g id="XMLID_15868_">
					<path class="st6" d="M304.4,185.2H273c-0.4,0-0.7-0.3-0.7-0.7v-9c0-0.4,0.3-0.7,0.7-0.7h31.4c0.4,0,0.7,0.3,0.7,0.7v9
						C305.1,184.9,304.8,185.2,304.4,185.2z"/>
				</g>
				<g id="XMLID_15864_">
					<path id="XMLID_15865_" class="st2" d="M304.4,187.4H273c-1.6,0-2.8-1.3-2.8-2.8v-9c0-1.6,1.3-2.8,2.8-2.8h31.4
						c1.6,0,2.8,1.3,2.8,2.8v9C307.2,186.1,305.9,187.4,304.4,187.4z M274.4,183.1h28.5V177h-28.5V183.1z"/>
				</g>
				<g id="XMLID_15863_">
					<path class="st6" d="M353.6,247.5h-31.4c-0.4,0-0.7-0.3-0.7-0.7v-9c0-0.4,0.3-0.7,0.7-0.7h31.4c0.4,0,0.7,0.3,0.7,0.7v9
						C354.3,247.2,354,247.5,353.6,247.5z"/>
				</g>
				<g id="XMLID_15859_">
					<path id="XMLID_15860_" class="st2" d="M353.6,249.6h-31.4c-1.6,0-2.8-1.3-2.8-2.8v-9c0-1.6,1.3-2.8,2.8-2.8h31.4
						c1.6,0,2.8,1.3,2.8,2.8v9C356.5,248.3,355.2,249.6,353.6,249.6z M323.7,245.3h28.5v-6.1h-28.5V245.3z"/>
				</g>
				<g id="XMLID_15858_">
					<path class="st6" d="M353.6,237.1h-31.4c-0.4,0-0.7-0.3-0.7-0.7v-9c0-0.4,0.3-0.7,0.7-0.7h31.4c0.4,0,0.7,0.3,0.7,0.7v9
						C354.3,236.8,354,237.1,353.6,237.1z"/>
				</g>
				<g id="XMLID_15854_">
					<path id="XMLID_15855_" class="st2" d="M353.6,239.2h-31.4c-1.6,0-2.8-1.3-2.8-2.8v-9c0-1.6,1.3-2.8,2.8-2.8h31.4
						c1.6,0,2.8,1.3,2.8,2.8v9C356.5,238,355.2,239.2,353.6,239.2z M323.7,235h28.5v-6.1h-28.5V235z"/>
				</g>
				<g id="XMLID_15853_">
					<path class="st6" d="M351.1,226.7h-31.4c-0.4,0-0.7-0.3-0.7-0.7v-9c0-0.4,0.3-0.7,0.7-0.7h31.4c0.4,0,0.7,0.3,0.7,0.7v9
						C351.8,226.4,351.5,226.7,351.1,226.7z"/>
				</g>
				<g id="XMLID_15849_">
					<path id="XMLID_15850_" class="st2" d="M351.1,228.9h-31.4c-1.6,0-2.8-1.3-2.8-2.8v-9c0-1.6,1.3-2.8,2.8-2.8h31.4
						c1.6,0,2.8,1.3,2.8,2.8v9C354,227.6,352.7,228.9,351.1,228.9z M321.2,224.6h28.5v-6.1h-28.5V224.6z"/>
				</g>
				<g id="XMLID_15848_">
					<path class="st6" d="M353.6,216.4h-31.4c-0.4,0-0.7-0.3-0.7-0.7v-9c0-0.4,0.3-0.7,0.7-0.7h31.4c0.4,0,0.7,0.3,0.7,0.7v9
						C354.3,216,354,216.4,353.6,216.4z"/>
				</g>
				<g id="XMLID_15844_">
					<path id="XMLID_15845_" class="st2" d="M353.6,218.5h-31.4c-1.6,0-2.8-1.3-2.8-2.8v-9c0-1.6,1.3-2.8,2.8-2.8h31.4
						c1.6,0,2.8,1.3,2.8,2.8v9C356.5,217.2,355.2,218.5,353.6,218.5z M323.7,214.2h28.5v-6.1h-28.5V214.2z"/>
				</g>
				<g id="XMLID_15843_">
					<path class="st6" d="M349.9,206h-31.4c-0.4,0-0.7-0.3-0.7-0.7v-9c0-0.4,0.3-0.7,0.7-0.7h31.4c0.4,0,0.7,0.3,0.7,0.7v9
						C350.6,205.7,350.3,206,349.9,206z"/>
				</g>
				<g id="XMLID_15839_">
					<path id="XMLID_15840_" class="st2" d="M349.9,208.1h-31.4c-1.6,0-2.8-1.3-2.8-2.8v-9c0-1.6,1.3-2.8,2.8-2.8h31.4
						c1.6,0,2.8,1.3,2.8,2.8v9C352.7,206.8,351.4,208.1,349.9,208.1z M319.9,203.8h28.5v-6.1h-28.5V203.8z"/>
				</g>
				<g id="XMLID_15838_">
					<path class="st6" d="M334.9,195.6L307,181.4c-0.3-0.2-0.5-0.6-0.3-1l4.1-8c0.2-0.3,0.6-0.5,1-0.3l27.9,14.3
						c0.3,0.2,0.5,0.6,0.3,1l-4.1,8C335.7,195.7,335.3,195.8,334.9,195.6z"/>
				</g>
				<g id="XMLID_15834_">
					<path id="XMLID_15835_" class="st2" d="M335.2,197.8c-0.4,0-0.9-0.1-1.3-0.3l0,0L306,183.3c-0.7-0.3-1.2-0.9-1.4-1.7
						c-0.2-0.7-0.2-1.5,0.2-2.2l4.1-8c0.3-0.7,0.9-1.2,1.7-1.4c0.7-0.2,1.5-0.2,2.2,0.2l27.9,14.3c0.7,0.3,1.2,0.9,1.4,1.7
						c0.2,0.7,0.2,1.5-0.2,2.2l-4.1,8c-0.3,0.7-0.9,1.2-1.7,1.4C335.8,197.8,335.5,197.8,335.2,197.8z M309.2,180.1l25.4,13l2.8-5.4
						l-25.4-13L309.2,180.1z"/>
				</g>
				<g id="XMLID_14993_">
					<g id="XMLID_15833_">
						<path class="st2" d="M279,212.8l-62.5-5.5c-5.8-0.5-10.5-4.7-10.5-9.4v-78c0-4.7,4.6-8.8,10.5-9.4l62.5-5.5
							c7.4-0.7,13.5,3.2,13.5,8.6v90.5C292.6,209.7,286.4,213.5,279,212.8z"/>
					</g>
					<g id="XMLID_15829_">
						<path id="XMLID_15830_" class="st2" d="M280.6,215.1c-0.6,0-1.2,0-1.8-0.1l-62.5-5.5c-7-0.6-12.4-5.7-12.4-11.5v-78
							c0-5.8,5.5-10.9,12.4-11.5l62.5-5.5c4.9-0.4,9.6,0.9,12.6,3.7c2.1,1.9,3.2,4.4,3.2,7v90.5c0,2.6-1.2,5.1-3.2,7
							C288.8,213.7,284.9,215.1,280.6,215.1z M280.7,107.2c-0.5,0-1,0-1.4,0.1l-62.5,5.5c-4.7,0.4-8.5,3.7-8.5,7.2v78
							c0,3.6,3.8,6.8,8.5,7.2l62.5,5.5c3.7,0.3,7.2-0.6,9.4-2.6c0.8-0.8,1.9-2.1,1.9-3.9v-90.5c0-1.8-1-3.1-1.9-3.9
							C286.7,108.1,283.8,107.2,280.7,107.2z"/>
					</g>
					<g id="XMLID_15828_">
						<path class="st5" d="M266.5,235.6l-62.5-7.8c-5.8-0.7-10.5-6.6-10.5-13.2V104.4c0-6.6,4.6-12.5,10.5-13.2l62.5-7.8
							c7.4-0.9,13.5,4.5,13.5,12.2v128C280.1,231.1,273.9,236.6,266.5,235.6z"/>
					</g>
					<g id="XMLID_15824_">
						<path id="XMLID_15825_" class="st2" d="M268.2,237.9c-0.6,0-1.3,0-1.9-0.1l-62.5-7.8c-6.9-0.9-12.3-7.6-12.3-15.3V104.4
							c0-7.7,5.4-14.5,12.3-15.3l62.5-7.8c4.2-0.5,8.1,0.7,11.2,3.3c3.1,2.7,4.8,6.6,4.8,10.9v128c0,4.3-1.7,8.2-4.8,10.9
							C274.9,236.7,271.6,237.9,268.2,237.9z M266.8,233.5c2.9,0.4,5.7-0.4,7.8-2.3c2.1-1.9,3.3-4.6,3.3-7.7v-128
							c0-3.1-1.2-5.8-3.3-7.7c-2.1-1.9-4.9-2.7-7.8-2.3l-62.5,7.8c-4.7,0.6-8.6,5.6-8.6,11.1v110.2c0,5.5,3.9,10.5,8.6,11.1
							L266.8,233.5z"/>
					</g>
					<g id="XMLID_15823_">
						<path class="st0" d="M259,235.6l-62.5-7.8c-5.8-0.7-10.5-6.6-10.5-13.2V104.4c0-6.6,4.6-12.5,10.5-13.2l62.5-7.8
							c7.4-0.9,13.5,4.5,13.5,12.2v128C272.6,231.1,266.4,236.6,259,235.6z"/>
					</g>
					<g id="XMLID_15822_">
						<path class="st5" d="M272.6,223.5V115.2l-86.5,86.5v12.9c0,6.6,4.6,12.5,10.5,13.2l62.5,7.8
							C266.4,236.6,272.6,231.1,272.6,223.5z"/>
					</g>
					<g id="XMLID_15018_">
						<path id="XMLID_15019_" class="st2" d="M260.7,237.9c-0.6,0-1.3,0-1.9-0.1l-62.5-7.8c-6.9-0.9-12.3-7.6-12.3-15.3V104.4
							c0-7.7,5.4-14.5,12.3-15.3l62.5-7.8c4.2-0.5,8.1,0.7,11.2,3.3c3.1,2.7,4.8,6.6,4.8,10.9v128c0,4.3-1.7,8.2-4.8,10.9
							C267.4,236.7,264.1,237.9,260.7,237.9z M260.7,85.4c-0.5,0-0.9,0-1.4,0.1l-62.5,7.8c-4.7,0.6-8.6,5.6-8.6,11.1v110.2
							c0,5.5,3.9,10.5,8.6,11.1l62.5,7.8c3,0.4,5.7-0.4,7.8-2.3c2.1-1.9,3.3-4.6,3.3-7.7v-128c0-3.1-1.2-5.8-3.3-7.7
							C265.3,86.2,263.1,85.4,260.7,85.4z"/>
					</g>
					<g id="XMLID_15017_">
						<path class="st1" d="M188.3,136.1h-4.1c-1.4,0-2.4-1.1-2.4-2.4v-16.5c0-1.4,1.1-2.4,2.4-2.4h4.1c1.4,0,2.4,1.1,2.4,2.4v16.5
							C190.7,135,189.6,136.1,188.3,136.1z"/>
					</g>
					<g id="XMLID_15016_">
						<path class="st5" d="M189.5,114.7h-3.4v21.4h3.4c0.7,0,1.2-0.7,1.2-1.7v-18.1C190.7,115.5,190.2,114.7,189.5,114.7z"/>
					</g>
					<g id="XMLID_15012_">
						<path id="XMLID_15013_" class="st2" d="M188.3,138.2h-4.1c-2.5,0-4.6-2.1-4.6-4.6v-16.5c0-2.5,2.1-4.6,4.6-4.6h4.1
							c2.5,0,4.6,2.1,4.6,4.6v16.5C192.9,136.2,190.8,138.2,188.3,138.2z M184.2,116.8c-0.2,0-0.3,0.1-0.3,0.3v16.5
							c0,0.2,0.1,0.3,0.3,0.3h4.1c0.2,0,0.3-0.1,0.3-0.3v-16.5c0-0.2-0.1-0.3-0.3-0.3H184.2z"/>
					</g>
					<g id="XMLID_15011_">
						<path class="st1" d="M188.3,201.1h-4.1c-1.4,0-2.4-1.1-2.4-2.4v-16.5c0-1.4,1.1-2.4,2.4-2.4h4.1c1.4,0,2.4,1.1,2.4,2.4v16.5
							C190.7,200,189.6,201.1,188.3,201.1z"/>
					</g>
					<g id="XMLID_15010_">
						<path class="st5" d="M189.5,179.7h-3.4v21.4h3.4c0.7,0,1.2-0.7,1.2-1.7v-18.1C190.7,180.4,190.2,179.7,189.5,179.7z"/>
					</g>
					<g id="XMLID_15006_">
						<path id="XMLID_15007_" class="st2" d="M188.3,203.2h-4.1c-2.5,0-4.6-2.1-4.6-4.6v-16.5c0-2.5,2.1-4.6,4.6-4.6h4.1
							c2.5,0,4.6,2.1,4.6,4.6v16.5C192.9,201.2,190.8,203.2,188.3,203.2z M184.2,181.8c-0.2,0-0.3,0.1-0.3,0.3v16.5
							c0,0.2,0.1,0.3,0.3,0.3h4.1c0.2,0,0.3-0.1,0.3-0.3v-16.5c0-0.2-0.1-0.3-0.3-0.3H184.2z"/>
					</g>
					<g id="XMLID_15005_">
						<path class="st2" d="M241.5,159.5c0,9.5-7,15.7-14.1,14.1c-5.8-1.3-9.8-7.5-9.8-14.1c0-6.6,4-12.9,9.8-14.1
							C234.5,143.8,241.5,150,241.5,159.5z"/>
					</g>
					<g id="XMLID_15001_">
						<path id="XMLID_15002_" class="st2" d="M229.5,176c-0.9,0-1.8-0.1-2.6-0.3c-6.7-1.5-11.5-8.3-11.5-16.2
							c0-7.9,4.8-14.8,11.5-16.2c3.7-0.8,7.6,0.1,10.7,2.6c3.8,3.1,6,8,6,13.6c0,5.6-2.2,10.5-6,13.6C235.3,175,232.4,176,229.5,176
							z M229.6,147.2c-0.6,0-1.2,0.1-1.8,0.2c-4.6,1-8.1,6.2-8.1,12.1c0,5.9,3.5,11,8.1,12.1c2.5,0.5,5-0.1,7.1-1.8
							c2.8-2.3,4.4-6,4.4-10.3c0-4.3-1.6-8-4.4-10.3C233.3,147.9,231.5,147.2,229.6,147.2z"/>
					</g>
					<g id="XMLID_15000_">
						<path class="st5" d="M237.7,159.4c0-6.2-3.5-10.9-7.7-11.4v0h-3.7v0.8c-3.1,1.7-5.3,5.9-5.3,10.6c0,4.7,2.1,8.8,5.3,10.6v0.9
							h3.7v-0.1C234.2,170.4,237.7,165.7,237.7,159.4z"/>
					</g>
					<g id="XMLID_14999_">
						<path class="st5" d="M232.7,159.5c0,6.1-4.3,10.6-9.1,10.1c-4.4-0.5-7.6-5-7.6-10.1c0-5.1,3.3-9.7,7.6-10.1
							C228.4,148.9,232.7,153.4,232.7,159.5z"/>
					</g>
					<g id="XMLID_14994_">
						<path id="XMLID_14998_" class="st1" d="M232.7,159.5c0,6.1-4.3,10.6-9.1,10.1c-4.4-0.5-7.6-5-7.6-10.1c0-5.1,3.3-9.7,7.6-10.1
							C228.4,148.9,232.7,153.4,232.7,159.5z"/>
						<path id="XMLID_14995_" class="st2" d="M224.3,171.8c-0.3,0-0.7,0-1-0.1c-5.3-0.6-9.5-6-9.5-12.2c0-6.3,4.2-11.7,9.5-12.2
							c2.7-0.3,5.3,0.6,7.4,2.5c2.6,2.3,4.1,5.9,4.1,9.8c0,3.9-1.5,7.4-4.1,9.8C228.9,170.9,226.7,171.8,224.3,171.8z M224.3,151.5
							c-0.2,0-0.3,0-0.5,0c-3.2,0.3-5.7,3.9-5.7,8c0,4.1,2.5,7.7,5.7,8c1.4,0.1,2.9-0.3,4.1-1.4c1.7-1.5,2.7-3.9,2.7-6.6
							c0-2.7-1-5.1-2.7-6.6C226.8,152,225.6,151.5,224.3,151.5z"/>
					</g>
				</g>
			</g>
			<g id="XMLID_14740_">
				<g id="XMLID_14751_">
					<path class="st6" d="M343.9,215.3c-5.7,11.2-1.2,24.9,10,30.5c11.2,5.7,24.9,1.2,30.5-10c5.7-11.2,1.2-24.9-10-30.5
						C363.2,199.6,349.6,204.1,343.9,215.3z"/>
				</g>
				<g id="XMLID_14750_">
					<path class="st6" d="M349.9,218.3c-4,7.8-0.9,17.4,7,21.4c7.8,4,17.4,0.9,21.4-7c4-7.8,0.9-17.4-7-21.4
						C363.5,207.4,353.9,210.5,349.9,218.3z"/>
				</g>
				<g id="XMLID_14748_">
					<path id="XMLID_14749_" class="st2" d="M364.1,250.4c-4.2,0-8.3-1.1-12.1-3.2c-5.8-3.2-10-8.5-11.8-14.9
						c-1.8-6.4-1-13.1,2.2-18.9c6.7-12,21.9-16.2,33.8-9.6c2.3,1.3,4.3,2.9,6.1,4.8l-3.1,2.9c-1.5-1.6-3.1-2.9-5-3.9
						c-9.9-5.5-22.5-2-28,7.9c-2.7,4.8-3.3,10.4-1.8,15.6c1.5,5.3,5,9.7,9.8,12.4c4.8,2.7,10.3,3.3,15.6,1.8c5.3-1.5,9.7-5,12.4-9.8
						c1.9-3.4,2.8-7.2,2.6-11.1l4.3-0.2c0.2,4.7-0.8,9.3-3.1,13.4c-3.2,5.8-8.5,10-14.9,11.8C368.7,250.1,366.4,250.4,364.1,250.4z"
						/>
				</g>
				<g id="XMLID_14746_">
					<path id="XMLID_14747_" class="st2" d="M383.7,219.1c-0.5-1.5-1.2-3-2-4.4l3.6-2.2c1,1.7,1.9,3.4,2.5,5.3L383.7,219.1z"/>
				</g>
				<g id="XMLID_14741_">
					<g id="XMLID_14744_">
						<path id="XMLID_14745_" class="st2" d="M366.6,236.3h-11.6V232h11.6c1.2,0,2.2-1,2.2-2.2c0-1.2-1-2.2-2.2-2.2H362
							c-3.5,0-6.4-2.9-6.4-6.4c0-3.5,2.9-6.4,6.4-6.4h11.2v4.3H362c-1.2,0-2.2,1-2.2,2.2c0,1.2,1,2.2,2.2,2.2h4.6
							c3.5,0,6.4,2.9,6.4,6.4C373.1,233.4,370.2,236.3,366.6,236.3z"/>
					</g>
					<g id="XMLID_14742_">
						<rect id="XMLID_14743_" x="362" y="209.8" class="st2" width="4.3" height="31.4"/>
					</g>
				</g>
			</g>
			<g id="XMLID_14733_">
				<g id="XMLID_14738_">
					<rect id="XMLID_14739_" x="11" y="246.1" class="st2" width="7.8" height="4.3"/>
				</g>
				<g id="XMLID_14734_">
					<rect id="XMLID_14735_" x="24" y="246.1" class="st2" width="439.7" height="4.3"/>
				</g>
			</g>
		</g>
		<g id="XMLID_6034_">
			<path class="st5" d="M39.5,197.7c0,1.5-1.2,2.7-2.7,2.7c-1.5,0-2.7-1.2-2.7-2.7c0-1.5,1.2-2.7,2.7-2.7
				C38.3,195.1,39.5,196.3,39.5,197.7z"/>
		</g>
		<g id="XMLID_3_">
			<path class="st5" d="M469.2,203.8c0,1.5-1.2,2.7-2.7,2.7c-1.5,0-2.7-1.2-2.7-2.7c0-1.5,1.2-2.7,2.7-2.7
				C468,201.2,469.2,202.4,469.2,203.8z"/>
		</g>
		<g id="XMLID_2_">
			<path class="st5" d="M327.3,27c0,2.2-1.8,4-4,4c-2.2,0-4-1.8-4-4c0-2.2,1.8-4,4-4C325.5,22.9,327.3,24.7,327.3,27z"/>
		</g>
		<g id="XMLID_6031_">
			<path class="st5" d="M105.1,67.3c-6.7,1.8-8.2,3.2-9.9,9.9c-1.8-6.7-3.2-8.2-9.9-9.9c6.7-1.8,8.2-3.2,9.9-9.9
				C96.9,64.1,98.3,65.5,105.1,67.3z"/>
		</g>
		<path class="st5" d="M477.3,130.3c5.3-1.4,6.5-2.6,7.9-7.9c1.4,5.3,2.6,6.5,7.9,7.9c-5.3,1.4-6.5,2.6-7.9,7.9
			C483.7,132.9,482.6,131.7,477.3,130.3"/>
		<path class="st5" d="M213.8,19.1c10.5-2.8,12.7-5,15.5-15.5c2.8,10.5,5,12.7,15.5,15.5c-10.5,2.8-12.7,5-15.5,15.5
			C226.6,24.1,224.3,21.9,213.8,19.1"/>
		<path class="st5" d="M348.2,89.3c1.2,4.6,2.2,5.5,6.7,6.7c-4.6,1.2-5.5,2.2-6.7,6.7c-1.2-4.6-2.2-5.5-6.7-6.7
			C346,94.8,347,93.8,348.2,89.3"/>
	</g>
</g>
</svg>
