<?xml version="1.0" encoding="utf-8"?>
<!-- Generator: Adobe Illustrator 22.1.0, SVG Export Plug-In . SVG Version: 6.00 Build 0)  -->
<svg version="1.1" id="apps_development" xmlns="http://www.w3.org/2000/svg" xmlns:xlink="http://www.w3.org/1999/xlink" x="0px"
	 y="0px" viewBox="0 0 500 440" style="enable-background:new 0 0 500 440;" xml:space="preserve">
<style type="text/css">
	.st0{fill:#FFFFFF;}
	.st1{fill:#00BFFF;}
	.st2{fill:#2D333A;}
	.st3{fill:#4C5258;}
	.st4{fill:#B7BFC7;}
	.st5{opacity:0.2;}
	.st6{fill:#FF5B40;}
	.st7{fill:#FFB13E;}
	.st8{clip-path:url(#XMLID_26_);}
	.st9{fill:#DCE4E8;}
</style>
<g>
	<g>
		<g>
			<g id="XMLID_14_">
				<g id="XMLID_15_">
					<g id="XMLID_18_">
						<path class="st0" d="M424.2,169.8l48.9,48.9v170.6c0,7.7-6.3,14-14,14H313.2c-7.7,0-14-6.3-14-14V183.8c0-7.7,6.3-14,14-14
							H424.2z"/>
					</g>
					<g id="XMLID_17_">
						<polygon class="st1" points="424.2,218.7 424.2,169.8 473.1,218.7 						"/>
					</g>
					<g id="XMLID_16_">
						<path class="st2" d="M473,222.1h-44c-4.6,0-8.3-3.7-8.3-8.3v-44h6.8v44c0,0.8,0.7,1.5,1.5,1.5h44V222.1z"/>
					</g>
				</g>
			</g>
			<g id="XMLID_13_">
				<g>
					<path class="st2" d="M459.1,406.6H313.2c-9.6,0-17.3-7.8-17.3-17.3V183.8c0-9.6,7.8-17.3,17.3-17.3h112.4l50.8,50.8v172
						C476.4,398.8,468.6,406.6,459.1,406.6z M313.2,173.1c-5.9,0-10.6,4.8-10.6,10.6v205.5c0,5.9,4.8,10.6,10.6,10.6h145.9
						c5.9,0,10.6-4.8,10.6-10.6V220.1l-46.9-46.9H313.2z"/>
				</g>
			</g>
		</g>
		<g>
			<g id="XMLID_20_">
				<g id="XMLID_21_">
					<g id="XMLID_24_">
						<path class="st0" d="M151.9,169.8l48.9,48.9v170.6c0,7.7-6.3,14-14,14H40.9c-7.7,0-14-6.3-14-14V183.8c0-7.7,6.3-14,14-14
							H151.9z"/>
					</g>
					<g id="XMLID_23_">
						<polygon class="st1" points="151.9,218.7 151.9,169.8 200.8,218.7 						"/>
					</g>
					<g id="XMLID_22_">
						<path class="st2" d="M200.8,222.1h-44c-4.6,0-8.3-3.7-8.3-8.3v-44h6.8v44c0,0.8,0.7,1.5,1.5,1.5h44V222.1z"/>
					</g>
				</g>
			</g>
			<g id="XMLID_19_">
				<g>
					<path class="st2" d="M186.8,406.6H40.9c-9.6,0-17.3-7.8-17.3-17.3V183.8c0-9.6,7.8-17.3,17.3-17.3h112.4l50.8,50.8v172
						C204.2,398.8,196.4,406.6,186.8,406.6z M40.9,173.1c-5.9,0-10.6,4.8-10.6,10.6v205.5c0,5.9,4.8,10.6,10.6,10.6h145.9
						c5.9,0,10.6-4.8,10.6-10.6V220.1l-46.9-46.9H40.9z"/>
				</g>
			</g>
		</g>
	</g>
	<g>
		<g>
			<g id="XMLID_2_">
				<g id="XMLID_3_">
					<g id="XMLID_6_">
						<path class="st0" d="M226,99.7l66.8,66.8v233c0,10.5-8.5,19.1-19.1,19.1H74.3c-10.5,0-19.1-8.5-19.1-19.1V118.8
							c0-10.5,8.6-19.1,19.1-19.1H226z"/>
					</g>
					<g id="XMLID_5_">
						<polygon class="st1" points="226,166.4 226,99.7 292.7,166.4 						"/>
					</g>
					<g id="XMLID_4_">
						<path class="st2" d="M292.7,171.1h-60.1c-6.3,0-11.3-5.1-11.3-11.4V99.7h9.4v60.1c0,1.1,0.9,2,2,2h60.1V171.1z"/>
					</g>
				</g>
			</g>
			<g id="XMLID_1_">
				<g>
					<path class="st2" d="M273.6,423.2H74.3c-13.1,0-23.7-10.6-23.7-23.7V118.8c0-13.1,10.6-23.7,23.7-23.7h153.5l69.4,69.4v234.9
						C297.3,412.5,286.7,423.2,273.6,423.2z M74.3,104.3c-8,0-14.5,6.5-14.5,14.5v280.7c0,8,6.5,14.5,14.5,14.5h199.3
						c8,0,14.5-6.5,14.5-14.5V168.3l-64.1-64.1H74.3z"/>
				</g>
			</g>
		</g>
		<g>
			<g id="XMLID_8_">
				<g id="XMLID_9_">
					<g id="XMLID_12_">
						<path class="st0" d="M378,99.7l66.8,66.8v233c0,10.5-8.5,19.1-19.1,19.1H226.4c-10.5,0-19.1-8.5-19.1-19.1V118.8
							c0-10.5,8.6-19.1,19.1-19.1H378z"/>
					</g>
					<g id="XMLID_11_">
						<polygon class="st1" points="378,166.4 378,99.7 444.8,166.4 						"/>
					</g>
					<g id="XMLID_10_">
						<path class="st2" d="M444.8,171.1h-60.1c-6.3,0-11.3-5.1-11.3-11.4V99.7h9.4v60.1c0,1.1,0.9,2,2,2h60.1V171.1z"/>
					</g>
				</g>
			</g>
			<g id="XMLID_7_">
				<g>
					<path class="st2" d="M425.7,423.2H226.4c-13.1,0-23.7-10.6-23.7-23.7V118.8c0-13.1,10.6-23.7,23.7-23.7h153.5l69.4,69.4v234.9
						C449.3,412.5,438.7,423.2,425.7,423.2z M226.4,104.3c-8,0-14.5,6.5-14.5,14.5v280.7c0,8,6.5,14.5,14.5,14.5h199.3
						c8,0,14.5-6.5,14.5-14.5V168.3l-64.1-64.1H226.4z"/>
				</g>
			</g>
		</g>
	</g>
	<g>
		<g id="XMLID_6019_">
			<g id="XMLID_6020_">
				<g id="XMLID_6023_">
					<path class="st0" d="M318.2,10.8l87.6,87.6v305.8c0,13.8-11.2,25.1-25.1,25.1H119.2c-13.8,0-25.1-11.2-25.1-25.1V35.8
						c0-13.8,11.2-25.1,25.1-25.1H318.2z"/>
				</g>
				<g id="XMLID_6022_">
					<polygon class="st1" points="318.2,98.4 318.2,10.8 405.8,98.4 					"/>
				</g>
				<g id="XMLID_6021_">
					<path class="st2" d="M405.8,104.5H327c-8.2,0-14.9-6.7-14.9-14.9V10.8h12.3v78.8c0,1.4,1.2,2.6,2.6,2.6h78.8V104.5z"/>
				</g>
			</g>
		</g>
		<g id="XMLID_6018_">
			<g>
				<path class="st2" d="M380.8,435.2H119.2c-17.1,0-31.1-13.9-31.1-31.1V35.8c0-17.1,13.9-31.1,31.1-31.1h201.5l91.1,91.1v308.3
					C411.8,421.3,397.9,435.2,380.8,435.2z M119.2,16.8c-10.5,0-19.1,8.5-19.1,19.1v368.4c0,10.5,8.5,19.1,19.1,19.1h261.5
					c10.5,0,19.1-8.5,19.1-19.1V100.9l-84.1-84.1H119.2z"/>
			</g>
		</g>
	</g>
	<g>
		<g>
			<g id="XMLID_6017_">
				<path class="st3" d="M313.8,203.3h-82.9c-1.2,0-2.1-0.9-2.1-2.1v-16.8c0-1.2,0.9-2.1,2.1-2.1h82.9c5.8,0,10.5,4.7,10.5,10.5v0
					C324.3,198.6,319.6,203.3,313.8,203.3z"/>
			</g>
			<g id="XMLID_6016_">
				<path class="st3" d="M313.8,232.8h-65.9c-1.2,0-2.1-0.9-2.1-2.1v-16.8c0-1.2,0.9-2.1,2.1-2.1h65.9c5.8,0,10.5,4.7,10.5,10.5v0
					C324.3,228.1,319.6,232.8,313.8,232.8z"/>
			</g>
			<g id="XMLID_6015_">
				<path class="st3" d="M313.8,173.9h-65.9c-1.2,0-2.1-0.9-2.1-2.1V155c0-1.2,0.9-2.1,2.1-2.1h65.9c5.8,0,10.5,4.7,10.5,10.5v0
					C324.3,169.2,319.6,173.9,313.8,173.9z"/>
			</g>
			<g id="XMLID_6003_">
				<g id="XMLID_6014_">
					
						<rect x="364.1" y="240.2" transform="matrix(0.7071 -0.7071 0.7071 0.7071 -73.1357 335.5805)" class="st2" width="8.8" height="31.8"/>
				</g>
				<g id="XMLID_6011_">
					<path class="st4" d="M251.5,139.1c-30,30-30,78.6,0,108.5c30,30,78.6,30,108.5,0c30-30,30-78.6,0-108.5
						C330.1,109.1,281.5,109.1,251.5,139.1z M347,234.6c-22.8,22.8-59.7,22.8-82.5,0c-22.8-22.8-22.8-59.7,0-82.5
						c22.8-22.8,59.7-22.8,82.5,0C369.8,174.9,369.8,211.8,347,234.6z"/>
				</g>
				<g id="XMLID_6010_">
					<path class="st2" d="M305.8,274.5c-20.8,0-41.6-7.9-57.4-23.7c-31.6-31.6-31.6-83.1,0-114.8l0,0c15.3-15.3,35.7-23.8,57.4-23.8
						c21.7,0,42.1,8.4,57.4,23.8c31.6,31.6,31.6,83.1,0,114.8C347.4,266.6,326.6,274.5,305.8,274.5z M254.6,142.2
						c-28.2,28.2-28.2,74.1,0,102.3c28.2,28.2,74.1,28.2,102.3,0c28.2-28.2,28.2-74.1,0-102.3c-13.7-13.7-31.8-21.2-51.1-21.2
						C286.5,121,268.3,128.5,254.6,142.2L254.6,142.2z"/>
				</g>
				<g id="XMLID_6009_" class="st5">
					<path class="st2" d="M305.8,280.7c-20.8,0-41.6-7.9-57.4-23.7c-31.6-31.6-31.6-83.1,0-114.8l0,0c15.3-15.3,35.7-23.8,57.4-23.8
						c21.7,0,42.1,8.4,57.4,23.8c31.6,31.6,31.6,83.1,0,114.8C347.4,272.8,326.6,280.7,305.8,280.7z M254.6,148.4
						c-28.2,28.2-28.2,74.1,0,102.3c28.2,28.2,74.1,28.2,102.3,0c28.2-28.2,28.2-74.1,0-102.3c-13.7-13.7-31.8-21.2-51.1-21.2
						C286.5,127.2,268.3,134.8,254.6,148.4L254.6,148.4z"/>
				</g>
				<g id="XMLID_6008_" class="st5">
					<path class="st2" d="M434.3,350.7c-3.2,0-6.3-1.3-8.6-3.6l-69.5-69.5l27.7-27.7l38.3,38.3l-6.3,6.3l-32.1-32.1l-15.2,15.2
						l63.2,63.3c1.3,1.3,3.5,1.3,4.7,0l10.5-10.5c0.6-0.6,1-1.5,1-2.4c0-0.9-0.4-1.7-1-2.4l-10-10l6.3-6.3l10,10
						c4.8,4.7,4.8,12.5,0,17.2l-10.5,10.5C440.6,349.4,437.5,350.7,434.3,350.7z"/>
				</g>
				<g id="XMLID_6007_">
					
						<rect x="393.9" y="245.8" transform="matrix(0.7071 -0.7071 0.7071 0.7071 -89.9309 376.136)" class="st6" width="30.3" height="101.6"/>
				</g>
				<g id="XMLID_6006_">
					<path class="st2" d="M434.3,344.5c-3.2,0-6.3-1.3-8.6-3.6l-69.5-69.5l27.7-27.7l38.3,38.3l-6.3,6.3l-32.1-32.1l-15.2,15.2
						l63.2,63.3c1.3,1.3,3.5,1.3,4.7,0l10.5-10.5c0.6-0.6,1-1.5,1-2.4c0-0.9-0.4-1.7-1-2.4l-10-10l6.3-6.3l10,10
						c4.8,4.7,4.8,12.5,0,17.2l-10.5,10.5C440.6,343.2,437.5,344.5,434.3,344.5z"/>
				</g>
				<g id="XMLID_6005_">
					
						<rect x="425.7" y="288.3" transform="matrix(0.7072 -0.707 0.707 0.7072 -83.5097 390.8513)" class="st2" width="8.8" height="15.9"/>
				</g>
				<g id="XMLID_6004_">
					
						<rect x="372.7" y="271.7" transform="matrix(0.7071 -0.7071 0.7071 0.7071 -81.4429 355.6058)" class="st2" width="31.8" height="8.8"/>
				</g>
			</g>
			<g>
				<path class="st1" d="M172.2,151.1c0-13.5-10.9-24.4-24.4-24.4c-13.5,0-24.4,10.9-24.4,24.4s10.9,24.4,24.4,24.4
					c6.4,0,12.2-2.5,16.5-6.5v2.1c0,2.2,1.8,3.9,3.9,3.9c2.2,0,3.9-1.8,3.9-3.9L172.2,151.1L172.2,151.1z M164.3,151.1
					c0,9.1-7.4,16.5-16.5,16.5c-9.1,0-16.5-7.4-16.5-16.5s7.4-16.5,16.5-16.5C156.9,134.5,164.3,141.9,164.3,151.1L164.3,151.1z"/>
			</g>
			<g id="XMLID_6002_">
				<path class="st7" d="M337.7,225.3L337.7,225.3c-1.5-1.5-1.7-4-0.3-5.6c6.1-7.4,9.5-16.6,9.5-26.3c0-9.7-3.3-18.9-9.5-26.3
					c-1.4-1.7-1.3-4.1,0.3-5.6l0,0c1.8-1.8,4.6-1.6,6.2,0.3c7.4,8.9,11.4,20,11.4,31.6c0,11.7-4,22.8-11.4,31.6
					C342.4,226.9,339.5,227,337.7,225.3z"/>
			</g>
			<path class="st2" d="M209.6,188.4H127c-2.4,0-4.3,1.9-4.3,4.3v0.2c0,2.4,1.9,4.3,4.3,4.3h82.6c2.4,0,4.3-2,4.3-4.4
				c0,0,0-0.1,0-0.1C214,190.4,212.1,188.4,209.6,188.4z"/>
			<g>
				<path class="st2" d="M194.7,329H127c-2.4,0-4.3,1.9-4.3,4.3v0.2c0,2.4,1.9,4.3,4.3,4.3h67.7c2.4,0,4.3-2,4.3-4.4
					c0,0,0-0.1,0-0.1C199.1,331,197.1,329,194.7,329z"/>
				<path class="st2" d="M194.7,355.4H127c-2.4,0-4.3,1.9-4.3,4.3v0.2c0,2.4,1.9,4.3,4.3,4.3h67.7c2.4,0,4.3-2,4.3-4.4
					c0,0,0-0.1,0-0.1C199.1,357.3,197.1,355.4,194.7,355.4z"/>
				<path class="st2" d="M194.7,381.7H127c-2.4,0-4.3,1.9-4.3,4.3v0.2c0,2.4,1.9,4.3,4.3,4.3h67.7c2.4,0,4.3-2,4.3-4.4
					c0,0,0-0.1,0-0.1C199.1,383.7,197.1,381.7,194.7,381.7z"/>
			</g>
			<path class="st2" d="M213.2,162.1h-28.8c-2.4,0-4.3,1.9-4.3,4.3v0.2c0,2.4,1.9,4.3,4.3,4.3h28.7c2,0,3.7-1.3,4.2-3.2
				c0-0.1,0-0.1,0.1-0.2C218.2,164.8,216.1,162.1,213.2,162.1z"/>
			<path class="st2" d="M224.6,135.7h-40.1c-2.4,0-4.3,1.9-4.3,4.3v0.2c0,2.4,1.9,4.3,4.3,4.3h40c1.5,0,2.9-0.8,3.7-2.1
				c0,0,0.1-0.1,0.1-0.1C230,139.4,228,135.7,224.6,135.7z"/>
			<path class="st2" d="M246.2,267.5H126.4c-2.4,0-4.3,1.9-4.3,4.3v0.2c0,2.4,1.9,4.3,4.3,4.3h120c4,0,5.9-5,2.8-7.6
				c-0.1-0.1-0.1-0.1-0.2-0.2C248.2,267.8,247.2,267.5,246.2,267.5z"/>
			<path class="st2" d="M212.9,214.8h-86.5c-2.4,0-4.3,1.9-4.3,4.3v0.2c0,2.4,1.9,4.3,4.3,4.3H213c2.8,0,4.9-2.7,4.2-5.4
				c0-0.1,0-0.1,0-0.2C216.6,216.1,214.9,214.8,212.9,214.8z"/>
			<path class="st2" d="M223.8,241.1h-97.4c-2.4,0-4.3,1.9-4.3,4.3v0.2c0,2.4,1.9,4.3,4.3,4.3H224c3.4,0,5.4-3.7,3.7-6.6
				c0,0,0-0.1-0.1-0.1C226.8,242,225.4,241.1,223.8,241.1z"/>
			<path class="st2" d="M223.8,51.5h-97.4c-2.4,0-4.3,1.9-4.3,4.3V56c0,2.4,1.9,4.3,4.3,4.3H224c3.4,0,5.4-3.7,3.7-6.6
				c0,0,0-0.1-0.1-0.1C226.8,52.3,225.4,51.5,223.8,51.5z"/>
			<path class="st2" d="M338.1,293.8H126.4c-2.4,0-4.3,1.9-4.3,4.3v0.2c0,2.4,1.9,4.3,4.3,4.3h211.8c3.4,0,5.4-3.7,3.7-6.6
				c0,0,0-0.1-0.1-0.1C341.1,294.7,339.7,293.8,338.1,293.8z"/>
			<g>
				<g>
					<defs>
						<path id="XMLID_5993_" d="M322.9,385.5h-89.5c-3.3,0-6.1-2.7-6.1-6.1v-39.2c0-3.3,2.7-6.1,6.1-6.1h89.5c3.3,0,6.1,2.7,6.1,6.1
							v39.2C329,382.8,326.3,385.5,322.9,385.5z"/>
					</defs>
					<clipPath id="XMLID_26_">
						<use xlink:href="#XMLID_5993_"  style="overflow:visible;"/>
					</clipPath>
					<g class="st8">
						<path id="XMLID_6001_" class="st6" d="M322.9,385.5h-89.5c-3.3,0-6.1-2.7-6.1-6.1v-39.2c0-3.3,2.7-6.1,6.1-6.1h89.5
							c3.3,0,6.1,2.7,6.1,6.1v39.2C329,382.8,326.3,385.5,322.9,385.5z"/>
						<polygon id="XMLID_6000_" class="st4" points="279.1,388.1 256.3,358.8 232.3,388.1 						"/>
						<g id="XMLID_5999_">
							<polygon class="st2" points="233.8,389.3 230.8,386.8 256.4,355.7 264.9,366.7 261.8,369 256.3,362 							"/>
						</g>
						<polygon id="XMLID_5998_" class="st9" points="311.2,387.5 282,349.9 251.2,387.5 						"/>
						<path id="XMLID_5997_" class="st0" d="M319,360c0-0.7-0.5-1.2-1.2-1.2c-0.2,0-0.4,0-0.5,0.1c-0.2-0.5-0.7-0.8-1.2-0.9
							c0-0.1,0.1-0.2,0.1-0.4c0-1.1-0.9-2-2-2c-0.5,0-1,0.2-1.3,0.5c-0.1-1.9-1.7-3.4-3.6-3.4c-1.7,0-3.1,1.1-3.5,2.7
							c-0.2,0-0.3-0.1-0.5-0.1c-1.2,0-2.1,0.8-2.4,1.9c-0.3-0.1-0.5-0.2-0.8-0.2c-1.3,0-2.3,1-2.3,2.3c0,0.4,0.1,0.8,0.4,1.1h18.7
							C318.9,360.4,319,360.2,319,360z"/>
						<path id="XMLID_5996_" class="st0" d="M246.1,362.4c0-0.4-0.3-0.7-0.7-0.7c-0.1,0-0.2,0-0.3,0.1c-0.1-0.3-0.4-0.4-0.7-0.5
							c0-0.1,0-0.1,0-0.2c0-0.6-0.5-1.1-1.1-1.1c-0.3,0-0.6,0.1-0.7,0.3c-0.1-1.1-1-1.9-2-1.9c-0.9,0-1.7,0.6-2,1.5
							c-0.1,0-0.2,0-0.3,0c-0.7,0-1.2,0.4-1.4,1c-0.1-0.1-0.3-0.1-0.5-0.1c-0.7,0-1.3,0.6-1.3,1.3c0,0.2,0.1,0.4,0.2,0.6H246
							C246,362.6,246.1,362.5,246.1,362.4z"/>
						<path id="XMLID_5995_" class="st0" d="M272.3,351.9c0-0.6-0.5-1-1-1c-0.2,0-0.3,0-0.4,0.1c-0.2-0.4-0.6-0.7-1-0.8
							c0-0.1,0.1-0.2,0.1-0.3c0-0.9-0.8-1.7-1.7-1.7c-0.4,0-0.8,0.2-1.2,0.5c-0.1-1.6-1.5-2.9-3.1-2.9c-1.4,0-2.6,1-3,2.3
							c-0.1,0-0.3,0-0.4,0c-1,0-1.8,0.7-2.1,1.6c-0.2-0.1-0.5-0.1-0.7-0.1c-1.1,0-2,0.9-2,2c0,0.4,0.1,0.7,0.3,1h16.2
							C272.2,352.3,272.3,352.1,272.3,351.9z"/>
						<g id="XMLID_5994_">
							<polygon class="st2" points="252.7,388.7 249.7,386.3 282,346.8 312.8,386.3 309.7,388.7 282,353 							"/>
						</g>
					</g>
				</g>
				<g id="XMLID_5992_">
					<path class="st2" d="M323.2,399.7h-89.9c-10.7,0-19.4-8.7-19.4-19.4v-41.1c0-10.7,8.7-19.4,19.4-19.4h89.9
						c10.7,0,19.4,8.7,19.4,19.4v41.1C342.5,391,333.9,399.7,323.2,399.7z M233.2,327.1c-6.7,0-12.1,5.4-12.1,12.1v41.1
						c0,6.7,5.4,12.1,12.1,12.1h89.9c6.7,0,12.1-5.4,12.1-12.1v-41.1c0-6.7-5.4-12.1-12.1-12.1H233.2z"/>
				</g>
			</g>
		</g>
	</g>
</g>
</svg>
