<?xml version="1.0" encoding="utf-8"?>
<!-- Generator: Adobe Illustrator 22.1.0, SVG Export Plug-In . SVG Version: 6.00 Build 0)  -->
<svg version="1.1" id="apps_development" xmlns="http://www.w3.org/2000/svg" xmlns:xlink="http://www.w3.org/1999/xlink" x="0px"
	 y="0px" viewBox="0 0 500 200" style="enable-background:new 0 0 500 200;" xml:space="preserve">
<style type="text/css">
	.st0{fill:#DCE4E8;}
	.st1{fill:#FFFFFF;}
	.st2{opacity:0.3;}
	.st3{fill:#2D333A;}
	.st4{fill:#FF5B40;}
	.st5{fill:#FFB13E;}
	.st6{fill:#B7BFC7;}
	.st7{fill:#00BFFF;}
	.st8{opacity:0.2;fill:#2D333A;}
</style>
<g>
	<g>
		<path class="st0" d="M413.2,20.6H89.5c-10,0-18.1,8.1-18.1,18.1l0,0c0,10,8.1,18.1,18.1,18.1h42.8c6,0,10.9,4.9,10.9,10.9l0,0
			c0,6-4.9,10.9-10.9,10.9H43c-8.9,0-16.1,7.2-16.1,16.1v0c0,8.9,7.2,16.1,16.1,16.1h125.4c7.1,0,12.8,5.8,12.8,12.8l0,0
			c0,7-5.7,12.7-12.8,12.7H19.1c-7.2,0-13.1,5.9-13.1,13.1v1.8c0,7.2,5.9,13.1,13.1,13.1h418.2c10.1,0,18.3-8.2,18.3-18.3v0
			c0-10.1-8.2-18.3-18.3-18.3H276.9c-7.3,0-13.2-5.9-13.2-13.2l0,0c0-7.3,5.9-13.2,13.2-13.2h200.5c9.2,0,16.6-7.4,16.6-16.6l0,0
			c0-9.2-7.4-16.6-16.6-16.6H240.2c-5.9,0-10.7-4.8-10.7-10.7l0,0c0-5.9,4.8-10.7,10.7-10.7h178.2c7.2,0,13.1-5.9,13.1-13.1l0,0
			c0-7.2-5.9-13.1-13.1-13.1H413.2z"/>
	</g>
	<rect x="187.7" y="86" class="st1" width="113.5" height="85.9"/>
	<g>
		<g>
			<g class="st2">
				<path class="st3" d="M186.6,192.4v-2.7v-49v-2.7c0-3.6-2.6-6.7-6-7.4l-7.5-6.1V90.8h7v-1.5h1.7v-3.5c0-6.4-5.2-11.5-11.5-11.5
					h-4.5c-0.3,0-0.6-0.1-0.9-0.1h-10.6L76.4,179.6v10.1v2.7c0,4.2,3.4,7.6,7.6,7.6h2.7h89.7h2.7C183.2,200,186.6,196.6,186.6,192.4
					z"/>
			</g>
			<g>
				<g id="XMLID_15973_">
					<path class="st4" d="M79.8,198.4h93.9c3.7,0,6.7-3,6.7-6.7V139c0-3.7-3-6.7-6.7-6.7H88c-8,0-14.4,6.5-14.4,14.4v45.5
						C73.6,195.6,76.4,198.4,79.8,198.4z"/>
				</g>
				<g id="XMLID_15972_">
					<path class="st4" d="M78.7,132.2l41-33.7c4.3-3.2,10.2-3.2,14.5,0l41,33.7H78.7z"/>
				</g>
				<g id="XMLID_15971_">
					<path class="st3" d="M174.2,133.5l-41-33.7c-3.7-2.7-8.7-2.7-12.4,0.1l-41,33.7l-2.1-2.6l41-33.7c5-3.7,11.6-3.7,16.6-0.1
						l41.1,33.8L174.2,133.5z"/>
				</g>
				<g id="XMLID_15970_">
					<path class="st3" d="M171.9,200H82.2c-5.7,0-10.3-4.6-10.3-10.3v-49c0-5.7,4.6-10.3,10.3-10.3h89.7c5.7,0,10.3,4.6,10.3,10.3
						v49C182.1,195.4,177.5,200,171.9,200z M82.2,133.9c-3.8,0-6.9,3.1-6.9,6.9v49c0,3.8,3.1,6.9,6.9,6.9h89.7
						c3.8,0,6.9-3.1,6.9-6.9v-49c0-3.8-3.1-6.9-6.9-6.9H82.2z"/>
				</g>
				<g id="XMLID_15969_">
					<path class="st1" d="M167,178.2H85.9V88.3c0-6.9,5.6-12.4,12.4-12.4h62.1c3.6,0,6.6,3,6.6,6.6V178.2z"/>
				</g>
				<g id="XMLID_15968_">
					<path class="st3" d="M168.7,179.8H84.3V88.3c0-7.8,6.3-14.1,14.1-14.1h62.1c4.6,0,8.3,3.7,8.3,8.3V179.8z M87.6,176.5h77.7v-94
						c0-2.7-2.2-4.9-4.9-4.9H98.3c-5.9,0-10.7,4.8-10.7,10.7V176.5z"/>
				</g>
				<g id="XMLID_15967_" class="st2">
					<path class="st3" d="M175.7,90.8h-72.2c1-11.6,1.4-11.6,1.4-11.6h60.9c5.4,0,9.8,4.4,9.8,9.8V90.8z"/>
				</g>
				<g id="XMLID_15966_">
					<path class="st5" d="M175.7,87.6h-70.6c1-11.6-9.7-11.6-9.7-11.6h70.4c5.4,0,9.8,4.4,9.8,9.8V87.6z"/>
				</g>
				<g id="XMLID_15965_">
					<path class="st5" d="M165.8,76H99.6c0.1,0.3,0.2,0.7,0.3,1.1c1.7,0.8,3.5,2.2,4.5,4.7h70.4C173.2,78.4,169.8,76,165.8,76z"/>
				</g>
				<g id="XMLID_15964_">
					<path class="st3" d="M177.3,89.3h-74.1l0.1-1.8c0.3-3.1-0.4-5.5-1.9-7.2c-2.3-2.5-6.1-2.6-6.1-2.6v-3.4h70.5
						c6.4,0,11.5,5.2,11.5,11.5V89.3z M106.8,86H174v-0.1c0-4.5-3.7-8.2-8.2-8.2h-62.2c0.1,0.1,0.2,0.2,0.3,0.3
						C105.8,80,106.8,82.7,106.8,86z"/>
				</g>
				<g id="XMLID_15963_">
					<rect x="95.4" y="101" class="st5" width="31" height="21.6"/>
				</g>
				<g id="XMLID_15962_">
					<rect x="129.5" y="101" class="st4" width="31" height="21.6"/>
				</g>
				<g id="XMLID_15961_">
					<rect x="95.4" y="126.2" class="st6" width="48.4" height="3.7"/>
				</g>
				<g id="XMLID_15960_">
					<rect x="95.4" y="136.2" class="st0" width="65" height="1.9"/>
				</g>
				<g id="XMLID_15959_">
					<rect x="95.4" y="141" class="st0" width="65" height="1.9"/>
				</g>
				<g id="XMLID_15958_">
					<rect x="95.4" y="145.8" class="st0" width="65" height="1.9"/>
				</g>
				<g id="XMLID_15957_">
					<rect x="95.4" y="150.7" class="st0" width="65" height="1.9"/>
				</g>
				<g id="XMLID_15956_">
					<rect x="95.4" y="155.5" class="st0" width="65" height="1.9"/>
				</g>
				<g id="XMLID_15955_">
					<rect x="95.4" y="160.3" class="st0" width="65" height="1.9"/>
				</g>
				<g id="XMLID_15954_">
					<rect x="95.4" y="165.2" class="st0" width="56.4" height="1.9"/>
				</g>
				<g id="XMLID_15953_" class="st2">
					<path class="st3" d="M137.8,162l-3.1-2.6c-4.5-3.3-10.6-3.3-15.2,0l-3.4,2.8l-31.6-23.1l0.1,15.3l4.3,13.5h73.9l4.9-17.3
						l0-10.8L137.8,162z"/>
				</g>
				<g id="XMLID_15952_">
					<path class="st4" d="M76.6,197.4l42.9-35.2c4.5-3.3,10.6-3.3,15.2,0l42.9,35.2H76.6z"/>
				</g>
				<g id="XMLID_15951_">
					<path class="st4" d="M76.6,196.9c0,0,38.7-30,38.7-32.6L75.1,135c0,0-1.5,1.7-1.5,7.2V194C73.6,196.4,75.3,196.6,76.6,196.9z"
						/>
				</g>
				<g id="XMLID_15950_">
					<path class="st4" d="M77.8,194v-51.9c0-2.2,0.2-3.8,0.5-4.9l-3.2-2.3c0,0-1.5,1.7-1.5,7.2V194c0,2.4,1.7,2.5,3.1,2.9
						c0,0,0.6-0.5,1.6-1.2C78,195.3,77.8,194.8,77.8,194z"/>
				</g>
				<g id="XMLID_15949_">
					<path class="st4" d="M177.6,196.9c0,0-38.7-30-38.7-32.6l40.2-29.4c0,0,1.5,1.7,1.5,7.2V194
						C180.7,196.4,178.9,196.6,177.6,196.9z"/>
				</g>
				<g id="XMLID_15948_">
					
						<rect x="94.2" y="124.3" transform="matrix(0.59 -0.8074 0.8074 0.59 -81.8859 138.9184)" class="st3" width="3.4" height="51.5"/>
				</g>
				<g id="XMLID_15947_">
					
						<rect x="132.1" y="148.4" transform="matrix(0.8074 -0.59 0.59 0.8074 -58.1454 122.0403)" class="st3" width="51.5" height="3.4"/>
				</g>
				<g id="XMLID_15946_">
					<path class="st3" d="M174.5,200h-95c-4.2,0-7.6-3.4-7.6-7.6v-54.3c0-4.2,3.4-7.6,7.6-7.6v3.4c-2.3,0-4.3,1.9-4.3,4.3v54.3
						c0,2.3,1.9,4.3,4.3,4.3h95c2.3,0,4.3-1.9,4.3-4.3v-54.3c0-2.3-1.9-4.3-4.3-4.3v-3.4c4.2,0,7.6,3.4,7.6,7.6v54.3
						C182.1,196.6,178.7,200,174.5,200z"/>
				</g>
				<g id="XMLID_15945_">
					<path class="st3" d="M176.5,198.7l-42.9-35.2c-3.9-2.8-9.2-2.8-13.1,0.1l-42.8,35.2l-2.1-2.6l42.9-35.2
						c5.2-3.8,12.1-3.8,17.2-0.1l42.9,35.3L176.5,198.7z"/>
				</g>
			</g>
		</g>
		<g id="XMLID_15921_">
			<g id="XMLID_15944_">
				<path class="st5" d="M439.7,93.7H308.2c-2,0-3.7,1.6-3.7,3.7V198h131.6c4.1,0,7.5-3.3,7.5-7.5v-93
					C443.6,95.5,441.8,93.7,439.7,93.7z"/>
			</g>
			<g id="XMLID_15943_">
				<path class="st3" d="M432.7,200H304.6v-3.9h128.1c5,0,9-4,9-9V99.4c0-2-1.7-3.7-3.7-3.7h-8.6v-3.9h8.6c4.2,0,7.6,3.4,7.6,7.6
					v87.7C445.5,194.2,439.7,200,432.7,200z"/>
			</g>
			<g id="XMLID_15942_">
				<rect x="314.1" y="91.8" class="st3" width="77.8" height="3.9"/>
			</g>
			<g id="XMLID_15939_">
				<g id="XMLID_15941_">
					<path class="st1" d="M393.8,54.7l27.7,27.7v96.7c0,4.4-3.5,7.9-7.9,7.9h-82.7c-4.4,0-7.9-3.5-7.9-7.9V62.6
						c0-4.4,3.5-7.9,7.9-7.9H393.8z"/>
				</g>
				<g id="XMLID_15940_">
					<path class="st3" d="M413.6,188.9h-82.7v-3.9h82.7c3.3,0,6-2.7,6-6V83.2L393,56.7h-62.1c-3.3,0-6,2.7-6,6V102H321V62.6
						c0-5.4,4.4-9.9,9.9-9.9h63.7l28.8,28.8v97.5C423.4,184.5,419,188.9,413.6,188.9z"/>
				</g>
			</g>
			<g id="XMLID_15934_">
				<g id="XMLID_15938_">
					<path class="st0" d="M409.9,46.6l27.7,27.7V171c0,4.4-3.5,7.9-7.9,7.9H347c-4.4,0-7.9-3.5-7.9-7.9V54.6c0-4.4,3.5-7.9,7.9-7.9
						H409.9z"/>
				</g>
				<g id="XMLID_15937_">
					<polygon class="st7" points="409.9,74.3 409.9,46.6 437.6,74.3 					"/>
				</g>
				<g id="XMLID_15936_">
					<path class="st3" d="M437.6,76.3h-24.9c-2.6,0-4.7-2.1-4.7-4.7V46.6h3.9v24.9c0,0.5,0.4,0.8,0.8,0.8h24.9V76.3z"/>
				</g>
				<g id="XMLID_15935_">
					<path class="st3" d="M429.7,180.9H426V177h3.6c3.3,0,6-2.7,6-6V75.1l-26.6-26.6H347c-3.3,0-6,2.7-6,6v58h-3.9v-58
						c0-5.4,4.4-9.9,9.9-9.9h63.7l28.8,28.8V171C439.5,176.5,435.1,180.9,429.7,180.9z"/>
				</g>
			</g>
			<g id="XMLID_15925_">
				<g id="XMLID_15933_">
					<path class="st1" d="M426,58.7l27.7,27.7v96.7c0,4.4-3.5,7.9-7.9,7.9h-82.7c-4.4,0-7.9-3.5-7.9-7.9V66.7c0-4.4,3.5-7.9,7.9-7.9
						H426z"/>
				</g>
				<g id="XMLID_15932_">
					<polygon class="st7" points="426,86.4 426,58.7 453.7,86.4 					"/>
				</g>
				<g id="XMLID_15931_">
					<path class="st3" d="M453.7,88.4h-24.9c-2.6,0-4.7-2.1-4.7-4.7V58.7h3.9v24.9c0,0.5,0.4,0.8,0.8,0.8h24.9V88.4z"/>
				</g>
				<g id="XMLID_15930_">
					<rect x="370" y="98" class="st3" width="70.5" height="3.9"/>
				</g>
				<g id="XMLID_15929_">
					<rect x="370" y="113.7" class="st3" width="70.5" height="3.9"/>
				</g>
				<g id="XMLID_15928_">
					<rect x="370" y="129.4" class="st3" width="70.5" height="3.9"/>
				</g>
				<g id="XMLID_15927_">
					<rect x="370" y="145.1" class="st3" width="70.5" height="3.9"/>
				</g>
				<g id="XMLID_15926_">
					<path class="st3" d="M445.8,193h-18.3v-3.9h18.3c3.3,0,6-2.7,6-6V87.2l-26.6-26.6h-62.1c-3.3,0-6,2.7-6,6v45.9h-3.9V66.7
						c0-5.4,4.4-9.9,9.9-9.9h63.7l28.8,28.8v97.5C455.7,188.5,451.2,193,445.8,193z"/>
				</g>
			</g>
			<g id="XMLID_15924_">
				<path class="st5" d="M432.4,198H299.8c-3.2,0-5.8-2.6-5.8-5.8v-82.4c0-2.7,2.2-4.8,4.8-4.8h22.7c1.7,0,3.2,0.8,4.1,2.2l5.9,9.3
					h84.4c3,0,5.5,2.5,5.5,5.5v64.7C421.3,192.1,425,198,432.4,198z"/>
			</g>
			<g id="XMLID_15923_">
				<path class="st5" d="M421.3,186.9v-9.4H294v14.7c0,3.2,2.6,5.8,5.8,5.8h132.7C425,198,421.3,192.1,421.3,186.9z"/>
			</g>
			<g id="XMLID_15922_">
				<path class="st3" d="M432.4,200H299.8c-4.2,0-7.7-3.5-7.7-7.7h3.9c0,2.1,1.7,3.8,3.8,3.8H423c-2.4-2.5-3.6-5.9-3.6-9.2v-64.7
					c0-2-1.6-3.6-3.6-3.6h-85.4l-6.4-10.2c-0.5-0.8-1.4-1.3-2.4-1.3h-5.9v-3.9h5.9c2.3,0,4.5,1.2,5.7,3.2l5.3,8.4h83.3
					c4.1,0,7.4,3.3,7.4,7.5v64.7c0,4.5,3.2,9.2,9.2,9.2V200z"/>
			</g>
		</g>
		<path class="st8" d="M261.4,35.9c-1.2-0.7-2.7-1.2-4.2-1.4V4H252v4.4h-29.9l-6.8,11.6l6.8,11.4H252v3.5c-0.7,0.2-1.5,0.5-2.1,0.8
			l-96.5,54.4l2.6,4.6l9.8-5.5h18V92h1.2v77.1h-6.5v11h-10.5V200H336v-5.2h0v-12h-10.5v-11h-6.2c0-0.2,0.1-0.4,0.1-0.6v-17.3h2.6V92
			h1.2v-2.9h17.7l9.2,5.5l2.7-4.5L261.4,35.9z M221.5,169.1h-9.4V92h1.2v-2.9h7V92h1.2V169.1z M258.1,169.1h-9.4V92h1.2v-2.9h7V92
			h1.2V169.1z M294.7,169.1h-9.4V92h1.2v-2.9h7V92h1.2V169.1z"/>
		<g id="XMLID_15841_">
			<path id="XMLID_15868_" class="st0" d="M199.4,176.2H187c-2.6,0-4.8-2.2-4.8-5V87.7h22v83.4C204.2,173.9,202.1,176.2,199.4,176.2
				z"/>
			<path id="XMLID_15867_" class="st0" d="M193.2,87.7h-11v83.4c0,2.8,2.1,5,4.8,5h6.2V87.7z"/>
			<path id="XMLID_15866_" class="st0" d="M236.1,176.2h-12.5c-2.6,0-4.8-2.2-4.8-5V87.7h22v83.4
				C240.8,173.9,238.7,176.2,236.1,176.2z"/>
			<path id="XMLID_15865_" class="st0" d="M229.8,87.7h-11v83.4c0,2.8,2.1,5,4.8,5h6.2V87.7z"/>
			<path id="XMLID_15864_" class="st0" d="M272.7,176.2h-12.5c-2.6,0-4.8-2.2-4.8-5V87.7h22v83.4
				C277.5,173.9,275.3,176.2,272.7,176.2z"/>
			<path id="XMLID_15863_" class="st0" d="M266.5,87.7h-11v83.4c0,2.8,2.1,5,4.8,5h6.2V87.7z"/>
			<path id="XMLID_15862_" class="st0" d="M309.3,176.2h-12.5c-2.6,0-4.8-2.2-4.8-5V87.7h22v83.4C314.1,173.9,312,176.2,309.3,176.2
				z"/>
			<g id="XMLID_15861_">
				<path class="st3" d="M199.4,178.8H187c-4.1,0-7.4-3.4-7.4-7.7v-86h27.2v86C206.8,175.3,203.5,178.8,199.4,178.8z M184.8,90.3
					v80.8c0,1.3,1,2.4,2.1,2.4h12.5c1.2,0,2.1-1.1,2.1-2.4V90.3H184.8z"/>
			</g>
			<g id="XMLID_15860_">
				<path class="st3" d="M236.1,178.8h-12.5c-4.1,0-7.4-3.4-7.4-7.7v-86h27.2v86C243.5,175.3,240.1,178.8,236.1,178.8z M221.5,90.3
					v80.8c0,1.3,1,2.4,2.1,2.4h12.5c1.2,0,2.1-1.1,2.1-2.4V90.3H221.5z"/>
			</g>
			<g id="XMLID_15859_">
				<path class="st3" d="M272.7,178.8h-12.5c-4.1,0-7.4-3.4-7.4-7.7v-86h27.2v86C280.1,175.3,276.8,178.8,272.7,178.8z M258.1,90.3
					v80.8c0,1.3,1,2.4,2.1,2.4h12.5c1.2,0,2.1-1.1,2.1-2.4V90.3H258.1z"/>
			</g>
			<path id="XMLID_15858_" class="st0" d="M303.1,87.7h-11v83.4c0,2.8,2.1,5,4.8,5h6.2V87.7z"/>
			<g id="XMLID_15857_">
				<path class="st3" d="M296.9,178.8c-4.1,0-7.4-3.4-7.4-7.7v-86h27.2v68.7h-5.2V90.3h-16.8v80.8c0,1.3,1,2.4,2.1,2.4V178.8z"/>
			</g>
			<rect id="XMLID_15856_" x="175.7" y="171.8" class="st0" width="144.4" height="12.7"/>
			<g id="XMLID_15855_">
				<polygon class="st3" points="178.4,184.5 173.1,184.5 173.1,169.1 304.6,169.1 304.6,174.4 178.4,174.4 				"/>
			</g>
			<rect id="XMLID_15854_" x="165.2" y="182.8" class="st0" width="165.5" height="14.6"/>
			<g id="XMLID_15853_">
				<polyline class="st3" points="162.6,200 162.6,180.2 303,180.2 303,185.4 167.8,185.4 167.8,199.5 				"/>
			</g>
			<rect id="XMLID_15852_" x="178.4" y="83.2" class="st3" width="29.7" height="8.8"/>
			<rect id="XMLID_15851_" x="215" y="83.2" class="st3" width="29.7" height="8.8"/>
			<rect id="XMLID_15850_" x="251.6" y="83.2" class="st3" width="29.7" height="8.8"/>
			<rect id="XMLID_15849_" x="288.3" y="83.2" class="st3" width="29.7" height="8.8"/>
			<polygon id="XMLID_15848_" class="st0" points="159.7,86.5 338.9,86.5 250.4,35.5 			"/>
			<g id="XMLID_15847_">
				<path class="st3" d="M150.6,94.7l-2.6-4.6l96.5-54.4c3.3-1.9,8.3-1.8,11.6,0.1l91.3,54.2l-2.7,4.5l-91.3-54.2
					c-1.6-1-4.7-1-6.3-0.1L150.6,94.7z"/>
			</g>
			<path id="XMLID_15846_" class="st5" d="M262,64.7c0,6.4-5.2,11.6-11.6,11.6c-6.4,0-11.6-5.2-11.6-11.6c0-6.4,5.2-11.6,11.6-11.6
				C256.8,53.1,262,58.3,262,64.7z"/>
			<g id="XMLID_15845_">
				<path class="st3" d="M250.4,78.9c-7.9,0-14.3-6.4-14.3-14.2c0-7.9,6.4-14.2,14.3-14.2c7.9,0,14.2,6.4,14.2,14.2
					C264.6,72.5,258.2,78.9,250.4,78.9z M250.4,55.7c-5,0-9,4-9,9c0,5,4,9,9,9c5,0,9-4,9-9C259.4,59.7,255.4,55.7,250.4,55.7z"/>
			</g>
			<polygon id="XMLID_15844_" class="st7" points="218.3,28.7 248.9,28.7 248.9,10.9 218.3,10.9 213.1,19.9 			"/>
			<g id="XMLID_15843_">
				<polygon class="st3" points="248.9,31.4 216.8,31.4 210,19.9 216.8,8.3 248.9,8.3 248.9,13.5 219.8,13.5 216.1,19.9 219.8,26.1 
					248.9,26.1 				"/>
			</g>
			<g id="XMLID_15842_">
				<rect x="246.7" y="4" class="st3" width="5.2" height="33.4"/>
			</g>
			<g>
				<rect x="159.7" y="83.9" class="st3" width="176.6" height="5.2"/>
			</g>
		</g>
		<g>
			<g id="XMLID_14997_">
				<path class="st3" d="M352.1,198.7c-9.2,0-16.8-7.5-16.8-16.8c0-9.2,7.5-16.8,16.8-16.8s16.8,7.5,16.8,16.8
					C368.9,191.2,361.4,198.7,352.1,198.7z M352.1,168.5c-7.4,0-13.4,6-13.4,13.4c0,7.4,6,13.4,13.4,13.4s13.4-6,13.4-13.4
					C365.6,174.5,359.5,168.5,352.1,168.5z"/>
			</g>
			<g id="XMLID_14996_">
				<path class="st3" d="M384.8,178.9h-3.4c0-3.6-3-6.6-6.6-6.6c-3.6,0-6.6,3-6.6,6.6h-3.4c0-5.5,4.5-10,10-10
					C380.4,169,384.8,173.4,384.8,178.9z"/>
			</g>
			<g id="XMLID_14995_">
				<path class="st3" d="M397.9,198.7c-9.2,0-16.8-7.5-16.8-16.8c0-9.2,7.5-16.8,16.8-16.8c9.2,0,16.8,7.5,16.8,16.8
					C414.6,191.2,407.1,198.7,397.9,198.7z M397.9,168.5c-7.4,0-13.4,6-13.4,13.4c0,7.4,6,13.4,13.4,13.4c7.4,0,13.4-6,13.4-13.4
					C411.3,174.5,405.3,168.5,397.9,168.5z"/>
			</g>
			<g id="XMLID_14994_">
				
					<rect x="371.8" y="149.9" transform="matrix(0.125 -0.9922 0.9922 0.125 141.689 533.6883)" class="st3" width="3.4" height="73.3"/>
			</g>
			<g id="XMLID_14993_">
				
					<rect x="339.4" y="184.8" transform="matrix(0.9922 -0.125 0.125 0.9922 -20.3638 48.4642)" class="st3" width="73.3" height="3.4"/>
			</g>
		</g>
		<polyline class="st3" points="347.5,200 29.8,200 29.8,196.1 335.4,196.1 		"/>
	</g>
	<path class="st8" d="M474.9,197.5l-7.6-17l-94.5-94.6l-11.9,11.9L455,192l17.4,7.9c0.7,0.3,1.5,0.2,2.1-0.4
		C475,199,475.2,198.2,474.9,197.5z"/>
	<g>
		<g id="XMLID_6285_">
			<g id="XMLID_6286_">
				<path class="st0" d="M162.4,163.2h6.4v-13c0-6.5,5.3-11.8,11.8-11.8c6.5,0,11.8,5.3,11.8,11.8v13h6.4v-13
					c0-10-8.2-18.2-18.2-18.2c-10,0-18.2,8.2-18.2,18.2V163.2z"/>
			</g>
		</g>
		<g id="XMLID_6283_">
			<g id="XMLID_6284_">
				<path class="st3" d="M200.2,164.5H191v-14.3c0-5.7-4.7-10.4-10.4-10.4c-5.7,0-10.4,4.7-10.4,10.4v14.3H161v-14.3
					c0-10.8,8.8-19.6,19.6-19.6c10.8,0,19.6,8.8,19.6,19.6V164.5z M193.8,161.8h3.7v-11.6c0-9.3-7.6-16.9-16.9-16.9
					s-16.8,7.6-16.8,16.9v11.6h3.7v-11.6c0-7.3,5.9-13.2,13.2-13.2c7.3,0,13.2,5.9,13.2,13.2V161.8z"/>
			</g>
		</g>
		<g id="XMLID_6282_">
			<circle class="st1" cx="180.7" cy="175.1" r="23.5"/>
		</g>
		<g id="XMLID_6281_">
			
				<ellipse transform="matrix(0.9734 -0.229 0.229 0.9734 -35.3067 46.0333)" class="st5" cx="180.7" cy="175.1" rx="13.4" ry="13.4"/>
		</g>
		<g id="XMLID_6280_">
			<path class="st7" d="M175.1,175.1c0,3.1,2.5,5.6,5.6,5.6c3.1,0,5.6-2.5,5.6-5.6c0-3.1-2.5-5.6-5.6-5.6
				C177.6,169.6,175.1,172,175.1,175.1z"/>
		</g>
		<g id="XMLID_6279_">
			<circle class="st3" cx="180.7" cy="175.1" r="2.1"/>
		</g>
		<g id="XMLID_6278_">
			<path class="st3" d="M180.7,182.1c-3.8,0-6.9-3.1-6.9-6.9s3.1-6.9,6.9-6.9s6.9,3.1,6.9,6.9S184.5,182.1,180.7,182.1z
				 M180.7,170.9c-2.3,0-4.2,1.9-4.2,4.2c0,2.3,1.9,4.2,4.2,4.2c2.3,0,4.2-1.9,4.2-4.2C184.9,172.8,183,170.9,180.7,170.9z"/>
		</g>
		<g id="XMLID_6277_">
			<path class="st3" d="M180.7,200c-7.5,0-14.6-3.4-19.3-9.2l2.1-1.7c4.2,5.2,10.5,8.2,17.2,8.2c12.2,0,22.2-9.9,22.2-22.2
				s-9.9-22.2-22.2-22.2s-22.2,9.9-22.2,22.2c0,2.3,0.4,4.7,1.1,6.9l-2.6,0.9c-0.8-2.5-1.2-5.1-1.2-7.7c0-13.7,11.2-24.9,24.9-24.9
				c13.7,0,24.9,11.2,24.9,24.9C205.6,188.9,194.4,200,180.7,200z"/>
		</g>
		<g id="XMLID_6276_">
			<path class="st3" d="M159.7,188.7c-0.4-0.5-0.7-1.1-1-1.7l2.4-1.3c0.3,0.5,0.6,1,0.9,1.5L159.7,188.7z"/>
		</g>
		<g id="XMLID_6275_">
			<rect x="179.2" y="164.7" class="st3" width="2.8" height="3"/>
		</g>
		<g id="XMLID_6274_">
			
				<rect x="174.8" y="165.9" transform="matrix(0.8659 -0.5002 0.5002 0.8659 -60.1368 110.5457)" class="st3" width="2.8" height="3"/>
		</g>
		<g id="XMLID_6273_">
			
				<rect x="171.5" y="169.2" transform="matrix(0.5002 -0.8659 0.8659 0.5002 -61.4205 235.0721)" class="st3" width="2.8" height="3"/>
		</g>
		<g id="XMLID_6272_">
			<rect x="170.2" y="173.8" class="st3" width="3" height="2.8"/>
		</g>
		<g id="XMLID_6271_">
			
				<rect x="171.5" y="178.3" transform="matrix(0.8662 -0.4998 0.4998 0.8662 -66.6283 110.5019)" class="st3" width="3" height="2.8"/>
		</g>
		<g id="XMLID_6270_">
			
				<rect x="174.8" y="181.5" transform="matrix(0.5006 -0.8657 0.8657 0.5006 -70.2754 243.9368)" class="st3" width="3" height="2.8"/>
		</g>
		<g id="XMLID_6269_">
			<rect x="179.4" y="182.5" class="st3" width="2.8" height="3"/>
		</g>
		<g id="XMLID_6268_">
			
				<rect x="183.8" y="181.3" transform="matrix(0.8663 -0.4995 0.4995 0.8663 -66.5492 116.932)" class="st3" width="2.7" height="3"/>
		</g>
		<g id="XMLID_6267_">
			<rect x="187" y="178" transform="matrix(0.5008 -0.8655 0.8655 0.5008 -61.3237 252.6842)" class="st3" width="2.8" height="3"/>
		</g>
		<g id="XMLID_6266_">
			<rect x="188.1" y="173.7" class="st3" width="3" height="2.8"/>
		</g>
		<g id="XMLID_6265_">
			
				<rect x="186.8" y="169.2" transform="matrix(0.8667 -0.4988 0.4988 0.8667 -59.9935 116.6766)" class="st3" width="3" height="2.8"/>
		</g>
		<g id="XMLID_6264_">
			
				<rect x="183.5" y="166" transform="matrix(0.5006 -0.8657 0.8657 0.5006 -52.472 243.7912)" class="st3" width="3" height="2.8"/>
		</g>
	</g>
	<g id="XMLID_6238_">
		<path class="st6" d="M68.7,65.5c0,1.4-1.2,2.6-2.6,2.6c-1.5,0-2.6-1.2-2.6-2.6c0-1.5,1.2-2.6,2.6-2.6C67.5,62.8,68.7,64,68.7,65.5
			z"/>
	</g>
	<g id="XMLID_6237_">
		<path class="st6" d="M452.5,45c-5.8,1.5-7,2.8-8.5,8.5c-1.5-5.8-2.8-7-8.5-8.5c5.8-1.5,7-2.8,8.5-8.5
			C445.5,42.2,446.7,43.5,452.5,45z"/>
	</g>
	<g id="XMLID_6233_">
		<path class="st6" d="M183.6,48.8c-6,1.6-7.3,2.9-8.9,8.9c-1.6-6-2.9-7.3-8.9-8.9c6-1.6,7.3-2.9,8.9-8.9
			C176.4,45.9,177.6,47.2,183.6,48.8z"/>
	</g>
	<g id="XMLID_5040_">
		<path class="st6" d="M478.4,138.5c0,1.5-1.2,2.6-2.6,2.6s-2.6-1.2-2.6-2.6c0-1.5,1.2-2.6,2.6-2.6S478.4,137.1,478.4,138.5z"/>
	</g>
	<g id="XMLID_5035_">
		<path class="st6" d="M52.2,149.6c-3.4,0.9-4.2,1.7-5.1,5.1c-0.9-3.4-1.7-4.2-5.1-5.1c3.4-0.9,4.2-1.7,5.1-5.1
			C48,147.9,48.8,148.6,52.2,149.6z"/>
	</g>
	<g id="XMLID_2991_">
		<path id="XMLID_2998_" class="st1" d="M460.9,190.9l-93.2-93.2l9.9-9.9l93.2,93.2l7.6,17c0.2,0.3-0.2,0.7-0.5,0.5L460.9,190.9z"/>
		
			<rect id="XMLID_2997_" x="353.4" y="132.4" transform="matrix(0.7071 0.7071 -0.7071 0.7071 221.3743 -255.6216)" class="st4" width="131.7" height="14"/>
		
			<rect id="XMLID_2996_" x="355.9" y="133.4" transform="matrix(0.7071 0.7071 -0.7071 0.7071 220.349 -258.0968)" class="st5" width="131.7" height="7"/>
		
			<rect id="XMLID_2995_" x="370.3" y="91.2" transform="matrix(0.7071 0.7071 -0.7071 0.7071 180.5603 -238.716)" class="st1" width="16.3" height="14.8"/>
		<g id="XMLID_2994_">
			<path class="st3" d="M365.7,97.8l11.9-11.9l94.5,94.6l7.6,17c0.3,0.7,0.2,1.5-0.4,2.1c-0.5,0.5-1.3,0.7-2.1,0.4l-17.4-7.9
				L365.7,97.8z M377.6,89.9l-7.9,7.9l91.9,91.9l14.3,6.4l-6.4-14.3L377.6,89.9z"/>
		</g>
		<g id="XMLID_2993_">
			
				<rect x="376.9" y="103.1" transform="matrix(0.7071 -0.7071 0.7071 0.7071 38.5924 302.1955)" class="st3" width="14.4" height="2.9"/>
		</g>
		<g id="XMLID_2992_">
			
				<rect x="459.7" y="184.6" transform="matrix(0.7071 -0.7071 0.7071 0.7071 4.9244 383.8624)" class="st3" width="12.2" height="2.9"/>
		</g>
	</g>
	<g id="XMLID_6234_">
		<path class="st6" d="M302.9,22c-7.9,2.1-9.6,3.8-11.7,11.7c-2.1-7.9-3.8-9.6-11.7-11.7c7.9-2.1,9.6-3.8,11.7-11.7
			C293.3,18.2,295,19.9,302.9,22z"/>
	</g>
</g>
</svg>
