<?xml version="1.0" encoding="utf-8"?>
<!-- Generator: Adobe Illustrator 22.1.0, SVG Export Plug-In . SVG Version: 6.00 Build 0)  -->
<svg version="1.1" id="apps_development" xmlns="http://www.w3.org/2000/svg" xmlns:xlink="http://www.w3.org/1999/xlink" x="0px"
	 y="0px" viewBox="0 0 500 228.1" style="enable-background:new 0 0 500 228.1;" xml:space="preserve">
<style type="text/css">
	.st0{fill:#DCE4E8;}
	.st1{fill:#FFFFFF;}
	.st2{fill:#FFB13E;}
	.st3{fill:#2D333A;}
	.st4{fill:#00BFFF;}
	.st5{fill:#B7BFC7;}
	.st6{opacity:0.3;}
	.st7{fill:#FF5B40;}
</style>
<g>
	<g>
		<path class="st0" d="M413.2,30.8H89.5c-10,0-18.1,8.1-18.1,18.1l0,0c0,10,8.1,18.1,18.1,18.1h42.8c6,0,10.9,4.9,10.9,10.9l0,0
			c0,6-4.9,10.9-10.9,10.9H43c-8.9,0-16.1,7.2-16.1,16.1v0c0,8.9,7.2,16.1,16.1,16.1h125.4c7.1,0,12.8,5.8,12.8,12.8l0,0
			c0,7-5.7,12.7-12.8,12.7H19.1c-7.2,0-13.1,5.9-13.1,13.1v1.8c0,7.2,5.9,13.1,13.1,13.1h418.2c10.1,0,18.3-8.2,18.3-18.3v0
			c0-10.1-8.2-18.3-18.3-18.3H276.9c-7.3,0-13.2-5.9-13.2-13.2l0,0c0-7.3,5.9-13.2,13.2-13.2h200.5c9.2,0,16.6-7.4,16.6-16.6l0,0
			c0-9.2-7.4-16.6-16.6-16.6H240.2c-5.9,0-10.7-4.8-10.7-10.7l0,0c0-5.9,4.8-10.7,10.7-10.7h178.2c7.2,0,13.1-5.9,13.1-13.1l0,0
			c0-7.2-5.9-13.1-13.1-13.1H413.2z"/>
	</g>
	<g>
		<g id="XMLID_347_">
			<path id="XMLID_346_" class="st1" d="M316.9,81.5v139.2h-14.8V81.5l7-18.4c0.1-0.4,0.7-0.4,0.8,0L316.9,81.5z"/>
			
				<rect id="XMLID_345_" x="239.9" y="143.7" transform="matrix(6.123234e-17 -1 1 6.123234e-17 158.3478 460.5983)" class="st2" width="139.2" height="14.8"/>
			
				<rect id="XMLID_344_" x="236.2" y="147.4" transform="matrix(6.123234e-17 -1 1 6.123234e-17 154.6489 456.8994)" class="st2" width="139.2" height="7.4"/>
			
				<rect id="XMLID_343_" x="300.8" y="204.3" transform="matrix(6.123234e-17 -1 1 6.123234e-17 97.3553 521.5906)" class="st1" width="17.3" height="15.6"/>
			<g id="XMLID_342_">
				<path class="st3" d="M318.4,222.2h-17.8L300.7,81l7-18.4c0.3-0.8,1-1.3,1.8-1.3c0.8,0,1.5,0.5,1.8,1.3l7.1,18.9V222.2z
					 M303.6,219.2h11.8V81.8l-5.9-15.5l-5.9,15.5V219.2z"/>
			</g>
			<g id="XMLID_341_">
				<rect x="302.1" y="202" class="st3" width="15.2" height="3"/>
			</g>
			<g id="XMLID_340_">
				<rect x="303" y="80" class="st3" width="12.9" height="3"/>
			</g>
		</g>
		<g id="XMLID_5213_">
			<g id="XMLID_5215_">
				<path class="st1" d="M440.1,105.7c11.1-8.6,13.1-24.6,4.5-35.6S420.1,57,409,65.6c-9.6,7.4-12.4,20.3-7.4,30.8l-9,13.9
					c-0.2,0.4,0.1,0.8,0.5,0.7l15.7-5.5C417.7,112.7,430.7,113,440.1,105.7z"/>
			</g>
			<g id="XMLID_5214_">
				<path class="st3" d="M424.6,112.2c-5.6,0-11.3-1.8-16-5.4l-15.1,5.3c-0.6,0.2-1.3,0-1.7-0.5c-0.4-0.5-0.4-1.3-0.1-1.8l8.7-13.4
					c-4.9-11-1.6-24.2,8-31.6c5.6-4.3,12.5-6.2,19.6-5.4c7,0.9,13.3,4.4,17.6,10c4.3,5.6,6.2,12.5,5.4,19.6c-0.9,7-4.4,13.3-10,17.6
					C436,110.3,430.3,112.2,424.6,112.2z M408.9,104.3l0.5,0.4c8.8,7,21.1,7.1,30,0.2l0,0c5.1-4,8.4-9.7,9.2-16.1
					c0.8-6.4-0.9-12.8-4.9-17.9c-4-5.1-9.7-8.4-16.1-9.2c-6.4-0.8-12.8,0.9-17.9,4.9c-8.9,6.9-11.9,19.3-7.1,29.5l0.3,0.6l-8.3,12.8
					L408.9,104.3z"/>
			</g>
			<g>
				
					<ellipse transform="matrix(0.9252 -0.3794 0.3794 0.9252 -0.7638 167.4461)" class="st4" cx="424.4" cy="85.7" rx="20.8" ry="20.8"/>
			</g>
			<g>
				<path class="st3" d="M424.4,89.7c-2.2,0-4-1.8-4-4c0-2.2,1.8-4,4-4c2.2,0,4,1.8,4,4C428.4,87.9,426.6,89.7,424.4,89.7z
					 M424.4,83.9c-1,0-1.8,0.8-1.8,1.8c0,1,0.8,1.8,1.8,1.8c1,0,1.8-0.8,1.8-1.8C426.2,84.7,425.4,83.9,424.4,83.9z"/>
			</g>
			<g>
				<path class="st3" d="M436.3,89.7c-2.2,0-4-1.8-4-4c0-2.2,1.8-4,4-4c2.2,0,4,1.8,4,4C440.3,87.9,438.5,89.7,436.3,89.7z
					 M436.3,83.9c-1,0-1.8,0.8-1.8,1.8c0,1,0.8,1.8,1.8,1.8c1,0,1.8-0.8,1.8-1.8C438.1,84.7,437.3,83.9,436.3,83.9z"/>
			</g>
			<g>
				<path class="st3" d="M412.6,89.7c-2.2,0-4-1.8-4-4c0-2.2,1.8-4,4-4c2.2,0,4,1.8,4,4C416.6,87.9,414.8,89.7,412.6,89.7z
					 M412.6,83.9c-1,0-1.8,0.8-1.8,1.8c0,1,0.8,1.8,1.8,1.8c1,0,1.8-0.8,1.8-1.8C414.3,84.7,413.6,83.9,412.6,83.9z"/>
			</g>
		</g>
		<g id="XMLID_12284_">
			<g id="XMLID_14167_">
				<g id="XMLID_14195_">
					<g>
						<path class="st0" d="M282.1,211.2H63c-1.5,0-2.8-1.2-2.8-2.8V52.5c0-1.5,1.2-2.8,2.8-2.8h219.1c1.5,0,2.8,1.2,2.8,2.8v155.9
							C284.9,210,283.6,211.2,282.1,211.2z"/>
					</g>
				</g>
				<g id="XMLID_14193_">
					<g id="XMLID_14194_">
						<rect x="235.4" y="47.7" class="st3" width="15.5" height="4.1"/>
					</g>
				</g>
				<g id="XMLID_14191_">
					<g id="XMLID_14192_">
						<path class="st3" d="M62.4,84.5h-4.1V55.4c0-4.2,3.4-7.7,7.7-7.7h159.6v4.1H65.9c-1.9,0-3.5,1.6-3.5,3.5V84.5z"/>
					</g>
				</g>
				<g id="XMLID_14189_">
					<g id="XMLID_14190_">
						<path class="st3" d="M286.9,120h-4.1V55.4c0-1.9-1.6-3.5-3.5-3.5h-21.8v-4.1h21.8c4.2,0,7.7,3.4,7.7,7.7V120z"/>
					</g>
				</g>
				<g id="XMLID_14188_">
					<g>
						<rect x="71.2" y="62.5" class="st1" width="201.5" height="131"/>
					</g>
				</g>
				<g id="XMLID_14187_">
					<g>
						<rect x="172" y="62.5" class="st2" width="100.8" height="131"/>
					</g>
				</g>
				<g id="XMLID_14186_">
					<g>
						<path class="st1" d="M280.9,220.2H61.7c-5.3,0-9.8-3.8-10.6-9l-1.6-9.5h101.6l3.9,5.6h28.1l4.2-5.6h107l-1.4,8.3
							C292,215.8,286.9,220.2,280.9,220.2z"/>
					</g>
				</g>
				<g id="XMLID_14182_">
					<g id="XMLID_14183_">
						<path class="st3" d="M280.9,222.2H61.7c-6.3,0-11.6-4.5-12.6-10.7l-2-11.9h105.1l3.9,5.6h26l4.2-5.6h110.5l-1.8,10.7
							C293.9,217.2,288,222.2,280.9,222.2z M52,203.7l1.2,7.1c0.7,4.2,4.3,7.3,8.6,7.3h219.2c5,0,9.2-3.6,10-8.5l1-5.9H188.4
							l-4.2,5.6H154l-3.9-5.6H52z"/>
					</g>
				</g>
				<g id="XMLID_14180_">
					<g id="XMLID_14181_">
						<rect x="179.5" y="78.1" class="st3" width="39.6" height="4.1"/>
					</g>
				</g>
				<g id="XMLID_14178_">
					<g id="XMLID_14179_">
						<rect x="179.5" y="101.4" class="st3" width="87.2" height="4.1"/>
					</g>
				</g>
				<g id="XMLID_14176_">
					<g id="XMLID_14177_">
						<rect x="179.5" y="113.4" class="st3" width="87.2" height="4.1"/>
					</g>
				</g>
				<g id="XMLID_14174_">
					<g id="XMLID_14175_">
						<rect x="179.5" y="125.4" class="st3" width="75.1" height="4.1"/>
					</g>
				</g>
				<g id="XMLID_14172_">
					<g id="XMLID_14173_">
						<rect x="179.5" y="137.4" class="st3" width="75.1" height="4.1"/>
					</g>
				</g>
				<g id="XMLID_14170_">
					<g id="XMLID_14171_">
						<rect x="179.5" y="149.5" class="st3" width="75.1" height="4.1"/>
					</g>
				</g>
				<g id="XMLID_14168_">
					<g id="XMLID_14169_">
						<rect x="179.5" y="161.5" class="st3" width="53" height="4.1"/>
					</g>
				</g>
			</g>
			<g id="XMLID_14151_">
				<g id="XMLID_14165_">
					<g id="XMLID_14166_">
						
							<rect x="42.9" y="171.5" transform="matrix(0.7621 -0.6475 0.6475 0.7621 -99.3255 76.8781)" class="st3" width="24.1" height="4.1"/>
					</g>
				</g>
				<g id="XMLID_14162_">
					<g>
						<path class="st5" d="M47.7,125.3c-2.6,32.1,21.3,60.2,53.4,62.8c32.1,2.6,60.2-21.3,62.8-53.4c2.6-32.1-21.3-60.2-53.4-62.8
							C78.3,69.3,50.2,93.2,47.7,125.3z M61.6,126.4c2-24.4,23.3-42.5,47.7-40.6c24.4,2,42.5,23.3,40.6,47.7
							c-2,24.4-23.3,42.5-47.7,40.6C77.8,172.1,59.7,150.8,61.6,126.4z"/>
					</g>
				</g>
				<g id="XMLID_14157_">
					<g id="XMLID_14158_">
						<path class="st3" d="M105.8,190.3c-1.6,0-3.2-0.1-4.9-0.2c-16.1-1.3-30.7-8.8-41.1-21c-10.4-12.3-15.5-27.9-14.2-44
							c1.3-16.1,8.8-30.7,21-41.1c12.3-10.4,27.9-15.5,44-14.2c4.1,0.3,8.1,1.1,11.9,2.2l-1.1,4c-3.6-1-7.3-1.7-11.1-2
							c-30.9-2.5-58,20.6-60.5,51.5c-1.2,15,3.5,29.5,13.2,40.9c9.7,11.4,23.3,18.4,38.3,19.6c30.9,2.5,58-20.6,60.5-51.5
							c1-12.1-1.9-23.9-8.2-34.1l3.5-2.2c6.8,11,9.9,23.7,8.9,36.6C163.4,166.3,136.9,190.3,105.8,190.3z M150.2,95.6
							c-1.5-1.9-3.1-3.8-4.8-5.5l2.9-2.9c1.8,1.8,3.6,3.8,5.2,5.9L150.2,95.6z M140.7,85.9c-4.1-3.2-8.5-5.9-13.3-7.8l1.6-3.8
							c5.1,2.1,9.9,5,14.3,8.4L140.7,85.9z"/>
					</g>
				</g>
				<g id="XMLID_14156_">
					<g>
						
							<rect x="28.9" y="173.5" transform="matrix(0.7619 -0.6477 0.6477 0.7619 -109.9385 70.9452)" class="st4" width="25.3" height="23"/>
					</g>
				</g>
				<g id="XMLID_14154_">
					<g id="XMLID_14155_">
						<polygon class="st3" points="40.9,203.4 38.2,200.2 55.7,185.3 43.5,171 26,185.8 23.3,182.7 43.9,165.1 61.5,185.8 						"/>
					</g>
				</g>
				<g id="XMLID_14152_">
					<g id="XMLID_14153_">
						
							<rect x="36.5" y="175.5" transform="matrix(0.7619 -0.6477 0.6477 0.7619 -112.2978 69.6261)" class="st3" width="4.1" height="24.1"/>
					</g>
				</g>
			</g>
			<g id="XMLID_14123_">
				<g id="XMLID_14150_">
					<g>
						<path class="st2" d="M93.2,125h-0.6c-0.9,0-1.7-0.7-1.7-5.1l-1.7-13.8c-0.3-2.1,0.8-4.2,2.7-5.3c0.8-0.5,1.4-0.9,1.4-0.9
							c-5.4-3.3-4.2-7-4.1-7.4c0,0,0,0,0,0c2.6,3.8,16.5,2,24.6,3.3c1.9,0.3,3.5,1.8,3.7,3.8l0.2,1.5l0,0c1.6,0,2.9,1.3,2.9,2.9
							l-2.2,19.4c0,0.9-0.7,1.7-1.7,1.7H93.2z"/>
					</g>
				</g>
				<g id="XMLID_14146_">
					<g id="XMLID_14147_">
						<path class="st3" d="M116.8,127.1H92.6c-3.7,0-3.7-4.9-3.7-7.2l-1.6-13.6c-0.3-2.5,0.7-4.9,2.6-6.5c-2.3-2.2-3.2-4.9-2.6-7.7
							l0.4-1.8l2.5,0.4l0.7,0.2l0.2,0.5c1.1,1.6,8.3,1.7,13,1.8c3.5,0.1,7.2,0.1,10.2,0.6c2.8,0.4,5.1,2.7,5.4,5.5l0,0.1
							c1.8,0.7,3.1,2.5,3.1,4.6l-2.2,19.6C120.5,125.4,118.8,127.1,116.8,127.1z M93.3,122.9h23.1l2.2-19.2c0-0.2-0.4-0.6-0.8-0.6
							h-1.8l-0.4-3.3c-0.1-1-0.9-1.8-2-2c-2.7-0.4-6.2-0.5-9.6-0.5c-4.5-0.1-8.6-0.2-11.6-0.9c0.6,0.7,1.4,1.3,2.1,1.8l2.7,1.7
							l-2.6,1.8c0,0-0.7,0.4-1.5,0.9c-1.2,0.7-1.8,2-1.6,3.2l1.7,13.8C93,121.5,93.2,122.5,93.3,122.9z"/>
					</g>
				</g>
				<g id="XMLID_14145_">
					<g>
						<path class="st1" d="M122.2,119.1c0,1-0.8,1.8-1.8,1.8l0,0c-1,0-1.8-0.8-1.8-1.8v-1.8c0-1,0.8-1.8,1.8-1.8l0,0
							c1,0,1.8,0.8,1.8,1.8V119.1z"/>
					</g>
				</g>
				<g id="XMLID_14143_">
					<g id="XMLID_14144_">
						<path class="st3" d="M120.4,123c-2.2,0-3.9-1.8-3.9-3.9v-1.8c0-2.2,1.8-3.9,3.9-3.9c2.2,0,3.9,1.8,3.9,3.9v1.8
							C124.3,121.3,122.5,123,120.4,123z"/>
					</g>
				</g>
				<g id="XMLID_14142_">
					<g>
						<path class="st1" d="M91,119.1c0,1-0.8,1.8-1.8,1.8l0,0c-1,0-1.8-0.8-1.8-1.8v-1.8c0-1,0.8-1.8,1.8-1.8l0,0
							c1,0,1.8,0.8,1.8,1.8V119.1z"/>
					</g>
				</g>
				<g id="XMLID_14140_">
					<g id="XMLID_14141_">
						<path class="st3" d="M89.2,123c-2.2,0-3.9-1.8-3.9-3.9v-1.8c0-2.2,1.8-3.9,3.9-3.9c2.2,0,3.9,1.8,3.9,3.9v1.8
							C93.1,121.3,91.4,123,89.2,123z"/>
					</g>
				</g>
				<path id="XMLID_14139_" class="st4" d="M105,136.1c-10.8,0-19.6,7.6-19.6,16.9V165h39.3v-12.1
					C124.7,143.7,115.8,136.1,105,136.1z"/>
				<g id="XMLID_14138_">
					<path class="st3" d="M126.7,165h-4.1v-12.1c0-8.2-7.9-14.8-17.6-14.8s-17.6,6.6-17.6,14.8V165h-4.1v-12.1
						c0-10.4,9.7-18.9,21.7-18.9s21.7,8.5,21.7,18.9V165z"/>
				</g>
				<g id="XMLID_14136_">
					<g id="XMLID_14137_">
						<rect x="94.4" y="151.8" class="st3" width="4.1" height="13.3"/>
					</g>
				</g>
				<g id="XMLID_14134_">
					<g id="XMLID_14135_">
						<rect x="111.6" y="151.8" class="st3" width="4.1" height="13.3"/>
					</g>
				</g>
				<g id="XMLID_14133_">
					<g>
						<path class="st1" d="M104.3,142.9L104.3,142.9c-2,0-3.7-1.6-3.7-3.7v-8.3c0-1.7,1.4-3.2,3.2-3.2h1c1.7,0,3.2,1.4,3.2,3.2v8.3
							C108,141.2,106.3,142.9,104.3,142.9z"/>
					</g>
				</g>
				<g id="XMLID_14129_">
					<g id="XMLID_14130_">
						<path class="st3" d="M104.3,145c-3.2,0-5.7-2.6-5.7-5.7v-8.3c0-2.9,2.3-5.2,5.2-5.2h1c2.9,0,5.2,2.3,5.2,5.2v8.3
							C110.1,142.4,107.5,145,104.3,145z M103.8,129.8c-0.6,0-1.1,0.5-1.1,1.1v8.3c0,0.9,0.7,1.6,1.6,1.6c0.9,0,1.6-0.7,1.6-1.6
							v-8.3c0-0.6-0.5-1.1-1.1-1.1H103.8z"/>
					</g>
				</g>
				<g id="XMLID_14128_">
					<g>
						<path class="st1" d="M104.6,135.6L104.6,135.6c-7.7,0-14-6.3-14-14v-9.5c0-7.7,6.3-7.5,14-7.5l0,0c7.7,0,14-0.2,14,7.5v9.5
							C118.6,129.3,112.3,135.6,104.6,135.6z"/>
					</g>
				</g>
				<g id="XMLID_14124_">
					<g id="XMLID_14125_">
						<path class="st3" d="M104.6,137.7c-8.8,0-16-7.2-16-16v-9.5c0-4.3,1.8-7.2,5.3-8.5c2.8-1.1,6.4-1.1,10.3-1.1h1
							c3.9,0,7.5,0,10.3,1.1c3.5,1.3,5.3,4.2,5.3,8.5v9.5C120.7,130.5,113.5,137.7,104.6,137.7z M103.7,106.7c-3.3,0-6.3,0-8.3,0.8
							c-1.4,0.5-2.6,1.4-2.6,4.6v9.5c0,6.6,5.3,11.9,11.9,11.9c6.6,0,11.9-5.3,11.9-11.9v-9.5c0-3.2-1.3-4.1-2.6-4.6
							c-2.1-0.8-5.3-0.8-8.8-0.8h-1C104,106.7,103.8,106.7,103.7,106.7z"/>
					</g>
				</g>
			</g>
			<g id="XMLID_14121_" class="st6">
				<g id="XMLID_14122_">
					<path class="st3" d="M295,210.3l1.8-10.7h-11.9v-76.2h-33.6v98.8h29.7C288,222.2,293.9,217.2,295,210.3z"/>
				</g>
			</g>
			<g id="XMLID_14089_">
				<g id="XMLID_14120_">
					<g>
						<rect x="258.9" y="125.5" class="st4" width="153.8" height="94.7"/>
					</g>
				</g>
				<g id="XMLID_14119_">
					<g>
						<rect x="268.2" y="133.8" class="st1" width="135.1" height="78.1"/>
					</g>
				</g>
				<g id="XMLID_14115_">
					<g id="XMLID_14116_">
						<path class="st3" d="M414.7,222.2H256.8v-98.8h157.9V222.2z M260.9,218.1h149.6v-90.6H260.9V218.1z"/>
					</g>
				</g>
				<g id="XMLID_14100_">
					<g id="XMLID_14114_">
						<g>
							<polygon class="st4" points="383.9,191.2 378.3,191.2 378.3,208.7 383.9,206.5 389.5,208.7 389.5,191.2 							"/>
						</g>
					</g>
					<g id="XMLID_14110_">
						<g id="XMLID_14111_">
							<path class="st3" d="M391.6,211.8l-7.7-3.1l-7.7,3.1v-22.7h15.4V211.8z M383.9,204.2l3.5,1.4v-12.4h-7.1v12.4L383.9,204.2z"
								/>
						</g>
					</g>
					<g id="XMLID_14105_">
						<g id="XMLID_14109_">
							<path class="st2" d="M398,185.9c0,1.8-1.7,3.3-2.3,4.9c-0.7,1.6-0.6,3.9-1.8,5.1c-1.2,1.2-3.5,1.1-5.1,1.8
								c-1.6,0.7-3.1,2.3-4.9,2.3s-3.3-1.7-4.9-2.3c-1.6-0.7-3.9-0.6-5.1-1.8c-1.2-1.2-1.1-3.5-1.8-5.1c-0.7-1.6-2.3-3.1-2.3-4.9
								c0-1.8,1.7-3.3,2.3-4.9c0.7-1.6,0.6-3.9,1.8-5.1c1.2-1.2,3.5-1.1,5.1-1.8c1.6-0.7,3.1-2.3,4.9-2.3c1.8,0,3.3,1.7,4.9,2.3
								c1.6,0.7,3.9,0.6,5.1,1.8c1.2,1.2,1.1,3.5,1.8,5.1C396.3,182.6,398,184,398,185.9z"/>
						</g>
						<g id="XMLID_14106_">
							<path class="st4" d="M383.9,202.1c-1.8,0-3.2-0.9-4.3-1.7c-0.5-0.3-1-0.6-1.4-0.8c-0.4-0.2-1-0.3-1.6-0.4
								c-1.3-0.3-2.9-0.6-4.2-1.8c-1.2-1.2-1.6-2.8-1.8-4.2c-0.1-0.6-0.2-1.2-0.4-1.6c-0.2-0.4-0.5-0.9-0.8-1.4
								c-0.8-1.1-1.7-2.5-1.7-4.3c0-1.8,0.9-3.2,1.7-4.3c0.3-0.5,0.6-1,0.8-1.4c0.2-0.4,0.3-1,0.4-1.6c0.3-1.3,0.6-2.9,1.8-4.2
								c1.2-1.2,2.9-1.6,4.2-1.8c0.6-0.1,1.2-0.2,1.6-0.4c0.4-0.2,0.9-0.5,1.4-0.8c1.1-0.8,2.5-1.7,4.3-1.7c1.8,0,3.2,0.9,4.3,1.7
								c0.5,0.3,1,0.6,1.4,0.8c0.4,0.2,1,0.3,1.6,0.4c1.3,0.3,2.9,0.6,4.2,1.8c1.2,1.2,1.6,2.8,1.8,4.2c0.1,0.6,0.2,1.2,0.4,1.6
								c0.2,0.4,0.5,0.9,0.8,1.4c0.8,1.1,1.7,2.5,1.7,4.3c0,1.8-0.9,3.2-1.7,4.3c-0.3,0.5-0.6,1-0.8,1.4c-0.2,0.4-0.3,1-0.4,1.6
								c-0.3,1.3-0.6,2.9-1.8,4.2c-1.2,1.2-2.8,1.6-4.2,1.8c-0.6,0.1-1.2,0.2-1.6,0.4c-0.4,0.2-0.9,0.5-1.4,0.8
								C387.1,201.1,385.7,202.1,383.9,202.1z M383.9,173.8c-0.5,0-1.3,0.5-2,1c-0.6,0.4-1.3,0.9-2.1,1.2c-0.8,0.3-1.6,0.5-2.4,0.7
								c-0.8,0.2-1.7,0.4-2.1,0.7c-0.3,0.3-0.5,1.2-0.7,2.1c-0.2,0.7-0.3,1.6-0.7,2.4c-0.3,0.8-0.8,1.4-1.2,2.1c-0.5,0.7-1,1.5-1,2
								c0,0.5,0.5,1.3,1,2c0.4,0.6,0.9,1.3,1.2,2.1c0.3,0.8,0.5,1.6,0.7,2.4c0.2,0.9,0.4,1.7,0.7,2.1c0.3,0.3,1.2,0.5,2.1,0.7
								c0.7,0.2,1.6,0.3,2.4,0.7c0.8,0.3,1.4,0.8,2.1,1.2c0.7,0.5,1.5,1,2,1c0.5,0,1.3-0.5,2-1c0.6-0.4,1.3-0.9,2.1-1.2
								c0.8-0.3,1.6-0.5,2.4-0.7c0.9-0.2,1.7-0.4,2.1-0.7c0.3-0.3,0.5-1.2,0.7-2.1c0.2-0.7,0.3-1.6,0.7-2.4c0.3-0.8,0.8-1.4,1.2-2.1
								c0.5-0.7,1-1.5,1-2c0-0.5-0.5-1.3-1-2c-0.4-0.6-0.9-1.3-1.2-2.1c-0.3-0.8-0.5-1.6-0.7-2.4c-0.2-0.9-0.4-1.7-0.7-2.1
								c-0.3-0.3-1.2-0.5-2.1-0.7c-0.7-0.2-1.6-0.3-2.4-0.7c-0.8-0.3-1.4-0.8-2.1-1.2C385.2,174.3,384.4,173.8,383.9,173.8z"/>
						</g>
					</g>
					<g id="XMLID_14101_">
						<g id="XMLID_14102_">
							<path class="st3" d="M383.9,202.1c-1.8,0-3.2-0.9-4.3-1.7c-0.5-0.3-1-0.6-1.4-0.8c-0.4-0.2-1-0.3-1.6-0.4
								c-1.3-0.3-2.9-0.6-4.2-1.8c-1.2-1.2-1.6-2.8-1.8-4.2c-0.1-0.6-0.2-1.2-0.4-1.6c-0.2-0.4-0.5-0.9-0.8-1.4
								c-0.8-1.1-1.7-2.5-1.7-4.3c0-1.8,0.9-3.2,1.7-4.3c0.3-0.5,0.6-1,0.8-1.4c0.2-0.4,0.3-1,0.4-1.6c0.3-1.3,0.6-2.9,1.8-4.2
								c1.2-1.2,2.9-1.6,4.2-1.8c0.6-0.1,1.2-0.2,1.6-0.4c0.4-0.2,0.9-0.5,1.4-0.8c1.1-0.8,2.5-1.7,4.3-1.7c1.8,0,3.2,0.9,4.3,1.7
								c0.5,0.3,1,0.6,1.4,0.8c0.4,0.2,1,0.3,1.6,0.4c1.3,0.3,2.9,0.6,4.2,1.8c1.2,1.2,1.6,2.8,1.8,4.2c0.1,0.6,0.2,1.2,0.4,1.6
								c0.2,0.4,0.5,0.9,0.8,1.4c0.8,1.1,1.7,2.5,1.7,4.3c0,1.8-0.9,3.2-1.7,4.3c-0.3,0.5-0.6,1-0.8,1.4c-0.2,0.4-0.3,1-0.4,1.6
								c-0.3,1.3-0.6,2.9-1.8,4.2c-1.2,1.2-2.8,1.6-4.2,1.8c-0.6,0.1-1.2,0.2-1.6,0.4c-0.4,0.2-0.9,0.5-1.4,0.8
								C387.1,201.1,385.7,202.1,383.9,202.1z M383.9,173.8c-0.5,0-1.3,0.5-2,1c-0.6,0.4-1.3,0.9-2.1,1.2c-0.8,0.3-1.6,0.5-2.4,0.7
								c-0.8,0.2-1.7,0.4-2.1,0.7c-0.3,0.3-0.5,1.2-0.7,2.1c-0.2,0.7-0.3,1.6-0.7,2.4c-0.3,0.8-0.8,1.4-1.2,2.1c-0.5,0.7-1,1.5-1,2
								c0,0.5,0.5,1.3,1,2c0.4,0.6,0.9,1.3,1.2,2.1c0.3,0.8,0.5,1.6,0.7,2.4c0.2,0.9,0.4,1.7,0.7,2.1c0.3,0.3,1.2,0.5,2.1,0.7
								c0.7,0.2,1.6,0.3,2.4,0.7c0.8,0.3,1.4,0.8,2.1,1.2c0.7,0.5,1.5,1,2,1c0.5,0,1.3-0.5,2-1c0.6-0.4,1.3-0.9,2.1-1.2
								c0.8-0.3,1.6-0.5,2.4-0.7c0.9-0.2,1.7-0.4,2.1-0.7c0.3-0.3,0.5-1.2,0.7-2.1c0.2-0.7,0.3-1.6,0.7-2.4c0.3-0.8,0.8-1.4,1.2-2.1
								c0.5-0.7,1-1.5,1-2c0-0.5-0.5-1.3-1-2c-0.4-0.6-0.9-1.3-1.2-2.1c-0.3-0.8-0.5-1.6-0.7-2.4c-0.2-0.9-0.4-1.7-0.7-2.1
								c-0.3-0.3-1.2-0.5-2.1-0.7c-0.7-0.2-1.6-0.3-2.4-0.7c-0.8-0.3-1.4-0.8-2.1-1.2C385.2,174.3,384.4,173.8,383.9,173.8z"/>
						</g>
					</g>
				</g>
				<g id="XMLID_14098_">
					<g id="XMLID_14099_">
						<rect x="287.8" y="154.7" class="st3" width="73.8" height="4.1"/>
					</g>
				</g>
				<g id="XMLID_14096_">
					<g id="XMLID_14097_">
						<rect x="287.8" y="162.2" class="st3" width="73.8" height="4.1"/>
					</g>
				</g>
				<g id="XMLID_14094_">
					<g id="XMLID_14095_">
						<rect x="287.8" y="169.7" class="st3" width="73.8" height="4.1"/>
					</g>
				</g>
				<g id="XMLID_14092_">
					<g id="XMLID_14093_">
						<rect x="287.8" y="177.2" class="st3" width="73.8" height="4.1"/>
					</g>
				</g>
				<g id="XMLID_14090_">
					<g id="XMLID_14091_">
						<rect x="287.8" y="184.6" class="st3" width="73.8" height="4.1"/>
					</g>
				</g>
			</g>
			<g id="XMLID_14087_">
				<g id="XMLID_14088_">
					<rect x="445.8" y="173.1" class="st3" width="4.1" height="46.9"/>
				</g>
			</g>
			<g id="XMLID_14086_">
				<g>
					
						<ellipse transform="matrix(0.9755 -0.2199 0.2199 0.9755 -22.8124 102.2544)" class="st2" cx="448" cy="153.6" rx="25.1" ry="25.1"/>
				</g>
			</g>
			<g id="XMLID_14085_">
				<g>
					<path class="st1" d="M464.9,153.6c0,9.4-7.6,17-17,17c-9.4,0-17-7.6-17-17c0-9.4,7.6-17,17-17
						C457.3,136.6,464.9,144.2,464.9,153.6z"/>
				</g>
			</g>
			<g id="XMLID_14083_">
				<g id="XMLID_14084_">
					<path class="st3" d="M448,180.8c-15,0-27.2-12.2-27.2-27.2s12.2-27.2,27.2-27.2c2.8,0,5.7,0.4,8.3,1.3l-1.3,3.9
						c-2.3-0.7-4.7-1.1-7.1-1.1c-12.7,0-23,10.3-23,23s10.3,23,23,23c12.7,0,23-10.3,23-23c0-4.4-1.2-8.6-3.5-12.3l3.5-2.2
						c2.7,4.3,4.2,9.3,4.2,14.5C475.1,168.6,462.9,180.8,448,180.8z"/>
				</g>
			</g>
			<g id="XMLID_14081_">
				<g id="XMLID_14082_">
					<path class="st3" d="M463.5,136.7c-1.3-1.2-2.8-2.3-4.4-3.2l2-3.6c1.9,1,3.6,2.3,5.2,3.7L463.5,136.7z"/>
				</g>
			</g>
			<g id="XMLID_14076_">
				<g id="XMLID_14079_">
					<g id="XMLID_14080_">
						<path class="st3" d="M450.7,165.2h-12.8V161h12.8c1.5,0,2.7-1.2,2.7-2.7c0-1.5-1.2-2.7-2.7-2.7h-5.1c-3.8,0-6.8-3.1-6.8-6.8
							c0-3.8,3.1-6.8,6.8-6.8H458v4.1h-12.4c-1.5,0-2.7,1.2-2.7,2.7c0,1.5,1.2,2.7,2.7,2.7h5.1c3.8,0,6.8,3.1,6.8,6.8
							C457.5,162.1,454.5,165.2,450.7,165.2z"/>
					</g>
				</g>
				<g id="XMLID_14077_">
					<g id="XMLID_14078_">
						<rect x="445.9" y="136.2" class="st3" width="4.1" height="34.7"/>
					</g>
				</g>
			</g>
			<g id="XMLID_14075_">
				<g>
					<path class="st5" d="M477.5,182.1c0,0,0.9,12.7-6.3,19.9c-7.2,7.2-19.9,6.3-19.9,6.3s-0.9-12.7,6.3-19.9
						C464.8,181.2,477.5,182.1,477.5,182.1z"/>
				</g>
			</g>
			<g id="XMLID_14071_">
				<g id="XMLID_14072_">
					<path class="st3" d="M452.8,210.4c-1,0-1.5,0-1.7,0l-1.8-0.1l-0.1-1.8c0-0.6-0.9-13.7,6.9-21.5c7.8-7.8,21-6.9,21.5-6.9
						l1.8,0.1l0.1,1.8c0,0.6,0.9,13.7-6.9,21.5C466.4,209.7,456.6,210.4,452.8,210.4z M475.4,184.2c-3.6,0.1-11.5,0.8-16.4,5.7
						c-4.9,4.9-5.6,12.8-5.7,16.4c3.6-0.1,11.5-0.8,16.4-5.7C474.6,195.6,475.4,187.7,475.4,184.2z"/>
				</g>
			</g>
			<g id="XMLID_14070_">
				<g>
					<path class="st5" d="M445.4,208.3c0,0,0.9-12.7-6.3-19.9c-7.2-7.2-19.9-6.3-19.9-6.3s-0.9,12.7,6.3,19.9
						C432.7,209.2,445.4,208.3,445.4,208.3z"/>
				</g>
			</g>
			<g id="XMLID_14066_">
				<g id="XMLID_14067_">
					<path class="st3" d="M443.9,210.4c-3.9,0-13.6-0.7-19.9-6.9c-7.8-7.8-6.9-21-6.9-21.5l0.1-1.8l1.8-0.1c0.6,0,13.7-0.9,21.5,6.9
						c7.8,7.8,6.9,21,6.9,21.5l-0.1,1.8l-1.8,0.1C445.4,210.4,444.8,210.4,443.9,210.4z M421.2,184.1c0.1,3.6,0.8,11.5,5.7,16.4
						c4.9,4.9,12.8,5.7,16.4,5.7c-0.1-3.6-0.8-11.5-5.7-16.4C432.7,185,424.8,184.2,421.2,184.1z"/>
				</g>
			</g>
			<g id="XMLID_12292_">
				<g id="XMLID_14065_">
					<g>
						<rect x="336.3" y="23.1" class="st1" width="32.9" height="30"/>
					</g>
				</g>
				<g id="XMLID_14061_">
					<g id="XMLID_14062_">
						<path class="st3" d="M371.3,55.2h-37V21h37V55.2z M338.4,51h28.7V25.1h-28.7V51z"/>
					</g>
				</g>
				<g id="XMLID_14060_">
					<g>
						<polygon class="st1" points="374.2,119.7 370,55 335.5,55 331.3,119.7 						"/>
					</g>
				</g>
				<g id="XMLID_14059_">
					<g>
						<polygon class="st7" points="370,55 337.2,55 335.4,55.9 334.1,77.3 370.1,56.5 						"/>
					</g>
				</g>
				<g id="XMLID_14058_">
					<g>
						<polygon class="st7" points="331.3,119.7 372.7,95.8 371.4,76 332.7,98.3 						"/>
					</g>
				</g>
				<g id="XMLID_12318_">
					<g id="XMLID_14055_">
						<path class="st3" d="M331.7,81l1.7-26.3l3.2-1.8h35.3l0.3,4.8L331.7,81z M337.4,57.2l-1.1,16.4L365,57h-27.3L337.4,57.2z"/>
					</g>
				</g>
				<g id="XMLID_12316_">
					<g id="XMLID_12317_">
						<polygon class="st3" points="332.3,121.5 330.3,117.9 370.5,94.7 369.5,79.5 333.7,100.1 331.7,96.5 373.2,72.5 374.8,97 
													"/>
					</g>
				</g>
				<g id="XMLID_12314_">
					<g id="XMLID_12315_">
						
							<rect x="371.8" y="110.1" transform="matrix(0.9979 -6.486844e-02 6.486844e-02 0.9979 -6.665 24.4959)" class="st3" width="4.1" height="9.6"/>
					</g>
				</g>
				<g id="XMLID_12312_">
					<g id="XMLID_12313_">
						<polygon class="st3" points="333.4,121.2 329.2,120.9 333.6,52.9 371.9,52.9 375.2,102.7 371,103 368.1,57 337.5,57 						"/>
					</g>
				</g>
				<g id="XMLID_12311_">
					<g>
						<path class="st0" d="M372.9,58.5h-40.3c-0.7,0-1.3-0.6-1.3-1.3V49c0-0.7,0.6-1.3,1.3-1.3h40.3c0.7,0,1.3,0.6,1.3,1.3v8.2
							C374.2,57.9,373.6,58.5,372.9,58.5z"/>
					</g>
				</g>
				<g id="XMLID_12307_">
					<g id="XMLID_12308_">
						<path class="st3" d="M372.9,60.6h-40.3c-1.9,0-3.4-1.5-3.4-3.4V49c0-1.9,1.5-3.4,3.4-3.4h40.3c1.9,0,3.4,1.5,3.4,3.4v8.2
							C376.3,59.1,374.8,60.6,372.9,60.6z M333.4,56.4h38.8v-6.6h-38.8V56.4z"/>
					</g>
				</g>
				<g id="XMLID_12306_">
					<g>
						<path class="st7" d="M352.5,2.2l-24.6,20.3c-0.2,0.2-0.1,0.6,0.3,0.6h49.2c0.3,0,0.5-0.4,0.3-0.6L353,2.2
							C352.9,2,352.6,2,352.5,2.2z"/>
					</g>
				</g>
				<g id="XMLID_12302_">
					<g id="XMLID_12303_">
						<path class="st3" d="M377.3,25.1h-49.2c-1,0-1.9-0.6-2.3-1.5c-0.4-0.9-0.2-2,0.6-2.7l24.7-20.3c0.9-0.8,2.4-0.8,3.3,0.1
							l24.4,20.1c0.8,0.8,1.1,1.9,0.7,2.8C379.2,24.5,378.3,25.1,377.3,25.1z M332.9,21h39.7L352.8,4.6L332.9,21z"/>
					</g>
				</g>
				<g id="XMLID_12301_">
					<g>
						<path class="st2" d="M357,35.6c0,2.3-1.9,4.2-4.2,4.2c-2.3,0-4.2-1.9-4.2-4.2c0-2.3,1.9-4.2,4.2-4.2
							C355.1,31.4,357,33.3,357,35.6z"/>
					</g>
				</g>
				<g id="XMLID_12299_">
					<g id="XMLID_12300_">
						
							<rect x="301.2" y="46.1" transform="matrix(0.866 -0.5001 0.5001 0.866 18.0959 163.8026)" class="st3" width="26.9" height="4.1"/>
					</g>
				</g>
				<g id="XMLID_12297_">
					<g id="XMLID_12298_">
						<rect x="312.6" y="9.8" transform="matrix(0.5 -0.866 0.866 0.5 137.1803 284.1369)" class="st3" width="4.1" height="26.9"/>
					</g>
				</g>
				<g id="XMLID_12295_">
					<g id="XMLID_12296_">
						<rect x="390" y="34.7" transform="matrix(0.5 -0.866 0.866 0.5 154.3305 363.5861)" class="st3" width="4.1" height="26.9"/>
					</g>
				</g>
				<g id="XMLID_12293_">
					<g id="XMLID_12294_">
						
							<rect x="378.6" y="21.2" transform="matrix(0.866 -0.5001 0.5001 0.866 40.9037 199.1647)" class="st3" width="26.9" height="4.1"/>
					</g>
				</g>
			</g>
			<g id="XMLID_12285_">
				<g id="XMLID_12290_">
					<g id="XMLID_12291_">
						<rect x="19.4" y="218.1" class="st3" width="452.7" height="4.1"/>
					</g>
				</g>
				<g id="XMLID_12288_">
					<g id="XMLID_12289_">
						<rect x="6.8" y="218.1" class="st3" width="7.6" height="4.1"/>
					</g>
				</g>
				<g id="XMLID_12286_">
					<g id="XMLID_12287_">
						<rect x="476.5" y="218.1" class="st3" width="16.7" height="4.1"/>
					</g>
				</g>
			</g>
		</g>
		<g id="XMLID_159_">
			<path id="XMLID_715_" class="st7" d="M201.6,40.5c0,16-13,29-29,29c-16,0-29-13-29-29s13-29,29-29
				C188.6,11.5,201.6,24.5,201.6,40.5z"/>
			<g id="XMLID_162_">
				<path class="st3" d="M172.6,71.3c-17,0-30.8-13.8-30.8-30.8c0-17,13.8-30.8,30.8-30.8c17,0,30.8,13.8,30.8,30.8
					C203.5,57.5,189.6,71.3,172.6,71.3z M172.6,13.3c-15,0-27.2,12.2-27.2,27.2s12.2,27.2,27.2,27.2c15,0,27.2-12.2,27.2-27.2
					S187.6,13.3,172.6,13.3z"/>
			</g>
			<g id="XMLID_160_">
				<path class="st1" d="M168.3,51.8l-10.4-10.4c-0.7-0.7-0.7-1.9,0-2.6v0c0.7-0.7,1.9-0.7,2.6,0l7.8,7.9l16.5-16.4
					c0.7-0.7,1.9-0.7,2.6,0v0c0.7,0.7,0.7,1.9,0,2.6L168.3,51.8z"/>
			</g>
		</g>
		<g>
			<g id="XMLID_5063_">
				<g id="XMLID_5064_">
					<path class="st0" d="M189.1,175.1h8.2v-16.6c0-8.3,6.8-15.1,15.1-15.1c8.3,0,15.1,6.8,15.1,15.1v16.6h8.2v-16.6
						c0-12.9-10.5-23.3-23.3-23.3c-12.9,0-23.3,10.5-23.3,23.3V175.1z"/>
				</g>
			</g>
			<g id="XMLID_5061_">
				<g id="XMLID_5062_">
					<path class="st3" d="M237.5,176.8h-11.7v-18.3c0-7.3-6-13.3-13.3-13.3c-7.3,0-13.3,6-13.3,13.3v18.3h-11.7v-18.3
						c0-13.8,11.2-25.1,25.1-25.1c13.8,0,25.1,11.2,25.1,25.1V176.8z M229.3,173.3h4.7v-14.8c0-11.9-9.7-21.5-21.5-21.5
						s-21.5,9.7-21.5,21.5v14.8h4.7v-14.8c0-9.3,7.6-16.8,16.8-16.8c9.3,0,16.8,7.6,16.8,16.8V173.3z"/>
				</g>
			</g>
			<g id="XMLID_5060_">
				<circle class="st1" cx="212.5" cy="190.4" r="30.1"/>
			</g>
			<g id="XMLID_5059_">
				
					<ellipse transform="matrix(0.9734 -0.229 0.229 0.9734 -37.954 53.735)" class="st7" cx="212.5" cy="190.4" rx="17.1" ry="17.1"/>
			</g>
			<g id="XMLID_5058_">
				<path class="st4" d="M205.4,190.4c0,3.9,3.2,7.1,7.1,7.1c3.9,0,7.1-3.2,7.1-7.1c0-3.9-3.2-7.1-7.1-7.1
					C208.6,183.3,205.4,186.4,205.4,190.4z"/>
			</g>
			<g id="XMLID_5057_">
				<circle class="st3" cx="212.5" cy="190.4" r="2.7"/>
			</g>
			<g id="XMLID_5056_">
				<path class="st3" d="M212.5,199.3c-4.9,0-8.9-4-8.9-8.9s4-8.9,8.9-8.9c4.9,0,8.9,4,8.9,8.9S217.4,199.3,212.5,199.3z M212.5,185
					c-3,0-5.4,2.4-5.4,5.4c0,3,2.4,5.4,5.4,5.4c3,0,5.4-2.4,5.4-5.4C217.9,187.4,215.5,185,212.5,185z"/>
			</g>
			<g id="XMLID_5055_">
				<path class="st3" d="M212.5,222.2c-9.6,0-18.6-4.3-24.7-11.8l2.7-2.2c5.4,6.6,13.4,10.5,22,10.5c15.6,0,28.4-12.7,28.4-28.4
					S228.2,162,212.5,162s-28.4,12.7-28.4,28.4c0,3,0.5,6,1.4,8.8l-3.3,1.1c-1-3.2-1.6-6.5-1.6-9.9c0-17.6,14.3-31.9,31.9-31.9
					c17.6,0,31.9,14.3,31.9,31.9C244.4,208,230.1,222.2,212.5,222.2z"/>
			</g>
			<g id="XMLID_5054_">
				<path class="st3" d="M185.8,207.7c-0.5-0.7-0.9-1.4-1.3-2.2l3.1-1.7c0.4,0.7,0.7,1.3,1.1,1.9L185.8,207.7z"/>
			</g>
			<g id="XMLID_5053_">
				<rect x="210.7" y="177.1" class="st3" width="3.5" height="3.9"/>
			</g>
			<g id="XMLID_5052_">
				
					<rect x="205" y="178.6" transform="matrix(0.8659 -0.5002 0.5002 0.8659 -62.5956 127.6064)" class="st3" width="3.5" height="3.9"/>
			</g>
			<g id="XMLID_5051_">
				
					<rect x="200.8" y="182.8" transform="matrix(0.5002 -0.8659 0.8659 0.5002 -58.7298 267.8007)" class="st3" width="3.5" height="3.9"/>
			</g>
			<g id="XMLID_5050_">
				<rect x="199.2" y="188.7" class="st3" width="3.9" height="3.5"/>
			</g>
			<g id="XMLID_5049_">
				
					<rect x="200.8" y="194.4" transform="matrix(0.8662 -0.4998 0.4998 0.8662 -70.9051 127.5646)" class="st3" width="3.9" height="3.5"/>
			</g>
			<g id="XMLID_5048_">
				
					<rect x="205" y="198.5" transform="matrix(0.5006 -0.8657 0.8657 0.5006 -70.0533 279.1546)" class="st3" width="3.9" height="3.5"/>
			</g>
			<g id="XMLID_5047_">
				<rect x="210.9" y="199.8" class="st3" width="3.5" height="3.9"/>
			</g>
			<g id="XMLID_5046_">
				
					<rect x="216.5" y="198.3" transform="matrix(0.8663 -0.4995 0.4995 0.8663 -70.8107 135.7983)" class="st3" width="3.5" height="3.9"/>
			</g>
			<g id="XMLID_5045_">
				
					<rect x="220.7" y="194.1" transform="matrix(0.5008 -0.8655 0.8655 0.5008 -58.6067 290.3524)" class="st3" width="3.5" height="3.9"/>
			</g>
			<g id="XMLID_5044_">
				<rect x="222" y="188.5" class="st3" width="3.9" height="3.5"/>
			</g>
			<g id="XMLID_5043_">
				
					<rect x="220.4" y="182.8" transform="matrix(0.8667 -0.4988 0.4988 0.8667 -62.4437 135.4983)" class="st3" width="3.9" height="3.5"/>
			</g>
			<g id="XMLID_5042_">
				
					<rect x="216.2" y="178.7" transform="matrix(0.5006 -0.8657 0.8657 0.5006 -47.2874 278.9685)" class="st3" width="3.9" height="3.5"/>
			</g>
		</g>
	</g>
	<g id="XMLID_6034_">
		<path class="st5" d="M132.2,19.4c0,1.3-1.1,2.4-2.4,2.4c-1.3,0-2.4-1.1-2.4-2.4c0-1.3,1.1-2.4,2.4-2.4
			C131.1,17,132.2,18,132.2,19.4z"/>
	</g>
	<g id="XMLID_3_">
		<path class="st5" d="M487.3,205c0,1.3-1.1,2.4-2.4,2.4c-1.3,0-2.4-1.1-2.4-2.4c0-1.3,1.1-2.4,2.4-2.4
			C486.2,202.6,487.3,203.7,487.3,205z"/>
	</g>
	<g id="XMLID_2_">
		<path class="st5" d="M277.7,13.3c0,2-1.6,3.6-3.6,3.6c-2,0-3.6-1.6-3.6-3.6c0-2,1.6-3.6,3.6-3.6C276,9.7,277.7,11.3,277.7,13.3z"
			/>
	</g>
	<g id="XMLID_6031_">
		<path class="st5" d="M493.8,128.5c-6,1.6-7.4,2.9-9,9c-1.6-6-2.9-7.4-9-9c6-1.6,7.4-2.9,9-9C486.4,125.6,487.7,126.9,493.8,128.5z
			"/>
	</g>
	<path class="st5" d="M17.3,130.5c4.8-1.3,5.8-2.3,7.1-7.1c1.3,4.8,2.3,5.8,7.1,7.1c-4.8,1.3-5.8,2.3-7.1,7.1
		C23.2,132.8,22.1,131.8,17.3,130.5"/>
	<path class="st5" d="M27.6,39.9c9.4-2.5,11.5-4.5,14-14c2.5,9.4,4.5,11.5,14,14c-9.4,2.5-11.5,4.5-14,14C39,44.4,37,42.4,27.6,39.9
		"/>
	<path class="st5" d="M448,42.1c1.1,4.1,2,5,6.1,6.1c-4.1,1.1-5,2-6.1,6.1c-1.1-4.1-2-5-6.1-6.1C446,47.1,446.9,46.2,448,42.1"/>
</g>
</svg>
