<?xml version="1.0" encoding="utf-8"?>
<!-- Generator: Adobe Illustrator 22.1.0, SVG Export Plug-In . SVG Version: 6.00 Build 0)  -->
<svg version="1.1" id="apps_development" xmlns="http://www.w3.org/2000/svg" xmlns:xlink="http://www.w3.org/1999/xlink" x="0px"
	 y="0px" viewBox="0 0 500 191.7" style="enable-background:new 0 0 500 191.7;" xml:space="preserve">
<style type="text/css">
	.st0{fill:#DCE4E8;}
	.st1{fill:#FFB13E;}
	.st2{fill:#5A5A64;}
	.st3{fill:#2D333A;}
	.st4{fill:#FFFFFF;}
	.st5{fill:#00BFFF;}
	.st6{fill:#F5514F;}
	.st7{opacity:0.3;}
	.st8{fill:#B7BFC7;}
</style>
<g>
	<g>
		<path class="st0" d="M409.9,24.7H94.4c-9.7,0-17.6,7.9-17.6,17.6l0,0c0,9.7,7.9,17.6,17.6,17.6h41.7c5.9,0,10.6,4.7,10.6,10.6l0,0
			c0,5.9-4.7,10.6-10.6,10.6H49.1c-8.7,0-15.7,7-15.7,15.7v0c0,8.7,7,15.7,15.7,15.7h122.2c6.9,0,12.5,5.6,12.4,12.5l0,0
			c0,6.8-5.6,12.4-12.4,12.4H25.8c-7,0-12.7,5.7-12.7,12.7v1.7c0,7,5.7,12.7,12.7,12.7h407.6c9.9,0,17.8-8,17.8-17.8v0
			c0-9.9-8-17.8-17.8-17.8H277c-7.1,0-12.8-5.7-12.8-12.8l0,0c0-7.1,5.7-12.8,12.8-12.8h195.4c8.9,0,16.2-7.2,16.2-16.2l0,0
			c0-8.9-7.2-16.2-16.2-16.2H241.3c-5.7,0-10.4-4.7-10.4-10.4l0,0c0-5.7,4.7-10.4,10.4-10.4H415c7,0,12.7-5.7,12.7-12.7l0,0
			c0-7-5.7-12.7-12.7-12.7H409.9z"/>
	</g>
	<circle id="XMLID_15825_" class="st1" cx="430.9" cy="61" r="8.2"/>
	<g id="XMLID_14993_">
		<g id="XMLID_15903_">
			<g id="XMLID_16053_">
				<g id="XMLID_16073_">
					<path class="st2" d="M336.2,134.8H140.9V23.1c0-2.5,2-4.5,4.5-4.5h186.3c2.5,0,4.5,2,4.5,4.5V134.8z"/>
				</g>
				<g id="XMLID_16071_">
					<rect id="XMLID_16072_" x="177.3" y="16.9" class="st3" width="120.7" height="3.4"/>
				</g>
				<g id="XMLID_16069_">
					<rect id="XMLID_16070_" x="166" y="16.9" class="st3" width="8.2" height="3.4"/>
				</g>
				<g id="XMLID_16067_">
					<path id="XMLID_16068_" class="st3" d="M336.2,136.5h-197V28.6c0-6.5,5.3-11.7,11.7-11.7h9.9v3.4h-9.9c-4.6,0-8.3,3.7-8.3,8.3
						v104.4h193.6V136.5z"/>
				</g>
				<g id="XMLID_16066_">
					<rect x="151.5" y="30" class="st4" width="174.3" height="91.7"/>
				</g>
				<g id="XMLID_16065_">
					<rect x="209.2" y="152.4" class="st4" width="58.8" height="34.8"/>
				</g>
				<g id="XMLID_16064_">
					<rect x="209.2" y="152.4" class="st0" width="58.8" height="17.4"/>
				</g>
				<g id="XMLID_16062_">
					<polygon id="XMLID_16063_" class="st3" points="269.7,185.8 266.3,185.8 266.3,154.1 210.9,154.1 210.9,185.8 207.4,185.8 
						207.4,150.7 269.7,150.7 					"/>
				</g>
				<g id="XMLID_16061_">
					<path class="st4" d="M336.2,130.5H140.9v13.6c0,7.1,5.7,12.8,12.8,12.8h169.7c7.1,0,12.8-5.7,12.8-12.8V130.5z"/>
				</g>
				<g id="XMLID_16059_">
					<path id="XMLID_16060_" class="st3" d="M325.3,158.6H151.1c-6.5,0-11.9-5.3-11.9-11.9v-18h186.1v3.4H142.6v14.5
						c0,4.6,3.8,8.4,8.4,8.4h174.2V158.6z"/>
				</g>
				<g id="XMLID_16058_">
					<rect x="163.8" y="36.5" class="st1" width="150.2" height="32.6"/>
				</g>
				<g id="XMLID_16057_">
					<rect x="220.3" y="74" class="st5" width="43.9" height="42.1"/>
				</g>
				<g id="XMLID_16056_">
					<rect x="267.6" y="73.9" class="st6" width="46.5" height="42.1"/>
				</g>
				<g id="XMLID_16054_">
					<rect id="XMLID_16055_" x="334" y="52.3" class="st3" width="3.4" height="20.5"/>
				</g>
			</g>
			<g id="XMLID_16051_" class="st7">
				<path id="XMLID_16052_" class="st3" d="M217.2,72.8c0-3.1-2.5-5.6-5.6-5.6h-72.4v61.6v7.7v10.3c0,6.5,5.3,11.9,11.9,11.9h56.4
					v27.2h1.7v1.4h9.3c2.3-1.5,4-3.9,4.4-6.8l1.3-7.7h-6.9V72.8z"/>
			</g>
			<g id="XMLID_15980_">
				<g id="XMLID_16050_">
					<path class="st2" d="M208.6,181H57.3c-1.3,0-2.3-1-2.3-2.3V71.2c0-1.3,1-2.3,2.3-2.3h151.3c1.3,0,2.3,1,2.3,2.3v107.5
						C210.9,180,209.9,181,208.6,181z"/>
				</g>
				<g id="XMLID_16048_">
					<path id="XMLID_16049_" class="st3" d="M58.9,182.7c-3.1,0-5.6-2.5-5.6-5.6v-65.9h3.4v65.9c0,1.2,1,2.2,2.2,2.2V182.7z"/>
				</g>
				<g id="XMLID_16046_">
					<path id="XMLID_16047_" class="st3" d="M212.7,174.7h-3.4V72.8c0-1.2-1-2.2-2.2-2.2h-82.1v-3.4h82.1c3.1,0,5.6,2.5,5.6,5.6
						V174.7z"/>
				</g>
				<g id="XMLID_16045_">
					<rect x="62.6" y="77.8" class="st6" width="139.9" height="90.9"/>
				</g>
				<g id="XMLID_16044_">
					<path class="st4" d="M208.2,187.2H56c-3.7,0-6.8-2.6-7.4-6.3l-1.1-6.6h70.5l2.7,3.9h19.5l2.9-3.9h74.3l-0.9,5.7
						C215.9,184.2,212.4,187.2,208.2,187.2z"/>
				</g>
				<g id="XMLID_16040_">
					<path id="XMLID_16041_" class="st3" d="M208.2,188.9H56.1c-4.5,0-8.3-3.2-9.1-7.7l-1.4-8.6H119l2.7,3.9h17.7l2.9-3.9h77.2
						l-1.3,7.7C217.5,185.3,213.2,188.9,208.2,188.9z M49.6,176.1l0.8,4.6c0.5,2.8,2.8,4.8,5.7,4.8h152.2c3.3,0,6.1-2.4,6.7-5.7
						l0.6-3.8h-71.4l-2.9,3.9h-21.2l-2.7-3.9H49.6z"/>
				</g>
				<g id="XMLID_16004_">
					<g id="XMLID_16039_">
						<rect x="81" y="86.8" class="st4" width="15.7" height="2.1"/>
					</g>
					<g id="XMLID_16038_">
						<rect x="88.9" y="93.8" class="st4" width="10.8" height="2.1"/>
					</g>
					<g id="XMLID_16037_">
						<rect x="123.5" y="93.8" class="st4" width="75.3" height="2.1"/>
					</g>
					<g id="XMLID_16036_">
						
							<rect x="107.1" y="93.8" transform="matrix(-1 -1.224647e-16 1.224647e-16 -1 226.3284 189.7318)" class="st4" width="12.1" height="2.1"/>
					</g>
					<g id="XMLID_16035_">
						<rect x="92.5" y="99.7" class="st4" width="21.5" height="2.1"/>
					</g>
					<g id="XMLID_16034_">
						<rect x="101.3" y="108" class="st4" width="27.3" height="2.1"/>
					</g>
					<g id="XMLID_16033_">
						<rect x="81" y="115.7" class="st4" width="29.8" height="2.1"/>
					</g>
					<g id="XMLID_16032_">
						
							<rect x="114.1" y="115.7" transform="matrix(-1 -1.224647e-16 1.224647e-16 -1 249.6597 233.5099)" class="st4" width="21.6" height="2.1"/>
					</g>
					<g id="XMLID_16031_">
						<rect x="88.9" y="123.5" class="st4" width="40" height="2.1"/>
					</g>
					<g id="XMLID_16030_">
						
							<rect x="145.2" y="123.5" transform="matrix(-1 -1.224647e-16 1.224647e-16 -1 317.0142 249.0602)" class="st4" width="26.6" height="2.1"/>
					</g>
					<g id="XMLID_16029_">
						<rect x="130.6" y="123.5" class="st4" width="12.6" height="2.1"/>
					</g>
					<g id="XMLID_16028_">
						<rect x="102.2" y="131.3" class="st4" width="35" height="2.1"/>
					</g>
					<g id="XMLID_16027_">
						
							<rect x="92.5" y="131.3" transform="matrix(-1 -1.224647e-16 1.224647e-16 -1 192.4039 264.6101)" class="st4" width="7.3" height="2.1"/>
					</g>
					<g id="XMLID_16026_">
						<rect x="81" y="137" class="st4" width="23.9" height="2.1"/>
					</g>
					<g id="XMLID_16025_">
						<rect x="106.8" y="137" class="st4" width="8.2" height="2.1"/>
					</g>
					<g id="XMLID_16024_">
						<rect x="117.3" y="137" class="st4" width="39.2" height="2.1"/>
					</g>
					<g id="XMLID_16023_">
						
							<rect x="159.5" y="137" transform="matrix(-1 -1.224647e-16 1.224647e-16 -1 354.3128 276.0312)" class="st4" width="35.4" height="2.1"/>
					</g>
					<g id="XMLID_16022_">
						<rect x="88.9" y="144.8" class="st4" width="12.4" height="2.1"/>
					</g>
					<g id="XMLID_16021_">
						
							<rect x="104.9" y="144.8" transform="matrix(-1 -1.224647e-16 1.224647e-16 -1 239.2217 291.5813)" class="st4" width="29.4" height="2.1"/>
					</g>
					<g id="XMLID_16020_">
						<rect x="95.5" y="152.5" class="st4" width="23.9" height="2.1"/>
					</g>
					<g id="XMLID_16019_">
						<rect x="124.4" y="152.5" class="st4" width="23.9" height="2.1"/>
					</g>
					<g id="XMLID_16018_">
						<rect x="152" y="152.5" class="st4" width="22.5" height="2.1"/>
					</g>
					<g id="XMLID_16017_">
						
							<rect x="189.9" y="108" transform="matrix(-1 -1.224647e-16 1.224647e-16 -1 386.5092 217.9597)" class="st4" width="6.7" height="2.1"/>
					</g>
					<g id="XMLID_16016_">
						<rect x="131" y="108" class="st4" width="55.9" height="2.1"/>
					</g>
					<g id="XMLID_16015_">
						<rect x="101.3" y="86.8" class="st4" width="63.6" height="2.1"/>
					</g>
					<g id="XMLID_16014_">
						<rect x="70.4" y="83.8" class="st4" width="3.3" height="3.3"/>
					</g>
					<g id="XMLID_16013_">
						<rect x="70.4" y="92.5" class="st4" width="3.3" height="3.3"/>
					</g>
					<g id="XMLID_16012_">
						<rect x="70.4" y="101.2" class="st4" width="3.3" height="3.3"/>
					</g>
					<g id="XMLID_16011_">
						<rect x="70.4" y="109.9" class="st4" width="3.3" height="3.3"/>
					</g>
					<g id="XMLID_16010_">
						<rect x="70.4" y="118.6" class="st4" width="3.3" height="3.3"/>
					</g>
					<g id="XMLID_16009_">
						<rect x="70.4" y="127.3" class="st4" width="3.3" height="3.3"/>
					</g>
					<g id="XMLID_16008_">
						<rect x="70.4" y="136" class="st4" width="3.3" height="3.3"/>
					</g>
					<g id="XMLID_16007_">
						<rect x="70.4" y="144.7" class="st4" width="3.3" height="3.3"/>
					</g>
					<g id="XMLID_16006_">
						<rect x="70.4" y="153.4" class="st4" width="3.3" height="3.3"/>
					</g>
					<g id="XMLID_16005_">
						<rect x="70.4" y="162.1" class="st4" width="3.3" height="3.3"/>
					</g>
				</g>
				<g id="XMLID_16002_" class="st7">
					<path id="XMLID_16003_" class="st3" d="M59.1,71.6c-0.8,0-1.4,0.6-1.4,1.4v37.7h62.6c3.7,0,6.6-3,6.6-6.6V71.6H59.1z"/>
				</g>
				<g id="XMLID_16001_">
					<path class="st4" d="M115.1,105.2h-66c-3.5,0-6.3-2.8-6.3-6.3V54.5c0-3.5,2.8-6.3,6.3-6.3h66c3.5,0,6.3,2.8,6.3,6.3v44.4
						C121.4,102.4,118.6,105.2,115.1,105.2z"/>
				</g>
				<g id="XMLID_16000_">
					<path class="st5" d="M42.8,60.4v-8.2c0-2.2,1.8-3.9,3.9-3.9h70.7c2.2,0,3.9,1.8,3.9,3.9v8.2H42.8z"/>
				</g>
				<g id="XMLID_15998_">
					<path id="XMLID_15999_" class="st3" d="M117.5,106.9H46.8c-3.1,0-5.7-2.5-5.7-5.7V52.2c0-3.1,2.5-5.7,5.7-5.7h10.4V50H46.8
						c-1.2,0-2.2,1-2.2,2.2v49.1c0,1.2,1,2.2,2.2,2.2h70.7c1.2,0,2.2-1,2.2-2.2V52.2c0-1.2-1-2.2-2.2-2.2H70.8v-3.4h46.6
						c3.1,0,5.7,2.5,5.7,5.7v49.1C123.1,104.4,120.6,106.9,117.5,106.9z"/>
				</g>
				<g id="XMLID_15996_">
					<rect id="XMLID_15997_" x="60.2" y="46.5" class="st3" width="6.2" height="3.4"/>
				</g>
				<g id="XMLID_15994_">
					<rect id="XMLID_15995_" x="42.8" y="58.9" class="st3" width="78.6" height="3.4"/>
				</g>
				<g id="XMLID_15992_">
					<rect id="XMLID_15993_" x="49.2" y="53.3" class="st3" width="1.4" height="3.4"/>
				</g>
				<g id="XMLID_15990_">
					<rect id="XMLID_15991_" x="54.2" y="53.3" class="st3" width="1.4" height="3.4"/>
				</g>
				<g id="XMLID_15988_">
					<rect id="XMLID_15989_" x="59.3" y="53.3" class="st3" width="1.4" height="3.4"/>
				</g>
				<g id="XMLID_15981_">
					<path id="XMLID_15986_" class="st3" d="M67,80.8v-2.4l8.4-4V77l-5.6,2.6l5.6,2.6v2.6L67,80.8z"/>
					<path id="XMLID_15984_" class="st3" d="M84.5,72.4H87l-7.3,15.9h-2.5L84.5,72.4z"/>
					<path id="XMLID_15982_" class="st3" d="M97.2,78.4v2.4l-8.4,4v-2.6l5.6-2.6L88.7,77v-2.6L97.2,78.4z"/>
				</g>
			</g>
			<g id="XMLID_15948_" class="st7">
				<path id="XMLID_15949_" class="st3" d="M253.2,20.9c0-2.5-2-4.5-4.5-4.5h-22.8c-8,6-14,12.5-14.5,13l-1,1.2l1,1.2
					c0.8,0.9,21,23,37.8,23c1.7,0,3.5-0.3,5.3-0.7v-2.4h-1.3V20.9z"/>
			</g>
			<g id="XMLID_15929_">
				<g id="XMLID_15947_">
					<path class="st4" d="M288,28.2c0,0-20.3,22.5-36.5,22.5c-16.3,0-36.5-22.5-36.5-22.5s20.3-22.5,36.5-22.5
						C267.8,5.8,288,28.2,288,28.2z"/>
				</g>
				<g id="XMLID_15943_">
					<path id="XMLID_15944_" class="st3" d="M251.5,52.4c-16.9,0-37-22.1-37.8-23l-1-1.2l1-1.2c0.8-0.9,21-23,37.8-23
						s37,22.1,37.8,23l1,1.2l-1,1.2C288.5,30.3,268.4,52.4,251.5,52.4z M217.3,28.2c4.4,4.5,20.9,20.7,34.2,20.7
						c13.3,0,29.8-16.2,34.2-20.7c-4.4-4.5-20.9-20.7-34.2-20.7C238.2,7.5,221.7,23.7,217.3,28.2z"/>
				</g>
				<g id="XMLID_15940_">
					<g id="XMLID_15942_">
						<path class="st5" d="M267.7,28.2c0-8.9-7.2-16.1-16.1-16.2l0,32.4C260.5,44.4,267.7,37.2,267.7,28.2z"/>
					</g>
					<g id="XMLID_15941_">
						<path class="st5" d="M251.5,12c-8.9,0-16.2,7.3-16.2,16.2c0,8.9,7.3,16.2,16.2,16.2c0,0,0,0,0,0L251.5,12
							C251.6,12,251.5,12,251.5,12z"/>
					</g>
				</g>
				<g id="XMLID_15939_">
					<path class="st4" d="M259.4,28.2c0,4.4-3.6,7.9-7.9,7.9c-4.4,0-7.9-3.6-7.9-7.9c0-4.4,3.6-7.9,7.9-7.9
						C255.9,20.3,259.4,23.8,259.4,28.2z"/>
				</g>
				<g id="XMLID_15935_">
					<path id="XMLID_15936_" class="st3" d="M251.5,46.9c-10.3,0-18.7-8.4-18.7-18.7c0-10.3,8.4-18.7,18.7-18.7
						c10.3,0,18.7,8.4,18.7,18.7C270.2,38.5,261.8,46.9,251.5,46.9z M251.5,13c-8.4,0-15.3,6.8-15.3,15.2c0,8.4,6.8,15.3,15.3,15.3
						c8.4,0,15.3-6.8,15.3-15.3C266.8,19.8,259.9,13,251.5,13z"/>
				</g>
				<g id="XMLID_15934_">
					<path class="st3" d="M256.5,28.2c0,2.8-2.3,5-5,5c-2.8,0-5-2.3-5-5c0-2.8,2.3-5,5-5C254.3,23.2,256.5,25.4,256.5,28.2z"/>
				</g>
				<g id="XMLID_15932_">
					<polygon id="XMLID_15933_" class="st3" points="222.3,8.1 218.8,8.1 218.8,0 226.5,0 226.5,3.4 222.3,3.4 					"/>
				</g>
				<g id="XMLID_15930_">
					<polygon id="XMLID_15931_" class="st3" points="284.4,60 276.8,60 276.8,56.5 281,56.5 281,51.8 284.4,51.8 					"/>
				</g>
			</g>
		</g>
		<g id="XMLID_14994_">
			<g id="XMLID_15901_">
				<rect id="XMLID_15902_" x="11.5" y="186" class="st3" width="6.3" height="3.4"/>
			</g>
			<g id="XMLID_15899_">
				<rect id="XMLID_15900_" x="401" y="186" class="st3" width="13.9" height="3.4"/>
			</g>
			<g id="XMLID_15897_">
				<rect id="XMLID_15898_" x="22" y="186" class="st3" width="442" height="3.4"/>
			</g>
		</g>
	</g>
	<g id="XMLID_15018_">
		<path id="XMLID_15848_" class="st4" d="M395.9,35.3h11.4l34.8,8.3c3.2,0.8,5.5,3.6,5.5,6.9v2.2h-51.7V35.3z"/>
		<path id="XMLID_15847_" class="st0" d="M395.9,48.2v4.4h51.7v-2.2c0-0.8-0.1-1.5-0.4-2.3H395.9z"/>
		<path id="XMLID_15846_" class="st4" d="M395.9,87h11.4l34.8-8.3c3.2-0.8,5.5-3.6,5.5-6.9v-2.2h-51.7V87z"/>
		<g id="XMLID_15845_">
			<path class="st3" d="M394.2,33.6h13.1l35.2,8.3c4,0.9,6.8,4.5,6.8,8.6v3.9h-55.1V33.6z M445.8,50.5c0-2.5-1.7-4.7-4.1-5.2
				L407.1,37h-9.5V51h48.2V50.5z"/>
		</g>
		<path id="XMLID_15844_" class="st0" d="M447.6,71.8v-2.2h-51.7v4.4h51.3C447.4,73.4,447.6,72.6,447.6,71.8z"/>
		<g id="XMLID_15843_">
			<path class="st3" d="M394.2,67.9h55.1v3.9c0,4.1-2.8,7.6-6.8,8.6l-34.8,8.3l-13.5,0V67.9z M441.7,77.1c2.4-0.6,4.1-2.7,4.1-5.2
				v-0.5h-48.2v13.9h9.5L441.7,77.1z"/>
		</g>
		<path id="XMLID_15842_" class="st0" d="M369.2,70.2h-8.1l-24.8,5.9c-2.3,0.5-3.9,2.6-3.9,4.9v1.6h36.9V70.2z"/>
		<path id="XMLID_15841_" class="st0" d="M369.2,53.2h-8.1l-24.8-5.9c-2.3-0.5-3.9-2.6-3.9-4.9v-1.6h36.9V53.2z"/>
		<g id="XMLID_15840_">
			<path class="st3" d="M330.6,81c0-3.2,2.1-5.9,5.2-6.6l24.8-5.9l10.2,0v15.8h-40.3V81z M367.5,71.9h-6.2l-24.6,5.9
				c-1.5,0.3-2.5,1.6-2.6,3.1h33.4V71.9z"/>
		</g>
		<g id="XMLID_15839_">
			<path class="st3" d="M335.8,48.9c-3.1-0.7-5.2-3.4-5.2-6.6v-3.3h40.3v15.8h-10L335.8,48.9z M367.5,42.5h-33.4
				c0.1,1.5,1.1,2.7,2.6,3.1l24.6,5.9h6.2V42.5z"/>
		</g>
		<rect id="XMLID_15838_" x="367.4" y="35.3" class="st4" width="28.5" height="152.4"/>
		<rect id="XMLID_15837_" x="381.7" y="35.3" class="st2" width="14.2" height="152.4"/>
		<g id="XMLID_15836_">
			<rect x="367.4" y="49" class="st3" width="12.9" height="3.4"/>
		</g>
		<g id="XMLID_15835_">
			<rect x="367.4" y="61" class="st3" width="12.9" height="3.4"/>
		</g>
		<g id="XMLID_15834_">
			<rect x="367.4" y="72.9" class="st3" width="12.9" height="3.4"/>
		</g>
		<g id="XMLID_15833_">
			<rect x="367.4" y="144.6" class="st3" width="12.9" height="3.4"/>
		</g>
		<g id="XMLID_15832_">
			<rect x="367.4" y="156.6" class="st3" width="12.9" height="3.4"/>
		</g>
		<g id="XMLID_15831_">
			<rect x="367.4" y="168.5" class="st3" width="12.9" height="3.4"/>
		</g>
		<rect id="XMLID_15830_" x="360.9" y="91.2" class="st1" width="36.7" height="47.6"/>
		<rect id="XMLID_15829_" x="379.2" y="91.2" class="st6" width="18.3" height="47.6"/>
		<g id="XMLID_15828_">
			<path class="st3" d="M359.2,89.5h40.1v51h-40.1V89.5z M395.8,92.9h-33.2v44.2h33.2V92.9z"/>
		</g>
		<rect id="XMLID_15827_" x="353.9" y="108.3" class="st3" width="8.1" height="12.7"/>
		<rect id="XMLID_15826_" x="348" y="105.1" class="st0" width="8.1" height="19.2"/>
		<g id="XMLID_15824_">
			<path class="st3" d="M402.9,13.9h4.6v3.4h-4.6V13.9z M412.1,13.9h4.6v3.4h-4.6V13.9z M421.2,13.9h4.6v3.4h-4.6V13.9z M430.4,13.9
				h4.6v3.4h-4.6V13.9z M439.6,13.9h4.6v3.4h-4.6V13.9z M448.7,13.9h4.6v3.4h-4.6V13.9z M457.9,13.9h4.6v3.4h-4.6V13.9z M467.1,13.9
				h4.6v3.4h-4.6V13.9z"/>
		</g>
		<g id="XMLID_15823_">
			<path class="st3" d="M462.6,72.3h3.4v4.6h-3.4V72.3z M462.6,63.2h3.4v4.6h-3.4V63.2z M462.6,54h3.4v4.6h-3.4V54z M462.6,44.8h3.4
				v4.6h-3.4V44.8z M462.6,35.7h3.4v4.6h-3.4V35.7z M462.6,26.5h3.4v4.6h-3.4V26.5z M462.6,17.3h3.4v4.6h-3.4V17.3z M462.6,8.2h3.4
				v4.6h-3.4V8.2z"/>
		</g>
		<rect id="XMLID_15822_" x="348" y="118.7" class="st8" width="8.1" height="5.5"/>
		<g id="XMLID_15821_">
			<polygon class="st3" points="365.7,189.4 397.6,189.4 397.6,141.3 394.2,141.3 394.2,186 369.1,186 369.1,141 365.7,141 			"/>
		</g>
		<g id="XMLID_15817_">
			<polygon class="st3" points="365.7,88.4 369.1,88.4 369.1,37 394.2,37 394.2,88.4 397.6,88.4 397.6,33.6 365.7,33.6 			"/>
		</g>
		<g id="XMLID_15019_">
			<path class="st3" d="M346.2,103.4h11.5V126h-11.5V103.4z M354.3,106.8h-4.6v15.7h4.6V106.8z"/>
		</g>
	</g>
	<g id="XMLID_3597_">
		<g id="XMLID_3605_">
			<g id="XMLID_3615_">
				
					<rect x="458.4" y="148.9" transform="matrix(0.7071 -0.7071 0.7071 0.7071 25.1378 370.7904)" class="st3" width="3.4" height="12.4"/>
			</g>
			<g id="XMLID_3612_">
				<path class="st8" d="M414.7,109.6c-11.6,11.6-11.6,30.5,0,42.2c11.6,11.6,30.5,11.6,42.2,0c11.6-11.6,11.6-30.5,0-42.2
					C445.2,98,426.3,98,414.7,109.6z M451.8,146.7c-8.8,8.8-23.2,8.8-32,0c-8.8-8.8-8.8-23.2,0-32c8.8-8.8,23.2-8.8,32,0
					C460.6,123.5,460.6,137.9,451.8,146.7z"/>
			</g>
			<g id="XMLID_3611_">
				<path class="st3" d="M435.8,162.2c-8.1,0-16.1-3.1-22.3-9.2c-12.3-12.3-12.3-32.3,0-44.6l0,0c6-6,13.9-9.2,22.3-9.2
					c8.4,0,16.3,3.3,22.3,9.2c12.3,12.3,12.3,32.3,0,44.6C451.9,159.1,443.9,162.2,435.8,162.2z M415.9,110.8c-11,11-11,28.8,0,39.7
					c11,11,28.8,11,39.7,0c11-11,11-28.8,0-39.7c-5.3-5.3-12.4-8.2-19.9-8.2C428.3,102.6,421.2,105.5,415.9,110.8L415.9,110.8z"/>
			</g>
			<g id="XMLID_3610_">
				<path class="st3" d="M448.1,120.5c-3.5-3.5-8.3-5.5-13.3-5.5c-5,0-9.7,2-13.3,5.5l-2.4-2.4c4.2-4.2,9.8-6.5,15.7-6.5l0,0
					c5.9,0,11.5,2.3,15.7,6.5L448.1,120.5z"/>
			</g>
			<g id="XMLID_3609_">
				
					<rect x="470" y="151.1" transform="matrix(0.7071 -0.7071 0.7071 0.7071 18.6146 386.5482)" class="st1" width="11.8" height="39.5"/>
			</g>
			<g id="XMLID_3608_">
				<path class="st3" d="M485.7,189.4c-1.3,0-2.5-0.5-3.3-1.4l-27-27l10.8-10.8l14.9,14.9l-2.4,2.4l-12.5-12.5l-5.9,5.9l24.6,24.6
					c0.5,0.5,1.3,0.5,1.8,0l4.1-4.1c0.2-0.2,0.4-0.6,0.4-0.9c0-0.3-0.1-0.7-0.4-0.9l-3.9-3.9l2.4-2.4l3.9,3.9c1.8,1.8,1.8,4.8,0,6.7
					L489,188C488.2,188.9,487,189.4,485.7,189.4z"/>
			</g>
			<g id="XMLID_3607_">
				
					<rect x="482.4" y="167.6" transform="matrix(0.7072 -0.707 0.707 0.7072 21.0829 392.2277)" class="st3" width="3.4" height="6.2"/>
			</g>
			<g id="XMLID_3606_">
				
					<rect x="461.8" y="161.1" transform="matrix(0.7071 -0.7071 0.7071 0.7071 21.901 378.5566)" class="st3" width="12.4" height="3.4"/>
			</g>
		</g>
	</g>
	<g id="XMLID_6034_">
		<path class="st8" d="M392.5,16.3c0,1.4-1.2,2.6-2.6,2.6c-1.4,0-2.6-1.2-2.6-2.6c0-1.4,1.2-2.6,2.6-2.6
			C391.3,13.7,392.5,14.9,392.5,16.3z"/>
	</g>
	<g id="XMLID_3_">
		<path class="st8" d="M426.1,174.7c0,1.4-1.2,2.6-2.6,2.6c-1.4,0-2.6-1.2-2.6-2.6c0-1.4,1.2-2.6,2.6-2.6
			C425,172.1,426.1,173.2,426.1,174.7z"/>
	</g>
	<g id="XMLID_2_">
		<path class="st8" d="M35.5,30c0,2.2-1.8,3.9-3.9,3.9c-2.2,0-3.9-1.8-3.9-3.9c0-2.2,1.8-3.9,3.9-3.9C33.8,26.1,35.5,27.8,35.5,30z"
			/>
	</g>
	<g id="XMLID_6031_">
		<path class="st8" d="M41.3,162.8c-6.5,1.7-7.9,3.1-9.6,9.6c-1.7-6.5-3.1-7.9-9.6-9.6c6.5-1.7,7.9-3.1,9.6-9.6
			C33.3,159.7,34.7,161.1,41.3,162.8z"/>
	</g>
	<path class="st8" d="M472.2,117.4c5.2-1.4,6.3-2.5,7.6-7.6c1.4,5.2,2.5,6.3,7.6,7.6c-5.2,1.4-6.3,2.5-7.6,7.6
		C478.5,119.9,477.3,118.8,472.2,117.4"/>
	<path class="st8" d="M101.3,21.7c10.2-2.7,12.3-4.9,15-15c2.7,10.2,4.9,12.3,15,15c-10.2,2.7-12.3,4.9-15,15
		C113.6,26.6,111.4,24.4,101.3,21.7"/>
	<path class="st8" d="M343.6,6.4c1.2,4.4,2.1,5.4,6.5,6.5c-4.4,1.2-5.4,2.1-6.5,6.5c-1.2-4.4-2.1-5.4-6.5-6.5
		C341.5,11.8,342.4,10.8,343.6,6.4"/>
	<g>
		<rect id="XMLID_15004_" x="254.2" y="97.8" class="st4" width="86.4" height="89.9"/>
		<rect id="XMLID_15003_" x="255.2" y="89.2" class="st5" width="84.1" height="13.6"/>
		<path id="XMLID_15000_" class="st6" d="M321.9,137.2l-4.4,0c-0.5-2.3-1.4-4.5-2.6-6.4l3.1-3.1c1.1-1.1,1.1-2.9,0-4l-2.3-2.3
			c-1.1-1.1-2.9-1.1-4,0l-3.1,3.1c-1.9-1.2-4.1-2.1-6.4-2.6v-4.4c0-1.6-1.3-2.9-2.9-2.9h-3.3c-1.6,0-2.9,1.3-2.9,2.9v4.4
			c-2.3,0.5-4.4,1.4-6.3,2.6l-3.1-3.1c-1.1-1.1-2.9-1.1-4,0l-2.4,2.3c-1.1,1.1-1.1,2.9,0,4l3.1,3.1c-1.2,1.9-2.1,4.1-2.7,6.4l-4.4,0
			c-1.6,0-2.9,1.3-2.9,2.9l0,3.3c0,1.6,1.3,2.9,2.8,2.9l4.4,0c0.5,2.3,1.4,4.5,2.6,6.4l-3.1,3.1c-1.1,1.1-1.1,2.9,0,4l2.3,2.3
			c1.1,1.1,2.9,1.1,4.1,0l3.1-3.1c1.9,1.2,4.1,2.1,6.4,2.7l0,4.4c0,1.6,1.3,2.9,2.9,2.9l3.3,0c1.6,0,2.9-1.3,2.9-2.8l0-4.4
			c2.3-0.5,4.5-1.4,6.4-2.6l3.1,3.1c1.1,1.1,2.9,1.1,4.1,0l2.3-2.3c1.1-1.1,1.1-2.9,0-4l-3.1-3.1c1.2-1.9,2.1-4.1,2.7-6.4l4.4,0
			c1.6,0,2.9-1.3,2.9-2.9v-3.3C324.8,138.5,323.5,137.2,321.9,137.2z M297.6,150.8c-5,0-9.1-4.1-9.1-9.1c0-5,4.1-9.1,9.1-9.1
			c5,0,9.1,4.1,9.1,9.1C306.7,146.7,302.6,150.8,297.6,150.8z"/>
		<g id="XMLID_14999_">
			<path class="st3" d="M299.2,170.6l-3.3,0c-1.2,0-2.4-0.5-3.2-1.3c-0.9-0.9-1.3-2-1.3-3.3l0-3.1c-1.5-0.4-3-1.1-4.4-1.8l-2.2,2.2
				c-0.9,0.9-2,1.3-3.2,1.3c0,0,0,0,0,0c-1.2,0-2.4-0.5-3.2-1.4l-2.3-2.3c-0.9-0.9-1.3-2-1.3-3.2c0-1.2,0.5-2.4,1.3-3.2l2.2-2.2
				c-0.8-1.4-1.4-2.9-1.8-4.4l-3.1,0c-2.5,0-4.6-2.1-4.6-4.6l0-3.3c0-1.2,0.5-2.4,1.4-3.2c0.9-0.9,2-1.3,3.2-1.3l3.1,0
				c0.5-1.5,1.1-3,1.8-4.4l-2.2-2.2c-0.9-0.9-1.3-2-1.3-3.2c0-1.2,0.5-2.4,1.4-3.2l2.4-2.3c1.7-1.7,4.7-1.7,6.5,0l2.2,2.2
				c1.4-0.7,2.8-1.3,4.3-1.8v-3.1c0-2.5,2.1-4.6,4.6-4.6h3.3c2.5,0,4.6,2.1,4.6,4.6v3.1c1.5,0.4,3,1.1,4.4,1.8l2.2-2.2
				c1.8-1.8,4.7-1.8,6.5,0l2.3,2.3c0.9,0.9,1.3,2,1.3,3.2c0,1.2-0.5,2.4-1.4,3.2l-2.2,2.2c0.8,1.4,1.4,2.9,1.8,4.4l3.1,0
				c2.5,0,4.6,2,4.6,4.6v3.3c0,2.5-2.1,4.6-4.6,4.6l-3.1,0c-0.4,1.5-1.1,3-1.8,4.4l2.2,2.2c0.9,0.8,1.3,2,1.3,3.2
				c0,1.2-0.5,2.4-1.4,3.3l-2.3,2.3c-1.8,1.8-4.7,1.8-6.5,0l-2.2-2.2c-1.4,0.8-2.9,1.4-4.4,1.8l0,3.1
				C303.7,168.6,301.7,170.6,299.2,170.6z M286.4,156.7l1.2,0.7c1.8,1.2,3.8,2,5.8,2.4l1.3,0.3l0,5.8c0,0.3,0.1,0.6,0.3,0.8
				c0.2,0.2,0.5,0.3,0.8,0.3l3.3,0c0.6,0,1.1-0.5,1.1-1.1l0-5.8l1.3-0.3c2.1-0.5,4-1.3,5.8-2.4l1.2-0.7l4.1,4.1
				c0.4,0.4,1.2,0.4,1.6,0l2.3-2.3c0.2-0.2,0.3-0.5,0.3-0.8c0-0.3-0.1-0.6-0.3-0.8l-4.1-4.1l0.7-1.2c1.1-1.8,2-3.8,2.4-5.8l0.3-1.3
				l5.8,0c0.6,0,1.1-0.5,1.1-1.1v-3.3c0-0.6-0.5-1.1-1.1-1.1l-5.8,0l-0.3-1.3c-0.5-2.1-1.3-4-2.4-5.8l-0.7-1.2l4.1-4.1
				c0.2-0.2,0.3-0.5,0.3-0.8c0-0.3-0.1-0.6-0.3-0.8l-2.3-2.3c-0.4-0.4-1.2-0.5-1.6,0l-4.1,4.1l-1.2-0.7c-1.8-1.1-3.7-1.9-5.8-2.4
				l-1.3-0.3v-5.8c0-0.6-0.5-1.1-1.2-1.1h-3.3c-0.6,0-1.1,0.5-1.1,1.1v5.8l-1.3,0.3c-2,0.5-3.9,1.2-5.8,2.4l-1.2,0.7l-4.1-4.1
				c-0.4-0.4-1.2-0.4-1.6,0l-2.4,2.3c-0.2,0.2-0.3,0.5-0.3,0.8c0,0.3,0.1,0.6,0.3,0.8l4.1,4.1l-0.7,1.2c-1.1,1.8-2,3.8-2.4,5.8
				l-0.3,1.3l-5.8,0c-0.3,0-0.6,0.1-0.8,0.3c-0.2,0.2-0.3,0.5-0.3,0.8l0,3.3c0,0.6,0.5,1.1,1.1,1.1l5.8,0l0.3,1.3
				c0.5,2.1,1.3,4.1,2.4,5.8l0.7,1.2l-4.1,4.1c-0.2,0.2-0.3,0.5-0.3,0.8c0,0.3,0.1,0.6,0.3,0.8l2.3,2.3c0.2,0.2,0.5,0.4,0.8,0.3
				c0.3,0,0.6-0.1,0.8-0.3L286.4,156.7z M297.6,152.5c-6,0-10.8-4.8-10.8-10.8c0-5.9,4.8-10.8,10.8-10.8c6,0,10.8,4.8,10.8,10.8
				C308.4,147.6,303.5,152.5,297.6,152.5z M297.6,134.3c-4.1,0-7.4,3.3-7.4,7.3c0,4.1,3.3,7.4,7.4,7.4c4.1,0,7.4-3.3,7.4-7.4
				C304.9,137.6,301.6,134.3,297.6,134.3z"/>
		</g>
		<path id="XMLID_14998_" class="st4" d="M318.8,96.2c0,1-0.8,1.8-1.8,1.8c-1,0-1.8-0.8-1.8-1.8c0-1,0.8-1.8,1.8-1.8
			C318,94.4,318.8,95.2,318.8,96.2z"/>
		<path id="XMLID_14997_" class="st4" d="M324.9,96.2c0,1-0.8,1.8-1.8,1.8c-1,0-1.8-0.8-1.8-1.8c0-1,0.8-1.8,1.8-1.8
			C324.1,94.4,324.9,95.2,324.9,96.2z"/>
		<path id="XMLID_14996_" class="st4" d="M331,96.2c0,1-0.8,1.8-1.8,1.8s-1.8-0.8-1.8-1.8c0-1,0.8-1.8,1.8-1.8S331,95.2,331,96.2z"
			/>
		<g id="XMLID_14995_">
			<path class="st3" d="M342.3,189.4h-89.8V87.5h89.8V189.4z M255.9,186h82.9V91h-82.9V186z"/>
		</g>
		<g>
			<rect x="255.2" y="101.1" class="st3" width="85.3" height="3.4"/>
		</g>
	</g>
</g>
</svg>
