<?xml version="1.0" encoding="utf-8"?>
<!-- Generator: Adobe Illustrator 22.1.0, SVG Export Plug-In . SVG Version: 6.00 Build 0)  -->
<svg version="1.1" id="apps_development" xmlns="http://www.w3.org/2000/svg" xmlns:xlink="http://www.w3.org/1999/xlink" x="0px"
	 y="0px" viewBox="0 0 500 223.8" style="enable-background:new 0 0 500 223.8;" xml:space="preserve">
<style type="text/css">
	.st0{fill:#DCE4E8;}
	.st1{fill:#FFFFFF;}
	.st2{fill:#2D333A;}
	.st3{fill:#B7BFC7;}
	.st4{fill:#FFB13E;}
	.st5{opacity:0.3;}
	.st6{fill:#00BFFF;}
	.st7{fill:#FF5B40;}
	.st8{opacity:0.2;fill:#2D333A;}
</style>
<g>
	<g>
		<path class="st0" d="M393.9,38H108.5c-8.8,0-16,7.1-16,16l0,0c0,8.8,7.1,16,16,16h37.7c5.3,0,9.6,4.3,9.6,9.6l0,0
			c0,5.3-4.3,9.6-9.6,9.6H67.5c-7.9,0-14.2,6.4-14.2,14.2v0c0,7.9,6.4,14.2,14.2,14.2H178c6.2,0,11.3,5.1,11.2,11.3l0,0
			c0,6.2-5.1,11.2-11.2,11.2H46.4c-6.4,0-11.5,5.2-11.5,11.5v1.5c0,6.4,5.2,11.5,11.5,11.5h368.7c8.9,0,16.1-7.2,16.1-16.1v0
			c0-8.9-7.2-16.1-16.1-16.1H273.7c-6.4,0-11.6-5.2-11.6-11.6l0,0c0-6.4,5.2-11.6,11.6-11.6h176.8c8.1,0,14.6-6.5,14.6-14.6l0,0
			c0-8.1-6.5-14.6-14.6-14.6H241.4c-5.2,0-9.4-4.2-9.4-9.4l0,0c0-5.2,4.2-9.4,9.4-9.4h157.1c6.4,0,11.5-5.2,11.5-11.5l0,0
			c0-6.4-5.2-11.5-11.5-11.5H393.9z"/>
	</g>
	<rect x="195.1" y="117" class="st1" width="100.1" height="75.7"/>
	<g>
		<g id="XMLID_3343_">
			<g id="XMLID_3344_">
				<g id="XMLID_15002_">
					<path class="st1" d="M167.2,192.1h-8.1V30.5c0-2.2,1.8-4,4-4l0,0c2.2,0,4,1.8,4,4V192.1z"/>
				</g>
				<g id="XMLID_15000_">
					<path id="XMLID_15001_" class="st2" d="M168.7,192.1h-3v-162c0-1.2-1-2.2-2.2-2.2h-0.7c-1.2,0-2.2,1-2.2,2.2v162h-3v-162
						c0-2.9,2.3-5.2,5.2-5.2h0.7c2.9,0,5.2,2.3,5.2,5.2V192.1z"/>
				</g>
				<g id="XMLID_14998_">
					<rect id="XMLID_14999_" x="134.9" y="43" class="st2" width="56.5" height="3"/>
				</g>
				<g id="XMLID_3377_">
					<path class="st3" d="M171.7,43.9c0,4.7-3.8,8.5-8.5,8.5c-4.7,0-8.5-3.8-8.5-8.5c0-4.7,3.8-8.5,8.5-8.5
						C167.9,35.5,171.7,39.3,171.7,43.9z"/>
				</g>
				<g id="XMLID_3373_">
					<path id="XMLID_3374_" class="st2" d="M163.2,53.9c-5.5,0-9.9-4.5-9.9-9.9c0-5.5,4.5-9.9,9.9-9.9c5.5,0,9.9,4.5,9.9,9.9
						C173.2,49.4,168.7,53.9,163.2,53.9z M163.2,37c-3.9,0-7,3.1-7,7c0,3.9,3.1,7,7,7c3.9,0,7-3.1,7-7C170.2,40.1,167.1,37,163.2,37
						z"/>
				</g>
				<g id="XMLID_3371_">
					
						<rect id="XMLID_3372_" x="190.5" y="40.8" transform="matrix(0.9414 -0.3373 0.3373 0.9414 -7.9649 68.0887)" class="st2" width="3" height="32.3"/>
				</g>
				<g id="XMLID_3369_">
					
						<rect id="XMLID_3370_" x="167.3" y="55.5" transform="matrix(0.362 -0.9322 0.9322 0.362 64.0185 207.4638)" class="st2" width="32.6" height="3"/>
				</g>
				<g id="XMLID_3368_">
					<path class="st4" d="M201.2,71c0,7.5-6.1,13.5-13.5,13.5c-7.5,0-13.5-6.1-13.5-13.5H201.2z"/>
				</g>
				<g id="XMLID_3366_">
					
						<rect id="XMLID_3367_" x="118.3" y="55.5" transform="matrix(0.3372 -0.9414 0.9414 0.3372 35.506 164.3629)" class="st2" width="32.3" height="3"/>
				</g>
				<g id="XMLID_3364_">
					
						<rect id="XMLID_3365_" x="141.4" y="40.7" transform="matrix(0.9321 -0.3622 0.3622 0.9321 -10.9315 55.6189)" class="st2" width="3" height="32.6"/>
				</g>
				<g id="XMLID_3363_">
					<path class="st4" d="M125.3,71c0,7.5,6.1,13.5,13.5,13.5c7.5,0,13.5-6.1,13.5-13.5H125.3z"/>
				</g>
				<g id="XMLID_3361_">
					<path id="XMLID_3362_" class="st2" d="M199,80.8l-2.2-1.9c0.7-0.8,1.3-1.7,1.7-2.6l2.7,1.3C200.6,78.7,199.8,79.8,199,80.8z"/>
				</g>
				<g id="XMLID_3359_">
					<path id="XMLID_3360_" class="st2" d="M187.6,86c-8.3,0-15-6.7-15-15v-1.5h30V71c0,1.8-0.3,3.6-1,5.3l-2.8-1.1
						c0.3-0.9,0.6-1.8,0.7-2.8h-23.9c0.7,6,5.8,10.6,12,10.6c1.1,0,2.1-0.1,3.1-0.4c1.3-0.4,2.6-0.9,3.7-1.7l1.7,2.4
						c-1.4,1-3,1.7-4.7,2.2C190.2,85.8,188.9,86,187.6,86z"/>
				</g>
				<g id="XMLID_3355_">
					<path id="XMLID_3356_" class="st2" d="M138.8,86c-8.3,0-15-6.7-15-15v-1.5h30V71C153.8,79.2,147.1,86,138.8,86z M126.9,72.4
						c0.7,6,5.8,10.6,12,10.6c6.1,0,11.2-4.6,12-10.6H126.9z"/>
				</g>
				<g id="XMLID_3354_">
					<path class="st3" d="M191.2,44.4c0,2-1.6,3.6-3.6,3.6c-2,0-3.6-1.6-3.6-3.6c0-2,1.6-3.6,3.6-3.6
						C189.6,40.9,191.2,42.5,191.2,44.4z"/>
				</g>
				<g id="XMLID_3350_">
					<path id="XMLID_3351_" class="st2" d="M187.6,49.5c-2.8,0-5-2.3-5-5c0-2.8,2.3-5,5-5c2.8,0,5,2.3,5,5
						C192.7,47.2,190.4,49.5,187.6,49.5z M187.6,42.4c-1.1,0-2.1,0.9-2.1,2.1c0,1.1,0.9,2.1,2.1,2.1c1.1,0,2.1-0.9,2.1-2.1
						C189.7,43.3,188.8,42.4,187.6,42.4z"/>
				</g>
				<g id="XMLID_3349_">
					<path class="st3" d="M142.4,44.4c0,2-1.6,3.6-3.6,3.6c-2,0-3.6-1.6-3.6-3.6c0-2,1.6-3.6,3.6-3.6
						C140.8,40.9,142.4,42.5,142.4,44.4z"/>
				</g>
				<g id="XMLID_3345_">
					<path id="XMLID_3346_" class="st2" d="M138.8,49.5c-2.8,0-5-2.3-5-5c0-2.8,2.3-5,5-5c2.8,0,5,2.3,5,5
						C143.9,47.2,141.6,49.5,138.8,49.5z M138.8,42.4c-1.1,0-2.1,0.9-2.1,2.1c0,1.1,0.9,2.1,2.1,2.1c1.1,0,2.1-0.9,2.1-2.1
						C140.9,43.3,140,42.4,138.8,42.4z"/>
				</g>
			</g>
		</g>
		<g>
			<g class="st5">
				<path class="st2" d="M194.1,210.9v-2.3v-43.2V163c0-3.2-2.3-5.9-5.3-6.5l-6.6-5.4v-29.8h6.1V120h1.5v-3.1
					c0-5.6-4.6-10.2-10.2-10.2h-4c-0.3,0-0.5-0.1-0.8-0.1h-9.4l-68.7,92.9v8.9v2.3c0,3.7,3,6.7,6.7,6.7h2.3H185h2.3
					C191.1,217.6,194.1,214.6,194.1,210.9z"/>
			</g>
			<g>
				<g id="XMLID_15973_">
					<path class="st6" d="M100,216.1h82.7c3.3,0,5.9-2.7,5.9-5.9v-46.4c0-3.3-2.7-5.9-5.9-5.9h-75.6c-7,0-12.7,5.7-12.7,12.7v40.1
						C94.5,213.7,96.9,216.1,100,216.1z"/>
				</g>
				<g id="XMLID_15972_">
					<path class="st6" d="M99,157.8l36.2-29.7c3.8-2.8,9-2.8,12.8,0l36.2,29.7H99z"/>
				</g>
				<g id="XMLID_15971_">
					<path class="st2" d="M183.2,158.9L147,129.2c-3.2-2.4-7.7-2.4-11,0.1l-36.1,29.7l-1.9-2.3l36.2-29.7c4.4-3.2,10.3-3.2,14.6-0.1
						l36.2,29.8L183.2,158.9z"/>
				</g>
				<g id="XMLID_15970_">
					<path class="st2" d="M181.1,217.6H102c-5,0-9-4.1-9-9v-43.2c0-5,4.1-9,9-9h79.1c5,0,9,4.1,9,9v43.2
						C190.2,213.6,186.1,217.6,181.1,217.6z M102,159.3c-3.4,0-6.1,2.7-6.1,6.1v43.2c0,3.4,2.7,6.1,6.1,6.1h79.1
						c3.4,0,6.1-2.7,6.1-6.1v-43.2c0-3.4-2.7-6.1-6.1-6.1H102z"/>
				</g>
				<g id="XMLID_15969_">
					<path class="st1" d="M176.8,198.3h-71.5v-79.2c0-6,4.9-10.9,10.9-10.9H171c3.2,0,5.8,2.6,5.8,5.8V198.3z"/>
				</g>
				<g id="XMLID_15968_">
					<path class="st2" d="M178.3,199.8h-74.5v-80.7c0-6.9,5.6-12.4,12.4-12.4H171c4,0,7.3,3.3,7.3,7.3V199.8z M106.8,196.8h68.5V114
						c0-2.4-1.9-4.3-4.3-4.3h-54.7c-5.2,0-9.5,4.2-9.5,9.5V196.8z"/>
				</g>
				<g id="XMLID_15967_" class="st5">
					<path class="st2" d="M184.5,121.3h-63.6c0.8-10.2,1.2-10.2,1.2-10.2h53.7c4.8,0,8.7,3.9,8.7,8.7V121.3z"/>
				</g>
				<g id="XMLID_15966_">
					<path class="st4" d="M184.5,118.5h-62.2c0.8-10.2-8.6-10.2-8.6-10.2h62.1c4.8,0,8.7,3.9,8.7,8.7V118.5z"/>
				</g>
				<g id="XMLID_15965_">
					<path class="st4" d="M175.8,108.3h-58.4c0.1,0.3,0.2,0.6,0.2,1c1.5,0.7,3.1,2,4,4.1h62.1C182.3,110.4,179.3,108.3,175.8,108.3z
						"/>
				</g>
				<g id="XMLID_15964_">
					<path class="st2" d="M185.9,120h-65.3l0.1-1.6c0.2-2.7-0.3-4.9-1.7-6.4c-2.1-2.2-5.4-2.3-5.4-2.3v-3h62.1
						c5.6,0,10.2,4.6,10.2,10.2V120z M123.8,117H183v-0.1c0-4-3.2-7.2-7.2-7.2H121c0.1,0.1,0.2,0.2,0.3,0.3
						C122.9,111.8,123.7,114.2,123.8,117z"/>
				</g>
				<g id="XMLID_15963_">
					<rect x="113.7" y="130.3" class="st4" width="27.3" height="19"/>
				</g>
				<g id="XMLID_15962_">
					<rect x="143.8" y="130.3" class="st7" width="27.3" height="19"/>
				</g>
				<g id="XMLID_15961_">
					<rect x="113.7" y="152.5" class="st3" width="42.7" height="3.3"/>
				</g>
				<g id="XMLID_15960_">
					<rect x="113.7" y="161.3" class="st0" width="57.3" height="1.6"/>
				</g>
				<g id="XMLID_15959_">
					<rect x="113.7" y="165.6" class="st0" width="57.3" height="1.6"/>
				</g>
				<g id="XMLID_15958_">
					<rect x="113.7" y="169.8" class="st0" width="57.3" height="1.6"/>
				</g>
				<g id="XMLID_15957_">
					<rect x="113.7" y="174.1" class="st0" width="57.3" height="1.6"/>
				</g>
				<g id="XMLID_15956_">
					<rect x="113.7" y="178.3" class="st0" width="57.3" height="1.6"/>
				</g>
				<g id="XMLID_15955_">
					<rect x="113.7" y="182.6" class="st0" width="57.3" height="1.6"/>
				</g>
				<g id="XMLID_15954_">
					<rect x="113.7" y="186.9" class="st0" width="49.7" height="1.6"/>
				</g>
				<g id="XMLID_15953_" class="st5">
					<path class="st2" d="M151.1,184l-2.8-2.3c-4-2.9-9.4-2.9-13.4,0l-3,2.5l-27.9-20.3l0.1,13.5l3.8,11.9h65.2l4.3-15.3l0-9.5
						L151.1,184z"/>
				</g>
				<g id="XMLID_15952_">
					<path class="st6" d="M97.2,215.3l37.8-31.1c4-2.9,9.4-2.9,13.4,0l37.8,31.1H97.2z"/>
				</g>
				<g id="XMLID_15951_">
					<path class="st6" d="M97.2,214.9c0,0,34.1-26.5,34.1-28.7l-35.4-25.9c0,0-1.4,1.5-1.4,6.4v45.7C94.5,214.4,96,214.6,97.2,214.9
						z"/>
				</g>
				<g id="XMLID_15950_">
					<path class="st6" d="M98.2,212.3v-45.7c0-1.9,0.2-3.3,0.5-4.3l-2.8-2c0,0-1.4,1.5-1.4,6.4v45.7c0,2.1,1.5,2.2,2.7,2.5
						c0,0,0.5-0.4,1.4-1.1C98.3,213.4,98.2,213,98.2,212.3z"/>
				</g>
				<g id="XMLID_15949_">
					<path class="st6" d="M186.2,214.9c0,0-34.1-26.5-34.1-28.7l35.4-25.9c0,0,1.4,1.5,1.4,6.4v45.7
						C188.9,214.4,187.3,214.6,186.2,214.9z"/>
				</g>
				<g id="XMLID_15948_">
					
						<rect x="112.6" y="150.9" transform="matrix(0.59 -0.8074 0.8074 0.59 -93.3703 163.282)" class="st2" width="3" height="45.4"/>
				</g>
				<g id="XMLID_15947_">
					
						<rect x="146.1" y="172.1" transform="matrix(0.8074 -0.59 0.59 0.8074 -69.9036 132.9977)" class="st2" width="45.4" height="3"/>
				</g>
				<g id="XMLID_15946_">
					<path class="st2" d="M183.5,217.6H99.7c-3.7,0-6.7-3-6.7-6.7V163c0-3.7,3-6.7,6.7-6.7v3c-2.1,0-3.7,1.7-3.7,3.7v47.9
						c0,2.1,1.7,3.7,3.7,3.7h83.8c2.1,0,3.7-1.7,3.7-3.7V163c0-2.1-1.7-3.7-3.7-3.7v-3c3.7,0,6.7,3,6.7,6.7v47.9
						C190.2,214.6,187.2,217.6,183.5,217.6z"/>
				</g>
				<g id="XMLID_15945_">
					<path class="st2" d="M185.2,216.4l-37.8-31.1c-3.4-2.5-8.1-2.5-11.5,0.1l-37.7,31l-1.9-2.3l37.8-31.1
						c4.6-3.4,10.7-3.4,15.2-0.1l37.9,31.1L185.2,216.4z"/>
				</g>
			</g>
		</g>
		<g id="XMLID_15921_">
			<g id="XMLID_15944_">
				<path class="st4" d="M417.3,123.9H301.3c-1.8,0-3.2,1.5-3.2,3.2v88.7h116c3.6,0,6.6-2.9,6.6-6.6v-82
					C420.7,125.4,419.1,123.9,417.3,123.9z"/>
			</g>
			<g id="XMLID_15943_">
				<path class="st2" d="M411,217.6H298.1v-3.4H411c4.4,0,7.9-3.6,7.9-7.9v-77.3c0-1.8-1.5-3.3-3.3-3.3h-7.5v-3.4h7.5
					c3.7,0,6.7,3,6.7,6.7v77.3C422.4,212.5,417.3,217.6,411,217.6z"/>
			</g>
			<g id="XMLID_15942_">
				<rect x="306.5" y="122.2" class="st2" width="68.6" height="3.4"/>
			</g>
			<g id="XMLID_15939_">
				<g id="XMLID_15941_">
					<path class="st1" d="M376.8,89.5l24.4,24.4v85.2c0,3.9-3.1,7-7,7h-72.9c-3.9,0-7-3.1-7-7V96.5c0-3.9,3.1-7,7-7H376.8z"/>
				</g>
				<g id="XMLID_15940_">
					<path class="st2" d="M394.2,207.8h-72.9v-3.4h72.9c2.9,0,5.3-2.4,5.3-5.3v-84.5l-23.4-23.4h-54.7c-2.9,0-5.3,2.4-5.3,5.3v34.7
						h-3.4V96.5c0-4.8,3.9-8.7,8.7-8.7h56.2l25.4,25.4v85.9C402.9,203.9,399,207.8,394.2,207.8z"/>
				</g>
			</g>
			<g id="XMLID_15934_">
				<g id="XMLID_15938_">
					<path class="st0" d="M391,82.4l24.4,24.4V192c0,3.9-3.1,7-7,7h-72.9c-3.9,0-7-3.1-7-7V89.4c0-3.9,3.1-7,7-7H391z"/>
				</g>
				<g id="XMLID_15937_">
					<polygon class="st6" points="391,106.8 391,82.4 415.4,106.8 					"/>
				</g>
				<g id="XMLID_15936_">
					<path class="st2" d="M415.4,108.5h-22c-2.3,0-4.2-1.9-4.2-4.1v-22h3.4v22c0,0.4,0.3,0.7,0.7,0.7h22V108.5z"/>
				</g>
				<g id="XMLID_15935_">
					<path class="st2" d="M408.4,200.7h-3.2v-3.4h3.2c2.9,0,5.3-2.4,5.3-5.3v-84.5l-23.4-23.4h-54.7c-2.9,0-5.3,2.4-5.3,5.3v51.1
						h-3.4V89.4c0-4.8,3.9-8.7,8.7-8.7h56.2l25.4,25.4V192C417.1,196.8,413.2,200.7,408.4,200.7z"/>
				</g>
			</g>
			<g id="XMLID_15925_">
				<g id="XMLID_15933_">
					<path class="st1" d="M405.2,93l24.4,24.4v85.2c0,3.9-3.1,7-7,7h-72.9c-3.9,0-7-3.1-7-7V100c0-3.9,3.1-7,7-7H405.2z"/>
				</g>
				<g id="XMLID_15932_">
					<polygon class="st6" points="405.2,117.5 405.2,93 429.6,117.5 					"/>
				</g>
				<g id="XMLID_15931_">
					<path class="st2" d="M429.6,119.2h-22c-2.3,0-4.1-1.9-4.1-4.2V93h3.4v22c0,0.4,0.3,0.7,0.7,0.7h22V119.2z"/>
				</g>
				<g id="XMLID_15930_">
					<rect x="355.8" y="127.7" class="st2" width="62.1" height="3.4"/>
				</g>
				<g id="XMLID_15929_">
					<rect x="355.8" y="141.5" class="st2" width="62.1" height="3.4"/>
				</g>
				<g id="XMLID_15928_">
					<rect x="355.8" y="155.4" class="st2" width="62.1" height="3.4"/>
				</g>
				<g id="XMLID_15927_">
					<rect x="355.8" y="169.2" class="st2" width="62.1" height="3.4"/>
				</g>
				<g id="XMLID_15926_">
					<path class="st2" d="M422.6,211.4h-16.1V208h16.1c2.9,0,5.3-2.4,5.3-5.3v-84.5l-23.4-23.4h-54.8c-2.9,0-5.3,2.4-5.3,5.3v40.4
						h-3.4V100c0-4.8,3.9-8.7,8.7-8.7h56.2l25.4,25.4v85.9C431.3,207.5,427.4,211.4,422.6,211.4z"/>
				</g>
			</g>
			<g id="XMLID_15924_">
				<path class="st4" d="M410.9,215.9h-117c-2.8,0-5.1-2.3-5.1-5.1v-72.6c0-2.3,1.9-4.2,4.2-4.2h20c1.5,0,2.8,0.7,3.6,2l5.2,8.2
					h74.4c2.7,0,4.9,2.2,4.9,4.9V206C401,210.6,404.3,215.9,410.9,215.9z"/>
			</g>
			<g id="XMLID_15923_">
				<path class="st4" d="M401,206v-8.3H288.8v13c0,2.8,2.3,5.1,5.1,5.1h117C404.3,215.9,401,210.6,401,206z"/>
			</g>
			<g id="XMLID_15922_">
				<path class="st2" d="M410.9,217.6h-117c-3.7,0-6.8-3-6.8-6.8h3.4c0,1.9,1.5,3.4,3.4,3.4h108.6c-2.1-2.2-3.2-5.2-3.2-8.1V149
					c0-1.7-1.4-3.1-3.1-3.1h-75.3l-5.7-9c-0.5-0.7-1.3-1.2-2.1-1.2h-5.2v-3.4h5.2c2.1,0,3.9,1,5,2.8l4.7,7.4h73.4
					c3.6,0,6.6,2.9,6.6,6.6V206c0,3.9,2.8,8.1,8.1,8.1V217.6z"/>
			</g>
		</g>
		<g id="XMLID_2991_">
			<g id="XMLID_3016_">
				<path class="st7" d="M341.5,60.2c13.4-13.4,13.4-35.2,0-48.7c-13.4-13.4-35.2-13.4-48.7,0c-11.6,11.6-13.2,29.4-4.7,42.7
					l-9.8,20.2c-0.3,0.5,0.3,1.1,0.8,0.8l20.1-10.1C312.5,73.4,330,71.7,341.5,60.2z"/>
			</g>
			<g id="XMLID_3014_">
				<path id="XMLID_3015_" class="st2" d="M278.8,76.9c-0.5,0-1.1-0.2-1.5-0.6c-0.6-0.6-0.8-1.6-0.4-2.4l9.4-19.5
					c-8.4-14-6.2-32.3,5.4-43.9C298.6,3.7,307.6,0,317.2,0c9.6,0,18.6,3.7,25.4,10.5c1.4,1.4,2.7,2.9,3.8,4.5l-2.4,1.7
					c-1-1.5-2.2-2.8-3.5-4.1C334.2,6.4,326,3,317.2,3c-8.8,0-17.1,3.4-23.3,9.6c-10.8,10.8-12.7,28-4.5,40.9l0.4,0.7l-9,18.7
					l18.6-9.3L300,64c13,8,29.7,6,40.5-4.8c1.5-1.5,2.8-3.1,4-4.8l2.5,1.7c-1.3,1.9-2.7,3.7-4.4,5.3C331,72.9,313.3,75.1,299.2,67
					l-19.4,9.7C279.5,76.8,279.2,76.9,278.8,76.9z"/>
			</g>
			<g id="XMLID_3012_">
				<rect id="XMLID_3013_" x="293.1" y="19.5" class="st2" width="10.1" height="3"/>
			</g>
			<g id="XMLID_3010_">
				<rect id="XMLID_3011_" x="305.6" y="19.5" class="st2" width="51.2" height="3"/>
			</g>
			<g id="XMLID_3008_">
				<rect id="XMLID_3009_" x="299.2" y="26.5" class="st2" width="18" height="3"/>
			</g>
			<g id="XMLID_3006_">
				<rect id="XMLID_3007_" x="295.1" y="33.5" class="st2" width="13" height="3"/>
			</g>
			<g id="XMLID_3004_">
				<rect id="XMLID_3005_" x="311.9" y="33.5" class="st2" width="48" height="3"/>
			</g>
			<g id="XMLID_3002_">
				<rect id="XMLID_3003_" x="296.9" y="41" class="st2" width="26" height="3"/>
			</g>
			<g id="XMLID_3000_">
				<rect id="XMLID_3001_" x="296.9" y="49" class="st2" width="11.3" height="3"/>
			</g>
			<g id="XMLID_2998_">
				<rect id="XMLID_2999_" x="311.9" y="49" class="st2" width="59.7" height="3"/>
			</g>
			<g id="XMLID_2996_">
				<rect id="XMLID_2997_" x="325.9" y="41" class="st2" width="14.3" height="3"/>
			</g>
			<g id="XMLID_2994_">
				<rect id="XMLID_2995_" x="320.3" y="26.5" class="st2" width="9" height="3"/>
			</g>
			<g id="XMLID_2992_">
				<rect id="XMLID_2993_" x="359.9" y="19.5" class="st2" width="11.7" height="3"/>
			</g>
		</g>
		<path class="st8" d="M260.1,72.9c-1.1-0.6-2.4-1.1-3.7-1.2V44.7h-4.6v3.8h-26.4l-6,10.3l6,10.1h26.4V72c-0.7,0.2-1.3,0.4-1.9,0.7
			l-85.1,47.9l2.3,4l8.6-4.9h15.8v2.5h1.1v68h-5.7v9.7h-9.3v17.5h148.2V213h0v-10.5h-9.3v-9.7h-5.4c0-0.2,0.1-0.4,0.1-0.6v-15.3h2.3
			v-54.5h1.1v-2.5h15.6l8.1,4.8l2.4-4L260.1,72.9z M224.9,190.4h-8.3v-68h1.1v-2.5h6.1v2.5h1.1V190.4z M257.2,190.4h-8.3v-68h1.1
			v-2.5h6.1v2.5h1.1V190.4z M289.4,190.4h-8.3v-68h1.1v-2.5h6.1v2.5h1.1V190.4z"/>
		<g id="XMLID_15841_">
			<path id="XMLID_15868_" class="st0" d="M205.4,196.6h-11c-2.3,0-4.2-2-4.2-4.4v-73.5h19.4v73.5
				C209.6,194.6,207.7,196.6,205.4,196.6z"/>
			<path id="XMLID_15867_" class="st0" d="M199.9,118.6h-9.7v73.5c0,2.5,1.9,4.4,4.2,4.4h5.5V118.6z"/>
			<path id="XMLID_15866_" class="st0" d="M237.7,196.6h-11c-2.3,0-4.2-2-4.2-4.4v-73.5h19.4v73.5
				C241.9,194.6,240,196.6,237.7,196.6z"/>
			<path id="XMLID_15865_" class="st0" d="M232.2,118.6h-9.7v73.5c0,2.5,1.9,4.4,4.2,4.4h5.5V118.6z"/>
			<path id="XMLID_15864_" class="st0" d="M270,196.6h-11c-2.3,0-4.2-2-4.2-4.4v-73.5h19.4v73.5C274.2,194.6,272.3,196.6,270,196.6z
				"/>
			<path id="XMLID_15863_" class="st0" d="M264.5,118.6h-9.7v73.5c0,2.5,1.9,4.4,4.2,4.4h5.5V118.6z"/>
			<path id="XMLID_15862_" class="st0" d="M302.3,196.6h-11c-2.3,0-4.2-2-4.2-4.4v-73.5h19.4v73.5
				C306.5,194.6,304.6,196.6,302.3,196.6z"/>
			<g id="XMLID_15861_">
				<path class="st2" d="M205.4,198.9h-11c-3.6,0-6.5-3-6.5-6.7v-75.8h24v75.8C211.9,195.8,209,198.9,205.4,198.9z M192.6,120.9
					v71.2c0,1.2,0.8,2.1,1.9,2.1h11c1,0,1.9-1,1.9-2.1v-71.2H192.6z"/>
			</g>
			<g id="XMLID_15860_">
				<path class="st2" d="M237.7,198.9h-11c-3.6,0-6.5-3-6.5-6.7v-75.8h24v75.8C244.2,195.8,241.3,198.9,237.7,198.9z M224.8,120.9
					v71.2c0,1.2,0.9,2.1,1.9,2.1h11c1,0,1.9-1,1.9-2.1v-71.2H224.8z"/>
			</g>
			<g id="XMLID_15859_">
				<path class="st2" d="M270,198.9h-11c-3.6,0-6.5-3-6.5-6.7v-75.8h24v75.8C276.5,195.8,273.6,198.9,270,198.9z M257.1,120.9v71.2
					c0,1.2,0.8,2.1,1.9,2.1h11c1,0,1.9-1,1.9-2.1v-71.2H257.1z"/>
			</g>
			<path id="XMLID_15858_" class="st0" d="M296.8,118.6h-9.7v73.5c0,2.5,1.9,4.4,4.2,4.4h5.5V118.6z"/>
			<g id="XMLID_15857_">
				<path class="st2" d="M291.3,198.9c-3.6,0-6.5-3-6.5-6.7v-75.8h24v60.6h-4.6v-55.9h-14.8v71.2c0,1.2,0.9,2.1,1.9,2.1V198.9z"/>
			</g>
			<rect id="XMLID_15856_" x="184.5" y="192.7" class="st0" width="127.4" height="11.2"/>
			<g id="XMLID_15855_">
				<polygon class="st2" points="186.8,203.9 182.2,203.9 182.2,190.4 298.1,190.4 298.1,195 186.8,195 				"/>
			</g>
			<rect id="XMLID_15854_" x="175.3" y="202.4" class="st0" width="145.9" height="12.8"/>
			<g id="XMLID_15853_">
				<polyline class="st2" points="172.9,217.6 172.9,200.1 296.7,200.1 296.7,204.7 177.6,204.7 177.6,217.2 				"/>
			</g>
			<rect id="XMLID_15852_" x="186.9" y="114.6" class="st2" width="26.2" height="7.7"/>
			<rect id="XMLID_15851_" x="219.2" y="114.6" class="st2" width="26.2" height="7.7"/>
			<rect id="XMLID_15850_" x="251.4" y="114.6" class="st2" width="26.2" height="7.7"/>
			<rect id="XMLID_15849_" x="283.7" y="114.6" class="st2" width="26.2" height="7.7"/>
			<polygon id="XMLID_15848_" class="st0" points="170.4,117.6 328.4,117.6 250.4,72.5 			"/>
			<g id="XMLID_15847_">
				<path class="st2" d="M162.4,124.7l-2.3-4l85.1-47.9c2.9-1.6,7.3-1.6,10.2,0.1l80.5,47.8l-2.4,4l-80.5-47.8
					c-1.4-0.9-4.1-0.9-5.6-0.1L162.4,124.7z"/>
			</g>
			<path id="XMLID_15846_" class="st4" d="M260.6,98.3c0,5.7-4.6,10.3-10.2,10.3c-5.7,0-10.3-4.6-10.3-10.3
				c0-5.7,4.6-10.2,10.3-10.2C256,88,260.6,92.6,260.6,98.3z"/>
			<g id="XMLID_15845_">
				<path class="st2" d="M250.4,110.8c-6.9,0-12.6-5.6-12.6-12.6c0-6.9,5.6-12.6,12.6-12.6c6.9,0,12.6,5.6,12.6,12.6
					C262.9,105.2,257.3,110.8,250.4,110.8z M250.4,90.3c-4.4,0-8,3.6-8,7.9c0,4.4,3.6,7.9,8,7.9c4.4,0,7.9-3.6,7.9-7.9
					C258.3,93.9,254.7,90.3,250.4,90.3z"/>
			</g>
			<polygon id="XMLID_15844_" class="st6" points="222.1,66.6 249,66.6 249,50.9 222.1,50.9 217.4,58.8 			"/>
			<g id="XMLID_15843_">
				<polygon class="st2" points="249,68.9 220.8,68.9 214.7,58.8 220.7,48.6 249,48.6 249,53.2 223.4,53.2 220.1,58.8 223.4,64.3 
					249,64.3 				"/>
			</g>
			<g id="XMLID_15842_">
				<rect x="247.1" y="44.7" class="st2" width="4.6" height="29.4"/>
			</g>
			<g>
				<rect x="170.4" y="115.2" class="st2" width="155.7" height="4.6"/>
			</g>
		</g>
		<g>
			<path id="XMLID_3342_" class="st1" d="M452.3,180.8c-7.6,7.6-20,7.6-27.6,0c-7.6-7.6-7.6-20,0-27.6c7.6-7.6,20-7.6,27.6,0
				C459.9,160.8,459.9,173.2,452.3,180.8z"/>
			<g id="XMLID_15869_">
				<g id="XMLID_15876_">
					<g id="XMLID_15886_">
						
							<rect x="458" y="182.7" transform="matrix(0.7071 -0.7071 0.7071 0.7071 1.6599 379.9717)" class="st2" width="3" height="10.6"/>
					</g>
					<g id="XMLID_15883_">
						<path class="st3" d="M420.4,148.8c-10,10-10,26.3,0,36.3c10,10,26.3,10,36.3,0c10-10,10-26.3,0-36.3
							C446.6,138.8,430.4,138.8,420.4,148.8z M452.3,180.8c-7.6,7.6-20,7.6-27.6,0c-7.6-7.6-7.6-20,0-27.6c7.6-7.6,20-7.6,27.6,0
							C459.9,160.8,459.9,173.2,452.3,180.8z"/>
					</g>
					<g id="XMLID_15882_">
						<path class="st2" d="M438.5,194.1c-7,0-13.9-2.6-19.2-7.9c-10.6-10.6-10.6-27.8,0-38.4l0,0c5.1-5.1,12-8,19.2-8
							c7.3,0,14.1,2.8,19.2,8c10.6,10.6,10.6,27.8,0,38.4C452.4,191.5,445.5,194.1,438.5,194.1z M421.4,149.9
							c-9.4,9.4-9.4,24.8,0,34.2c9.4,9.4,24.8,9.4,34.2,0c9.4-9.4,9.4-24.8,0-34.2c-4.6-4.6-10.6-7.1-17.1-7.1
							C432,142.8,426,145.3,421.4,149.9L421.4,149.9z"/>
					</g>
					<g id="XMLID_15881_">
						<path class="st2" d="M449.1,158.2c-3.1-3.1-7.1-4.7-11.4-4.7c-4.3,0-8.4,1.7-11.4,4.7l-2.1-2.1c3.6-3.6,8.4-5.6,13.5-5.6l0,0
							c5.1,0,9.9,2,13.5,5.6L449.1,158.2z"/>
					</g>
					<g id="XMLID_15880_">
						
							<rect x="468" y="184.5" transform="matrix(0.7071 -0.7071 0.7071 0.7071 -3.9582 393.5441)" class="st7" width="10.1" height="34"/>
					</g>
					<g id="XMLID_15879_">
						<path class="st2" d="M481.5,217.6c-1.1,0-2.1-0.4-2.9-1.2l-23.3-23.3l9.3-9.3l12.8,12.8l-2.1,2.1L464.6,188l-5.1,5.1
							l21.2,21.2c0.4,0.4,1.2,0.4,1.6,0l3.5-3.5c0.2-0.2,0.3-0.5,0.3-0.8c0-0.3-0.1-0.6-0.3-0.8l-3.4-3.4l2.1-2.1l3.4,3.4
							c1.6,1.6,1.6,4.2,0,5.8l-3.5,3.5C483.6,217.1,482.6,217.6,481.5,217.6z"/>
					</g>
					<g id="XMLID_15878_">
						
							<rect x="478.6" y="198.8" transform="matrix(0.7072 -0.707 0.707 0.7072 -1.8332 398.4238)" class="st2" width="3" height="5.3"/>
					</g>
					<g id="XMLID_15877_">
						
							<rect x="460.9" y="193.2" transform="matrix(0.7071 -0.7071 0.7071 0.7071 -1.1281 386.6562)" class="st2" width="10.6" height="3"/>
					</g>
				</g>
			</g>
		</g>
		<g>
			<g id="XMLID_14997_">
				<path class="st2" d="M340.1,216.4c-8.2,0-14.8-6.6-14.8-14.8s6.6-14.8,14.8-14.8s14.8,6.6,14.8,14.8S348.2,216.4,340.1,216.4z
					 M340.1,189.8c-6.5,0-11.8,5.3-11.8,11.8c0,6.5,5.3,11.8,11.8,11.8s11.8-5.3,11.8-11.8C351.9,195.1,346.6,189.8,340.1,189.8z"/>
			</g>
			<g id="XMLID_14996_">
				<path class="st2" d="M368.9,199h-3c0-3.2-2.6-5.8-5.8-5.8c-3.2,0-5.8,2.6-5.8,5.8h-3c0-4.8,3.9-8.8,8.8-8.8
					C364.9,190.2,368.9,194.2,368.9,199z"/>
			</g>
			<g id="XMLID_14995_">
				<path class="st2" d="M380.4,216.4c-8.2,0-14.8-6.6-14.8-14.8s6.6-14.8,14.8-14.8c8.2,0,14.8,6.6,14.8,14.8
					S388.5,216.4,380.4,216.4z M380.4,189.8c-6.5,0-11.8,5.3-11.8,11.8c0,6.5,5.3,11.8,11.8,11.8c6.5,0,11.8-5.3,11.8-11.8
					C392.2,195.1,386.9,189.8,380.4,189.8z"/>
			</g>
			<g id="XMLID_14994_">
				
					<rect x="357.3" y="173.4" transform="matrix(0.125 -0.9922 0.9922 0.125 109.8788 535.9739)" class="st2" width="3" height="64.6"/>
			</g>
			<g id="XMLID_14993_">
				
					<rect x="328.8" y="204.2" transform="matrix(0.9922 -0.125 0.125 0.9922 -22.8779 46.7501)" class="st2" width="64.6" height="3"/>
			</g>
		</g>
		<g id="XMLID_15887_">
			<g id="XMLID_15920_">
				<path class="st1" d="M16.3,197.2l79.6-21.3c1.6-0.4,2.5-2.1,2.1-3.6l0,0c-0.4-1.6-2.1-2.5-3.6-2.1l-79.6,21.3
					c-1.6,0.4-2.5,2.1-2.1,3.6l0,0C13.1,196.6,14.7,197.6,16.3,197.2z"/>
			</g>
			<g id="XMLID_15916_">
				<path id="XMLID_15917_" class="st2" d="M15.5,198.9c-2,0-3.9-1.4-4.5-3.4c-0.3-1.2-0.2-2.4,0.5-3.5c0.6-1.1,1.6-1.8,2.8-2.2
					l79.6-21.3c1.2-0.3,2.4-0.2,3.5,0.5c1.1,0.6,1.8,1.6,2.1,2.8c0.7,2.5-0.8,5-3.3,5.6l-79.6,21.3
					C16.3,198.9,15.9,198.9,15.5,198.9z M95.1,171.7c-0.1,0-0.2,0-0.3,0L15.2,193c-0.3,0.1-0.6,0.3-0.8,0.6c-0.2,0.3-0.2,0.7-0.1,1
					c0.2,0.7,0.9,1.1,1.6,0.9l79.6-21.3c0.7-0.2,1.1-0.9,0.9-1.6c-0.1-0.3-0.3-0.6-0.6-0.8C95.5,171.7,95.3,171.7,95.1,171.7z"/>
			</g>
			<g id="XMLID_15915_">
				
					<rect x="73.5" y="166.6" transform="matrix(-0.9659 0.2588 -0.2588 -0.9659 207.6308 326.3678)" class="st0" width="17.6" height="20.4"/>
			</g>
			<g id="XMLID_15911_">
				<path id="XMLID_15912_" class="st2" d="M75.3,191l-6.1-22.9l20.2-5.4l6.1,22.9L75.3,191z M73.2,170.4l4.4,16.6l13.8-3.7
					L87,166.7L73.2,170.4z"/>
			</g>
			<g id="XMLID_15910_">
				<path class="st7" d="M76.1,200.1l23.2-6.2c0.2-0.1,0.3-0.3,0.2-0.5l-4.7-9.9c-0.1-0.2-0.3-0.2-0.4-0.2L75,188.6
					c-0.2,0-0.3,0.2-0.3,0.4l0.9,10.9C75.6,200,75.8,200.2,76.1,200.1z"/>
			</g>
			<g id="XMLID_15909_">
				<path class="st7" d="M70.1,170.3l19.4-5.2c0.2,0,0.3-0.2,0.3-0.4l-0.9-10.9c0-0.2-0.2-0.4-0.5-0.3l-23.2,6.2
					c-0.2,0.1-0.3,0.3-0.2,0.5l4.7,9.9C69.8,170.3,69.9,170.4,70.1,170.3z"/>
			</g>
			<g id="XMLID_15905_">
				<path id="XMLID_15906_" class="st2" d="M76,201.8c-0.4,0-0.8-0.1-1.1-0.4c-0.5-0.3-0.8-0.9-0.9-1.5l-0.9-10.9
					c-0.1-1,0.5-1.9,1.5-2.1l19.4-5.2c0.9-0.3,1.9,0.2,2.3,1.1l4.7,9.9c0.3,0.5,0.3,1.2,0,1.7c-0.2,0.5-0.7,0.9-1.3,1.1l-23.2,6.2
					C76.3,201.8,76.1,201.8,76,201.8z M76.5,189.9l0.7,8.3l20.2-5.4l-3.6-7.5L76.5,189.9z"/>
			</g>
			<g id="XMLID_15901_">
				<path id="XMLID_15902_" class="st2" d="M70,172c-0.8,0-1.5-0.4-1.8-1.2l-4.7-9.9c-0.3-0.5-0.3-1.2,0-1.7
					c0.2-0.5,0.7-0.9,1.3-1.1l23.2-6.2c0.6-0.2,1.2,0,1.7,0.3c0.5,0.3,0.8,0.9,0.9,1.5l0.9,10.9c0.1,1-0.5,1.9-1.5,2.1l-19.4,5.2
					C70.4,172,70.2,172,70,172z M67.2,160.9l3.6,7.5l17.3-4.6l-0.7-8.3L67.2,160.9z"/>
			</g>
			<g id="XMLID_15899_">
				
					<rect id="XMLID_15900_" x="62" y="178.5" transform="matrix(0.9659 -0.2588 0.2588 0.9659 -44.7856 22.6549)" class="st2" width="3.3" height="5.9"/>
			</g>
			<g id="XMLID_15897_">
				
					<rect id="XMLID_15898_" x="58.1" y="179.5" transform="matrix(0.966 -0.2585 0.2585 0.966 -45.138 21.6487)" class="st2" width="3.3" height="5.9"/>
			</g>
			<g id="XMLID_15895_">
				
					<rect id="XMLID_15896_" x="54.2" y="180.5" transform="matrix(0.9659 -0.2589 0.2589 0.9659 -45.609 20.7191)" class="st2" width="3.3" height="5.9"/>
			</g>
			<g id="XMLID_15894_">
				<path class="st4" d="M108.2,217.6v-9.3c0-1.7-1.4-3.1-3.1-3.1H82.4c-1.7,0-3.1,1.4-3.1,3.1v9.3H108.2z"/>
			</g>
			<g id="XMLID_15892_">
				<path id="XMLID_15893_" class="st2" d="M109.9,217.6h-3.3v-9.3c0-0.8-0.6-1.4-1.4-1.4h-4.1v-3.3h4.1c2.6,0,4.7,2.1,4.7,4.7
					V217.6z"/>
			</g>
			<g id="XMLID_15890_">
				<rect id="XMLID_15891_" x="91" y="203.5" class="st2" width="6.8" height="3.3"/>
			</g>
			<g id="XMLID_15888_">
				<path id="XMLID_15889_" class="st2" d="M81,217.6h-3.3v-9.3c0-2.6,2.1-4.7,4.7-4.7h5.9v3.3h-5.9c-0.8,0-1.4,0.6-1.4,1.4V217.6z"
					/>
			</g>
		</g>
		<polyline class="st2" points="336,217.6 55.8,217.6 55.8,214.1 325.3,214.1 		"/>
	</g>
</g>
</svg>
