<?xml version="1.0" encoding="utf-8"?>
<!-- Generator: Adobe Illustrator 22.1.0, SVG Export Plug-In . SVG Version: 6.00 Build 0)  -->
<svg version="1.1" id="apps_development" xmlns="http://www.w3.org/2000/svg" xmlns:xlink="http://www.w3.org/1999/xlink" x="0px"
	 y="0px" viewBox="0 0 500 441" style="enable-background:new 0 0 500 441;" xml:space="preserve">
<style type="text/css">
	.st0{fill:#2D333A;}
	.st1{fill:#FFB13E;}
</style>
<g>
	<g>
		<g>
			<path class="st0" d="M122.5,419.9c-3.7-2.5-7.3-5.1-10.9-7.9l20.6-26.9c3,2.3,6.1,4.6,9.3,6.7L122.5,419.9z M386.6,413.2
				l-20.4-27.1c3-2.3,6-4.7,8.9-7.1l22,25.8C393.7,407.7,390.1,410.5,386.6,413.2z M85.1,388.1c-3.1-3.2-6.1-6.6-9-10l25.9-21.8
				c2.4,2.9,5,5.7,7.6,8.5L85.1,388.1z M422.4,379.6l-25.7-22.1c2.5-2.9,4.9-5.9,7.2-8.9l27,20.5
				C428.1,372.7,425.3,376.2,422.4,379.6z M55.3,349.1c-2.3-3.8-4.5-7.7-6.6-11.7l30-15.8c1.8,3.3,3.6,6.7,5.6,9.9L55.3,349.1z
				 M450.2,339.1l-29.9-16c1.8-3.4,3.5-6.8,5.1-10.2l30.7,14.2C454.3,331.1,452.3,335.1,450.2,339.1z M34.5,304.6
				c-1.4-4.2-2.8-8.6-3.9-12.8l32.7-8.9c1,3.6,2.1,7.3,3.3,10.9L34.5,304.6z M468.6,293.5l-32.6-9.2c1-3.7,2-7.4,2.8-11.1l33.1,7.2
				C470.9,284.8,469.8,289.2,468.6,293.5z M23.9,256.6c-0.5-4.4-0.8-8.9-1.1-13.4l33.8-1.7c0.2,3.8,0.5,7.6,0.9,11.4L23.9,256.6z
				 M476.7,245l-33.8-2c0.2-3.8,0.3-7.6,0.3-11.4l0-0.7l33.9-0.2l0,1C477.1,236.1,477,240.6,476.7,245z M57.5,211.1l-33.7-3.6
				c0.5-4.4,1.1-8.9,1.8-13.3l33.4,5.5C58.5,203.5,57.9,207.3,57.5,211.1z M440.8,200.5c-0.6-3.8-1.3-7.5-2.2-11.2l33.1-7.4
				c1,4.3,1.8,8.8,2.5,13.2L440.8,200.5z M66.4,170.3l-32.1-10.7c1.4-4.2,3-8.5,4.6-12.6l31.4,12.6C68.9,163,67.6,166.7,66.4,170.3z
				 M429.6,160.2c-1.4-3.5-2.9-7-4.5-10.5l30.7-14.4c1.9,4.1,3.7,8.2,5.3,12.3L429.6,160.2z M83.9,132.3l-29-17.4
				c2.3-3.8,4.7-7.6,7.2-11.3l28,19.1C87.9,125.8,85.9,129,83.9,132.3z M410.1,123.3c-2.1-3.1-4.4-6.2-6.7-9.3l26.9-20.6
				c2.7,3.5,5.4,7.2,7.8,10.9L410.1,123.3z M109.2,99L84.5,75.7c3.1-3.2,6.3-6.4,9.5-9.5l23.2,24.7C114.5,93.5,111.8,96.2,109.2,99z
				 M383.1,91.4c-2.8-2.6-5.6-5.2-8.5-7.6l21.9-25.9c3.4,2.9,6.8,5.9,10,8.9L383.1,91.4z M141,71.8l-19.1-28c3.7-2.5,7.5-5,11.3-7.2
				l17.4,29.1C147.3,67.6,144.1,69.6,141,71.8z M349.8,66.1c-3.2-2-6.6-3.9-9.9-5.6l15.8-30c4,2.1,7.9,4.3,11.7,6.6L349.8,66.1z
				 M177.8,52.1l-12.6-31.4c4.1-1.6,8.3-3.2,12.6-4.6l10.8,32.1C184.9,49.4,181.3,50.7,177.8,52.1z M311.9,48.4
				c-3.6-1.2-7.3-2.3-10.9-3.3l9-32.7c4.3,1.2,8.6,2.5,12.8,3.9L311.9,48.4z M218,40.9l-5.5-33.4c4.4-0.7,8.9-1.3,13.3-1.8l3.5,33.7
				C225.5,39.7,221.7,40.2,218,40.9z M271.1,39.4c-3.8-0.4-7.6-0.7-11.4-0.9l1.7-33.8c4.5,0.2,9,0.6,13.4,1.1L271.1,39.4z"/>
		</g>
	</g>
	<g>
		<g>
			<polygon class="st0" points="295.6,431.3 251.3,415.3 206.9,431.3 206.9,308.1 219.4,308.1 219.4,413.5 251.3,402 283.1,413.5 
				283.1,308.1 295.6,308.1 			"/>
		</g>
		<g id="XMLID_15845_">
			<path class="st1" d="M342.8,355l-88.3-45c-1.7-0.9-3.8-0.9-5.5,0.1L162,357.4c-4.3,2.3-9.4-1.3-8.6-6.1l15.5-97.8
				c0.3-1.9-0.4-3.8-1.8-5.2L95.2,180c-3.5-3.4-1.7-9.3,3.1-10.1l97.8-15.5c1.9-0.3,3.5-1.5,4.4-3.3l42.7-89.4
				c2.1-4.4,8.3-4.5,10.5-0.1l45,88.3c0.9,1.7,2.5,2.9,4.5,3.2l98.2,13c4.8,0.6,6.8,6.5,3.4,10l-70,70.1c-1.4,1.4-2,3.3-1.6,5.2
				l18,97.4C352.1,353.5,347.1,357.3,342.8,355z"/>
		</g>
		<g id="XMLID_15844_">
			<path class="st0" d="M159.1,364.4c-2.5,0-4.9-0.8-7-2.2c-3.8-2.7-5.7-7.2-5-11.8l15.5-97.9l-71.7-67.9c-3.4-3.2-4.6-8-3.2-12.4
				c1.4-4.4,5.1-7.7,9.7-8.4l97.8-15.5l42.4-89.2c2-4.2,6.1-6.9,10.8-6.9c4.5-0.1,8.9,2.5,11,6.6l45,88.3l97.9,12.8
				c4.6,0.6,8.4,3.7,9.9,8.2s0.4,9.2-2.9,12.5l-70,70.1l18.1,97.1c0.8,4.6-0.9,9.2-4.7,11.9c-3.7,2.8-8.6,3.2-12.8,1.1l-88.3-45
				l-86.7,47.2C163.1,363.9,161.1,364.4,159.1,364.4z M345.6,349.4l-2.8,5.6L345.6,349.4C345.6,349.5,345.6,349.4,345.6,349.4
				L345.6,349.4z M100.1,176l71.3,67.7c2.9,2.8,4.3,6.8,3.6,10.7l-15.4,97.1l86.4-46.9c3.5-1.9,7.7-2,11.3-0.1l87.8,44.7L327,252.5
				c-0.7-3.9,0.5-8,3.4-10.8l69.7-69.7l-97.6-12.7c-4-0.5-7.4-3-9.2-6.5l-44.6-87.5l-42.3,88.7c-1.7,3.6-5.1,6.1-9.1,6.8L100.1,176z
				"/>
		</g>
	</g>
</g>
</svg>
