<svg height="502pt" viewBox="-8 0 502 502.00046" width="502pt" xmlns="http://www.w3.org/2000/svg"><path d="m431.71875 229.851562-1.640625-67.171874c-.757813-14.988282 10.394531-27.925782 25.332031-29.378907l23.019532 145.257813c.28125 18.238281-5.320313 36.078125-15.96875 50.882812l-56.351563 68.1875c-5.183594 6.277344-7.742187 14.3125-7.140625 22.429688l1.511719 20.140625-78.460938-37.359375.300781-.640625c-6.222656-30.597657 5.179688-62.105469 29.539063-81.640625l4.46875-3.589844c7.011719-5.609375 12.65625-12.738281 16.511719-20.847656l21.539062-45.222656c6.757813-14.191407 21.699219-22.613282 37.339844-21.046876zm0 0" fill="#f7caa5"/><path d="m400.480469 440.199219 8.828125 4.210937-23.609375 49.589844-108.820313-51.828125 23.621094-49.582031 21.519531 10.25zm0 0" fill="#00acea"/><path d="m243.21875 8c78.851562 0 142.769531 63.921875 142.769531 142.769531 0 78.851563-63.917969 142.769531-142.769531 142.769531-78.847656 0-142.769531-63.917968-142.769531-142.769531 0-78.847656 63.921875-142.769531 142.769531-142.769531zm107.742188 142.769531c0-59.503906-48.238282-107.738281-107.742188-107.738281s-107.738281 48.234375-107.738281 107.738281c0 59.503907 48.234375 107.742188 107.738281 107.742188 59.503906-.003907 107.738281-48.238281 107.742188-107.742188zm0 0" fill="#00acea"/><path d="m350.960938 150.769531c0 59.503907-48.238282 107.742188-107.742188 107.742188s-107.738281-48.238281-107.738281-107.742188c0-59.503906 48.234375-107.738281 107.738281-107.738281s107.742188 48.234375 107.742188 107.738281zm0 0" fill="#00efd1"/><path d="m85.960938 440.199219 78.457031-37.359375 21.519531-10.25 23.621094 49.582031-108.820313 51.828125-23.609375-49.589844zm0 0" fill="#00acea"/><path d="m54.71875 229.851562c15.640625-1.566406 30.582031 6.855469 37.339844 21.046876l21.539062 45.222656c3.859375 8.109375 9.503906 15.238281 16.511719 20.847656l4.46875 3.589844c24.363281 19.535156 35.761719 51.042968 29.542969 81.640625l.296875.640625-78.457031 37.359375 1.507812-20.140625c.601562-8.117188-1.957031-16.152344-7.140625-22.429688l-56.347656-68.1875c-10.652344-14.804687-16.253907-32.644531-15.972657-50.882812l23.023438-145.257813c14.382812 1.398438 25.359375 13.484375 25.367188 27.9375 0 .472657-.019532.960938-.039063 1.441407zm0 0" fill="#f7caa5"/><g fill="#083863"><path d="m243.21875 35.03125c-63.921875 0-115.738281 51.816406-115.738281 115.738281s51.816406 115.742188 115.738281 115.742188 115.742188-51.820313 115.742188-115.742188c-.074219-63.890625-51.851563-115.667969-115.742188-115.738281zm0 215.480469c-55.085938 0-99.738281-44.65625-99.738281-99.742188 0-55.085937 44.652343-99.738281 99.738281-99.738281s99.742188 44.652344 99.742188 99.738281c-.0625 55.058594-44.683594 99.679688-99.742188 99.742188zm0 0"/><path d="m285.148438 152h-39.929688v-55.140625c0-4.417969-3.582031-8-8-8s-8 3.582031-8 8v62.902344c-.011719 4.464843 3.542969 8.125 8.011719 8.238281h47.917969c4.417968 0 8-3.582031 8-8s-3.582032-8-8-8zm0 0"/><path d="m393.988281 150.769531c0-83.132812-67.632812-150.769531-150.769531-150.769531-83.132812 0-150.769531 67.636719-150.769531 150.769531 0 83.136719 67.636719 150.769531 150.769531 150.769531 83.136719 0 150.769531-67.640624 150.769531-150.769531zm-150.769531 134.769531c-74.3125 0-134.769531-60.457031-134.769531-134.769531s60.457031-134.769531 134.769531-134.769531 134.769531 60.457031 134.769531 134.769531-60.457031 134.769531-134.769531 134.769531zm0 0"/><path d="m463.3125 132.046875c-.660156-4.179687-4.46875-7.125-8.679688-6.707031-19.160156 1.84375-33.488281 18.410156-32.546874 37.632812l1.4375 58.921875c-15.753907 1.585938-29.539063 11.277344-36.367188 25.566407l-21.535156 45.222656c-3.351563 7.011718-8.238282 13.183594-14.300782 18.046875l-4.46875 3.585937c-22.765624 18.167969-35.453124 46.140625-34.121093 75.238282l-8.792969-4.1875c-3.988281-1.898438-8.761719-.207032-10.660156 3.78125l-23.621094 49.582031c-1.902344 3.988281-.207031 8.761719 3.78125 10.664062l108.820312 51.828125c3.988282 1.902344 8.765626.207032 10.664063-3.785156l23.609375-49.589844c1.898438-3.988281.207031-8.757812-3.78125-10.660156l-4.640625-2.210938-1.164063-15.5c-.460937-6.0625 1.449219-12.066406 5.328126-16.746093l56.351562-68.191407c.113281-.132812.222656-.277343.328125-.421874 11.613281-16.21875 17.738281-35.726563 17.472656-55.675782-.003906-.378906-.039062-.753906-.097656-1.128906zm-81.394531 351.289063-94.371094-44.949219 16.738281-35.132813 94.363282 44.9375zm74.203125-158.78125-56.175782 67.980468c-6.515624 7.859375-9.726562 17.941406-8.953124 28.121094l.480468 6.394531-61.851562-29.457031c-4.394532-26.792969 6.027344-53.867188 27.25-70.800781l4.460937-3.582031c7.941407-6.375 14.347657-14.460938 18.734375-23.652344l21.542969-45.222656c5.320313-11.132813 17.046875-17.742188 29.328125-16.527344.648438.066406 1.296875.152344 1.9375.257812l-31.484375 66.121094c-1.261719 2.582031-1.035156 5.644531.585937 8.019531 1.625 2.375 4.394532 3.695313 7.261719 3.457031 2.867188-.234374 5.382813-1.992187 6.597657-4.597656l35.398437-74.339844c1.898437-3.992187.207031-8.765624-3.78125-10.664062-2.535156-1.207031-5.175781-2.175781-7.890625-2.894531l-1.480469-60.6875c0-.070313 0-.140625-.007812-.210938-.410157-7.871093 3.828125-15.253906 10.835937-18.871093l21.527344 135.835937c.097656 16.234375-4.910156 32.089844-14.316406 45.320313zm0 0"/><path d="m193.160156 389.148438c-1.898437-3.988282-6.671875-5.679688-10.660156-3.78125l-8.792969 4.1875c1.332031-29.09375-11.355469-57.066407-34.117187-75.234376l-4.480469-3.597656c-6.058594-4.867187-10.941406-11.03125-14.289063-18.042968l-21.539062-45.21875c-6.828125-14.289063-20.613281-23.984376-36.371094-25.574219l1.441406-58.941407c.023438-.570312.042969-1.148437.042969-1.699218.054688-18.597656-14.078125-34.164063-32.59375-35.902344-4.210937-.414062-8.015625 2.53125-8.675781 6.710938l-23.015625 145.253906c-.0625.371094-.09375.75-.1015625 1.128906-.2656245 19.945312 5.8593755 39.457031 17.4765625 55.675781.101563.144531.210937.285157.324219.421875l56.351562 68.191406c3.878906 4.675782 5.789063 10.675782 5.328125 16.734376l-1.160156 15.515624-4.640625 2.210938c-3.988281 1.902344-5.679688 6.671875-3.78125 10.660156l23.613281 49.589844c1.898438 3.992188 6.675781 5.6875 10.664063 3.785156l108.820312-51.828125c3.988282-1.902343 5.683594-6.675781 3.78125-10.664062zm-106.664062 3.386718-56.175782-67.980468c-9.410156-13.230469-14.417968-29.085938-14.320312-45.320313l21.53125-135.84375c6.691406 3.433594 10.890625 10.328125 10.867188 17.847656 0 .359375-.015626.734375-.03125 1.101563v.144531l-1.484376 60.691406c-2.710937.71875-5.351562 1.6875-7.886718 2.894531-3.992188 1.898438-5.683594 6.671876-3.785156 10.660157l35.398437 74.339843c1.214844 2.609376 3.730469 4.363282 6.597656 4.601563 2.867188.234375 5.636719-1.085937 7.261719-3.460937 1.621094-2.371094 1.847656-5.433594.585938-8.019532l-31.488282-66.121094c.648438-.109374 1.300782-.195312 1.953125-.261718 12.28125-1.210938 24 5.398437 29.316407 16.53125l21.539062 45.21875c4.386719 9.191406 10.785156 17.273437 18.726562 23.648437l4.472657 3.59375c21.21875 16.933594 31.640625 44.007813 27.246093 70.800781l-61.855468 29.457032.480468-6.402344c.773438-10.179688-2.433593-20.261719-8.949218-28.121094zm18.027344 90.800782-16.734376-35.144532 80.070313-38.128906 14.300781-6.808594 16.738282 35.132813zm0 0"/></g></svg>