<?xml version="1.0" encoding="utf-8"?>
<!-- Generator: Adobe Illustrator 22.1.0, SVG Export Plug-In . SVG Version: 6.00 Build 0)  -->
<svg version="1.1" id="apps_development" xmlns="http://www.w3.org/2000/svg" xmlns:xlink="http://www.w3.org/1999/xlink" x="0px"
	 y="0px" viewBox="0 0 500 224" style="enable-background:new 0 0 500 224;" xml:space="preserve">
<style type="text/css">
	.st0{fill:#B7BFC7;}
	.st1{fill:#EDF0F4;}
	.st2{fill:#BCBEC0;}
	.st3{fill:#FFFFFF;}
	.st4{fill:#414042;}
	.st5{fill:#FFB13E;}
	.st6{fill:#00BFFF;}
	.st7{fill:#FF5B40;}
	.st8{opacity:0.3;}
	.st9{fill:#58595B;}
	.st10{fill:#F1F2F2;}
	.st11{fill:#2D333A;}
	.st12{fill:#D1D3D4;}
	.st13{fill:#6D6E71;}
	.st14{fill:#939598;}
</style>
<g>
	<g id="XMLID_6356_">
		<path class="st0" d="M413.3,8.2c0,1.3-1.1,2.4-2.4,2.4s-2.4-1.1-2.4-2.4c0-1.3,1.1-2.4,2.4-2.4S413.3,6.9,413.3,8.2z"/>
	</g>
	<g id="XMLID_6346_">
		<path class="st0" d="M481.6,210.1c-5.2,1.4-6.4,2.5-7.7,7.7c-1.4-5.2-2.5-6.4-7.7-7.7c5.2-1.4,6.4-2.5,7.7-7.7
			C475.3,207.6,476.4,208.7,481.6,210.1z"/>
	</g>
	<g id="XMLID_15942_">
		<path class="st0" d="M53.2,26c-3.1,0.8-3.8,1.5-4.6,4.6c-0.8-3.1-1.5-3.8-4.6-4.6c3.1-0.8,3.8-1.5,4.6-4.6
			C49.4,24.5,50.1,25.2,53.2,26z"/>
	</g>
	<g id="XMLID_6344_">
		<path class="st0" d="M54,194.8c-5.2,1.4-6.4,2.5-7.7,7.7c-1.4-5.2-2.5-6.4-7.7-7.7c5.2-1.4,6.4-2.5,7.7-7.7
			C47.7,192.3,48.8,193.5,54,194.8z"/>
	</g>
	<g id="XMLID_12068_">
		<g id="XMLID_15976_">
			<path class="st1" d="M37,40.8h420c9.6,0,17.4,7.8,17.4,17.4l0,0c0,9.6-7.8,17.4-17.4,17.4h-71.5c-8.3,0-15.1,6.8-15.1,15.1l0,0
				c0,8.3,6.8,15.1,15.1,15.1h87.5c9.2,0,16.7,7.5,16.7,16.7v0c0,9.2-7.5,16.7-16.7,16.7h-43.9l0,0c0,16.7-13.6,30.3-30.3,30.3l0,0
				c-7.4,0-13.4,6-13.4,13.4v35.6H193.4v-2.9c0-17.8-14.3-32.3-32.1-32.4l-109.5-0.7c-10.2-0.1-18.3-8.4-18.3-18.5l0,0
				c0-10.2,8.3-18.5,18.5-18.5h109.3l0,0c0-16.9,13.7-30.5,30.5-30.5h2.6c10.3,0,18.6-8.3,18.6-18.6l0,0c0-10.3-8.3-18.6-18.6-18.6
				H37c-10.2,0-18.4-8.2-18.4-18.4l0,0C18.6,49.1,26.8,40.8,37,40.8z"/>
		</g>
		<g id="XMLID_15953_">
			<g id="XMLID_15954_">
				<g id="XMLID_15975_">
					<path class="st2" d="M409.1,218.4v-186c0-5.1-4.1-9.1-9.1-9.1H264.7c-5.1,0-9.1,4.1-9.1,9.1v186L409.1,218.4z"/>
				</g>
				<g id="XMLID_15974_">
					<path class="st3" d="M396.5,218.4v-186c0-5.1-3.5-9.1-7.8-9.1H274.2c-4.3,0-7.8,4.1-7.8,9.1v186L396.5,218.4z"/>
				</g>
				<g id="XMLID_15973_">
					<path class="st2" d="M255.6,46.9v-16c0-4.2,3.4-7.7,7.7-7.7h138.1c4.2,0,7.7,3.4,7.7,7.7v16H255.6z"/>
				</g>
				<g id="XMLID_15971_">
					<path id="XMLID_15972_" class="st4" d="M257.4,49.9h-3.6v-19c0-5.2,4.2-9.5,9.5-9.5h20.4V25h-20.4c-3.3,0-5.9,2.7-5.9,5.9V49.9
						z"/>
				</g>
				<g id="XMLID_15969_">
					<path id="XMLID_15970_" class="st4" d="M410.9,218.4h-3.6V30.9c0-3.3-2.7-5.9-5.9-5.9h-91.1v-3.6h91.1c5.2,0,9.5,4.2,9.5,9.5
						V218.4z"/>
				</g>
				<g id="XMLID_15967_">
					<rect id="XMLID_15968_" x="291.1" y="21.5" class="st4" width="10.5" height="3.6"/>
				</g>
				<g id="XMLID_15965_">
					<rect id="XMLID_15966_" x="255.6" y="45.6" class="st4" width="153.5" height="3.6"/>
				</g>
				<g id="XMLID_15963_">
					<rect id="XMLID_15964_" x="273.2" y="34.6" class="st4" width="3.6" height="3.6"/>
				</g>
				<g id="XMLID_15961_">
					<rect id="XMLID_15962_" x="283.6" y="34.6" class="st4" width="3.6" height="3.6"/>
				</g>
				<g id="XMLID_15959_">
					<rect id="XMLID_15960_" x="294" y="34.6" class="st4" width="3.6" height="3.6"/>
				</g>
				<g id="XMLID_15958_">
					<rect x="276.2" y="65.1" class="st5" width="112.4" height="44.3"/>
				</g>
				<g id="XMLID_15957_">
					<rect x="276.2" y="137.5" class="st6" width="34.2" height="44.3"/>
				</g>
				<g id="XMLID_15956_">
					<rect x="315.3" y="137.5" class="st7" width="34.2" height="44.3"/>
				</g>
				<g id="XMLID_15955_">
					<rect x="354.4" y="137.5" class="st6" width="34.2" height="44.3"/>
				</g>
			</g>
		</g>
		<g id="XMLID_15913_" class="st8">
			<path id="XMLID_15914_" class="st4" d="M320.8,54.2c-1.9-1.5-4.2-2.4-6.7-2.4h-58.5v166.5h10.8h2.3v-1.7h-10.1v-26.6H309v-1.8
				h9.5c2.6,0,4.8-2.1,4.8-4.8v-16.8v-4.2v-55.8h1.8V62.8c0-2.5-0.9-4.9-2.4-6.7C322.2,55.3,321.6,54.7,320.8,54.2z"/>
		</g>
		<g id="XMLID_15893_">
			<g id="XMLID_15912_">
				<path class="st9" d="M318.5,166.8H128.3V58.3c0-2.6,2.1-4.7,4.7-4.7h180.8c2.6,0,4.7,2.1,4.7,4.7V166.8z"/>
			</g>
			<g id="XMLID_15910_">
				<rect id="XMLID_15911_" x="126.6" y="96.1" class="st4" width="3.6" height="20.7"/>
			</g>
			<g id="XMLID_15908_">
				<path id="XMLID_15909_" class="st4" d="M320.3,106.8h-3.6V62.8c0-4.1-3.3-7.4-7.4-7.4H168.7v-3.6h140.6c6.1,0,11,4.9,11,11
					V106.8z"/>
			</g>
			<g id="XMLID_15907_">
				<rect x="138.7" y="64.7" class="st3" width="169.7" height="89.3"/>
				<g>
					<g>
						<rect x="144.4" y="69.4" class="st10" width="158.3" height="80"/>
					</g>
					<g>
						<polygon class="st7" points="302.7,96.5 295.8,96.5 285.8,102.5 273.2,102.5 263.6,102.5 256.6,111.2 244.1,119.2 
							219.4,119.6 212.7,114.9 200.1,120.6 175.6,120.6 151.2,140.7 144.4,140.7 144.4,149.4 302.7,149.4 						"/>
					</g>
					<g>
						<polygon class="st11" points="151.9,142.3 144.4,142.3 144.4,139 150.5,139 174.9,118.9 199.7,118.9 212.9,113 220,117.9 
							243.5,117.6 255.3,110 262.6,100.9 285.3,100.9 295.3,94.8 302.7,94.8 302.7,98.1 296.4,98.1 286.4,104.2 264.5,104.2 
							257.7,112.6 244.7,120.9 218.8,121.2 212.5,116.8 200.6,122.2 176.3,122.2 						"/>
					</g>
				</g>
			</g>
			<g id="XMLID_15906_">
				<rect x="194.8" y="183.9" class="st3" width="57.3" height="33.9"/>
			</g>
			<g id="XMLID_15905_">
				<rect x="194.8" y="183.9" class="st12" width="57.3" height="17"/>
			</g>
			<g id="XMLID_15901_">
				<path id="XMLID_15902_" class="st4" d="M253.8,219.6H193v-37.5h60.9V219.6z M196.6,216h53.7v-30.4h-53.7V216z"/>
			</g>
			<g id="XMLID_15900_">
				<path class="st3" d="M318.5,162.6H128.3v20.9c0,2.6,2.1,4.8,4.8,4.8h180.7c2.6,0,4.8-2.1,4.8-4.8V162.6z"/>
			</g>
			<g id="XMLID_15898_">
				<rect id="XMLID_15899_" x="155.7" y="186.5" class="st4" width="148.6" height="3.6"/>
			</g>
			<g id="XMLID_15896_">
				<rect id="XMLID_15897_" x="155.7" y="160.8" class="st4" width="133.1" height="3.6"/>
			</g>
			<g id="XMLID_15894_">
				<rect id="XMLID_15895_" x="183.6" y="216.7" class="st4" width="80.3" height="3.6"/>
			</g>
		</g>
		<g id="XMLID_15879_">
			<g id="XMLID_15892_">
				<rect x="352.7" y="128.7" class="st3" width="4.9" height="43.2"/>
			</g>
			<g id="XMLID_15891_">
				<path class="st5" d="M356.6,218.4l-2.8,0c-3.4,0-6.1-2.7-6.1-6.1v-40.1l15,0v40.1C362.7,215.7,359.9,218.4,356.6,218.4z"/>
			</g>
			<g id="XMLID_15887_">
				<path id="XMLID_15888_" class="st4" d="M356.6,220.2h-2.8c-4.3,0-7.9-3.5-7.9-7.9v-41.9h18.6v41.9
					C364.5,216.7,360.9,220.2,356.6,220.2z M349.5,174.1v38.3c0,2.4,1.9,4.3,4.3,4.3h2.8c2.4,0,4.3-1.9,4.3-4.3v-38.3H349.5z"/>
			</g>
			<g id="XMLID_15885_">
				<rect id="XMLID_15886_" x="343.2" y="170.5" class="st4" width="23.9" height="3.6"/>
			</g>
			<g id="XMLID_15884_">
				<polygon class="st3" points="359.3,129.4 351,129.4 352,114.7 358.4,114.7 				"/>
			</g>
			<g id="XMLID_15880_">
				<path id="XMLID_15881_" class="st4" d="M359.4,173.7h-8.4v-42.5h-1.9l1.2-18.3h9.7l1.2,18.3h-1.8V173.7z M354.5,170.2h1.3v-42.5
					h1.6l-0.7-11.2h-3.1l-0.7,11.2h1.6V170.2z"/>
			</g>
		</g>
		<g id="XMLID_15873_">
			<g id="XMLID_15878_">
				<path class="st13" d="M406.8,135.4c0-7.7-4.5-14.4-11-17.6v17l-8.7,5l-8.7-5v-17c-6.5,3.2-11,9.9-11,17.6
					c0,8.1,4.9,15,11.9,18.1l0.1,57.2c0,4.3,3.5,7.8,7.8,7.8c4.3,0,7.8-3.5,7.8-7.8l-0.1-57.2C401.9,150.4,406.8,143.5,406.8,135.4z
					"/>
			</g>
			<g id="XMLID_15874_">
				<path id="XMLID_15875_" class="st4" d="M387.2,220.2c-5.3,0-9.6-4.3-9.6-9.6l-0.1-56.1c-7.3-3.6-11.9-11-11.9-19.2
					c0-8.2,4.6-15.6,12-19.2l2.6-1.3v18.9l6.9,4l6.9-4v-18.9l2.6,1.3c7.4,3.7,12,11,12,19.2c0,8.2-4.6,15.6-11.9,19.2l0.1,56.1
					C396.8,215.9,392.5,220.2,387.2,220.2z M376.6,120.9c-4.6,3.3-7.4,8.7-7.4,14.5c0,7.1,4.2,13.6,10.8,16.4l1.1,0.5l0.1,58.4
					c0,3.3,2.7,6,6,6c3.3,0,6-2.7,6-6l-0.1-58.4l1.1-0.5c6.6-2.8,10.8-9.3,10.8-16.4c0-5.8-2.8-11.1-7.4-14.5v14.9l-10.5,6.1
					l-10.5-6.1V120.9z"/>
			</g>
		</g>
		<g id="XMLID_15871_" class="st8">
			<path id="XMLID_15872_" class="st4" d="M149.7,118.7h-21.3v43.9v4.2v16.8c0,2.6,2.1,4.8,4.8,4.8h22.6v1.8h2.7v-62.6
				C158.4,122.6,154.5,118.7,149.7,118.7z"/>
		</g>
		<g id="XMLID_15854_">
			<g id="XMLID_15870_">
				<path class="st3" d="M71.7,218.4h80.2v-92.7c0-2.9-2.4-5.3-5.3-5.3H77c-2.9,0-5.3,2.4-5.3,5.3V218.4z"/>
			</g>
			<g id="XMLID_15868_">
				<path id="XMLID_15869_" class="st4" d="M73.5,207.8h-3.6v-80.3c0-4.8,3.9-8.8,8.8-8.8h10v3.6h-10c-2.9,0-5.2,2.3-5.2,5.2V207.8z
					"/>
			</g>
			<g id="XMLID_15866_">
				<rect id="XMLID_15867_" x="95.4" y="118.7" class="st4" width="11.7" height="3.6"/>
			</g>
			<g id="XMLID_15864_">
				<path id="XMLID_15865_" class="st4" d="M153.7,207.8h-3.6v-80.3c0-2.9-2.3-5.2-5.2-5.2H110v-3.6h34.9c4.8,0,8.8,3.9,8.8,8.8
					V207.8z"/>
			</g>
			<g id="XMLID_15863_">
				<rect x="78.3" y="135.2" class="st5" width="66.9" height="83.3"/>
				<g>
					<g id="XMLID_6312_">
						<g id="XMLID_6313_">
							<path class="st3" d="M88.9,171.3c-0.1-0.9-0.1-1.4-0.1-1.9c0-0.2,0-0.3,0-0.6c0-3.1,0.6-6.1,1.8-8.9c1.2-2.7,2.8-5.2,4.9-7.3
								c0.2-0.2,0.3-0.3,0.4-0.4c0.4-0.4,0.6-0.6,1.3-1.1l3.8,5c-0.3,0.2-0.3,0.2-0.5,0.5c-0.1,0.1-0.3,0.3-0.5,0.5
								c-1.5,1.5-2.8,3.3-3.6,5.3c-0.9,2.1-1.3,4.3-1.3,6.5c0,0.3,0,0.6,0,0.8c0,0.4,0,0.4,0.1,0.8L88.9,171.3z"/>
						</g>
					</g>
					<g id="XMLID_6310_">
						<g id="XMLID_6311_">
							<path class="st0" d="M111.8,191.8c-3.1,0-6.1-0.6-8.9-1.8c-2.7-1.2-5.2-2.8-7.3-4.9c-2.1-2.1-3.8-4.6-4.9-7.3
								c-0.3-0.8-0.6-1.6-0.9-2.4l6-1.8c0.2,0.6,0.4,1.2,0.6,1.8c0.8,2,2.1,3.8,3.6,5.3c1.5,1.5,3.3,2.8,5.3,3.6
								c4.1,1.7,8.9,1.7,13.1,0c2-0.8,3.8-2.1,5.3-3.6c1.5-1.5,2.8-3.3,3.6-5.3l5.7,2.4c-1.2,2.7-2.8,5.2-4.9,7.3
								c-2.1,2.1-4.6,3.8-7.3,4.9C117.9,191.2,114.9,191.8,111.8,191.8z"/>
						</g>
					</g>
					<g id="XMLID_6308_">
						<g id="XMLID_6309_">
							<path class="st6" d="M134.3,173.6l-6.1-1.3c0.2-1.1,0.4-2.3,0.4-3.5c0-2.3-0.4-4.5-1.3-6.5c-0.8-2-2.1-3.8-3.6-5.3
								c-1.5-1.5-3.3-2.8-5.3-3.6c-4.1-1.7-8.9-1.7-13.1,0c-0.3,0.1-0.5,0.2-0.7,0.3c-0.3,0.1-0.3,0.1-0.6,0.3l-3.2-5.3
								c0.7-0.4,1-0.6,1.6-0.8c0.1,0,0.3-0.1,0.5-0.2c5.7-2.4,12.2-2.4,17.9,0c2.7,1.2,5.2,2.8,7.3,4.9c2.1,2.1,3.8,4.6,4.9,7.3
								c1.2,2.8,1.8,5.8,1.8,8.9C134.8,170.4,134.6,172,134.3,173.6z"/>
						</g>
					</g>
					<g id="XMLID_6306_">
						<g id="XMLID_6307_">
							<path class="st11" d="M89.6,172.6c-0.5,0-0.9-0.2-1.3-0.4c-0.4-0.3-0.7-0.9-0.8-1.4c0-0.5,0-0.9,0-1.3l0-0.6
								c0-4.7,1.3-9.2,3.9-13.2c0.9-1.3,1.9-2.7,3.3-4.1l0.3-0.3c0.3-0.3,0.5-0.5,0.8-0.7c0.4-0.4,1-0.5,1.6-0.5
								c0.6,0.1,1.1,0.4,1.4,0.8l2.9,3.8c0.6,0.8,0.5,2-0.2,2.7l-0.5,0.5c-1.4,1.4-2.5,3.1-3.3,4.9c-0.8,1.9-1.2,3.9-1.2,6
								c0,0.3,0,0.6,0,0.8c0,0.3,0,0.3,0,0.6l0.2,1.3l-6.7,1C89.8,172.5,89.7,172.6,89.6,172.6z M97,153c0,0-0.1,0.1-0.1,0.1
								l-0.3,0.3c-1.2,1.3-2.2,2.4-3,3.6c-2.3,3.6-3.5,7.6-3.5,11.8c0,0.3,0,0.5,0,0.6c0,0.1,0,0.3,0,0.4l3.6-0.6c0-0.1,0-0.3,0-0.5
								c0-2.4,0.5-4.8,1.4-7c0.9-2.2,2.2-4.1,3.9-5.8l0.2-0.2L97,153z"/>
						</g>
					</g>
					<g id="XMLID_6304_">
						<g id="XMLID_6305_">
							<path class="st11" d="M111.8,193.1c-3.3,0-6.5-0.6-9.5-1.9c-2.9-1.2-5.5-3-7.7-5.2c-2.2-2.2-4-4.8-5.2-7.7
								c-0.3-0.6-0.5-1.3-0.7-1.9c-0.2-0.5-0.1-1,0.1-1.5c0.2-0.5,0.7-0.8,1.2-1l4.8-1.4c1-0.3,2.1,0.3,2.4,1.3
								c0.1,0.4,0.3,0.7,0.4,1.1c0.8,1.8,1.9,3.5,3.3,4.9c2.1,2.1,4.8,3.6,7.8,4.2c2,0.4,4.2,0.4,6.2,0c3-0.7,5.7-2.1,7.8-4.2
								c1.3-1.3,2.3-2.7,3.1-4.4c0.5-1,1.6-1.4,2.6-1l4.5,1.9c0.5,0.2,0.9,0.6,1.1,1.1c0.2,0.5,0.2,1.1,0,1.6
								c-1.2,2.6-2.9,5-4.9,7.1c-2.2,2.2-4.8,4-7.7,5.2C118.3,192.5,115.1,193.1,111.8,193.1z M91.5,176.2c0.1,0.3,0.3,0.7,0.4,1
								c1.1,2.6,2.7,4.9,4.6,6.9c2,2,4.3,3.6,6.9,4.6c5.3,2.3,11.5,2.3,16.9,0c2.6-1.1,4.9-2.7,6.9-4.6c1.7-1.7,3-3.6,4.1-5.7
								l-3.3-1.4c-0.9,1.7-2,3.2-3.3,4.5c-2.5,2.5-5.6,4.2-9.1,4.9c-2.4,0.5-5,0.5-7.4,0c-3.5-0.8-6.6-2.4-9.1-4.9
								c-1.7-1.7-3-3.6-3.9-5.7c-0.1-0.2-0.2-0.4-0.3-0.6L91.5,176.2z"/>
						</g>
					</g>
					<g id="XMLID_6301_">
						<g id="XMLID_6303_">
							<path class="st11" d="M133.8,174.8c-0.1,0-0.3,0-0.4,0l-4.8-1c-1-0.2-1.7-1.2-1.5-2.3c0.1-0.9,0.2-1.7,0.2-2.6
								c0-2.1-0.4-4.1-1.2-6c-0.8-1.8-1.9-3.5-3.3-4.9c-1.4-1.4-3.1-2.5-4.9-3.3c-3.8-1.6-8.2-1.6-12,0l-0.8,0.3
								c-0.9,0.4-2,0.1-2.5-0.8l-2.5-4.2c-0.3-0.5-0.4-1-0.2-1.6c0.1-0.5,0.5-1,1-1.2c0.4-0.2,0.7-0.3,1.1-0.5l0.3-0.1
								c3-1.2,6.1-1.9,9.2-2l0.1,2.7c-2.7,0.1-5.5,0.7-8.2,1.8l-0.4,0.1c-0.1,0-0.1,0.1-0.2,0.1l1.9,3.1l0.3-0.1
								c4.5-1.9,9.6-1.9,14.1,0c2.2,0.9,4.1,2.2,5.8,3.9c1.7,1.7,3,3.6,3.9,5.7c0.9,2.2,1.4,4.6,1.4,7c0,0.8-0.1,1.6-0.2,2.4
								l3.5,0.7c0.2-1,0.2-2.1,0.2-3.2c0-2.9-0.6-5.8-1.7-8.4c-1.1-2.6-2.7-4.9-4.6-6.9c-2-2-4.3-3.5-6.9-4.6l1-2.4
								c2.9,1.2,5.5,3,7.7,5.2c2.2,2.2,4,4.8,5.2,7.7c1.3,3,1.9,6.2,1.9,9.5c0,1.5-0.1,2.9-0.4,4.3c-0.1,0.5-0.4,1-0.8,1.3
								C134.6,174.6,134.2,174.8,133.8,174.8z"/>
						</g>
						<g id="XMLID_6302_">
							<path class="st11" d="M118.3,148.1c-0.9-0.3-1.8-0.5-2.7-0.7l0.5-2.6c1,0.2,2,0.4,3,0.7L118.3,148.1z"/>
						</g>
					</g>
					<g id="XMLID_6300_">
						<rect x="101" y="168.1" class="st3" width="4.8" height="9.3"/>
					</g>
					<g id="XMLID_6299_">
						<rect x="109" y="164.5" class="st7" width="4.8" height="12.9"/>
					</g>
					<g id="XMLID_6298_">
						<rect x="117.1" y="159.1" class="st3" width="4.8" height="18.3"/>
					</g>
					<g id="XMLID_6297_">
						<path class="st11" d="M107,178.7h-7.4v-11.9h7.4V178.7z M102.3,176.1h2.1v-6.6h-2.1V176.1z"/>
					</g>
					<g id="XMLID_6296_">
						<path class="st11" d="M115.1,178.7h-7.4v-15.6h7.4V178.7z M110.3,176.1h2.1v-10.3h-2.1V176.1z"/>
					</g>
					<g id="XMLID_6295_">
						<path class="st11" d="M123.1,178.7h-7.4v-20.9h7.4V178.7z M118.4,176.1h2.1v-15.6h-2.1V176.1z"/>
					</g>
				</g>
			</g>
			<g id="XMLID_15861_">
				<rect id="XMLID_15862_" x="103.3" y="127.5" class="st4" width="17" height="3.6"/>
			</g>
			<g id="XMLID_15859_">
				<path class="st6" d="M213.2,218.4v-2.6c0-2.6-2.1-4.7-4.7-4.7l-7.2,0c-0.9-3.8-2.3-7.3-4.3-10.5l5.1-5.1c1.8-1.8,1.8-4.8,0-6.6
					l-3.8-3.8c-1.8-1.8-4.8-1.8-6.6,0l-5.1,5.1c-3.2-2-6.7-3.5-10.4-4.3v-7.3c0-2.6-2.1-4.7-4.7-4.7H166c-2.6,0-4.7,2.1-4.7,4.7v7.3
					c-3.7,0.8-7.2,2.3-10.3,4.2l-5.1-5.1c-1.8-1.8-4.8-1.9-6.6,0l-3.9,3.8c-1.8,1.8-1.9,4.8,0,6.6l5.1,5.2c-2,3.1-3.5,6.7-4.4,10.4
					l-7.2,0c-2.6,0-4.7,2.1-4.7,4.7l0,2.9h29.7c0-8.2,6.7-14.9,14.9-14.9c8.2,0,14.9,6.6,14.9,14.9H213.2z"/>
			</g>
			<g id="XMLID_15855_">
				<path id="XMLID_15856_" class="st4" d="M125.9,218.5l-3.6,0l0-2.9c0-1.7,0.7-3.4,1.9-4.6c1.2-1.2,2.9-1.9,4.6-1.9l5.8,0
					c0.8-2.9,2-5.7,3.5-8.4l-4.1-4.2c-1.2-1.2-1.9-2.9-1.9-4.6c0-1.7,0.7-3.3,1.9-4.6l3.9-3.8c2.4-2.4,6.7-2.4,9.2,0l4.1,4.2
					c2.6-1.5,5.4-2.6,8.2-3.4v-5.9c0-3.6,2.9-6.5,6.5-6.5h5.4c3.6,0,6.5,2.9,6.5,6.5v5.9c2.9,0.8,5.8,2,8.4,3.5l4.2-4.1
					c2.5-2.5,6.6-2.5,9.1,0l3.8,3.8c1.2,1.2,1.9,2.8,1.9,4.6c0,1.7-0.7,3.4-1.9,4.6l-4.1,4.1c1.5,2.6,2.7,5.5,3.5,8.4l5.9,0
					c3.5,0,6.4,2.9,6.4,6.5v2.6h-3.6v-2.6c0-1.6-1.3-2.9-2.9-2.9l-8.7,0l-0.3-1.4c-0.8-3.5-2.2-6.9-4.1-9.9l-0.8-1.2l6.1-6.1
					c0.6-0.6,0.9-1.3,0.9-2.1c0-0.8-0.3-1.5-0.8-2l-3.8-3.8c-1.1-1.1-3-1.1-4.1,0l-6.1,6.1l-1.2-0.8c-3-1.9-6.4-3.3-9.9-4.1
					l-1.4-0.3v-8.7c0-1.6-1.3-2.9-2.9-2.9H166c-1.6,0-2.9,1.3-2.9,2.9v8.7l-1.4,0.3c-3.4,0.8-6.7,2.1-9.7,4l-1.2,0.7l-6.1-6.2
					c-1.1-1.1-3-1.1-4.1,0l-3.9,3.8c-0.5,0.5-0.9,1.3-0.9,2c0,0.8,0.3,1.5,0.8,2.1l6.1,6.2l-0.8,1.2c-1.9,3-3.3,6.4-4.1,9.9
					l-0.3,1.4l-8.7,0c-0.8,0-1.5,0.3-2,0.8c-0.6,0.5-0.9,1.3-0.9,2.1L125.9,218.5z M185.3,218.4h-3.6c0-7.2-5.9-13.1-13.1-13.1
					c-7.2,0-13.1,5.9-13.1,13.1H152c0-9.2,7.5-16.6,16.7-16.6C177.9,201.8,185.3,209.3,185.3,218.4z"/>
			</g>
		</g>
		<g id="XMLID_15833_">
			<g id="XMLID_15852_">
				<rect id="XMLID_15853_" x="314.1" y="170.4" class="st4" width="3.6" height="12.3"/>
			</g>
			<g id="XMLID_15849_">
				<path class="st13" d="M315.8,112.5c-16.4,0-29.7,13.3-29.7,29.7c0,16.4,13.3,29.7,29.7,29.7c16.4,0,29.7-13.3,29.7-29.7
					C345.6,125.8,332.3,112.5,315.8,112.5z M315.8,164.8c-12.5,0-22.6-10.1-22.6-22.6c0-12.5,10.1-22.6,22.6-22.6
					c12.5,0,22.6,10.1,22.6,22.6S328.3,164.8,315.8,164.8z"/>
			</g>
			<g id="XMLID_15847_">
				<path id="XMLID_15848_" class="st4" d="M315.8,173.7c-8.4,0-16.3-3.3-22.3-9.2c-5.9-5.9-9.2-13.9-9.2-22.3
					c0-8.4,3.3-16.3,9.2-22.3c5.9-5.9,13.9-9.2,22.3-9.2c6.3,0,12.5,1.9,17.7,5.4l-2,2.9c-4.6-3.1-10.1-4.8-15.7-4.8
					c-7.5,0-14.5,2.9-19.7,8.2c-5.3,5.3-8.2,12.3-8.2,19.7c0,7.5,2.9,14.5,8.2,19.7c5.3,5.3,12.3,8.2,19.7,8.2
					c15.4,0,27.9-12.5,27.9-27.9h3.6C347.3,159.6,333.2,173.7,315.8,173.7z"/>
			</g>
			<g id="XMLID_15845_">
				<path id="XMLID_15846_" class="st4" d="M343.1,136c-1.1-4.8-3.5-9.3-6.9-12.9l2.6-2.5c3.9,4.1,6.6,9.1,7.8,14.6L343.1,136z"/>
			</g>
			<g id="XMLID_15843_">
				<path id="XMLID_15844_" class="st4" d="M335.2,143.7h-3.6c0-10.3-8.4-18.6-18.6-18.6v-3.6C325.2,121.5,335.2,131.5,335.2,143.7z
					"/>
			</g>
			<g id="XMLID_15842_">
				<path class="st6" d="M310,179.1l0,35.9c0,1.9,1.5,3.4,3.4,3.4l4.9,0c1.9,0,3.4-1.5,3.4-3.4v-35.9L310,179.1z"/>
			</g>
			<g id="XMLID_15838_">
				<path id="XMLID_15839_" class="st4" d="M318.3,220.2h-4.9c-2.9,0-5.2-2.3-5.2-5.2v-37.7l15.3,0V215
					C323.5,217.9,321.2,220.2,318.3,220.2z M311.8,180.9V215c0,0.9,0.7,1.6,1.6,1.6h4.9c0.9,0,1.6-0.7,1.6-1.6v-34.1L311.8,180.9z"
					/>
			</g>
			<g id="XMLID_15836_">
				<rect id="XMLID_15837_" x="309.7" y="185.8" class="st4" width="12.3" height="3.6"/>
			</g>
			<g id="XMLID_15834_">
				<rect id="XMLID_15835_" x="309.7" y="191.9" class="st4" width="12.3" height="3.6"/>
			</g>
		</g>
		<g id="XMLID_15831_" class="st8">
			<g id="XMLID_15832_">
				<path class="st4" d="M166.4,98c1,0.3,2.1,0,2.8-0.8c0.7-0.8,0.7-2,0.1-2.9l-13-20c2.9-6.6,3.8-13.8,3-20.7H133
					c-2.6,0-4.7,2.1-4.7,4.7v37.8h-1.8v1.4c6.1-1.1,12.1-3.6,17.3-7.5L166.4,98z"/>
			</g>
		</g>
		<g id="XMLID_12076_">
			<g id="XMLID_15830_">
				<path class="st3" d="M92.9,84.7C76.4,71.9,73.4,48,86.2,31.4c12.9-16.6,36.7-19.6,53.3-6.7c14.3,11.1,18.5,30.4,11.1,46.2
					l13.5,20.8c0.4,0.5-0.2,1.2-0.8,1l-23.4-8.3C126.5,95.1,107.1,95.7,92.9,84.7z"/>
			</g>
			<g id="XMLID_15828_">
				<path id="XMLID_15829_" class="st4" d="M116.3,94.6c-8.6,0-17.2-2.8-24.4-8.4C75.5,73.4,71.6,50,83.1,32.7l3,2
					c-10.4,15.7-6.9,37.1,8,48.6c13.3,10.3,31.7,10.2,44.8-0.3l0.8-0.6l21.3,7.5L148.6,71l0.4-0.9c7.1-15.2,2.7-33.7-10.6-44
					c-10-7.8-23.6-9.7-35.4-5.1l-1.3-3.3c13-5.1,27.9-2.9,38.9,5.6c14.3,11.1,19.3,30.9,12,47.4l13,20c0.6,0.9,0.5,2-0.1,2.9
					c-0.7,0.8-1.8,1.1-2.8,0.8l-22.5-7.9C133.2,91.8,124.7,94.6,116.3,94.6z"/>
			</g>
			<g id="XMLID_15826_">
				<path id="XMLID_15827_" class="st4" d="M89.1,30.8l-2.7-2.4c0.7-0.8,1.4-1.5,2.1-2.2c2.4-2.3,5.1-4.4,8-6.1l1.8,3.1
					c-2.6,1.5-5.1,3.4-7.3,5.5C90.3,29.5,89.7,30.1,89.1,30.8z"/>
			</g>
			<g id="XMLID_15825_">
				<path class="st5" d="M89.7,54.7c0,14.8,12,26.8,26.8,26.8c14.8,0,26.8-12,26.8-26.8S131.2,28,116.5,28
					C101.7,28,89.7,40,89.7,54.7z"/>
			</g>
			<g id="XMLID_15821_">
				<g id="XMLID_15822_">
					<path class="st3" d="M120.3,60.3h-6.4v-3.2c0-1.2,0.1-2,0.4-2.6c0.3-0.6,0.9-1.4,1.9-2.4l2.9-3c0.4-0.5,0.6-1.2,0.6-2
						c0-0.8-0.2-1.5-0.7-2c-0.5-0.5-1-0.8-1.8-0.8c-0.7,0-1.3,0.3-1.8,1c-0.5,0.6-0.8,1.5-0.9,2.5h-6.7c0.3-2.8,1.3-5,3.1-6.7
						c1.8-1.6,3.9-2.4,6.6-2.4c2.6,0,4.8,0.7,6.4,2.2c1.7,1.4,2.5,3.4,2.5,6c0,1.1-0.1,2-0.4,2.5c-0.3,0.6-0.5,0.9-0.6,1.2
						c-0.1,0.2-0.4,0.6-0.8,1.1c-0.4,0.5-0.7,0.8-0.8,0.9c-0.7,0.7-1.3,1.3-1.9,1.9c-0.6,0.6-1,1.1-1.2,1.5c-0.2,0.4-0.3,1-0.3,1.7
						V60.3z M114.5,68.4c-0.7-0.7-1.1-1.6-1.1-2.6s0.4-1.9,1.1-2.6c0.7-0.7,1.6-1.1,2.6-1.1c1,0,1.9,0.4,2.6,1.1
						c0.7,0.7,1.1,1.6,1.1,2.6s-0.4,1.9-1.1,2.6c-0.7,0.7-1.6,1.1-2.6,1.1C116.1,69.5,115.2,69.1,114.5,68.4z"/>
				</g>
			</g>
			<g id="XMLID_15019_">
				
					<rect id="XMLID_15817_" x="114.3" y="9.4" transform="matrix(4.753981e-02 -0.9989 0.9989 4.753981e-02 99.8419 127.1082)" class="st4" width="4.5" height="3.6"/>
			</g>
			<g id="XMLID_15017_">
				
					<rect id="XMLID_15018_" x="123.8" y="8.7" transform="matrix(0.2584 -0.966 0.966 0.2584 84.9634 131.7409)" class="st4" width="8.9" height="3.6"/>
			</g>
			<g id="XMLID_15015_">
				
					<rect id="XMLID_15016_" x="135.9" y="15.1" transform="matrix(0.4993 -0.8664 0.8664 0.4993 54.6078 128.2624)" class="st4" width="4.7" height="3.6"/>
			</g>
			<g id="XMLID_15013_">
				
					<rect id="XMLID_15014_" x="144.3" y="20.6" transform="matrix(0.7065 -0.7077 0.7077 0.7065 27.8628 111.8551)" class="st4" width="8.9" height="3.6"/>
			</g>
			<g id="XMLID_15011_">
				
					<rect id="XMLID_15012_" x="151.9" y="31" transform="matrix(0.8653 -0.5013 0.5013 0.8653 4.3391 81.7676)" class="st4" width="4.8" height="3.6"/>
			</g>
			<g id="XMLID_15009_">
				
					<rect id="XMLID_15010_" x="156.2" y="41" transform="matrix(0.9653 -0.261 0.261 0.9653 -5.6021 43.413)" class="st4" width="8.9" height="3.6"/>
			</g>
			<g id="XMLID_15007_">
				
					<rect id="XMLID_15008_" x="157.8" y="52.8" transform="matrix(1 -5.866566e-03 5.866566e-03 1 -0.3177 0.938)" class="st4" width="3.9" height="3.6"/>
			</g>
			<g id="XMLID_15005_">
				
					<rect id="XMLID_15006_" x="114.3" y="96.5" transform="matrix(4.753981e-02 -0.9989 0.9989 4.753981e-02 12.87 210.0392)" class="st4" width="4.5" height="3.6"/>
			</g>
			<g id="XMLID_15003_">
				
					<rect id="XMLID_15004_" x="100.4" y="97.2" transform="matrix(0.2532 -0.9674 0.9674 0.2532 -17.4639 175.3806)" class="st4" width="8.9" height="3.6"/>
			</g>
			<g id="XMLID_15001_">
				
					<rect id="XMLID_15002_" x="92.6" y="90.9" transform="matrix(0.4764 -0.8792 0.8792 0.4764 -31.7741 131.977)" class="st4" width="4.6" height="3.6"/>
			</g>
			<g id="XMLID_14999_">
				
					<rect id="XMLID_15000_" x="79.9" y="85.5" transform="matrix(0.7026 -0.7116 0.7116 0.7026 -37.0461 85.9693)" class="st4" width="8.9" height="3.6"/>
			</g>
			<g id="XMLID_14997_">
				
					<rect id="XMLID_14998_" x="76.9" y="74.9" transform="matrix(0.8626 -0.5059 0.5059 0.8626 -27.9486 50.5062)" class="st4" width="4.2" height="3.6"/>
			</g>
			<g id="XMLID_14995_">
				
					<rect id="XMLID_14996_" x="67.9" y="65.1" transform="matrix(0.9641 -0.2656 0.2656 0.9641 -15.169 21.6171)" class="st4" width="8.9" height="3.6"/>
			</g>
			<g id="XMLID_14993_">
				
					<rect id="XMLID_14994_" x="71.1" y="52.6" transform="matrix(9.504754e-02 -0.9955 0.9955 9.504754e-02 11.4053 122.2314)" class="st4" width="3.6" height="4.5"/>
			</g>
			<g id="XMLID_12085_">
				
					<rect id="XMLID_12087_" x="70.4" y="38.8" transform="matrix(0.251 -0.968 0.968 0.251 12.1875 102.2561)" class="st4" width="3.6" height="8.9"/>
			</g>
			<g id="XMLID_12083_">
				
					<rect id="XMLID_12084_" x="76.7" y="31" transform="matrix(0.4771 -0.8788 0.8788 0.4771 11.7835 86.3908)" class="st4" width="3.6" height="4.6"/>
			</g>
			<g id="XMLID_12081_">
				
					<rect id="XMLID_12082_" x="82" y="18.2" transform="matrix(0.7007 -0.7134 0.7134 0.7007 8.9093 66.5817)" class="st4" width="3.6" height="8.9"/>
			</g>
			<g id="XMLID_12079_">
				
					<rect id="XMLID_12080_" x="92.6" y="15" transform="matrix(0.8613 -0.508 0.508 0.8613 4.3235 50.3216)" class="st4" width="3.6" height="4.4"/>
			</g>
			<g id="XMLID_12077_">
				
					<rect id="XMLID_12078_" x="102.4" y="6.2" transform="matrix(0.9633 -0.2684 0.2684 0.9633 0.9624 28.3499)" class="st4" width="3.6" height="8.9"/>
			</g>
		</g>
		<g id="XMLID_12069_">
			<g id="XMLID_12074_">
				<rect id="XMLID_12075_" x="28.5" y="216.7" class="st4" width="6.5" height="3.6"/>
			</g>
			<g id="XMLID_12072_">
				<rect id="XMLID_12073_" x="432.6" y="216.7" class="st4" width="14.4" height="3.6"/>
			</g>
			<g id="XMLID_12070_">
				<rect id="XMLID_12071_" x="39.4" y="216.7" class="st4" width="389.5" height="3.6"/>
			</g>
		</g>
	</g>
	<g id="XMLID_15915_">
		<g id="XMLID_15941_">
			<path class="st14" d="M42.2,166.1h-4.9c-1,0-1.8-0.8-1.8-1.8v-9.5c0-1,0.8-1.8,1.8-1.8h4.9c1,0,1.8,0.8,1.8,1.8v9.5
				C44,165.3,43.2,166.1,42.2,166.1z"/>
		</g>
		<g id="XMLID_15937_">
			<path id="XMLID_15938_" class="st4" d="M42.2,167.5h-4.9c-1.7,0-3.1-1.4-3.1-3.1v-9.5c0-1.7,1.4-3.1,3.1-3.1h4.9
				c1.7,0,3.1,1.4,3.1,3.1v9.5C45.4,166.1,44,167.5,42.2,167.5z M37.3,154.4c-0.2,0-0.4,0.2-0.4,0.4v9.5c0,0.2,0.2,0.4,0.4,0.4h4.9
				c0.2,0,0.4-0.2,0.4-0.4v-9.5c0-0.2-0.2-0.4-0.4-0.4H37.3z"/>
		</g>
		<g id="XMLID_15936_">
			<path class="st3" d="M68.4,100.2c0-15.7-12.7-28.4-28.4-28.4c-15.7,0-28.4,12.7-28.4,28.4c0,10.5,5.7,19.7,14.3,24.6v28l4,7.6
				h19.5l4.8-7.6v-28C62.7,119.9,68.4,110.7,68.4,100.2z"/>
		</g>
		<g id="XMLID_15935_">
			<polygon class="st2" points="25.8,124.8 25.8,152.8 29.8,160.5 49.4,160.5 54.2,152.8 54.2,124.8 			"/>
		</g>
		<g id="XMLID_15934_">
			<polygon class="st14" points="54.2,152.8 49.4,160.5 29.8,160.5 25.8,152.8 			"/>
		</g>
		<g id="XMLID_15932_">
			<path id="XMLID_15933_" class="st4" d="M50.1,161.8H29l-4.6-8.6v-27.6c-8.8-5.4-14.3-15.1-14.3-25.4c0-7,2.5-13.8,7-19.2l2,1.7
				c-4.1,4.9-6.4,11.1-6.4,17.4c0,9.6,5.2,18.6,13.6,23.5l0.7,0.4v28.5l3.5,6.6h18l4.2-6.7V124l0.7-0.4c8.4-4.8,13.6-13.8,13.6-23.5
				c0-14.9-12.2-27.1-27.1-27.1c-3.5,0-6.9,0.7-10.2,2l-1-2.5c3.6-1.4,7.3-2.2,11.2-2.2c16.4,0,29.8,13.4,29.8,29.8
				c0,10.3-5.4,20-14.3,25.4v27.7L50.1,161.8z"/>
		</g>
		<g id="XMLID_15930_">
			<path id="XMLID_15931_" class="st4" d="M22,79.9L20.1,78c1.8-1.8,2.7-2.3,4.5-3.3l0.5-0.3l1.3,2.3L25.9,77
				C24.2,78,23.5,78.4,22,79.9z"/>
		</g>
		<g id="XMLID_15928_">
			<rect id="XMLID_15929_" x="21.5" y="132.2" class="st4" width="36.9" height="2.7"/>
		</g>
		<g id="XMLID_15926_">
			<rect id="XMLID_15927_" x="21.5" y="138.6" class="st4" width="36.9" height="2.7"/>
		</g>
		<g id="XMLID_15924_">
			<rect id="XMLID_15925_" x="21.5" y="145" class="st4" width="36.9" height="2.7"/>
		</g>
		<g id="XMLID_15922_">
			<rect id="XMLID_15923_" x="21.5" y="151.5" class="st4" width="36.9" height="2.7"/>
		</g>
		<g id="XMLID_15921_">
			<ellipse transform="matrix(0.9925 -0.1225 0.1225 0.9925 -11.8701 5.6217)" class="st5" cx="39.8" cy="99.3" rx="20" ry="20"/>
		</g>
		<g id="XMLID_15920_">
			<path class="st4" d="M46,94.9c0-3.3-2.7-6-6-6c-3.3,0-6,2.7-6,6c0,1.7,0.7,3.1,1.7,4.2L34,109.7h11.6l-1.7-10.3
				C45.1,98.4,46,96.8,46,94.9z"/>
		</g>
		<g id="XMLID_15916_">
			<path id="XMLID_15917_" class="st4" d="M47.2,111.1H32.4l1.9-11.5c-1.1-1.3-1.7-2.9-1.7-4.6c0-4,3.3-7.3,7.3-7.3
				c4,0,7.3,3.3,7.3,7.3c0,1.9-0.7,3.7-2,5L47.2,111.1z M35.5,108.4H44l-1.6-9.4l0.6-0.5c1-0.9,1.6-2.2,1.6-3.5
				c0-2.6-2.1-4.7-4.7-4.7c-2.6,0-4.7,2.1-4.7,4.7c0,1.2,0.5,2.4,1.4,3.3l0.5,0.5L35.5,108.4z"/>
		</g>
	</g>
	<g id="XMLID_6348_">
		<g id="XMLID_6350_">
			<path class="st3" d="M466.1,199.9c11.1-8.6,13.1-24.5,4.5-35.6s-24.5-13.1-35.6-4.5c-9.5,7.4-12.3,20.3-7.4,30.8l-9,13.9
				c-0.2,0.4,0.1,0.8,0.5,0.7l15.6-5.5C443.7,206.9,456.6,207.3,466.1,199.9z"/>
		</g>
		<g id="XMLID_6349_">
			<path class="st11" d="M450.5,206.4c-5.6,0-11.3-1.8-16-5.4l-15.1,5.3c-0.6,0.2-1.3,0-1.7-0.5c-0.4-0.5-0.4-1.3-0.1-1.8l8.7-13.4
				c-4.9-11-1.6-24.2,8-31.6c5.6-4.3,12.5-6.2,19.5-5.4c7,0.9,13.3,4.4,17.6,10c4.3,5.6,6.2,12.5,5.4,19.5c-0.9,7-4.4,13.3-10,17.6
				C461.9,204.5,456.2,206.4,450.5,206.4z M434.9,198.5l0.5,0.4c8.8,7,21.1,7.1,30,0.2l0,0c5.1-4,8.4-9.7,9.2-16.1
				c0.8-6.4-0.9-12.8-4.9-17.9c-4-5.1-9.7-8.4-16.1-9.2c-6.4-0.8-12.8,0.9-17.9,4.9c-8.9,6.9-11.9,19.3-7.1,29.4l0.3,0.6l-8.3,12.8
				L434.9,198.5z"/>
		</g>
		<g>
			
				<ellipse transform="matrix(0.9252 -0.3794 0.3794 0.9252 -34.5903 184.3413)" class="st6" cx="450.4" cy="179.9" rx="20.8" ry="20.8"/>
		</g>
		<g>
			<path class="st11" d="M450.4,183.9c-2.2,0-4-1.8-4-4c0-2.2,1.8-4,4-4c2.2,0,4,1.8,4,4C454.4,182.1,452.6,183.9,450.4,183.9z
				 M450.4,178.2c-1,0-1.8,0.8-1.8,1.8c0,1,0.8,1.8,1.8,1.8c1,0,1.8-0.8,1.8-1.8C452.1,178.9,451.4,178.2,450.4,178.2z"/>
		</g>
		<g>
			<path class="st11" d="M462.2,183.9c-2.2,0-4-1.8-4-4c0-2.2,1.8-4,4-4c2.2,0,4,1.8,4,4C466.2,182.1,464.4,183.9,462.2,183.9z
				 M462.2,178.2c-1,0-1.8,0.8-1.8,1.8c0,1,0.8,1.8,1.8,1.8c1,0,1.8-0.8,1.8-1.8C464,178.9,463.2,178.2,462.2,178.2z"/>
		</g>
		<g>
			<path class="st11" d="M438.5,183.9c-2.2,0-4-1.8-4-4c0-2.2,1.8-4,4-4c2.2,0,4,1.8,4,4C442.5,182.1,440.7,183.9,438.5,183.9z
				 M438.5,178.2c-1,0-1.8,0.8-1.8,1.8c0,1,0.8,1.8,1.8,1.8c1,0,1.8-0.8,1.8-1.8C440.3,178.9,439.5,178.2,438.5,178.2z"/>
		</g>
	</g>
	<g id="XMLID_5210_">
		<g id="XMLID_5212_">
			<path class="st3" d="M219,39.7c-6-4.6-7-13.2-2.4-19.2c4.6-6,13.2-7,19.2-2.4c5.1,4,6.6,10.9,4,16.6l4.9,7.5
				c0.1,0.2-0.1,0.4-0.3,0.4l-8.4-3C231.1,43.5,224.1,43.7,219,39.7z"/>
		</g>
		<g id="XMLID_5211_">
			<path class="st11" d="M218.6,40.2c-3-2.3-4.9-5.7-5.4-9.5c-0.5-3.8,0.5-7.5,2.9-10.5c2.3-3,5.7-4.9,9.5-5.4
				c3.8-0.5,7.5,0.5,10.5,2.9c5.1,4,6.9,11.1,4.3,17l4.7,7.2c0.2,0.3,0.2,0.7,0,1c-0.2,0.3-0.6,0.4-0.9,0.3l-8.1-2.9
				c-2.6,1.9-5.6,2.9-8.6,2.9C224.3,43.2,221.2,42.2,218.6,40.2z M243.5,41.7l-4.5-6.9l0.1-0.3c2.6-5.5,1-12.1-3.8-15.9
				c-2.8-2.1-6.2-3.1-9.6-2.6c-3.5,0.4-6.5,2.2-8.7,4.9c-2.1,2.8-3.1,6.2-2.6,9.6c0.4,3.5,2.2,6.5,4.9,8.7l0,0
				c4.8,3.7,11.4,3.7,16.1-0.1l0.3-0.2L243.5,41.7z"/>
		</g>
		<g>
			
				<ellipse transform="matrix(0.3794 -0.9252 0.9252 0.3794 114.3482 228.4151)" class="st7" cx="227.4" cy="29" rx="11.2" ry="11.2"/>
		</g>
		<g>
			<path class="st11" d="M225.3,29c0-1.2,1-2.1,2.1-2.1c1.2,0,2.1,1,2.1,2.1c0,1.2-1,2.1-2.1,2.1C226.3,31.1,225.3,30.2,225.3,29z
				 M226.5,29c0,0.5,0.4,1,1,1c0.5,0,1-0.4,1-1c0-0.5-0.4-1-1-1C226.9,28,226.5,28.4,226.5,29z"/>
		</g>
		<g>
			<path class="st11" d="M218.9,29c0-1.2,1-2.1,2.1-2.1c1.2,0,2.1,1,2.1,2.1c0,1.2-1,2.1-2.1,2.1C219.9,31.1,218.9,30.2,218.9,29z
				 M220.1,29c0,0.5,0.4,1,1,1c0.5,0,1-0.4,1-1c0-0.5-0.4-1-1-1C220.5,28,220.1,28.4,220.1,29z"/>
		</g>
		<g>
			<path class="st11" d="M231.7,29c0-1.2,1-2.1,2.1-2.1c1.2,0,2.1,1,2.1,2.1c0,1.2-1,2.1-2.1,2.1C232.6,31.1,231.7,30.2,231.7,29z
				 M232.9,29c0,0.5,0.4,1,1,1c0.5,0,1-0.4,1-1c0-0.5-0.4-1-1-1C233.3,28,232.9,28.4,232.9,29z"/>
		</g>
	</g>
	<g id="XMLID_6234_">
		<path class="st0" d="M453.6,26c-7.2,1.9-8.7,3.4-10.6,10.6c-1.9-7.2-3.4-8.7-10.6-10.6c7.2-1.9,8.7-3.4,10.6-10.6
			C444.9,22.6,446.4,24.1,453.6,26z"/>
	</g>
	<g id="XMLID_6345_">
		<path class="st0" d="M192,29.1c0,1.3-1.1,2.4-2.4,2.4c-1.3,0-2.4-1.1-2.4-2.4c0-1.3,1.1-2.4,2.4-2.4C190.9,26.7,192,27.8,192,29.1
			z"/>
	</g>
	<g id="XMLID_6347_">
		<path class="st0" d="M455,121.9c-4.4,1.2-5.3,2.1-6.4,6.4c-1.2-4.4-2.1-5.3-6.4-6.4c4.4-1.2,5.3-2.1,6.4-6.4
			C449.8,119.8,450.7,120.7,455,121.9z"/>
	</g>
</g>
</svg>
