<?xml version="1.0" encoding="utf-8"?>
<!-- Generator: Adobe Illustrator 22.1.0, SVG Export Plug-In . SVG Version: 6.00 Build 0)  -->
<svg version="1.1" id="apps_development" xmlns="http://www.w3.org/2000/svg" xmlns:xlink="http://www.w3.org/1999/xlink" x="0px"
	 y="0px" viewBox="0 0 500 500" style="enable-background:new 0 0 500 500;" xml:space="preserve">
<style type="text/css">
	.st0{fill:#F2F2F2;}
	.st1{fill:#B7BFC7;}
	.st2{fill:#FFFFFF;}
	.st3{fill:#2D333A;}
	.st4{fill:#00BFFF;}
	.st5{fill:#FFB13E;}
	.st6{fill:#6E4632;}
	.st7{fill:#B79C92;}
	.st8{fill:#FF5B40;}
	.st9{fill:#FFE19B;}
	.st10{fill:#191F26;}
	.st11{fill:#FFEBD7;}
	.st12{fill:#D1D3D4;}
	.st13{fill:#DCE4E8;}
</style>
<g>
	<g>
		<path class="st0" d="M439.1,388.4H296.8c-11.5,0-20.9-9.3-20.9-20.9v0c0-11.5,9.3-20.9,20.9-20.9h142.4c11.5,0,20.9,9.3,20.9,20.9
			v0C460,379,450.6,388.4,439.1,388.4z"/>
	</g>
	<g>
		<path class="st0" d="M294.6,154.2H148.2c-11.9,0-21.5-9.6-21.5-21.5v0c0-11.9,9.6-21.5,21.5-21.5h146.5c11.9,0,21.5,9.6,21.5,21.5
			v0C316.1,144.6,306.5,154.2,294.6,154.2z"/>
	</g>
	<g>
		<path class="st0" d="M359.4,333.3h76.8c11.6,0,21-9.4,21-21l0,0c0-11.6-9.4-21-21-21H411c-7,0-12.6-5.6-12.6-12.6l0,0
			c0-7,5.6-12.6,12.6-12.6h19c10.3,0,18.7-8.4,18.7-18.7v0c0-10.3-8.4-18.7-18.7-18.7h-60.6c-8.2,0-14.8-6.7-14.8-14.9l0,0
			c0-8.1,6.6-14.7,14.8-14.7h97.3c8.4,0,15.1-6.8,15.1-15.1v-2c0-8.4-6.8-15.1-15.1-15.1H39.5c-11.7,0-21.2,9.5-21.2,21.2v0
			c0,11.7,9.5,21.2,21.2,21.2H120c8.4,0,15.2,6.8,15.2,15.2l0,0c0,8.4-6.8,15.2-15.2,15.2H79.1c-10.6,0-19.2,8.6-19.2,19.2l0,0
			c0,10.6,8.6,19.2,19.2,19.2h161c6.8,0,12.4,5.5,12.4,12.4l0,0c0,6.8-5.5,12.4-12.4,12.4H102.2c-8.4,0-15.1,6.8-15.1,15.1l0,0
			c0,8.4,6.8,15.1,15.1,15.1H359.4z"/>
	</g>
	<g id="XMLID_472_">
		<path class="st1" d="M405.5,410.4c0,1.4-1.1,2.5-2.5,2.5c-1.4,0-2.5-1.1-2.5-2.5c0-1.4,1.1-2.5,2.5-2.5
			C404.3,407.9,405.5,409.1,405.5,410.4z"/>
	</g>
	<g id="XMLID_471_">
		<path class="st1" d="M47,232.9c0,1.2-1,2.2-2.2,2.2c-1.2,0-2.2-1-2.2-2.2c0-1.2,1-2.2,2.2-2.2C46,230.8,47,231.7,47,232.9z"/>
	</g>
	<g id="XMLID_469_">
		<path class="st1" d="M195.1,40.8c-4.7,1.3-5.8,2.3-7,7c-1.3-4.7-2.3-5.8-7-7c4.7-1.3,5.8-2.3,7-7
			C189.3,38.5,190.3,39.5,195.1,40.8z"/>
	</g>
	<g id="XMLID_468_">
		<path class="st1" d="M393.3,95.9c-3.9,1-4.8,1.9-5.8,5.8c-1-3.9-1.9-4.8-5.8-5.8c3.9-1,4.8-1.9,5.8-5.8
			C388.5,94,389.4,94.8,393.3,95.9z"/>
	</g>
	<g id="XMLID_466_">
		<path class="st1" d="M463.7,220.4c-6.5,1.7-7.9,3.1-9.6,9.6c-1.7-6.5-3.1-7.9-9.6-9.6c6.5-1.7,7.9-3.1,9.6-9.6
			C455.8,217.3,457.2,218.7,463.7,220.4z"/>
	</g>
	<g id="XMLID_459_">
		<path class="st1" d="M120.2,402.5c-4.9,1.3-6,2.4-7.3,7.3c-1.3-4.9-2.4-6-7.3-7.3c4.9-1.3,6-2.4,7.3-7.3
			C114.2,400.1,115.2,401.1,120.2,402.5z"/>
	</g>
	<g id="XMLID_458_">
		<path class="st1" d="M184.1,362.3c-2.8,0.8-3.5,1.4-4.2,4.2c-0.8-2.8-1.4-3.5-4.2-4.2c2.8-0.8,3.5-1.4,4.2-4.2
			C180.6,360.9,181.2,361.5,184.1,362.3z"/>
	</g>
	<g id="XMLID_438_">
		<g id="XMLID_440_">
			<path class="st2" d="M139.7,416.2c-11.9,9.2-14.1,26.4-4.8,38.3c9.2,11.9,26.4,14.1,38.3,4.8c10.3-8,13.3-21.9,8-33.2l9.7-14.9
				c0.3-0.4-0.1-0.9-0.6-0.7l-16.8,5.9C163.8,408.7,149.8,408.3,139.7,416.2z"/>
		</g>
		<g id="XMLID_439_">
			<path class="st3" d="M156.4,409.2c6.1,0,12.1,1.9,17.2,5.8l16.2-5.7c0.7-0.2,1.4,0,1.9,0.5c0.4,0.6,0.5,1.4,0.1,2l-9.4,14.4
				c5.2,11.8,1.7,26-8.6,34c-6,4.7-13.5,6.7-21,5.8c-7.5-0.9-14.3-4.8-18.9-10.8c-4.7-6-6.7-13.5-5.8-21c0.9-7.5,4.8-14.3,10.8-18.9
				C144.1,411.2,150.3,409.2,156.4,409.2z M173.2,417.8l-0.5-0.4c-9.4-7.5-22.7-7.6-32.3-0.2l0,0c-5.5,4.3-9,10.4-9.9,17.4
				c-0.9,6.9,1,13.8,5.3,19.3c4.3,5.5,10.4,9,17.4,9.9c6.9,0.9,13.8-1,19.3-5.3c9.6-7.4,12.8-20.8,7.6-31.7l-0.3-0.6l8.9-13.8
				L173.2,417.8z"/>
		</g>
		<g>
			
				<ellipse transform="matrix(0.9252 -0.3794 0.3794 0.9252 -154.3868 92.1346)" class="st4" cx="156.6" cy="437.7" rx="22.4" ry="22.4"/>
		</g>
		<g>
			<path class="st3" d="M156.6,433.4c2.4,0,4.3,1.9,4.3,4.3c0,2.4-1.9,4.3-4.3,4.3c-2.4,0-4.3-1.9-4.3-4.3
				C152.3,435.4,154.2,433.4,156.6,433.4z M156.6,439.7c1.1,0,1.9-0.9,1.9-1.9c0-1.1-0.9-1.9-1.9-1.9c-1.1,0-1.9,0.9-1.9,1.9
				C154.6,438.8,155.5,439.7,156.6,439.7z"/>
		</g>
		<g>
			<path class="st3" d="M143.8,433.4c2.4,0,4.3,1.9,4.3,4.3c0,2.4-1.9,4.3-4.3,4.3c-2.4,0-4.3-1.9-4.3-4.3
				C139.5,435.4,141.4,433.4,143.8,433.4z M143.8,439.7c1.1,0,1.9-0.9,1.9-1.9c0-1.1-0.9-1.9-1.9-1.9c-1.1,0-1.9,0.9-1.9,1.9
				C141.9,438.8,142.8,439.7,143.8,439.7z"/>
		</g>
		<g>
			<path class="st3" d="M169.3,433.4c2.4,0,4.3,1.9,4.3,4.3c0,2.4-1.9,4.3-4.3,4.3c-2.4,0-4.3-1.9-4.3-4.3
				C165,435.4,166.9,433.4,169.3,433.4z M169.3,439.7c1.1,0,1.9-0.9,1.9-1.9c0-1.1-0.9-1.9-1.9-1.9c-1.1,0-1.9,0.9-1.9,1.9
				C167.4,438.8,168.2,439.7,169.3,439.7z"/>
		</g>
	</g>
	<g>
		<g id="XMLID_4852_">
			<g id="XMLID_4853_">
				<g id="XMLID_4862_">
					<path class="st2" d="M236.5,177.9l40.2,10.8l51.4,89c2.3,4,0.9,9.2-3.1,11.5l-76.1,43.9c-4,2.3-9.2,0.9-11.5-3.1l-61.9-107.2
						c-2.3-4-0.9-9.2,3.1-11.5L236.5,177.9z"/>
				</g>
				<g id="XMLID_4861_">
					<polygon class="st4" points="251.2,203.4 236.5,177.9 276.7,188.7 					"/>
				</g>
				<g id="XMLID_4860_">
					<path class="st3" d="M277.7,190.4l-22.9,13.2c-2.4,1.4-5.5,0.6-6.8-1.8l-13.2-22.9l3.6-2.1l13.2,22.9c0.2,0.4,0.8,0.6,1.2,0.3
						l22.9-13.2L277.7,190.4z"/>
				</g>
				<g id="XMLID_4859_">
					
						<rect x="244.2" y="213.4" transform="matrix(0.866 -0.5 0.5 0.866 -73.0609 158.3311)" class="st3" width="29.3" height="4.1"/>
				</g>
				<g id="XMLID_4858_">
					
						<rect x="250.2" y="223.7" transform="matrix(0.866 -0.5 0.5 0.866 -77.3992 162.6694)" class="st3" width="29.3" height="4.1"/>
				</g>
				<g id="XMLID_4857_">
					<rect x="256.1" y="234" transform="matrix(0.866 -0.5 0.5 0.866 -81.7376 167.0078)" class="st3" width="29.3" height="4.1"/>
				</g>
				<g id="XMLID_4856_">
					
						<rect x="225.5" y="265.9" transform="matrix(0.866 -0.5 0.5 0.866 -98.7477 167.3514)" class="st3" width="74.9" height="4.1"/>
				</g>
				<g id="XMLID_4855_">
					
						<rect x="231.4" y="276.1" transform="matrix(0.866 -0.5 0.5 0.866 -103.0861 171.6898)" class="st3" width="74.9" height="4.1"/>
				</g>
				<g id="XMLID_4854_">
					<rect x="219.5" y="255.6" transform="matrix(0.866 -0.5 0.5 0.866 -94.4093 163.013)" class="st3" width="74.9" height="4.1"/>
				</g>
			</g>
		</g>
		<g id="XMLID_4851_">
			<g>
				<path class="st3" d="M326,290.9l-76.1,43.9c-5,2.9-11.4,1.2-14.3-3.8l-61.9-107.2c-2.9-5-1.2-11.4,3.8-14.3l58.6-33.8l41.8,11.2
					l51.8,89.7C332.7,281.6,331,288,326,290.9z M179.6,213.1c-3.1,1.8-4.1,5.7-2.3,8.7L239.1,329c1.8,3.1,5.7,4.1,8.7,2.3l76.1-43.9
					c3.1-1.8,4.1-5.7,2.3-8.7l-51-88.3l-38.6-10.3L179.6,213.1z"/>
			</g>
		</g>
		<g>
			<rect x="214" y="235.8" transform="matrix(0.866 -0.5 0.5 0.866 -91.94 148.1022)" class="st5" width="32.8" height="19.7"/>
			<g>
				<path class="st3" d="M255,247.4l-35.4,20.4l-13.9-24l35.4-20.4L255,247.4z M221.1,262.3l28.4-16.4l-9.8-17l-28.4,16.4
					L221.1,262.3z"/>
			</g>
			<g>
				
					<rect x="228.4" y="226.5" transform="matrix(1.675990e-02 -0.9999 0.9999 1.675990e-02 -19.0482 471.8571)" class="st3" width="4" height="38.3"/>
			</g>
			<g>
				
					<rect x="211.3" y="243.6" transform="matrix(0.4854 -0.8743 0.8743 0.4854 -96.1747 327.8369)" class="st3" width="38.3" height="4"/>
			</g>
		</g>
	</g>
	<g id="XMLID_804_">
		<g id="XMLID_1806_">
			<path id="XMLID_1807_" class="st6" d="M122.1,309.4l7.6-5.7v7.2c0,1.5-1.3,2.7-2.8,2.5l-4.8-0.4V309.4z"/>
		</g>
		<g id="XMLID_1802_">
			<path id="XMLID_1803_" class="st3" d="M126.7,314.7H123l-2.2-5.7l10.1-7.6v9.2C130.8,312.9,129,314.7,126.7,314.7z M124.5,312.5
				h2.2c1,0,1.9-0.8,1.9-1.9v-4.7l-5.1,3.9L124.5,312.5z"/>
		</g>
		<g id="XMLID_1800_">
			<path id="XMLID_1801_" class="st7" d="M99.4,318.9c0,1.1-0.9,1.9-1.9,1.9l0,0c-1.1,0-1.9-0.9-1.9-1.9V317c0-1.1,0.9-1.9,1.9-1.9
				l0,0c1.1,0,1.9,0.9,1.9,1.9V318.9z"/>
		</g>
		<g id="XMLID_1796_">
			<path id="XMLID_1797_" class="st3" d="M97.4,322c-1.7,0-3-1.4-3-3V317c0-1.7,1.4-3,3-3s3.1,1.4,3.1,3v1.9
				C100.5,320.6,99.1,322,97.4,322z M97.4,316.2c-0.5,0-0.8,0.4-0.8,0.8v1.9c0,0.4,0.4,0.8,0.8,0.8s0.8-0.4,0.8-0.8V317
				C98.2,316.6,97.9,316.2,97.4,316.2z"/>
		</g>
		<g id="XMLID_1794_">
			<path id="XMLID_1795_" class="st7" d="M129.7,318.9c0,1.1-0.9,1.9-1.9,1.9l0,0c-1.1,0-1.9-0.9-1.9-1.9V317c0-1.1,0.9-1.9,1.9-1.9
				l0,0c1.1,0,1.9,0.9,1.9,1.9V318.9z"/>
		</g>
		<g id="XMLID_1519_">
			<path id="XMLID_1791_" class="st3" d="M127.8,322c-1.7,0-3-1.4-3-3V317c0-1.7,1.4-3,3-3c1.7,0,3.1,1.4,3.1,3v1.9
				C130.8,320.6,129.5,322,127.8,322z M127.8,316.2c-0.4,0-0.8,0.4-0.8,0.8v1.9c0,0.4,0.4,0.8,0.8,0.8c0.5,0,0.8-0.4,0.8-0.8V317
				C128.6,316.6,128.2,316.2,127.8,316.2z"/>
		</g>
		<g id="XMLID_1517_">
			<path id="XMLID_1518_" class="st8" d="M132.7,357.2v-5.9c0-9.7-9.3-17.7-20.6-17.7l0,0c-11.4,0-20.6,8-20.6,17.7v5.9H132.7z"/>
		</g>
		<g id="XMLID_1515_">
			<path id="XMLID_1516_" class="st3" d="M92.6,357.2h-2.2v-5.9c0-1.5,0.2-3,0.6-4.5l2.1,0.6c-0.4,1.3-0.5,2.6-0.5,3.9V357.2z"/>
		</g>
		<g id="XMLID_1513_">
			<path id="XMLID_1514_" class="st3" d="M94.5,344.2l-1.9-1.1c1-1.8,2.4-3.5,4.1-5l1.5,1.7C96.6,341.1,95.4,342.6,94.5,344.2z"/>
		</g>
		<g id="XMLID_1511_">
			<path id="XMLID_1512_" class="st3" d="M133.8,357.2h-2.2v-5.9c0-9.1-8.8-16.6-19.5-16.6c-4,0-7.8,1-11.1,3l-1.1-1.9
				c3.6-2.2,7.9-3.3,12.3-3.3c12,0,21.8,8.4,21.8,18.8V357.2z"/>
		</g>
		<g id="XMLID_1510_">
			<path class="st7" d="M123.6,347.1l-8.8,2.8c-1.3,0.4-2.8,0.4-4.1,0l-8.8-2.8c-1.8-0.6-2.9-2.2-2.9-4v-33.2
				c0-5.6,4.5-10.1,10.1-10.1h7.4c5.6,0,10.1,4.5,10.1,10.1V343C126.5,344.9,125.4,346.5,123.6,347.1z"/>
		</g>
		<g id="XMLID_1509_">
			<path class="st6" d="M123.6,347.1l-8.8,2.8c-1.3,0.4-2.8,0.4-4.1,0l-8.8-2.8c-1.8-0.6-2.9-2.2-2.9-4v-15l0,0c1,0.5,2.1,0.5,3,0
				l6.1-2.8c1.1-0.1,2.2,0.2,2.9,1l1.7,1.7c0.1,0.1,0.1,0.1,0.2,0l1.7-1.7c0.8-0.7,1.8-1.1,2.9-1l5.8,2.7c1,0.5,2.3,0.5,3.3,0.1l0,0
				v15C126.5,344.9,125.4,346.5,123.6,347.1z"/>
		</g>
		<g id="XMLID_1507_">
			<path id="XMLID_1508_" class="st3" d="M100.4,329.5c-0.7,0-1.4-0.1-2-0.4l0.9-2c0.7,0.3,1.4,0.3,2.1,0l6.4-2.9
				c1.4-0.2,2.8,0.3,3.9,1.3l1,1l1.1-1c1-1,2.4-1.4,3.8-1.3l0.3,0.1l5.8,2.7c0.8,0.4,1.6,0.4,2.4,0l0.9,2.1
				c-1.4,0.6-2.9,0.6-4.2-0.1l-5.6-2.6c-0.7-0.1-1.3,0.2-1.8,0.7l-1.7,1.7c-0.5,0.5-1.3,0.5-1.8,0l-1.7-1.7
				c-0.5-0.5-1.2-0.7-1.8-0.7l-5.9,2.7C101.8,329.4,101.1,329.5,100.4,329.5z"/>
		</g>
		<g id="XMLID_1503_">
			<path id="XMLID_1504_" class="st3" d="M112.7,351.4c-0.8,0-1.6-0.1-2.4-0.4l-8.8-2.8c-2.2-0.7-3.7-2.8-3.7-5.1v-33.2
				c0-6.2,5-11.3,11.3-11.3h7.4c6.2,0,11.3,5,11.3,11.3V343c0,2.3-1.5,4.4-3.7,5.1l-8.8,2.8C114.3,351.3,113.5,351.4,112.7,351.4z
				 M109,300.9c-5,0-9,4-9,9V343c0,1.4,0.9,2.6,2.2,3l8.8,2.8c1.1,0.4,2.3,0.4,3.4,0l8.8-2.8c1.3-0.4,2.2-1.6,2.2-3v-33.2
				c0-5-4-9-9-9H109z"/>
		</g>
		<g id="XMLID_1501_">
			<path id="XMLID_1502_" class="st2" d="M109.2,331.2h7.3c0,2-1.6,3.6-3.6,3.6C110,334.8,109.2,331.2,109.2,331.2z"/>
		</g>
		<g id="XMLID_1497_">
			<path id="XMLID_1498_" class="st3" d="M112.8,335.9c-2.6,0-4.7-2.1-4.7-4.7V330h9.5v1.1C117.5,333.8,115.4,335.9,112.8,335.9z
				 M110.5,332.3c0.4,0.8,1.3,1.4,2.2,1.4s1.8-0.6,2.2-1.4H110.5z"/>
		</g>
		<g id="XMLID_850_">
			<path id="XMLID_1496_" class="st6" d="M98.9,314L98.9,314c0-3.5,1.6-6.8,4.4-8.9l4.1-3.1l16.8,4.8c3.6,1,7.6-0.1,9.7-3.2
				c2-3,2.2-7.8-5.2-14.9c0,0-0.1,0-0.1,0c0,1.1,1.1,8-3.9,7.1c0,0-10.6-1.8-18.3-1.9c-2.9-0.1-5.2,2.3-5.2,5.2v0.3h-2.9
				c-1.5,0-2.8,1.2-2.8,2.8v2.9v6.2c0.1,1.6,1.4,2.9,3,2.9H98.9z"/>
		</g>
		<g id="XMLID_846_">
			<path id="XMLID_847_" class="st3" d="M100,315.1h-1.5c-2.2,0-4-1.7-4.1-3.9l0-9.2c0-2.1,1.7-3.9,3.9-3.9h1.9
				c0.2-1.4,0.8-2.7,1.9-3.7c1.2-1.2,2.8-1.8,4.5-1.8c7.7,0.2,18.1,1.9,18.5,2c1.2,0.2,1.6-0.2,1.8-0.3c1.2-1,0.9-4.1,0.8-5.2
				c0-0.2,0-0.4,0-0.5l0-0.8l1.4-0.7l0.6,0.5c8.2,7.9,7.4,13.2,5.3,16.3c-2.3,3.4-6.8,4.9-10.9,3.7l-16.3-4.7l-3.7,2.8
				c-2.5,1.9-4,4.9-4,8.1V315.1z M98.3,300.3c-0.9,0-1.7,0.7-1.7,1.7v9.1c0,0.7,0.5,1.4,1.2,1.6c0.3-3.4,2.1-6.5,4.8-8.6l4.5-3.5
				l17.3,5c3.3,0.9,6.7-0.2,8.5-2.8c2.1-3.1,1-6.9-3.1-11.5c-0.1,1.6-0.4,3.5-1.7,4.6c-0.9,0.8-2.2,1.1-3.7,0.8
				c-0.1,0-10.6-1.8-18.2-1.9c-1.1-0.1-2.1,0.4-2.9,1.1c-0.8,0.8-1.2,1.8-1.2,2.9v1.4H98.3z"/>
		</g>
		<g id="XMLID_844_">
			
				<rect id="XMLID_845_" x="106.2" y="298.5" transform="matrix(0.3636 -0.9316 0.9316 0.3636 -212.6276 291.9211)" class="st3" width="2.2" height="6.1"/>
		</g>
		<g id="XMLID_842_">
			<polygon id="XMLID_843_" class="st3" points="115.1,323 109.4,323 109.4,320.7 112.9,320.7 112.9,311.1 115.1,311.1 			"/>
		</g>
		<g id="XMLID_840_">
			<rect id="XMLID_841_" x="103.7" y="311" class="st3" width="6.5" height="2.2"/>
		</g>
		<g id="XMLID_838_">
			<rect id="XMLID_839_" x="105.2" y="312.5" class="st3" width="2.8" height="2.2"/>
		</g>
		<g id="XMLID_836_">
			<rect id="XMLID_837_" x="117.1" y="314" class="st3" width="2.8" height="2.2"/>
		</g>
		<g id="XMLID_834_">
			<rect id="XMLID_835_" x="115.7" y="311" class="st3" width="6.5" height="2.2"/>
		</g>
	</g>
	<g>
		<g>
			<g>
				<path class="st3" d="M294,119.8c0.5-0.9,1.1-1.8,1.6-2.7l3.4,1.8c-0.5,1-1.1,2-1.7,2.9L294,119.8z"/>
			</g>
			<g>
				<path class="st3" d="M199.8,94.1c0-7.1,1.4-14,4.1-20.5c2.7-6.3,6.5-11.9,11.3-16.8c4.8-4.8,10.5-8.6,16.8-11.3
					c6.5-2.7,13.4-4.1,20.5-4.1c7.1,0,14,1.4,20.5,4.1c6.3,2.7,11.9,6.5,16.8,11.3c4.8,4.8,8.6,10.5,11.3,16.8
					c4.9,11.6,5.5,24.8,1.6,36.8c-0.5,1.4-1,2.9-1.6,4.3l-3.6-1.5c0.5-1.3,1-2.6,1.5-3.9c3.6-11.1,3.1-23.3-1.5-34
					c-2.5-5.8-6-11-10.5-15.5c-4.5-4.5-9.7-8-15.5-10.5c-6-2.5-12.4-3.8-19-3.8c-6.6,0-13,1.3-19,3.8c-5.8,2.5-11,6-15.5,10.5
					c-4.5,4.5-8,9.7-10.5,15.5c-5.1,12-5.1,26,0,38c2.5,5.8,6,11,10.5,15.5c4.5,4.5,9.7,8,15.5,10.5c6,2.5,12.4,3.8,19,3.8
					c6.6,0,13-1.3,19-3.8c3.3-1.4,6.4-3.2,9.4-5.2c0.8-0.5,1.5-1.1,2.2-1.7l2.5,3c-0.8,0.6-1.6,1.2-2.4,1.8
					c-3.2,2.3-6.6,4.2-10.1,5.7c-6.5,2.7-13.4,4.1-20.5,4.1c-7.1,0-14-1.4-20.5-4.1c-6.3-2.7-11.9-6.5-16.8-11.3
					c-4.8-4.8-8.6-10.5-11.3-16.8C201.2,108.1,199.8,101.2,199.8,94.1z"/>
			</g>
			<g>
				<path class="st3" d="M287,128.6c0.6-0.6,1.2-1.3,1.8-1.9c0.7-0.8,1.3-1.5,2-2.3l3.1,2.4c-0.7,0.9-1.4,1.7-2.1,2.5
					c-0.6,0.7-1.3,1.4-2,2.1L287,128.6z"/>
			</g>
		</g>
	</g>
	<g>
		<g>
			<g>
				<path class="st3" d="M226.8,447.7c0.9,0.5,1.8,1.1,2.7,1.6l-1.8,3.4c-1-0.5-2-1.1-2.9-1.7L226.8,447.7z"/>
			</g>
			<g>
				<path class="st3" d="M252.5,353.5c7.1,0,14,1.4,20.5,4.1c6.3,2.7,11.9,6.5,16.8,11.3c4.8,4.8,8.6,10.5,11.3,16.8
					c2.7,6.5,4.1,13.4,4.1,20.5c0,7.1-1.4,14-4.1,20.5c-2.7,6.3-6.5,11.9-11.3,16.8c-4.8,4.8-10.5,8.6-16.8,11.3
					c-11.6,4.9-24.8,5.5-36.8,1.6c-1.4-0.5-2.9-1-4.3-1.6l1.5-3.6c1.3,0.5,2.6,1,3.9,1.5c11.1,3.6,23.3,3.1,34-1.5
					c5.8-2.5,11-6,15.5-10.5c4.5-4.5,8-9.7,10.5-15.5c2.5-6,3.8-12.4,3.8-19s-1.3-13-3.8-19c-2.5-5.8-6-11-10.5-15.5
					c-4.5-4.5-9.7-8-15.5-10.5c-12-5.1-26-5.1-38,0c-5.8,2.5-11,6-15.5,10.5c-4.5,4.5-8,9.7-10.5,15.5c-2.5,6-3.8,12.4-3.8,19
					s1.3,13,3.8,19c1.4,3.3,3.2,6.4,5.2,9.4c0.5,0.8,1.1,1.5,1.7,2.2l-3,2.5c-0.6-0.8-1.2-1.6-1.8-2.4c-2.3-3.2-4.2-6.6-5.7-10.1
					c-2.7-6.5-4.1-13.4-4.1-20.5c0-7.1,1.4-14,4.1-20.5c2.7-6.3,6.5-11.9,11.3-16.8c4.8-4.8,10.5-8.6,16.8-11.3
					C238.5,354.9,245.4,353.5,252.5,353.5z"/>
			</g>
			<g>
				<path class="st3" d="M218,440.7c0.6,0.6,1.3,1.2,1.9,1.8c0.8,0.7,1.5,1.3,2.3,2l-2.4,3.1c-0.9-0.7-1.7-1.4-2.5-2.1
					c-0.7-0.6-1.4-1.3-2.1-2L218,440.7z"/>
			</g>
		</g>
	</g>
	<g id="XMLID_608_">
		<g id="XMLID_643_">
			<path id="XMLID_532_" class="st9" d="M271.7,399.7c0,1.1-0.9,2-2,2l0,0c-1.1,0-2-0.9-2-2v-1.9c0-1.1,0.9-2,2-2l0,0
				c1.1,0,2,0.9,2,2V399.7z"/>
		</g>
		<g id="XMLID_642_">
			<path id="XMLID_978_" class="st3" d="M269.7,402.8c-1.7,0-3.2-1.4-3.2-3.2v-1.9c0-1.7,1.4-3.2,3.2-3.2c1.7,0,3.2,1.4,3.2,3.2v1.9
				C272.9,401.4,271.4,402.8,269.7,402.8z M269.7,396.9c-0.5,0-0.8,0.4-0.8,0.8v1.9c0,0.5,0.4,0.8,0.8,0.8c0.5,0,0.8-0.4,0.8-0.8
				v-1.9C270.5,397.3,270.2,396.9,269.7,396.9z"/>
		</g>
		<g id="XMLID_648_">
			<path id="XMLID_530_" class="st9" d="M237.7,399.7c0,1.1-0.9,2-2,2l0,0c-1.1,0-2-0.9-2-2v-1.9c0-1.1,0.9-2,2-2l0,0
				c1.1,0,2,0.9,2,2V399.7z"/>
		</g>
		<g id="XMLID_607_">
			<path id="XMLID_975_" class="st3" d="M235.7,402.8c-1.7,0-3.2-1.4-3.2-3.2v-1.9c0-1.7,1.4-3.2,3.2-3.2c1.7,0,3.2,1.4,3.2,3.2v1.9
				C238.9,401.4,237.5,402.8,235.7,402.8z M235.7,396.9c-0.5,0-0.8,0.4-0.8,0.8v1.9c0,0.5,0.4,0.8,0.8,0.8c0.5,0,0.8-0.4,0.8-0.8
				v-1.9C236.6,397.3,236.2,396.9,235.7,396.9z"/>
		</g>
		<g id="XMLID_620_">
			<path id="XMLID_529_" class="st8" d="M273.9,441.2v-6.1c0-10.1-9.6-18.4-21.4-18.4l0,0c-11.8,0-21.4,8.3-21.4,18.4v6.1H273.9z"/>
		</g>
		<g id="XMLID_611_">
			<path id="XMLID_974_" class="st3" d="M232.2,441.2h-2.3v-6.1c0-1.6,0.2-3.1,0.7-4.7l2.2,0.6c-0.4,1.3-0.6,2.7-0.6,4V441.2z"/>
		</g>
		<g id="XMLID_610_">
			<path id="XMLID_973_" class="st3" d="M234.2,427.7l-2-1.1c1.1-1.9,2.5-3.6,4.2-5.1l1.5,1.7C236.4,424.5,235.2,426,234.2,427.7z"
				/>
		</g>
		<g id="XMLID_609_">
			<path id="XMLID_972_" class="st3" d="M275.1,441.2h-2.3v-6.1c0-9.5-9.1-17.2-20.3-17.2c-4.1,0-8.1,1.1-11.5,3.1l-1.2-2
				c3.8-2.2,8.2-3.4,12.7-3.4c12.4,0,22.6,8.8,22.6,19.5V441.2z"/>
		</g>
		<g id="XMLID_606_">
			<path class="st9" d="M252.2,425.2h-0.3c-2.2,0-4.1-1.8-4.1-4.1V412c0-2.2,1.8-4.1,4.1-4.1h0.3c2.2,0,4.1,1.8,4.1,4.1v9.2
				C256.3,423.4,254.4,425.2,252.2,425.2z"/>
		</g>
		<g id="XMLID_605_">
			<path id="XMLID_528_" class="st3" d="M252.2,426.4h-0.3c-2.9,0-5.2-2.3-5.2-5.2V412c0-2.9,2.3-5.2,5.2-5.2h0.3
				c2.9,0,5.2,2.3,5.2,5.2v9.2C257.4,424.1,255.1,426.4,252.2,426.4z M251.9,409.1c-1.6,0-2.9,1.3-2.9,2.9v9.2
				c0,1.6,1.3,2.9,2.9,2.9h0.3c1.6,0,2.9-1.3,2.9-2.9V412c0-1.6-1.3-2.9-2.9-2.9H251.9z"/>
		</g>
		<g id="XMLID_604_">
			<path id="XMLID_527_" class="st9" d="M252.4,417L252.4,417c-8.8,0-16-7.2-16-16v-10.8c0-8.8,7.2-14.4,16-14.4l0,0
				c8.8,0,16,5.6,16,14.4V401C268.4,409.8,261.2,417,252.4,417z"/>
		</g>
		<g id="XMLID_603_">
			<path id="XMLID_966_" class="st3" d="M252.4,418.1c-9.5,0-17.1-7.7-17.1-17.1v-10.8c0-9,7.2-15.5,17.1-15.5
				c9.9,0,17.1,6.5,17.1,15.5V401C269.5,410.4,261.9,418.1,252.4,418.1z M252.4,376.9c-8.6,0-14.8,5.6-14.8,13.2V401
				c0,8.2,6.7,14.8,14.8,14.8c8.2,0,14.8-6.7,14.8-14.8v-10.8C267.2,382.5,261,376.9,252.4,376.9z"/>
		</g>
		<g id="XMLID_595_">
			<polygon id="XMLID_965_" class="st3" points="254.8,405.1 249.9,405.1 249.9,397.1 252.2,397.1 252.2,402.8 254.8,402.8 			"/>
		</g>
		<g id="XMLID_594_">
			<polygon id="XMLID_964_" class="st3" points="255.9,411.7 246.4,411.7 246.4,409.4 254.9,409.4 257.2,407.1 258.9,408.8 			"/>
		</g>
		<g id="XMLID_597_">
			<path id="XMLID_526_" class="st10" d="M260.1,373.8c0,0-2.8,14.4,7.1,20.9c0.4,0.3,3,0,3,0S274.4,365.8,260.1,373.8z"/>
		</g>
		<g id="XMLID_592_">
			<path id="XMLID_525_" class="st3" d="M267.3,396.9c-0.4,0-0.6-0.1-0.8-0.3c-10.5-7.2-7.7-22.6-7.6-23.3l0.1-0.7l0.7-0.2
				c3.5-0.9,6.3-0.4,8.4,1.5c5.8,5.4,2.8,20.4,2.7,21l-0.1,0.5l-0.5,0.3C268.7,396.6,267.8,396.9,267.3,396.9z M261.1,374.5
				c-0.4,3-1.2,14.4,6.4,20c0.3-0.1,0.7-0.3,1.1-0.5c0.8-4.3,1.7-14.7-2.1-18.3C265.2,374.4,263.4,374.1,261.1,374.5z"/>
		</g>
		<g id="XMLID_598_">
			<path id="XMLID_524_" class="st10" d="M259.3,373.8c0,0,4.6,12.6-25.3,23.9l0.1-10.1c0-5.4,3-10.3,7.7-12.8l0,0
				c4.5-2.5,9.8-3.1,14.7-1.7L259.3,373.8z"/>
		</g>
		<g id="XMLID_520_">
			<path id="XMLID_521_" class="st3" d="M234,399l-1.1-0.7l0-0.7l0.1-10c0-5.8,3.2-11.1,8.3-13.8c4.8-2.6,10.3-3.3,15.6-1.8l3.4,0.9
				l0.2,0.6c0.2,0.6,4.6,13.7-25.9,25.3L234,399z M251.3,373.5c-3.1,0-6.2,0.8-8.9,2.3c-4.3,2.4-7,6.9-7.1,11.8l-0.1,8.4
				c23.2-9.2,23.5-18.9,23.2-21.2l-2.2-0.6C254.6,373.7,252.9,373.5,251.3,373.5z"/>
		</g>
		<g id="XMLID_600_">
			<path id="XMLID_519_" class="st3" d="M248.1,396.4c-1.3-1.3-3.4-1.3-4.7,0l-1.6-1.6c2.1-2.1,5.9-2.1,8,0L248.1,396.4z"/>
		</g>
		<g id="XMLID_599_">
			<path id="XMLID_956_" class="st3" d="M260.5,396.4c-1.3-1.3-3.4-1.3-4.7,0l-1.6-1.6c2.1-2.1,5.9-2.1,8,0L260.5,396.4z"/>
		</g>
		<g id="XMLID_602_">
			<rect id="XMLID_955_" x="241" y="431.2" class="st3" width="23.3" height="2.3"/>
		</g>
		<g id="XMLID_601_">
			<rect id="XMLID_954_" x="246.8" y="435.8" class="st3" width="11.7" height="2.3"/>
		</g>
	</g>
	<g>
		<g id="XMLID_2922_">
			<g id="XMLID_3198_">
				<path id="XMLID_3421_" class="st5" d="M134.2,185.7c-3.3-7.6-1.1-21.6-1.1-21.6c0-11-8.9-19.9-19.9-19.9l0,0
					c-11,0-19.9,8.9-19.9,19.9c0,0,2.7,13.8-1,21.5c-0.9,1.8,0.1,4,2.1,4.5l19.3,4.8l18.4-4.8C134,189.6,135,187.5,134.2,185.7z"/>
			</g>
			<g id="XMLID_3194_">
				<path id="XMLID_3195_" class="st3" d="M113.7,196.1l-19-4.7c-1.4-0.3-2.5-1.3-3.2-2.6c-0.6-1.3-0.7-2.8-0.1-4.1
					c3.2-7.4,0.7-20.3,0.7-20.4l0-0.2c0-11.6,9.5-21.1,21.1-21.1c11.6,0,21.1,9.4,21.1,21.1l0,0.2c0,0.1-2.1,13.7,1,20.9l0,0
					c0.5,1.2,0.5,2.5-0.1,3.7c-0.6,1.2-1.7,2.1-3,2.4L113.7,196.1z M94.4,164c0.3,1.4,2.4,13.9-0.9,21.6c-0.3,0.7-0.3,1.5,0.1,2.2
					c0.3,0.7,1,1.2,1.7,1.4l18.4,4.6l18-4.7c0.6-0.2,1.2-0.6,1.5-1.2c0.3-0.6,0.3-1.2,0-1.8l0,0c-3.3-7.6-1.4-20.7-1.2-22.1
					c0-10.3-8.5-18.7-18.8-18.7C102.8,145.3,94.4,153.7,94.4,164z"/>
			</g>
			<g id="XMLID_3192_">
				<path id="XMLID_3193_" class="st4" d="M132,213v-3c0-10.1-8.3-18.4-18.4-18.4l0,0c-10.1,0-18.4,8.3-18.4,18.4v3H132z"/>
			</g>
			<g id="XMLID_3190_">
				<path id="XMLID_3191_" class="st8" d="M132,213v-3c0-10.1-8.3-18.4-18.4-18.4l0,0c-10.1,0-18.4,8.3-18.4,18.4v3H132z"/>
			</g>
			<g id="XMLID_3188_">
				<path id="XMLID_3189_" class="st11" d="M124.3,195.1c-3-2.2-6.7-3.5-10.8-3.5c-4.4,0-8.4,1.5-11.5,4.1l0,0
					c0,3.1,2.5,5.7,5.7,5.7h10.9c3.1,0,5.7-2.5,5.7-5.7V195.1z"/>
			</g>
			<g id="XMLID_3184_">
				<path id="XMLID_3185_" class="st3" d="M118.6,202.5h-10.9c-3.8,0-6.8-3.1-6.8-6.8v-0.5l0.4-0.3c3.5-2.8,7.8-4.3,12.3-4.3
					c4.1,0,8.1,1.3,11.4,3.7l0.5,0.3v1.2C125.5,199.4,122.4,202.5,118.6,202.5z M103.2,196.2c0.3,2.3,2.2,4,4.5,4h10.9
					c2.5,0,4.5-2,4.6-4.5c-2.9-1.9-6.2-3-9.6-3C109.8,192.7,106.3,193.9,103.2,196.2z"/>
			</g>
			<g id="XMLID_3182_">
				<path id="XMLID_3183_" class="st3" d="M133.2,213h-2.3v-3c0-9.5-7.8-17.3-17.3-17.3c-4.1,0-8.1,1.5-11.3,4.2l-1.5-1.7
					c3.6-3.1,8.1-4.8,12.8-4.8c10.8,0,19.6,8.8,19.6,19.6V213z"/>
			</g>
			<g id="XMLID_3180_">
				<path id="XMLID_3181_" class="st3" d="M98.3,201.9l-2-1.1c0.6-1.1,1.3-2.1,2-3.1l1.8,1.4C99.4,200,98.8,201,98.3,201.9z"/>
			</g>
			<g id="XMLID_3178_">
				<path id="XMLID_3179_" class="st3" d="M96.3,213H94v-3c0-1.5,0.2-3,0.5-4.5l2.2,0.5c-0.3,1.3-0.5,2.6-0.5,4V213z"/>
			</g>
			<g id="XMLID_3176_">
				<path id="XMLID_3177_" class="st11" d="M113.3,182.5c-2.2,0-4,1.8-4,4v8.5h8v-8.5C117.3,184.3,115.5,182.5,113.3,182.5z"/>
			</g>
			<g id="XMLID_3174_">
				<path id="XMLID_3175_" class="st3" d="M118.4,195h-2.3v-8.5c0-1.6-1.3-2.9-2.9-2.9c-1.6,0-2.9,1.3-2.9,2.9v8.5h-2.3v-8.5
					c0-2.8,2.3-5.2,5.2-5.2c2.8,0,5.2,2.3,5.2,5.2V195z"/>
			</g>
			<g id="XMLID_3172_">
				<path id="XMLID_3173_" class="st11" d="M128.3,181.1l1.3-13.4c0.1-10.3-5.1-11.4-11.4-11.4h-10h-0.7c-5.3,0-9.6,4.3-9.6,9.6
					l1.3,15.3c0.1,1.5,1,2.8,2.4,3.5l10.3,5c0.9,0.4,1.9,0.5,2.8,0l11.2-5.1C127.2,183.9,128.2,182.6,128.3,181.1z"/>
			</g>
			<g id="XMLID_3168_">
				<path id="XMLID_3169_" class="st3" d="M113.3,191.1c-0.7,0-1.3-0.2-2-0.5l-10.3-5c-1.7-0.8-2.8-2.5-3-4.4l-1.3-15.3
					c0-6,4.8-10.8,10.7-10.8h10.7c3.6,0,7.2,0.3,9.6,2.8c2,2,3,5.2,2.9,9.8l-1.3,13.5c-0.2,1.9-1.4,3.6-3.1,4.4l-11.2,5.1
					C114.6,190.9,113.9,191.1,113.3,191.1z M107.5,157.4c-4.7,0-8.5,3.8-8.5,8.5l1.3,15.2c0.1,1.1,0.8,2,1.7,2.5l10.3,5
					c0.6,0.3,1.3,0.3,1.9,0l11.2-5.1c1-0.5,1.7-1.4,1.8-2.5l0,0l1.3-13.4c0-3.8-0.7-6.5-2.3-8c-1.8-1.8-4.5-2.1-8-2.1H107.5z"/>
			</g>
			<g id="XMLID_3166_">
				<path id="XMLID_3167_" class="st5" d="M99.9,154.3c0,0,16,12.8,30.4,7.5v-5.6l-10.9-6.9l-17.5,1.2L99.9,154.3z"/>
			</g>
			<g id="XMLID_3164_">
				<path id="XMLID_3165_" class="st5" d="M105.6,157.8c0,0-1.3,7-9.1,7l-0.8-3.4l3.1-7.8L105.6,157.8z"/>
			</g>
			<g id="XMLID_3162_">
				<path id="XMLID_3163_" class="st3" d="M96.5,166v-2.3c6.7,0,7.9-5.9,8-6.1l2.2,0.4C106.3,160.8,103.5,166,96.5,166z"/>
			</g>
			<g id="XMLID_2931_">
				<path id="XMLID_2932_" class="st3" d="M123.1,164c-12,0-22.8-8-23.3-8.4l1.4-1.8c0.2,0.1,15.7,11.7,29.4,6.7l0.8,2.1
					C128.6,163.6,125.8,164,123.1,164z"/>
			</g>
			<g id="XMLID_2929_">
				<polygon id="XMLID_2930_" class="st3" points="115.1,177.1 110.6,177.1 110.6,170.9 112.8,170.9 112.8,174.8 113.9,174.8 
					114.4,174.1 116.2,175.4 				"/>
			</g>
			<g id="XMLID_2927_">
				<rect id="XMLID_2928_" x="104.7" y="167.6" class="st3" width="4.6" height="2.3"/>
			</g>
			<g id="XMLID_2925_">
				<rect id="XMLID_2926_" x="117.3" y="167.6" class="st3" width="4.6" height="2.3"/>
			</g>
			<g id="XMLID_2923_">
				<path id="XMLID_2924_" class="st3" d="M116,183.6h-5c-1.2,0-2.4-0.4-3.4-1.2l-1.1-0.9l1.5-1.8l1.1,0.9c0.5,0.4,1.2,0.7,1.9,0.7
					h5c0.7,0,1.4-0.2,1.9-0.7l1.1-0.9l1.5,1.8l-1.1,0.9C118.4,183.2,117.2,183.6,116,183.6z"/>
			</g>
		</g>
		<g>
			<g>
				<g>
					<path class="st3" d="M71.8,152.3c-0.5,0.9-1.1,1.8-1.6,2.7l-3.4-1.8c0.5-1,1.1-2,1.7-2.9L71.8,152.3z"/>
				</g>
				<g>
					<path class="st3" d="M166,178c0,7.1-1.4,14-4.1,20.5c-2.7,6.3-6.5,11.9-11.3,16.8c-4.8,4.8-10.5,8.6-16.8,11.3
						c-6.5,2.7-13.4,4.1-20.5,4.1c-7.1,0-14-1.4-20.5-4.1c-6.3-2.7-11.9-6.5-16.8-11.3c-4.8-4.8-8.6-10.5-11.3-16.8
						c-4.9-11.6-5.5-24.8-1.6-36.8c0.5-1.4,1-2.9,1.6-4.3l3.6,1.5c-0.5,1.3-1,2.6-1.5,3.9c-3.6,11.1-3.1,23.3,1.5,34
						c2.5,5.8,6,11,10.5,15.5c4.5,4.5,9.7,8,15.5,10.5c6,2.5,12.4,3.8,19,3.8s13-1.3,19-3.8c5.8-2.5,11-6,15.5-10.5
						c4.5-4.5,8-9.7,10.5-15.5c5.1-12,5.1-26,0-38c-2.5-5.8-6-11-10.5-15.5c-4.5-4.5-9.7-8-15.5-10.5c-6-2.5-12.4-3.8-19-3.8
						s-13,1.3-19,3.8c-3.3,1.4-6.4,3.2-9.4,5.2c-0.8,0.5-1.5,1.1-2.2,1.7l-2.5-3c0.8-0.6,1.6-1.2,2.4-1.8c3.2-2.3,6.6-4.2,10.1-5.7
						c6.5-2.7,13.4-4.1,20.5-4.1c7.1,0,14,1.4,20.5,4.1c6.3,2.7,11.9,6.5,16.8,11.3c4.8,4.8,8.6,10.5,11.3,16.8
						C164.6,164,166,170.9,166,178z"/>
				</g>
				<g>
					<path class="st3" d="M78.8,143.5c-0.6,0.6-1.2,1.3-1.8,1.9c-0.7,0.8-1.3,1.5-2,2.3l-3.1-2.4c0.7-0.9,1.4-1.7,2.1-2.5
						c0.6-0.7,1.3-1.4,2-2.1L78.8,143.5z"/>
				</g>
			</g>
		</g>
	</g>
	<g>
		<g id="XMLID_245_">
			<g id="XMLID_913_">
				<path id="XMLID_914_" class="st8" d="M417.5,167.3c0-1.4-0.7-2.5-1.7-3.2c1.1-0.7,1.7-1.9,1.7-3.2c0-2.1-1.7-3.9-3.9-3.9
					c-0.4,0-0.8,0.1-1.1,0.2c0.2-0.4,0.3-0.9,0.3-1.4c0-2.1-1.7-3.9-3.9-3.9c-0.3,0-0.5,0-0.8,0.1c0,0,0-0.1,0-0.1
					c0-2.1-1.7-3.9-3.9-3.9c-0.7,0-1.3,0.2-1.9,0.5c-0.5-1.5-1.9-2.6-3.6-2.6c-0.7,0-1.4,0.2-2,0.6c-0.6-1.4-2-2.3-3.5-2.3
					c-1.6,0-3,1-3.6,2.4c-0.6-0.4-1.4-0.7-2.2-0.7c-1.6,0-2.9,0.9-3.5,2.3c-0.7-0.5-1.5-0.9-2.4-0.9c-2.1,0-3.9,1.7-3.9,3.9
					c0,0.1,0,0.2,0,0.3c-0.4-0.2-0.9-0.3-1.3-0.3c-2.1,0-3.9,1.7-3.9,3.9c0,0.2,0,0.5,0.1,0.7c-0.1,0-0.1,0-0.2,0
					c-2.1,0-3.9,1.7-3.9,3.9c0,1,0.4,1.9,1,2.6c-1.7,0.4-3.1,1.9-3.1,3.8c0,1.4,0.8,2.7,1.9,3.3c-1.4,0.6-2.4,2-2.4,3.6
					c0,1.3,0.6,2.4,1.6,3.1c-1,0.7-1.6,1.8-1.6,3.1c0,2.1,1.7,3.9,3.9,3.9c0.1,0,0.2,0,0.3,0c-0.2,0.5-0.3,1-0.3,1.5
					c0,2.1,1.7,3.9,3.9,3.9c0.1,0,0.2,0,0.3,0c-0.1,0.3-0.2,0.7-0.2,1c0,2.1,1.7,3.9,3.9,3.9c0,0,0,0,0.1,0c0,0.2-0.1,0.4-0.1,0.7
					c0,2.1,1.7,3.9,3.9,3.9c2.1,0,3.8-1.7,3.9-3.8c2.1,0.6,4.2,0.9,6.5,0.9c2.4,0,4.7-0.4,6.9-1c0.6,1.3,1.9,2.2,3.5,2.2
					c2.1,0,3.9-1.7,3.9-3.9c2,0,3.7-1.6,3.8-3.6c0.2,0,0.4,0.1,0.6,0.1c2.1,0,3.9-1.7,3.9-3.9c0-0.8-0.3-1.6-0.7-2.2
					c1.3-0.6,2.2-1.9,2.2-3.5c0-1-0.4-1.9-1-2.6c1.5-0.5,2.6-1.9,2.6-3.6c0-1.1-0.5-2.1-1.2-2.8C417,169.4,417.5,168.4,417.5,167.3z
					"/>
			</g>
			<g id="XMLID_909_">
				<path id="XMLID_910_" class="st3" d="M381.5,198.8c-2.6,0-4.8-2.1-5-4.7c-2.2-0.5-3.9-2.5-3.9-4.8c-2.3-0.5-4-2.5-4-4.9
					c0-0.2,0-0.3,0-0.5c-2.2-0.5-3.9-2.5-3.9-4.9c0-1.1,0.4-2.2,1.1-3.1c-0.7-0.9-1.1-2-1.1-3.1c0-1.5,0.6-2.8,1.7-3.7
					c-0.8-0.9-1.2-2-1.2-3.2c0-1.8,1-3.4,2.5-4.3c-0.3-0.6-0.4-1.3-0.4-2c0-2.4,1.7-4.4,4-4.9c0.2-2.7,2.5-4.8,5.3-4.6
					c0.5-2.2,2.5-3.9,4.9-3.9c0.7,0,1.4,0.2,2.1,0.5c1.3-1.6,3.6-2.3,5.6-1.6c0.9-1.3,2.4-2.1,4-2.1c1.6,0,3.1,0.8,4,2
					c2.1-0.7,4.5,0.2,5.7,2c0.4-0.1,0.9-0.2,1.4-0.2c2.4,0,4.3,1.7,4.9,3.9c2.6,0.1,4.8,2.3,4.8,5c0,0,0,0.1,0,0.1
					c2.6,0.1,4.7,2.3,4.7,5c0,1.2-0.4,2.3-1.2,3.2c0.8,0.9,1.2,2,1.2,3.2c0,1-0.3,2-0.8,2.8c0.6,0.8,0.8,1.8,0.8,2.8
					c0,1.6-0.8,3.2-2.1,4.1c0.3,0.7,0.5,1.4,0.5,2.2c0,1.5-0.7,2.9-1.9,3.9c0.2,0.6,0.4,1.2,0.4,1.8c0,2.6-2.1,4.8-4.6,5
					c-0.5,1.7-2,3-3.7,3.4c-0.5,2.3-2.5,4-4.9,4c-1.6,0-3.1-0.8-4-2c-3.9,1-8,1.1-12,0.2C385.6,197.3,383.7,198.8,381.5,198.8z
					 M375.4,187.1l-0.4,1.5c-0.1,0.3-0.1,0.5-0.1,0.7c0,1.5,1.2,2.7,2.7,2.7h1.3l-0.2,1.3c0,0.2-0.1,0.3-0.1,0.5
					c0,1.5,1.2,2.7,2.7,2.7c1.5,0,2.7-1.2,2.7-2.7l0-1.5l1.4,0.4c4.3,1.2,8.7,1.2,12.7-0.1l0.9-0.3l0.4,0.9c0.5,1,1.4,1.6,2.5,1.6
					c1.5,0,2.7-1.2,2.7-2.7V191h1.1c1.4,0,2.6-1.1,2.7-2.5l0.1-1.2l1.2,0.2c0.2,0,0.3,0,0.4,0c1.5,0,2.7-1.2,2.7-2.7
					c0-0.6-0.2-1.1-0.5-1.6l-0.8-1.1l1.2-0.6c1-0.5,1.6-1.4,1.6-2.5c0-0.7-0.3-1.3-0.7-1.8l-1.2-1.3l1.6-0.5
					c1.1-0.4,1.9-1.4,1.9-2.6c0-0.7-0.3-1.4-0.8-2l-0.8-0.8l0.8-0.8c0.5-0.5,0.8-1.2,0.8-2c0-0.9-0.5-1.8-1.2-2.3l-1.4-0.9l1.4-0.9
					c0.8-0.5,1.2-1.4,1.2-2.3c0-1.5-1.2-2.7-2.7-2.7c-0.2,0-0.5,0-0.8,0.1l-2.2,0.7l0.9-2.2c0.1-0.3,0.2-0.7,0.2-1
					c0-1.7-1.6-3-3.3-2.7l-1.3,0.3l0-1.6c0-1.4-1.2-2.6-2.8-2.6c-0.5,0-0.9,0.1-1.4,0.4l-1.2,0.7l-0.4-1.3c-0.5-1.6-2.5-2.4-4-1.5
					l-1.1,0.7l-0.5-1.2c-0.4-1-1.4-1.7-2.5-1.7c-1.1,0-2.1,0.7-2.5,1.7l-0.5,1.3l-1.2-0.8c-0.5-0.3-1-0.5-1.5-0.5
					c-1.1,0-2,0.6-2.5,1.6l-0.6,1.3l-1.1-0.9c-0.4-0.3-0.9-0.6-1.7-0.6c-1.5,0-2.7,1.2-2.7,2.7l0,0.2l0.1,1.7l-1.6-0.6
					c-2-0.7-3.7,0.7-3.7,2.6c0,0.2,0,0.3,0.1,0.5l0.2,1.4l-1.6-0.1l0,0c-1.5,0-2.7,1.2-2.7,2.7c0,0.7,0.3,1.3,0.7,1.8l1.3,1.4
					l-1.9,0.4c-1.3,0.3-2.2,1.4-2.2,2.7c0,1,0.5,1.9,1.4,2.4l2,1.1l-2.1,0.9c-1,0.4-1.7,1.4-1.7,2.5c0,0.9,0.4,1.7,1.1,2.2l1.2,0.9
					l-1.2,0.9c-0.7,0.5-1.1,1.3-1.1,2.2c0,1.5,1.2,2.7,2.7,2.7l2.1-0.2l-0.7,1.7c-0.1,0.3-0.2,0.7-0.2,1.1c0,1.5,1.2,2.7,2.7,2.7
					l0.2,0L375.4,187.1z"/>
			</g>
			<g id="XMLID_907_">
				<path id="XMLID_908_" class="st4" d="M409.8,213v-2.9c0-9.9-8.1-18.1-18.1-18.1l0,0c-9.9,0-18.1,8.1-18.1,18.1v2.9H409.8z"/>
			</g>
			<g id="XMLID_905_">
				<path id="XMLID_906_" class="st5" d="M409.8,213v-2.9c0-9.9-8.1-18.1-18.1-18.1l0,0c-9.9,0-18.1,8.1-18.1,18.1v2.9H409.8z"/>
			</g>
			<g id="XMLID_903_">
				<path id="XMLID_904_" class="st7" d="M402.2,195.5c-3-2.1-6.6-3.4-10.5-3.4c-4.3,0-8.2,1.5-11.3,4l0,0c0,3.1,2.5,5.6,5.6,5.6
					h10.7c3.1,0,5.6-2.5,5.6-5.6V195.5z"/>
			</g>
			<g id="XMLID_899_">
				<path id="XMLID_900_" class="st3" d="M396.7,202.7H386c-3.7,0-6.7-3-6.7-6.7v-0.5l0.4-0.3c3.4-2.7,7.7-4.3,12-4.3
					c4,0,7.9,1.3,11.2,3.6l0.5,0.3v1.1C403.4,199.7,400.4,202.7,396.7,202.7z M381.6,196.6c0.3,2.2,2.1,3.9,4.4,3.9h10.7
					c2.5,0,4.4-2,4.5-4.4c-2.8-1.9-6-2.9-9.4-2.9C388,193.2,384.5,194.3,381.6,196.6z"/>
			</g>
			<g id="XMLID_897_">
				<path id="XMLID_898_" class="st3" d="M410.9,213h-2.2v-2.9c0-9.3-7.6-16.9-16.9-16.9c-4,0-8,1.5-11,4.1l-1.5-1.7
					c3.5-3,7.9-4.7,12.5-4.7c10.6,0,19.2,8.6,19.2,19.2V213z"/>
			</g>
			<g id="XMLID_895_">
				<path id="XMLID_896_" class="st3" d="M376.8,202.1l-2-1.1c0.6-1.1,1.2-2.1,2-3l1.7,1.4C377.9,200.3,377.3,201.2,376.8,202.1z"/>
			</g>
			<g id="XMLID_893_">
				<path id="XMLID_894_" class="st3" d="M374.8,213h-2.2v-2.9c0-1.5,0.2-3,0.5-4.4l2.2,0.5c-0.3,1.3-0.4,2.6-0.4,3.9V213z"/>
			</g>
			<g id="XMLID_891_">
				<path id="XMLID_892_" class="st7" d="M391.4,183.2c-2.2,0-3.9,1.8-3.9,3.9v8.3h7.9v-8.3C395.3,184.9,393.6,183.2,391.4,183.2z"
					/>
			</g>
			<g id="XMLID_889_">
				<path id="XMLID_890_" class="st3" d="M396.4,195.4h-2.2v-8.3c0-1.6-1.3-2.8-2.8-2.8c-1.6,0-2.8,1.3-2.8,2.8v8.3h-2.2v-8.3
					c0-2.8,2.3-5.1,5.1-5.1c2.8,0,5.1,2.3,5.1,5.1V195.4z"/>
			</g>
			<g id="XMLID_887_">
				<path id="XMLID_888_" class="st7" d="M406.1,183l1.3-13.8c0.1-10.6-5-11.7-11.2-11.7h-9.8h-0.7c-5.2,0-9.4,4.4-9.4,9.9l1.3,15.7
					c0.1,1.5,1,2.9,2.3,3.5l10.1,5.2c0.9,0.4,1.9,0.5,2.8,0l10.9-5.2C405.1,185.9,406,184.5,406.1,183z"/>
			</g>
			<g id="XMLID_883_">
				<path id="XMLID_884_" class="st3" d="M391.4,193c-0.7,0-1.3-0.1-1.9-0.4l-10.1-4.9c-1.7-0.8-2.8-2.5-2.9-4.3l-1.3-16.5
					c0-5.9,4.7-10.6,10.5-10.6h10.5c3.5,0,7,0.3,9.4,2.8c2,2,2.9,5.1,2.9,9.5l-1.3,14.7c-0.2,1.9-1.4,3.5-3.1,4.3l-10.9,5
					C392.7,192.9,392.1,193,391.4,193z M385.7,158.6c-4.6,0-8.3,3.7-8.3,8.3l1.3,16.4c0.1,1,0.7,2,1.7,2.5l10.1,4.9
					c0.6,0.3,1.2,0.3,1.8,0l10.9-5c1-0.5,1.7-1.4,1.8-2.5l1.3-14.6c0-3.7-0.7-6.3-2.2-7.9c-1.7-1.7-4.4-2.1-7.8-2.1H385.7z"/>
			</g>
			<g id="XMLID_714_">
				<path id="XMLID_729_" class="st3" d="M394.1,185.8h-4.9c-1.2,0-2.4-0.4-3.3-1.2l-1.1-0.9l1.4-1.7l1.1,0.9
					c0.5,0.4,1.2,0.7,1.9,0.7h4.9c0.7,0,1.3-0.2,1.9-0.7l1.1-0.9l1.4,1.7l-1.1,0.9C396.4,185.3,395.3,185.8,394.1,185.8z"/>
			</g>
			<g id="XMLID_694_">
				<path id="XMLID_713_" class="st8" d="M405,158.2c-1,0-1.9,0.4-2.6,1c-0.7-0.6-1.6-1-2.6-1c-1,0-2,0.4-2.7,1.1
					c-0.7-0.7-1.6-1.1-2.7-1.1c-1.4,0-2.7,0.8-3.4,2c-0.6-0.4-1.3-0.6-2.1-0.6c-0.9,0-1.7,0.3-2.4,0.8c-0.4-1.7-1.9-2.9-3.7-2.9
					c-1.2,0-2.3,0.6-3,1.5c-0.6-0.5-1.4-0.8-2.3-0.8c-2.1,0-3.9,1.7-3.9,3.9c0,2.1,1.7,3.9,3.9,3.9c1.2,0,2.3-0.6,3-1.5
					c0.6,0.5,1.4,0.8,2.3,0.8c0.9,0,1.7-0.3,2.4-0.8c0.4,1.7,1.9,2.9,3.7,2.9c1.4,0,2.7-0.8,3.4-2c0.6,0.4,1.3,0.6,2.1,0.6
					c1,0,2-0.4,2.7-1.1c0.7,0.7,1.6,1.1,2.7,1.1c1,0,1.9-0.4,2.6-1c0.7,0.6,1.6,1,2.6,1c2.1,0,3.9-1.7,3.9-3.9
					C408.9,159.9,407.2,158.2,405,158.2z"/>
			</g>
			<g id="XMLID_692_">
				<path id="XMLID_693_" class="st3" d="M389.1,168.4c-1.8,0-3.4-1-4.3-2.5c-1.2,0.5-2.7,0.5-3.9-0.1c-0.9,0.8-2,1.2-3.2,1.2
					c-2.7,0-5-2.2-5-5h2.2c0,1.5,1.2,2.7,2.7,2.7c0.8,0,1.6-0.4,2.2-1.1l0.7-0.9l0.9,0.6c0.5,0.4,1,0.5,1.6,0.5
					c0.8,0,1.3-0.3,1.7-0.6l1.4-1.1l0.4,1.7c0.3,1.2,1.4,2.1,2.7,2.1c1,0,1.9-0.5,2.4-1.4l0.6-1l1,0.6c1.1,0.7,2.5,0.5,3.4-0.3
					l0.8-0.7l0.8,0.7c1,1,2.7,1,3.7,0l0.8-0.7l0.8,0.7c0.5,0.5,1.2,0.7,1.8,0.7c1.5,0,2.7-1.2,2.7-2.7h2.2c0,2.7-2.2,5-5,5
					c-0.9,0-1.8-0.3-2.6-0.7c-1.6,1-3.7,1-5.3,0c-1.3,0.8-2.9,1-4.4,0.5C391.8,167.8,390.5,168.4,389.1,168.4z"/>
			</g>
			<g id="XMLID_680_">
				<ellipse id="XMLID_691_" class="st8" cx="394.1" cy="157.4" rx="15.9" ry="3.9"/>
			</g>
			<g id="XMLID_678_">
				<path id="XMLID_679_" class="st3" d="M379.2,164.7c-0.9-0.9-1.5-2.2-1.5-3.5c0-1.3,0.5-2.6,1.5-3.5c0.9-0.9,2.2-1.5,3.5-1.5v2.2
					c-0.7,0-1.4,0.3-1.9,0.8c-0.5,0.5-0.8,1.2-0.8,1.9c0,0.7,0.3,1.4,0.8,1.9L379.2,164.7z"/>
			</g>
			<g id="XMLID_671_">
				<path id="XMLID_677_" class="st3" d="M391.2,158.6c-0.9-0.9-1.5-2.2-1.5-3.5c0-1.3,0.5-2.6,1.5-3.5c0.9-0.9,2.2-1.5,3.5-1.5v2.2
					c-0.7,0-1.4,0.3-1.9,0.8c-0.5,0.5-0.8,1.2-0.8,1.9c0,0.7,0.3,1.4,0.8,1.9L391.2,158.6z"/>
			</g>
			<g id="XMLID_669_">
				<path id="XMLID_670_" class="st3" d="M387.5,171.8c-1-1-2.8-1-3.9,0l-1.6-1.6c1.9-1.9,5.2-1.9,7,0L387.5,171.8z"/>
			</g>
			<g id="XMLID_664_">
				<path id="XMLID_667_" class="st3" d="M400.9,171.8c-1-1-2.8-1-3.9,0l-1.6-1.6c1.9-1.9,5.2-1.9,7,0L400.9,171.8z"/>
			</g>
			<g id="XMLID_662_">
				<path id="XMLID_663_" class="st3" d="M373.5,176.2l-1.6-1.6c0.5-0.5,0.8-1.2,0.8-1.9c0-0.7-0.3-1.4-0.8-1.9c-1-1-2.8-1-3.9,0
					l-1.6-1.6c1.9-1.9,5.2-1.9,7,0c0.9,0.9,1.5,2.2,1.5,3.5C374.9,174,374.4,175.3,373.5,176.2z"/>
			</g>
			<g id="XMLID_660_">
				<path id="XMLID_661_" class="st3" d="M404.6,159.7c-1-0.9-1.6-2.1-1.6-3.4c-0.1-1.3,0.4-2.6,1.3-3.6c0.9-1,2.1-1.6,3.4-1.6
					l0.1,2.2c-0.7,0-1.4,0.4-1.9,0.9c-0.5,0.5-0.7,1.2-0.7,2c0,0.7,0.4,1.4,0.9,1.9L404.6,159.7z"/>
			</g>
			<g id="XMLID_658_">
				<path id="XMLID_659_" class="st3" d="M409.7,189.4c-1-0.9-1.6-2.1-1.6-3.4c-0.1-1.3,0.4-2.6,1.3-3.6l1.7,1.5
					c-0.5,0.5-0.7,1.2-0.7,2c0,0.7,0.4,1.4,0.9,1.9L409.7,189.4z"/>
			</g>
			<g id="XMLID_386_">
				<path id="XMLID_387_" class="st3" d="M378.4,157.5l-1.6-1.6c0.5-0.5,0.8-1.2,0.8-1.9c0-0.7-0.3-1.4-0.8-1.9l1.6-1.6
					c0.9,0.9,1.5,2.2,1.5,3.5C379.8,155.3,379.3,156.6,378.4,157.5z"/>
			</g>
			<g id="XMLID_376_">
				<path id="XMLID_384_" class="st3" d="M378.4,193.9l-1.6-1.6c0.5-0.5,0.8-1.2,0.8-1.9c0-0.7-0.3-1.4-0.8-1.9l1.6-1.6
					c0.9,0.9,1.5,2.2,1.5,3.5C379.8,191.8,379.3,193,378.4,193.9z"/>
			</g>
			<g id="XMLID_252_">
				<path id="XMLID_253_" class="st3" d="M412.6,173.5l-2.1-0.7c0.4-1.3,1.3-2.3,2.5-2.9c1.2-0.6,2.5-0.7,3.8-0.2l-0.7,2.1
					c-0.7-0.2-1.4-0.2-2.1,0.1C413.3,172.2,412.9,172.8,412.6,173.5z"/>
			</g>
			<g id="XMLID_249_">
				<path id="XMLID_251_" class="st3" d="M393.5,165.3l-1.6-1.6c0.5-0.5,0.8-1.2,0.8-1.9h2.2C395,163.1,394.5,164.4,393.5,165.3z"/>
			</g>
			<g id="XMLID_246_">
				<polygon id="XMLID_247_" class="st3" points="394.6,179.9 389.1,179.9 389.1,174.7 391.3,174.7 391.3,177.7 392.4,177.7 
					392.4,177.5 394.6,177.5 				"/>
			</g>
		</g>
		<g>
			<g>
				<g>
					<path class="st3" d="M417.5,136.6c-0.9-0.5-1.8-1.1-2.7-1.6l1.8-3.4c1,0.5,2,1.1,2.9,1.7L417.5,136.6z"/>
				</g>
				<g>
					<path class="st3" d="M391.7,230.7c-7.1,0-14-1.4-20.5-4.1c-6.3-2.7-11.9-6.5-16.8-11.3c-4.8-4.8-8.6-10.5-11.3-16.8
						c-2.7-6.5-4.1-13.4-4.1-20.5c0-7.1,1.4-14,4.1-20.5c2.7-6.3,6.5-11.9,11.3-16.8c4.8-4.8,10.5-8.6,16.8-11.3
						c11.6-4.9,24.8-5.5,36.8-1.6c1.4,0.5,2.9,1,4.3,1.6l-1.5,3.6c-1.3-0.5-2.6-1-3.9-1.5c-11.1-3.6-23.3-3.1-34,1.5
						c-5.8,2.5-11,6-15.5,10.5c-4.5,4.5-8,9.7-10.5,15.5c-2.5,6-3.8,12.4-3.8,19c0,6.6,1.3,13,3.8,19c2.5,5.8,6,11,10.5,15.5
						c4.5,4.5,9.7,8,15.5,10.5c12,5.1,26,5.1,38,0c5.8-2.5,11-6,15.5-10.5c4.5-4.5,8-9.7,10.5-15.5c2.5-6,3.8-12.4,3.8-19
						c0-6.6-1.3-13-3.8-19c-1.4-3.3-3.2-6.4-5.2-9.4c-0.5-0.8-1.1-1.5-1.7-2.2l3-2.5c0.6,0.8,1.2,1.6,1.8,2.4
						c2.3,3.2,4.2,6.6,5.7,10.1c2.7,6.5,4.1,13.4,4.1,20.5c0,7.1-1.4,14-4.1,20.5c-2.7,6.3-6.5,11.9-11.3,16.8
						c-4.8,4.8-10.5,8.6-16.8,11.3C405.7,229.3,398.8,230.7,391.7,230.7z"/>
				</g>
				<g>
					<path class="st3" d="M426.2,143.5c-0.6-0.6-1.3-1.2-1.9-1.8c-0.8-0.7-1.5-1.3-2.3-2l2.4-3.1c0.9,0.7,1.7,1.4,2.5,2.1
						c0.7,0.6,1.4,1.3,2.1,2L426.2,143.5z"/>
				</g>
			</g>
		</g>
	</g>
	<g id="XMLID_1206_">
		<g id="XMLID_1298_">
			<path id="XMLID_1299_" class="st5" d="M269.5,77v2.8c0,1.7-1.4,3.1-3.1,3.1h-3L269.5,77z"/>
		</g>
		<g id="XMLID_1296_">
			<path id="XMLID_1297_" class="st3" d="M266.4,84h-3v-2.2h3c1.1,0,2-0.9,2-2V77h2.2v2.8C270.6,82.1,268.7,84,266.4,84z"/>
		</g>
		<g id="XMLID_1294_">
			<path id="XMLID_1295_" class="st11" d="M269.5,87.9c0,1.1-0.9,2-2,2l0,0c-1.1,0-2-0.9-2-2V86c0-1.1,0.9-2,2-2l0,0
				c1.1,0,2,0.9,2,2V87.9z"/>
		</g>
		<g id="XMLID_1290_">
			<path id="XMLID_1291_" class="st3" d="M267.5,91c-1.7,0-3.1-1.4-3.1-3.1V86c0-1.7,1.4-3.1,3.1-3.1c1.7,0,3.1,1.4,3.1,3.1v1.9
				C270.6,89.6,269.2,91,267.5,91z M267.5,85.2c-0.5,0-0.9,0.4-0.9,0.9v1.9c0,0.5,0.4,0.9,0.9,0.9c0.5,0,0.9-0.4,0.9-0.9V86
				C268.4,85.5,268,85.2,267.5,85.2z"/>
		</g>
		<g id="XMLID_1288_">
			<path id="XMLID_1289_" class="st11" d="M238.2,87.9c0,1.1-0.9,2-2,2l0,0c-1.1,0-2-0.9-2-2V86c0-1.1,0.9-2,2-2l0,0
				c1.1,0,2,0.9,2,2V87.9z"/>
		</g>
		<g id="XMLID_1284_">
			<path id="XMLID_1285_" class="st3" d="M236.2,91c-1.7,0-3.1-1.4-3.1-3.1V86c0-1.7,1.4-3.1,3.1-3.1s3.1,1.4,3.1,3.1v1.9
				C239.3,89.6,237.9,91,236.2,91z M236.2,85.2c-0.5,0-0.9,0.4-0.9,0.9v1.9c0,0.5,0.4,0.9,0.9,0.9c0.5,0,0.9-0.4,0.9-0.9V86
				C237,85.5,236.7,85.2,236.2,85.2z"/>
		</g>
		<g id="XMLID_1282_">
			<path id="XMLID_1283_" class="st2" d="M273.3,128.9V123c0-9.8-9.4-17.8-20.8-17.8l0,0c-11.4,0-20.8,8-20.8,17.8v5.9H273.3z"/>
		</g>
		<g id="XMLID_1280_">
			<path id="XMLID_1281_" class="st3" d="M232.8,128.9h-2.2V123c0-1.5,0.2-3,0.6-4.5l2.2,0.6c-0.4,1.3-0.5,2.6-0.5,3.9V128.9z"/>
		</g>
		<g id="XMLID_1275_">
			<path id="XMLID_1276_" class="st3" d="M234.8,115.8l-2-1.1c1-1.8,2.4-3.5,4.1-5l1.5,1.7C236.9,112.7,235.7,114.2,234.8,115.8z"/>
		</g>
		<g id="XMLID_1270_">
			<path id="XMLID_1273_" class="st3" d="M274.4,128.9h-2.2V123c0-9.2-8.8-16.7-19.7-16.7c-4,0-7.9,1-11.2,3l-1.1-1.9
				c3.7-2.2,7.9-3.3,12.3-3.3c12.1,0,21.9,8.5,21.9,19V128.9z"/>
		</g>
		<g id="XMLID_1269_">
			<polygon class="st11" points="256.2,105.6 252.1,107.8 248,105.6 248,96.6 248,96.6 256.2,96.6 			"/>
		</g>
		<g id="XMLID_1261_">
			<path id="XMLID_1264_" class="st3" d="M251.8,109.1l-5-2.8V95.5h10.4v10.8L251.8,109.1z M249.1,104.9l2.8,1.6l3.1-1.6v-7.2h-5.9
				V104.9z"/>
		</g>
		<g id="XMLID_1260_">
			<path class="st11" d="M260.5,103.2h-16.7c-3.4,0-6.1-2.7-6.1-6.1V78.6c0-8,6.5-14.5,14.5-14.5h0c8,0,14.5,6.5,14.5,14.5v18.5
				C266.6,100.5,263.8,103.2,260.5,103.2z"/>
		</g>
		<g id="XMLID_1256_">
			<path id="XMLID_1257_" class="st3" d="M260.5,104.3h-16.7c-4,0-7.2-3.2-7.2-7.2V78.6c0-8.6,7-15.6,15.6-15.6s15.6,7,15.6,15.6
				v18.5C267.7,101.1,264.5,104.3,260.5,104.3z M252.1,65.3c-7.4,0-13.3,6-13.3,13.3v18.5c0,2.8,2.2,5,5,5h16.7c2.8,0,5-2.2,5-5
				V78.6C265.4,71.2,259.5,65.3,252.1,65.3z"/>
		</g>
		<g id="XMLID_1254_">
			<path id="XMLID_1255_" class="st5" d="M246.5,69.8L246.5,69.8L246.5,69.8c0,3.4,2.3,6.5,5.7,7.3c5.6,1.4,14.3,2.5,20.5-1.8
				l-4.9-7.9c-2.8-4.5-7.7-7.2-12.9-7.2h-11.6c-2.6,0-4.9,1.4-6.1,3.6l-2.6,4.8c-0.5,0.9-0.8,2-0.8,3v7c0,2.2,1.7,4,3.9,4.2l0,0
				v-6.5c0-1.8,1.5-3.3,3.3-3.3h2.3C245,73.1,246.5,71.6,246.5,69.8L246.5,69.8L246.5,69.8z"/>
		</g>
		<g id="XMLID_1250_">
			<path id="XMLID_1251_" class="st3" d="M238.8,84.1l-1.2-0.1c-2.8-0.2-4.9-2.5-4.9-5.3v-7c0-1.2,0.3-2.5,0.9-3.6l2.6-4.8
				c1.4-2.6,4.1-4.2,7.1-4.2h11.6c5.6,0,10.9,3,13.9,7.8l5.4,8.8l-0.9,0.6c-6.4,4.4-15.2,3.5-21.4,1.9c-2.7-0.7-4.8-2.6-5.8-5
				c-0.8,0.7-1.8,1-2.8,1H241c-1.2,0-2.2,1-2.2,2.2V84.1z M243.3,61.3c-2.1,0-4.1,1.2-5.1,3.1l-2.6,4.8c-0.4,0.8-0.6,1.6-0.6,2.5v7
				c0,1.2,0.6,2.2,1.6,2.7v-5c0-2.4,2-4.4,4.4-4.4h2.3c0.6,0,1.1-0.2,1.5-0.6c0.4-0.4,0.6-0.9,0.6-1.5c0,0,0,0,0,0l2.2,0
				c0,0,0,0,0,0c0,3,2,5.5,4.8,6.2c5.5,1.3,13,2.2,18.7-1l-4.3-7c-2.5-4.1-7.1-6.7-12-6.7H243.3z"/>
		</g>
		<g id="XMLID_1248_">
			<rect id="XMLID_1249_" x="245.4" y="67" class="st3" width="2.2" height="3.6"/>
		</g>
		<g id="XMLID_1246_">
			
				<rect id="XMLID_1247_" x="241.8" y="81.3" transform="matrix(0.9659 -0.2591 0.2591 0.9659 -12.9922 66.295)" class="st3" width="6.5" height="2.3"/>
		</g>
		<g id="XMLID_1244_">
			
				<rect id="XMLID_1245_" x="257.4" y="79.2" transform="matrix(0.2588 -0.9659 0.9659 0.2588 111.9903 310.8342)" class="st3" width="2.3" height="6.5"/>
		</g>
		<g id="XMLID_1242_">
			<rect id="XMLID_1243_" x="244.3" y="84.6" class="st3" width="2.6" height="2.2"/>
		</g>
		<g id="XMLID_1240_">
			<rect id="XMLID_1241_" x="256.3" y="84.6" class="st3" width="2.6" height="2.2"/>
		</g>
		<g id="XMLID_1238_">
			<polygon id="XMLID_1239_" class="st3" points="256.3,94.3 248.6,94.3 248.6,81.6 250.8,81.6 250.8,92 256.3,92 			"/>
		</g>
		<g id="XMLID_1236_">
			<polygon id="XMLID_1237_" class="st3" points="257.3,98.8 245.6,98.8 245.6,96.6 256.7,96.6 259.6,94.6 260.9,96.5 			"/>
		</g>
		<g id="XMLID_1234_">
			<path id="XMLID_1235_" class="st12" d="M252.1,107.8l-5.6,6.7c-0.2,0.3-0.7,0.2-0.8-0.2l-1.4-7.1l3.7-1.6L252.1,107.8z"/>
		</g>
		<g id="XMLID_1233_">
			<path class="st12" d="M253.3,107.8l5.6,6.7c0.2,0.3,0.7,0.2,0.8-0.2l1.4-7.1l-3.7-1.6L253.3,107.8z"/>
		</g>
		<g id="XMLID_1230_">
			<polygon id="XMLID_1232_" class="st8" points="252,107.8 247.1,113.7 258.3,113.6 			"/>
		</g>
		<g id="XMLID_1226_">
			<path id="XMLID_1227_" class="st3" d="M246.2,115.7c-0.1,0-0.3,0-0.4,0c-0.6-0.1-1-0.6-1.1-1.2l-1.6-8l5.1-2.1l5.8,3.1l-6.5,7.7
				C247,115.5,246.6,115.7,246.2,115.7z M245.6,107.8l1,4.8l3.8-4.5l-2.4-1.3L245.6,107.8z"/>
		</g>
		<g id="XMLID_1222_">
			<path id="XMLID_1223_" class="st3" d="M259.2,115.7c-0.4,0-0.9-0.2-1.2-0.5l-6.5-7.7l5.8-3.1l5.1,2.1l-1.6,8
				c-0.1,0.6-0.6,1-1.1,1.2C259.5,115.7,259.4,115.7,259.2,115.7z M255,108.1l3.8,4.5l1-4.8l-2.4-1L255,108.1z"/>
		</g>
		<g id="XMLID_1217_">
			<polygon id="XMLID_1218_" class="st8" points="250.6,113.7 254.6,113.7 256.6,128.9 248.8,128.9 			"/>
		</g>
		<g id="XMLID_1211_">
			
				<rect id="XMLID_1216_" x="241.9" y="120.2" transform="matrix(0.1328 -0.9911 0.9911 0.1328 96.219 352.55)" class="st3" width="15.4" height="2.2"/>
		</g>
		<g id="XMLID_1209_">
			
				<rect id="XMLID_1210_" x="254.5" y="113.6" transform="matrix(0.9912 -0.1325 0.1325 0.9912 -13.819 34.9397)" class="st3" width="2.2" height="15.4"/>
		</g>
		<g id="XMLID_1207_">
			
				<rect id="XMLID_1208_" x="247.1" y="112.5" transform="matrix(1 -3.266649e-03 3.266649e-03 1 -0.3699 0.826)" class="st3" width="11.2" height="2.2"/>
		</g>
	</g>
	<g>
		<g>
			<g>
				<path class="st3" d="M139,280.8c-0.9-0.5-1.8-1.1-2.7-1.6l1.8-3.4c1,0.5,2,1.1,2.9,1.7L139,280.8z"/>
			</g>
			<g>
				<path class="st3" d="M113.3,374.9c-7.1,0-14-1.4-20.5-4.1c-6.3-2.7-11.9-6.5-16.8-11.3c-4.8-4.8-8.6-10.5-11.3-16.8
					c-2.7-6.5-4.1-13.4-4.1-20.5c0-7.1,1.4-14,4.1-20.5c2.7-6.3,6.5-11.9,11.3-16.8c4.8-4.8,10.5-8.6,16.8-11.3
					c11.6-4.9,24.8-5.5,36.8-1.6c1.4,0.5,2.9,1,4.3,1.6l-1.5,3.6c-1.3-0.5-2.6-1-3.9-1.5c-11.1-3.6-23.3-3.1-34,1.5
					c-5.8,2.5-11,6-15.5,10.5c-4.5,4.5-8,9.7-10.5,15.5c-2.5,6-3.8,12.4-3.8,19s1.3,13,3.8,19c2.5,5.8,6,11,10.5,15.5
					c4.5,4.5,9.7,8,15.5,10.5c12,5.1,26,5.1,38,0c5.8-2.5,11-6,15.5-10.5c4.5-4.5,8-9.7,10.5-15.5c2.5-6,3.8-12.4,3.8-19
					s-1.3-13-3.8-19c-1.4-3.3-3.2-6.4-5.2-9.4c-0.5-0.8-1.1-1.5-1.7-2.2l3-2.5c0.6,0.8,1.2,1.6,1.8,2.4c2.3,3.2,4.2,6.6,5.7,10.1
					c2.7,6.5,4.1,13.4,4.1,20.5c0,7.1-1.4,14-4.1,20.5c-2.7,6.3-6.5,11.9-11.3,16.8c-4.8,4.8-10.5,8.6-16.8,11.3
					C127.3,373.6,120.4,374.9,113.3,374.9z"/>
			</g>
			<g>
				<path class="st3" d="M147.8,287.7c-0.6-0.6-1.3-1.2-1.9-1.8c-0.8-0.7-1.5-1.3-2.3-2l2.4-3.1c0.9,0.7,1.7,1.4,2.5,2.1
					c0.7,0.6,1.4,1.3,2.1,2L147.8,287.7z"/>
			</g>
		</g>
	</g>
	<g>
		<g id="XMLID_1808_">
			<g id="XMLID_2255_">
				<path id="XMLID_2256_" class="st11" d="M410.5,311.8c0,1.2-1,2.1-2.1,2.1l0,0c-1.2,0-2.1-1-2.1-2.1v-2.1c0-1.2,1-2.1,2.1-2.1
					l0,0c1.2,0,2.1,1,2.1,2.1V311.8z"/>
			</g>
			<g id="XMLID_2251_">
				<path id="XMLID_2252_" class="st3" d="M408.4,315.1c-1.8,0-3.3-1.5-3.3-3.3v-2.1c0-1.8,1.5-3.3,3.3-3.3s3.3,1.5,3.3,3.3v2.1
					C411.7,313.6,410.2,315.1,408.4,315.1z M408.4,308.8c-0.5,0-0.9,0.4-0.9,0.9v2.1c0,0.5,0.4,0.9,0.9,0.9s0.9-0.4,0.9-0.9v-2.1
					C409.3,309.2,408.9,308.8,408.4,308.8z"/>
			</g>
			<g id="XMLID_2249_">
				<path id="XMLID_2250_" class="st11" d="M377.3,311.8c0,1.2-1,2.1-2.1,2.1l0,0c-1.2,0-2.1-1-2.1-2.1v-2.1c0-1.2,1-2.1,2.1-2.1
					l0,0c1.2,0,2.1,1,2.1,2.1V311.8z"/>
			</g>
			<g id="XMLID_2245_">
				<path id="XMLID_2246_" class="st3" d="M375.2,315.1c-1.8,0-3.3-1.5-3.3-3.3v-2.1c0-1.8,1.5-3.3,3.3-3.3c1.8,0,3.3,1.5,3.3,3.3
					v2.1C378.5,313.6,377,315.1,375.2,315.1z M375.2,308.8c-0.5,0-0.9,0.4-0.9,0.9v2.1c0,0.5,0.4,0.9,0.9,0.9c0.5,0,0.9-0.4,0.9-0.9
					v-2.1C376.1,309.2,375.7,308.8,375.2,308.8z"/>
			</g>
			<g id="XMLID_2243_">
				<path id="XMLID_2244_" class="st8" d="M414.1,357.2v-6.4c0-10.6-10.1-19.2-22.4-19.2l0,0c-12.3,0-22.4,8.6-22.4,19.2v6.4H414.1z
					"/>
			</g>
			<g id="XMLID_2241_">
				<path id="XMLID_2242_" class="st3" d="M370.5,357.2h-2.4v-6.4c0-1.6,0.2-3.3,0.7-4.9l2.3,0.7c-0.4,1.4-0.6,2.8-0.6,4.2V357.2z"
					/>
			</g>
			<g id="XMLID_2239_">
				<path id="XMLID_2240_" class="st3" d="M372.6,343.8l-2.1-1.2c1.1-2,2.6-3.8,4.4-5.4l1.6,1.8
					C374.9,340.5,373.6,342.1,372.6,343.8z"/>
			</g>
			<g id="XMLID_2237_">
				<path id="XMLID_2238_" class="st3" d="M415.3,357.2h-2.4v-6.4c0-9.9-9.5-18-21.2-18c-4.3,0-8.5,1.1-12.1,3.2l-1.2-2.1
					c3.9-2.3,8.5-3.6,13.3-3.6c13,0,23.6,9.2,23.6,20.4V357.2z"/>
			</g>
			<g id="XMLID_2236_">
				<path class="st11" d="M396,335.1v-9c0-2.4-1.9-4.3-4.3-4.3l0,0c-2.4,0-4.3,1.9-4.3,4.3v9l4.3,1.4L396,335.1z"/>
			</g>
			<g id="XMLID_2049_">
				<path id="XMLID_2050_" class="st3" d="M391.7,337.8l-5.5-1.8v-9.9c0-3,2.5-5.5,5.5-5.5c3,0,5.5,2.5,5.5,5.5v9.9L391.7,337.8z
					 M388.7,334.2l3,1l3.1-1v-8.1c0-1.7-1.4-3-3.1-3c-1.7,0-3,1.4-3,3V334.2z"/>
			</g>
			<g id="XMLID_2047_">
				<path id="XMLID_2048_" class="st0" d="M391.3,336.8l-6.1,7.2c-0.2,0.3-0.7,0.2-0.8-0.2l-2-10.4l3.9-1.2L391.3,336.8z"/>
			</g>
			<g id="XMLID_2046_">
				<path class="st0" d="M392.5,336.8l6.1,7.2c0.2,0.3,0.7,0.2,0.8-0.2l2.5-9.3l-4.6-1.6L392.5,336.8z"/>
			</g>
			<g id="XMLID_2042_">
				<path id="XMLID_2043_" class="st3" d="M384.9,345.4c-0.1,0-0.3,0-0.4-0.1c-0.6-0.2-1.1-0.7-1.2-1.3l-2.2-11.4l5.6-1.7l6.3,5.8
					l-6.8,8.1C385.8,345.2,385.4,345.4,384.9,345.4z M383.8,334.3l1.5,7.8l4.3-5.1l-3.6-3.3L383.8,334.3z"/>
			</g>
			<g id="XMLID_2038_">
				<path id="XMLID_2039_" class="st3" d="M399,345.4c-0.5,0-0.9-0.2-1.3-0.6l-6.9-8.1l6.2-5.2l6.3,2.2l-2.7,10.4
					c-0.1,0.6-0.6,1.1-1.2,1.2C399.3,345.4,399.1,345.4,399,345.4z M394.3,337l4.4,5.2l1.8-6.9l-2.9-1L394.3,337z"/>
			</g>
			<g id="XMLID_2037_">
				<path class="st11" d="M398.6,327.8l-4.5,1.8c-1.5,0.6-3.2,0.6-4.7,0l-4.5-1.8c-5.5-2.2-9.1-7.5-9.1-13.5v-12.5
					c0-7.4,6-13.3,13.3-13.3h5.2c7.4,0,13.3,6,13.3,13.3v12.5C407.7,320.2,404.1,325.5,398.6,327.8z"/>
			</g>
			<g id="XMLID_2035_">
				<polygon id="XMLID_2036_" class="st3" points="394.9,313.9 389,313.9 389,302.8 391.4,302.8 391.4,311.5 394.9,311.5 				"/>
			</g>
			<g id="XMLID_2033_">
				<rect id="XMLID_2034_" x="395.3" y="302.9" class="st3" width="5.9" height="2.4"/>
			</g>
			<g id="XMLID_2031_">
				<rect id="XMLID_2032_" x="382.4" y="302.9" class="st3" width="5.9" height="2.4"/>
			</g>
			<g id="XMLID_2030_">
				<path class="st5" d="M392.7,316.8l0.6-0.4c1-0.7,2.3-0.4,3,0.5c1,1.4,2.6,3.3,4.4,3.6c0.2,0,0.3,0.4,0.1,0.4
					c-2,0.8-6.7,2.2-9-1.9l-0.1,0c-2.3,4.1-7,2.6-9,1.8c-0.2-0.1-0.2-0.4,0.1-0.4c1.7-0.4,3.3-2.2,4.4-3.6c0.7-0.9,2-1.2,3-0.5
					l0.6,0.4L392.7,316.8z"/>
			</g>
			<g id="XMLID_2025_">
				<path id="XMLID_2026_" class="st3" d="M396.7,323c-2,0-3.7-0.7-5-2c-2.1,2.2-5.4,2.6-9.5,0.9c-0.6-0.2-1-0.8-0.9-1.5
					c0.1-0.6,0.5-1.2,1.2-1.3c1-0.2,2.3-1.3,3.6-3.1c1.1-1.5,3.1-1.8,4.6-0.8l0.4,0.2l1.3,0.1l0.3-0.2c1.5-1,3.6-0.7,4.6,0.8
					c1.3,1.8,2.6,2.9,3.6,3.1c0.6,0.1,1.1,0.7,1.2,1.3c0.1,0.6-0.3,1.2-0.9,1.5C399.6,322.7,398.1,323,396.7,323z M392.5,318
					l0.3,0.4c1.2,2.2,3.4,2.4,5.2,2.1c-0.9-0.7-1.8-1.7-2.7-2.9c-0.3-0.4-0.9-0.5-1.3-0.2l-1,0.7L392.5,318z M385.4,320.4
					c2.5,0.5,4.2-0.2,5.2-2l0.3-0.5l-0.6,0l-0.9-0.6c-0.4-0.3-1-0.2-1.3,0.2C387.2,318.8,386.3,319.7,385.4,320.4z"/>
			</g>
			<g id="XMLID_2023_">
				<rect id="XMLID_2024_" x="389.3" y="322.7" class="st3" width="4.8" height="2.4"/>
			</g>
			<g id="XMLID_2021_">
				<path id="XMLID_2022_" class="st5" d="M378,294.4c0,0,0.4,3,2.4,4.3c0.6,0.4,0.7,1.3,0.1,1.8c-1.2,0.9-2.7,2.6-4,5.2
					C376.5,305.8,374.8,297.8,378,294.4z"/>
			</g>
			<g id="XMLID_2019_">
				<path id="XMLID_2020_" class="st3" d="M376.8,306.3l-2.2-1.1c1.3-2.6,3.4-4.3,4.7-5.3l0.3-0.2c-2.4-1.6-2.8-5-2.8-5.1l2.4-0.3
					l-1.2,0.1l1.2-0.2c0.1,0.7,0.6,2.6,1.8,3.4c0.6,0.4,1,1.1,1.1,1.8c0,0.7-0.3,1.4-0.8,1.9l-0.4,0.3
					C379.7,302.7,377.9,304.2,376.8,306.3z"/>
			</g>
			<g id="XMLID_2018_">
				<path class="st5" d="M405.4,294.4c0,0-0.4,3-2.4,4.3c-0.6,0.4-0.7,1.3-0.1,1.8c1.2,0.9,2.7,2.6,4,5.2
					C406.9,305.8,408.6,297.8,405.4,294.4z"/>
			</g>
			<g id="XMLID_2016_">
				<path id="XMLID_2017_" class="st3" d="M406.6,306.3c-1.1-2.2-2.8-3.6-4-4.5l-0.4-0.3c-0.6-0.5-0.9-1.2-0.8-1.9
					c0-0.7,0.4-1.4,1.1-1.8c1.5-1,1.8-3.4,1.8-3.4l2.4,0.3c0,0.1-0.5,3.5-2.8,5.1l0.3,0.2c1.3,1,3.4,2.7,4.7,5.3L406.6,306.3z"/>
			</g>
			<g id="XMLID_2012_">
				<path id="XMLID_2013_" class="st3" d="M391.7,331.3c-1,0-1.9-0.2-2.8-0.6l-4.5-1.8c-6-2.4-9.8-8.1-9.8-14.6v-12.5
					c0-8,6.5-14.5,14.5-14.5h5.2c8,0,14.5,6.5,14.5,14.5v12.5c0,6.4-3.9,12.2-9.8,14.6l-4.5,1.8
					C393.6,331.1,392.7,331.3,391.7,331.3z M389.1,289.7c-6.7,0-12.1,5.4-12.1,12.1v12.5c0,5.4,3.3,10.3,8.3,12.3l4.5,1.8
					c1.2,0.5,2.6,0.5,3.8,0l4.5-1.8c5-2,8.3-6.9,8.3-12.3v-12.5c0-6.7-5.4-12.1-12.1-12.1H389.1z"/>
			</g>
			<g id="XMLID_2010_">
				<rect id="XMLID_2011_" x="379.3" y="348.3" class="st3" width="8.1" height="2.4"/>
			</g>
		</g>
		<g>
			<g>
				<g>
					<path class="st3" d="M350.2,296.5c-0.5,0.9-1.1,1.8-1.6,2.7l-3.4-1.8c0.5-1,1.1-2,1.7-2.9L350.2,296.5z"/>
				</g>
				<g>
					<path class="st3" d="M444.4,322.2c0,7.1-1.4,14-4.1,20.5c-2.7,6.3-6.5,11.9-11.3,16.8c-4.8,4.8-10.5,8.6-16.8,11.3
						c-6.5,2.7-13.4,4.1-20.5,4.1s-14-1.4-20.5-4.1c-6.3-2.7-11.9-6.5-16.8-11.3c-4.8-4.8-8.6-10.5-11.3-16.8
						c-4.9-11.6-5.5-24.8-1.6-36.8c0.5-1.4,1-2.9,1.6-4.3l3.6,1.5c-0.5,1.3-1,2.6-1.5,3.9c-3.6,11.1-3.1,23.3,1.5,34
						c2.5,5.8,6,11,10.5,15.5c4.5,4.5,9.7,8,15.5,10.5c6,2.5,12.4,3.8,19,3.8s13-1.3,19-3.8c5.8-2.5,11-6,15.5-10.5
						c4.5-4.5,8-9.7,10.5-15.5c5.1-12,5.1-26,0-38c-2.5-5.8-6-11-10.5-15.5c-4.5-4.5-9.7-8-15.5-10.5c-6-2.5-12.4-3.8-19-3.8
						s-13,1.3-19,3.8c-3.3,1.4-6.4,3.2-9.4,5.2c-0.8,0.5-1.5,1.1-2.2,1.7l-2.5-3c0.8-0.6,1.6-1.2,2.4-1.8c3.2-2.3,6.6-4.2,10.1-5.7
						c6.5-2.7,13.4-4.1,20.5-4.1s14,1.4,20.5,4.1c6.3,2.7,11.9,6.5,16.8,11.3c4.8,4.8,8.6,10.5,11.3,16.8
						C443,308.2,444.4,315.1,444.4,322.2z"/>
				</g>
				<g>
					<path class="st3" d="M357.2,287.7c-0.6,0.6-1.2,1.3-1.8,1.9c-0.7,0.8-1.3,1.5-2,2.3l-3.1-2.4c0.7-0.9,1.4-1.7,2.1-2.5
						c0.6-0.7,1.3-1.4,2-2.1L357.2,287.7z"/>
				</g>
			</g>
		</g>
	</g>
	<g>
		<path class="st3" d="M202.7,404.3c-1.6-0.5-3.2-1.1-4.8-1.6l1.4-3.8c1.5,0.5,3.1,1.1,4.7,1.6L202.7,404.3z M303,404.1l-1.2-3.8
			c1.5-0.5,3.1-1,4.7-1.6l1.4,3.8C306.2,403,304.6,403.6,303,404.1z M193.1,400.9c-1.6-0.6-3.2-1.3-4.7-1.9l1.6-3.7
			c1.5,0.6,3,1.3,4.6,1.9L193.1,400.9z M312.5,400.7L311,397c1.5-0.6,3.1-1.2,4.5-1.9l1.6,3.7C315.6,399.4,314.1,400,312.5,400.7z
			 M183.8,396.9c-1.5-0.7-3.1-1.5-4.6-2.2l1.8-3.6c1.5,0.7,3,1.5,4.4,2.2L183.8,396.9z M321.8,396.6L320,393c1.5-0.7,3-1.4,4.4-2.2
			l1.8,3.6C324.8,395.2,323.3,395.9,321.8,396.6z M174.8,392.3c-1.5-0.8-2.9-1.6-4.4-2.5l2-3.4c1.4,0.8,2.9,1.7,4.3,2.4L174.8,392.3
			z M330.7,392l-1.9-3.5c1.4-0.8,2.9-1.6,4.3-2.5l2,3.4C333.7,390.4,332.2,391.2,330.7,392z M166,387.2c-1.4-0.9-2.9-1.8-4.2-2.8
			l2.2-3.3c1.4,0.9,2.7,1.8,4.1,2.7L166,387.2z M339.4,386.9l-2.1-3.4c1.4-0.9,2.8-1.8,4.1-2.7l2.3,3.3
			C342.3,385,340.8,386,339.4,386.9z M157.7,381.5c-1.4-1-2.7-2-4.1-3l2.4-3.2c1.3,1,2.6,2,4,3L157.7,381.5z M347.8,381.2l-2.4-3.2
			c1.3-1,2.6-2,3.9-3l2.5,3.2C350.5,379.2,349.1,380.2,347.8,381.2z M149.6,375.3c-1.3-1.1-2.6-2.2-3.9-3.3l2.6-3
			c1.2,1.1,2.5,2.2,3.8,3.2L149.6,375.3z M355.8,375l-2.6-3.1c1.3-1.1,2.5-2.1,3.8-3.2l2.6,3C358.4,372.8,357.1,373.9,355.8,375z
			 M142,368.6c-1.2-1.2-2.5-2.3-3.6-3.5l2.8-2.8c1.2,1.1,2.3,2.3,3.6,3.4L142,368.6z M91.9,271.8c-0.2-1.7-0.4-3.4-0.6-5l4-0.4
			c0.2,1.6,0.4,3.3,0.6,4.9L91.9,271.8z M413.2,271l-4-0.5c0.2-1.6,0.4-3.3,0.6-4.9l4,0.4C413.6,267.7,413.4,269.4,413.2,271z
			 M90.9,261.7c-0.1-1.7-0.2-3.4-0.3-5.1l4-0.2c0.1,1.6,0.2,3.3,0.3,4.9L90.9,261.7z M414.2,261l-4-0.3c0.1-1.6,0.2-3.3,0.2-4.9
			l4,0.1C414.4,257.6,414.3,259.3,414.2,261z M90.5,251.6c0-0.5,0-1,0-1.5c0-1.2,0-2.4,0-3.6l4,0.1c0,1.2,0,2.3,0,3.5
			c0,0.5,0,0.9,0,1.4L90.5,251.6z M414.5,250.9l-4,0l0-0.7c0-1.4,0-2.8-0.1-4.2l4-0.1c0,1.4,0.1,2.9,0.1,4.3L414.5,250.9z
			 M94.7,241.7l-4-0.2c0.1-1.7,0.2-3.4,0.3-5l4,0.3C94.9,238.4,94.8,240.1,94.7,241.7z M410.3,241c-0.1-1.6-0.2-3.3-0.4-4.9l4-0.4
			c0.1,1.7,0.3,3.4,0.4,5L410.3,241z M95.5,231.8l-4-0.5c0.2-1.7,0.4-3.4,0.7-5l4,0.6C95.9,228.6,95.7,230.2,95.5,231.8z
			 M409.4,231.1c-0.2-1.6-0.4-3.3-0.7-4.9l4-0.6c0.2,1.6,0.5,3.3,0.7,5L409.4,231.1z M142.9,136.4l-2.8-2.9c1.2-1.2,2.4-2.3,3.7-3.5
			l2.7,3C145.2,134.1,144,135.2,142.9,136.4z M361.8,136c-1.2-1.1-2.4-2.3-3.6-3.4l2.7-3c1.2,1.1,2.5,2.3,3.7,3.4L361.8,136z
			 M150.2,129.7l-2.6-3c1.3-1.1,2.6-2.2,3.9-3.2l2.5,3.1C152.7,127.6,151.4,128.7,150.2,129.7z M354.5,129.4
			c-1.3-1.1-2.5-2.1-3.8-3.1l2.5-3.1c1.3,1,2.6,2.1,3.9,3.2L354.5,129.4z M157.9,123.6l-2.4-3.2c1.3-1,2.7-2,4.1-3l2.3,3.3
			C160.5,121.6,159.2,122.6,157.9,123.6z M346.7,123.3c-1.3-1-2.7-2-4-2.9l2.3-3.3c1.4,1,2.8,2,4.1,3L346.7,123.3z M165.9,117.9
			l-2.2-3.3c1.4-0.9,2.8-1.8,4.3-2.7l2.1,3.4C168.7,116.1,167.3,117,165.9,117.9z M338.6,117.6c-1.4-0.9-2.8-1.8-4.2-2.6l2.1-3.4
			c1.4,0.9,2.9,1.8,4.3,2.7L338.6,117.6z M174.3,112.8l-2-3.5c1.5-0.8,3-1.7,4.4-2.4l1.9,3.5C177.2,111.2,175.8,112,174.3,112.8z
			 M330.2,112.5c-1.4-0.8-2.9-1.6-4.3-2.4l1.9-3.5c1.5,0.8,3,1.6,4.5,2.4L330.2,112.5z M183.1,108.2l-1.8-3.6c1.5-0.7,3-1.5,4.6-2.2
			l1.6,3.6C186,106.7,184.5,107.4,183.1,108.2z M321.4,107.9c-1.5-0.7-3-1.4-4.5-2.1l1.6-3.7c1.5,0.7,3.1,1.4,4.6,2.1L321.4,107.9z
			 M192,104.1l-1.5-3.7c1.6-0.6,3.1-1.3,4.7-1.9l1.4,3.7C195.1,102.9,193.5,103.5,192,104.1z M312.4,103.9c-1.5-0.6-3.1-1.2-4.6-1.8
			l1.4-3.7c1.6,0.6,3.2,1.2,4.7,1.8L312.4,103.9z"/>
	</g>
	<g>
		<g id="XMLID_4840_">
			<g id="XMLID_4841_">
				<g id="XMLID_4850_">
					<path class="st2" d="M256.4,176.3l36,20.8l26.6,99.2c1.2,4.5-1.5,9.1-6,10.3l-84.9,22.7c-4.5,1.2-9.1-1.5-10.3-6l-32-119.5
						c-1.2-4.5,1.5-9.1,6-10.3L256.4,176.3z"/>
				</g>
				<g id="XMLID_4849_">
					<polygon class="st4" points="264.1,204.7 256.4,176.3 292.5,197.1 					"/>
				</g>
				<g id="XMLID_4848_">
					<path class="st3" d="M293,199.1l-25.6,6.9c-2.7,0.7-5.4-0.9-6.1-3.5l-6.9-25.6l4-1.1l6.9,25.6c0.1,0.5,0.6,0.7,1.1,0.6
						l25.6-6.9L293,199.1z"/>
				</g>
				<g id="XMLID_4847_">
					
						<rect x="253.7" y="216.4" transform="matrix(0.9659 -0.2588 0.2588 0.9659 -47.3903 76.9065)" class="st3" width="29.3" height="4.1"/>
				</g>
				<g id="XMLID_4846_">
					
						<rect x="256.8" y="227.8" transform="matrix(0.9659 -0.2588 0.2588 0.9659 -50.2488 78.0906)" class="st3" width="29.3" height="4.1"/>
				</g>
				<g id="XMLID_4845_">
					
						<rect x="259.9" y="239.3" transform="matrix(0.9659 -0.2588 0.2588 0.9659 -53.1075 79.2747)" class="st3" width="29.3" height="4.1"/>
				</g>
				<g id="XMLID_4844_">
					
						<rect x="221.2" y="268.1" transform="matrix(0.9659 -0.2588 0.2588 0.9659 -61.0992 76.1519)" class="st3" width="74.9" height="4.1"/>
				</g>
				<g id="XMLID_4843_">
					
						<rect x="224.3" y="279.5" transform="matrix(0.9659 -0.2588 0.2588 0.9659 -63.9579 77.336)" class="st3" width="74.9" height="4.1"/>
				</g>
				<g id="XMLID_4842_">
					
						<rect x="218.2" y="256.6" transform="matrix(0.9659 -0.2588 0.2588 0.9659 -58.2406 74.9678)" class="st3" width="74.9" height="4.1"/>
				</g>
			</g>
		</g>
		<g id="XMLID_4839_">
			<g>
				<path class="st3" d="M313.7,308.6l-84.9,22.7c-5.6,1.5-11.3-1.8-12.8-7.4l-32-119.5c-1.5-5.6,1.8-11.3,7.4-12.8l65.4-17.5
					l37.5,21.6l26.8,100C322.5,301.4,319.2,307.1,313.7,308.6z M192.4,195.6c-3.4,0.9-5.4,4.4-4.5,7.8l32,119.5
					c0.9,3.4,4.4,5.4,7.8,4.5l84.9-22.7c3.4-0.9,5.4-4.4,4.5-7.8l-26.4-98.4l-34.6-20L192.4,195.6z"/>
			</g>
		</g>
		<g>
			
				<rect x="216.6" y="230.3" transform="matrix(0.9659 -0.2588 0.2588 0.9659 -54.2124 68.4971)" class="st5" width="32.8" height="19.7"/>
			<g>
				<path class="st3" d="M256.4,248.3l-39.5,10.6l-7.2-26.8l39.5-10.6L256.4,248.3z M219.7,253.9l31.7-8.5l-5.1-19l-31.7,8.5
					L219.7,253.9z"/>
			</g>
			<g>
				<rect x="231" y="221" transform="matrix(0.275 -0.9615 0.9615 0.275 -61.9254 398.1628)" class="st3" width="4" height="38.3"/>
			</g>
			<g>
				
					<rect x="213.9" y="238.1" transform="matrix(0.6951 -0.7189 0.7189 0.6951 -101.5874 240.7461)" class="st3" width="38.3" height="4"/>
			</g>
		</g>
	</g>
	<g>
		<g id="XMLID_780_">
			<g id="XMLID_806_">
				<g id="XMLID_833_">
					<path class="st2" d="M275.4,179.8l29.4,29.4V312c0,4.6-3.8,8.4-8.4,8.4h-87.9c-4.6,0-8.4-3.8-8.4-8.4V188.3
						c0-4.6,3.8-8.4,8.4-8.4H275.4z"/>
				</g>
				<g id="XMLID_832_">
					<polygon class="st4" points="275.4,209.3 275.4,179.8 304.9,209.3 					"/>
				</g>
				<g id="XMLID_831_">
					<path class="st3" d="M304.9,211.3h-26.5c-2.8,0-5-2.2-5-5v-26.5h4.1v26.5c0,0.5,0.4,0.9,0.9,0.9h26.5V211.3z"/>
				</g>
				<g id="XMLID_830_">
					<rect x="261.4" y="228.6" class="st3" width="29.3" height="4.1"/>
				</g>
				<g id="XMLID_829_">
					<rect x="261.4" y="240.4" class="st3" width="29.3" height="4.1"/>
				</g>
				<g id="XMLID_828_">
					<rect x="261.4" y="252.3" class="st3" width="29.3" height="4.1"/>
				</g>
				<g id="XMLID_805_">
					<rect x="215.8" y="276" class="st3" width="74.9" height="4.1"/>
				</g>
				<g id="XMLID_807_">
					<rect x="215.8" y="287.8" class="st3" width="74.9" height="4.1"/>
				</g>
				<g id="XMLID_815_">
					<rect x="215.8" y="264.1" class="st3" width="74.9" height="4.1"/>
				</g>
			</g>
		</g>
		<g id="XMLID_781_">
			<g>
				<path class="st3" d="M296.4,322.4h-87.9c-5.8,0-10.4-4.7-10.4-10.4V188.3c0-5.8,4.7-10.4,10.4-10.4h67.7l30.6,30.6V312
					C306.9,317.8,302.2,322.4,296.4,322.4z M208.6,181.9c-3.5,0-6.4,2.9-6.4,6.4V312c0,3.5,2.9,6.4,6.4,6.4h87.9
					c3.5,0,6.4-2.9,6.4-6.4V210.1l-28.2-28.2H208.6z"/>
			</g>
		</g>
		<g>
			<rect x="219.9" y="232.6" class="st5" width="32.8" height="19.7"/>
			<g>
				<path class="st3" d="M256.7,256.3h-40.9v-27.8h40.9V256.3z M219.9,252.3h32.8v-19.7h-32.8V252.3z"/>
			</g>
			<g>
				
					<rect x="234.3" y="223.3" transform="matrix(0.5144 -0.8575 0.8575 0.5144 -93.1712 320.341)" class="st3" width="4" height="38.3"/>
			</g>
			<g>
				
					<rect x="217.2" y="240.4" transform="matrix(0.8575 -0.5145 0.5145 0.8575 -91.0639 156.1182)" class="st3" width="38.3" height="4"/>
			</g>
		</g>
		<g>
			<path class="st4" d="M233.8,202.6c0-5-4-9-9-9c-5,0-9,4-9,9c0,5,4,9,9,9c2.4,0,4.5-0.9,6.1-2.4v0.8c0,0.8,0.6,1.5,1.5,1.5
				c0.8,0,1.5-0.6,1.5-1.5L233.8,202.6L233.8,202.6z M230.9,202.6L230.9,202.6c0,3.4-2.7,6.1-6.1,6.1c-3.4,0-6.1-2.7-6.1-6.1
				c0-3.4,2.7-6.1,6.1-6.1S230.9,199.2,230.9,202.6L230.9,202.6z"/>
		</g>
	</g>
	<g>
		<g id="XMLID_14_">
			<g id="XMLID_15_">
				<g id="XMLID_24_">
					<path class="st2" d="M371.3,394.5l13,13V453c0,2.1-1.7,3.7-3.7,3.7h-38.9c-2.1,0-3.7-1.7-3.7-3.7v-54.8c0-2.1,1.7-3.7,3.7-3.7
						H371.3z"/>
				</g>
				<g id="XMLID_23_">
					<polygon class="st4" points="371.3,407.6 371.3,394.5 384.3,407.6 					"/>
				</g>
				<g id="XMLID_22_">
					<path class="st3" d="M384.3,408.5h-11.7c-1.2,0-2.2-1-2.2-2.2v-11.7h1.8v11.7c0,0.2,0.2,0.4,0.4,0.4h11.7V408.5z"/>
				</g>
				<g id="XMLID_21_">
					<rect x="365.1" y="416.1" class="st3" width="13" height="1.8"/>
				</g>
				<g id="XMLID_20_">
					<rect x="365.1" y="421.3" class="st3" width="13" height="1.8"/>
				</g>
				<g id="XMLID_19_">
					<rect x="365.1" y="426.6" class="st3" width="13" height="1.8"/>
				</g>
				<g id="XMLID_18_">
					<rect x="344.9" y="437.1" class="st3" width="33.1" height="1.8"/>
				</g>
				<g id="XMLID_17_">
					<rect x="344.9" y="442.3" class="st3" width="33.1" height="1.8"/>
				</g>
				<g id="XMLID_16_">
					<rect x="344.9" y="431.8" class="st3" width="33.1" height="1.8"/>
				</g>
			</g>
		</g>
		<g id="XMLID_13_">
			<g>
				<path class="st3" d="M380.6,457.6h-38.9c-2.5,0-4.6-2.1-4.6-4.6v-54.8c0-2.5,2.1-4.6,4.6-4.6h30l13.5,13.5V453
					C385.2,455.6,383.2,457.6,380.6,457.6z M341.7,395.4c-1.6,0-2.8,1.3-2.8,2.8V453c0,1.6,1.3,2.8,2.8,2.8h38.9
					c1.6,0,2.8-1.3,2.8-2.8v-45.1l-12.5-12.5H341.7z"/>
			</g>
		</g>
		<g>
			<rect x="346.7" y="417.9" class="st5" width="14.5" height="8.7"/>
			<g>
				<path class="st3" d="M363,428.4h-18.1v-12.3H363V428.4z M346.7,426.6h14.5v-8.7h-14.5V426.6z"/>
			</g>
			<g>
				
					<rect x="353.1" y="413.8" transform="matrix(0.5144 -0.8575 0.8575 0.5144 -190.2049 508.5765)" class="st3" width="1.8" height="16.9"/>
			</g>
			<g>
				
					<rect x="345.5" y="421.4" transform="matrix(0.8575 -0.5145 0.5145 0.8575 -166.7978 242.2981)" class="st3" width="16.9" height="1.8"/>
			</g>
		</g>
		<g>
			<path class="st4" d="M352.9,404.6c0-2.2-1.8-4-4-4c-2.2,0-4,1.8-4,4c0,2.2,1.8,4,4,4c1,0,2-0.4,2.7-1.1v0.3
				c0,0.4,0.3,0.6,0.6,0.6c0.4,0,0.6-0.3,0.6-0.6L352.9,404.6L352.9,404.6z M351.6,404.6L351.6,404.6c0,1.5-1.2,2.7-2.7,2.7
				s-2.7-1.2-2.7-2.7s1.2-2.7,2.7-2.7C350.4,401.9,351.6,403.1,351.6,404.6L351.6,404.6z"/>
		</g>
	</g>
	<g id="XMLID_4866_">
		<g id="XMLID_4891_">
			<path class="st5" d="M361.1,78.4c10-10,10-26.1,0-36.1c-10-10-26.1-10-36.1,0c-8.6,8.6-9.8,21.8-3.5,31.7l-7.3,15
				c-0.2,0.4,0.2,0.8,0.6,0.6l14.9-7.5C339.6,88.2,352.6,86.9,361.1,78.4z"/>
		</g>
		<g id="XMLID_4889_">
			<path id="XMLID_4890_" class="st3" d="M314.7,90.8c-0.4,0-0.8-0.2-1.1-0.4c-0.5-0.5-0.6-1.2-0.3-1.8l7-14.5
				c-6.2-10.4-4.6-23.9,4-32.5c5-5,11.7-7.8,18.8-7.8c7.1,0,13.8,2.8,18.8,7.8c1,1,2,2.1,2.8,3.3l-1.8,1.3c-0.8-1.1-1.6-2.1-2.6-3.1
				c-4.6-4.6-10.7-7.2-17.3-7.2c-6.5,0-12.7,2.5-17.3,7.2c-8,8-9.4,20.8-3.4,30.3l0.3,0.5l-6.7,13.8l13.8-6.9l0.5,0.3
				c9.6,5.9,22,4.4,30-3.6c1.1-1.1,2.1-2.3,3-3.6l1.8,1.2c-0.9,1.4-2,2.7-3.2,3.9c-8.6,8.6-21.7,10.3-32.2,4.2l-14.4,7.2
				C315.1,90.7,314.9,90.8,314.7,90.8z"/>
		</g>
		<g id="XMLID_4887_">
			<rect id="XMLID_4888_" x="325.2" y="48.2" class="st3" width="7.5" height="2.2"/>
		</g>
		<g id="XMLID_4885_">
			<rect id="XMLID_4886_" x="334.5" y="48.2" class="st3" width="38" height="2.2"/>
		</g>
		<g id="XMLID_4883_">
			<rect id="XMLID_4884_" x="329.7" y="53.4" class="st3" width="13.4" height="2.2"/>
		</g>
		<g id="XMLID_4881_">
			<rect id="XMLID_4882_" x="326.8" y="58.6" class="st3" width="9.7" height="2.2"/>
		</g>
		<g id="XMLID_4879_">
			<rect id="XMLID_4880_" x="339.2" y="58.6" class="st3" width="35.6" height="2.2"/>
		</g>
		<g id="XMLID_4877_">
			<rect id="XMLID_4878_" x="328.1" y="64.1" class="st3" width="19.3" height="2.2"/>
		</g>
		<g id="XMLID_4875_">
			<rect id="XMLID_4876_" x="328.1" y="70.1" class="st3" width="8.4" height="2.2"/>
		</g>
		<g id="XMLID_4873_">
			<rect id="XMLID_4874_" x="339.2" y="70.1" class="st3" width="44.3" height="2.2"/>
		</g>
		<g id="XMLID_4871_">
			<rect id="XMLID_4872_" x="349.6" y="64.1" class="st3" width="10.6" height="2.2"/>
		</g>
		<g id="XMLID_4869_">
			<rect id="XMLID_4870_" x="345.4" y="53.4" class="st3" width="6.7" height="2.2"/>
		</g>
		<g id="XMLID_4867_">
			<rect id="XMLID_4868_" x="374.7" y="48.2" class="st3" width="8.7" height="2.2"/>
		</g>
	</g>
	<g>
		<g>
			<path class="st3" d="M166.1,295.6l-1.8-3.6l4.5-2.2l1.8,3.6L166.1,295.6z M175,291.1l-1.8-3.6l4.5-2.2l1.8,3.6L175,291.1z
				 M183.9,286.6l-1.8-3.6l4.5-2.2l1.8,3.6L183.9,286.6z M192.9,282.1l-1.8-3.6l4.5-2.2l1.8,3.6L192.9,282.1z M309,223.8l-1.8-3.6
				l4.5-2.2l1.8,3.6L309,223.8z M318,219.3l-1.8-3.6l4.5-2.2l1.8,3.6L318,219.3z M326.9,214.8l-1.8-3.6l4.5-2.2l1.8,3.6L326.9,214.8
				z M335.9,210.3l-1.8-3.6l4.5-2.2l1.8,3.6L335.9,210.3z M344.8,205.8l-1.8-3.6l4.5-2.2l1.8,3.6L344.8,205.8z"/>
		</g>
		<g>
			<path class="st3" d="M338.5,295.7l-4.5-2.2l1.8-3.6l4.5,2.2L338.5,295.7z M329.6,291.2l-4.5-2.2l1.8-3.6l4.5,2.2L329.6,291.2z
				 M177.7,215l-4.5-2.2l1.8-3.6l4.5,2.2L177.7,215z M168.7,210.5l-4.5-2.2l1.8-3.6l4.5,2.2L168.7,210.5z M159.8,206l-4.5-2.2
				l1.8-3.6l4.5,2.2L159.8,206z"/>
		</g>
		<g>
			<path class="st3" d="M254.5,351h-4v-5h4V351z M254.5,341h-4v-5h4V341z M254.5,171h-4v-5h4V171z M254.5,161h-4v-5h4V161z
				 M254.5,151h-4v-5h4V151z"/>
		</g>
	</g>
	<g>
		<g id="XMLID_3675_">
			<path class="st5" d="M93.8,112.1v22.2c0,1.2-1,2.2-2.2,2.2h-1.2v4.5v8.5c0,0.5-0.6,0.7-0.9,0.3l-11.2-13.3H47
				c-1.2,0-2.2-1-2.2-2.2v-22.2c0-1.2,1-2.2,2.2-2.2h44.5C92.8,109.9,93.8,110.9,93.8,112.1z"/>
		</g>
		<g id="XMLID_3674_">
			<path class="st3" d="M89.9,151.5c-0.6,0-1.1-0.2-1.5-0.7l-10.8-12.8H47c-2,0-3.6-1.6-3.6-3.6v-22.2c0-2,1.6-3.6,3.6-3.6h44.5
				c2,0,3.6,1.6,3.6,3.6v22.2c0,1.9-1.5,3.5-3.4,3.6v11.6c0,0.8-0.5,1.5-1.3,1.8C90.3,151.4,90.1,151.5,89.9,151.5z M47,111.3
				c-0.4,0-0.8,0.3-0.8,0.8v22.2c0,0.4,0.3,0.8,0.8,0.8H79l10,11.9v-11.9h2.6c0.4,0,0.8-0.3,0.8-0.8v-22.2c0-0.4-0.3-0.8-0.8-0.8H47
				z"/>
		</g>
		<g id="XMLID_3673_">
			<rect x="55.7" y="116" class="st3" width="27.1" height="2.9"/>
		</g>
		<g id="XMLID_3672_">
			<rect x="55.7" y="121.9" class="st3" width="27.1" height="2.9"/>
		</g>
		<g id="XMLID_3671_">
			<rect x="55.7" y="127.7" class="st3" width="14.7" height="2.9"/>
		</g>
	</g>
	<g>
		<g id="XMLID_3680_">
			<path class="st5" d="M420,279.5v22.2c0,1.2,1,2.2,2.2,2.2h1.2v4.5v8.5c0,0.5,0.6,0.7,0.9,0.3l11.2-13.3h31.3c1.2,0,2.2-1,2.2-2.2
				v-22.2c0-1.2-1-2.2-2.2-2.2h-44.5C420.9,277.3,420,278.3,420,279.5z"/>
		</g>
		<g id="XMLID_3679_">
			<path class="st3" d="M423.2,318.8c-0.8-0.3-1.3-1-1.3-1.8v-11.6c-1.9-0.1-3.4-1.7-3.4-3.6v-22.2c0-2,1.6-3.6,3.6-3.6h44.5
				c2,0,3.6,1.6,3.6,3.6v22.2c0,2-1.6,3.6-3.6,3.6h-30.6l-10.8,12.8c-0.4,0.4-0.9,0.7-1.5,0.7C423.7,318.9,423.4,318.8,423.2,318.8z
				 M422.2,278.8c-0.4,0-0.8,0.3-0.8,0.8v22.2c0,0.4,0.3,0.8,0.8,0.8h2.6v11.9l10-11.9h31.9c0.4,0,0.8-0.3,0.8-0.8v-22.2
				c0-0.4-0.3-0.8-0.8-0.8H422.2z"/>
		</g>
		<g id="XMLID_3678_">
			<rect x="430.9" y="283.4" class="st3" width="27.1" height="2.9"/>
		</g>
		<g id="XMLID_3677_">
			<rect x="430.9" y="289.3" class="st3" width="27.1" height="2.9"/>
		</g>
		<g id="XMLID_3676_">
			<rect x="443.3" y="295.1" class="st3" width="14.7" height="2.9"/>
		</g>
	</g>
	<g>
		<circle class="st5" cx="383.6" cy="456" r="8.4"/>
		<g>
			<path class="st3" d="M383.6,465.2c-2.3,0-4.4-0.8-6.1-2.3l1-1.1c1.4,1.3,3.2,1.9,5.1,1.9c4.2,0,7.7-3.4,7.7-7.7
				c0-4.2-3.4-7.7-7.7-7.7c-2,0-4,0.8-5.4,2.2l-1.1-1.1c1.7-1.7,4-2.7,6.5-2.7c5.1,0,9.2,4.1,9.2,9.2
				C392.8,461.1,388.7,465.2,383.6,465.2z"/>
		</g>
		<g>
			<polygon class="st3" points="382.7,459.1 379.5,455.9 380.6,454.8 382.7,456.8 386.6,452.9 387.8,454 			"/>
		</g>
	</g>
	<g>
		<g id="XMLID_31_">
			<g id="XMLID_32_">
				<path class="st13" d="M143.9,248.1h2.9v-5.9c0-3,2.4-5.4,5.4-5.4c3,0,5.4,2.4,5.4,5.4v5.9h2.9v-5.9c0-4.6-3.7-8.3-8.3-8.3
					c-4.6,0-8.3,3.7-8.3,8.3V248.1z"/>
			</g>
		</g>
		<g id="XMLID_29_">
			<g id="XMLID_30_">
				<path class="st3" d="M161.2,248.7H157v-6.6c0-2.6-2.1-4.8-4.8-4.8c-2.6,0-4.8,2.1-4.8,4.8v6.6h-4.2v-6.6c0-4.9,4-9,9-9
					c4.9,0,9,4,9,9V248.7z M158.2,247.4h1.7v-5.3c0-4.2-3.5-7.7-7.7-7.7s-7.7,3.5-7.7,7.7v5.3h1.7v-5.3c0-3.3,2.7-6,6-6
					c3.3,0,6,2.7,6,6V247.4z"/>
			</g>
		</g>
		<g id="XMLID_28_">
			<circle class="st2" cx="152.3" cy="253.5" r="10.8"/>
		</g>
		<g id="XMLID_596_">
			<ellipse transform="matrix(0.9734 -0.229 0.229 0.9734 -54.0222 41.611)" class="st8" cx="152.3" cy="253.5" rx="6.1" ry="6.1"/>
		</g>
		<g id="XMLID_27_">
			<path class="st4" d="M149.7,253.5c0,1.4,1.1,2.5,2.5,2.5c1.4,0,2.5-1.1,2.5-2.5c0-1.4-1.1-2.5-2.5-2.5
				C150.8,251,149.7,252.1,149.7,253.5z"/>
		</g>
		<g id="XMLID_26_">
			<circle class="st3" cx="152.3" cy="253.5" r="1"/>
		</g>
		<g id="XMLID_593_">
			<path class="st3" d="M152.3,256.7c-1.8,0-3.2-1.4-3.2-3.2c0-1.8,1.4-3.2,3.2-3.2s3.2,1.4,3.2,3.2
				C155.4,255.3,154,256.7,152.3,256.7z M152.3,251.6c-1.1,0-1.9,0.9-1.9,1.9c0,1.1,0.9,1.9,1.9,1.9c1.1,0,1.9-0.9,1.9-1.9
				C154.2,252.5,153.3,251.6,152.3,251.6z"/>
		</g>
		<g id="XMLID_25_">
			<path class="st3" d="M152.3,264.9c-3.4,0-6.7-1.5-8.8-4.2l1-0.8c1.9,2.4,4.8,3.7,7.9,3.7c5.6,0,10.1-4.5,10.1-10.1
				s-4.5-10.1-10.1-10.1s-10.1,4.5-10.1,10.1c0,1.1,0.2,2.1,0.5,3.1l-1.2,0.4c-0.4-1.1-0.6-2.3-0.6-3.5c0-6.3,5.1-11.4,11.4-11.4
				c6.3,0,11.4,5.1,11.4,11.4C163.6,259.8,158.5,264.9,152.3,264.9z"/>
		</g>
		<g id="XMLID_591_">
			<path class="st3" d="M142.7,259.7c-0.2-0.3-0.3-0.5-0.5-0.8l1.1-0.6c0.1,0.2,0.3,0.5,0.4,0.7L142.7,259.7z"/>
		</g>
		<g id="XMLID_590_">
			<rect x="151.6" y="248.8" class="st3" width="1.3" height="1.4"/>
		</g>
		<g id="XMLID_589_">
			
				<rect x="149.6" y="249.3" transform="matrix(0.8659 -0.5002 0.5002 0.8659 -104.9203 108.6363)" class="st3" width="1.3" height="1.4"/>
		</g>
		<g id="XMLID_588_">
			
				<rect x="148.1" y="250.8" transform="matrix(0.5002 -0.8659 0.8659 0.5002 -143.482 254.5022)" class="st3" width="1.3" height="1.4"/>
		</g>
		<g id="XMLID_587_">
			<rect x="147.5" y="252.9" class="st3" width="1.4" height="1.3"/>
		</g>
		<g id="XMLID_586_">
			
				<rect x="148.1" y="255" transform="matrix(0.8662 -0.4998 0.4998 0.8662 -107.8376 108.5527)" class="st3" width="1.4" height="1.3"/>
		</g>
		<g id="XMLID_585_">
			
				<rect x="149.6" y="256.5" transform="matrix(0.5006 -0.8657 0.8657 0.5006 -147.5168 258.4656)" class="st3" width="1.4" height="1.3"/>
		</g>
		<g id="XMLID_75_">
			<rect x="151.7" y="256.9" class="st3" width="1.3" height="1.4"/>
		</g>
		<g id="XMLID_583_">
			
				<rect x="153.7" y="256.4" transform="matrix(0.8663 -0.4995 0.4995 0.8663 -107.7618 111.4414)" class="st3" width="1.3" height="1.4"/>
		</g>
		<g id="XMLID_582_">
			
				<rect x="155.2" y="254.9" transform="matrix(0.5008 -0.8655 0.8655 0.5008 -143.4167 262.4054)" class="st3" width="1.3" height="1.4"/>
		</g>
		<g id="XMLID_581_">
			<rect x="155.6" y="252.9" class="st3" width="1.4" height="1.3"/>
		</g>
		<g id="XMLID_580_">
			
				<rect x="155.1" y="250.8" transform="matrix(0.8667 -0.4988 0.4988 0.8667 -104.6715 111.2053)" class="st3" width="1.4" height="1.3"/>
		</g>
		<g id="XMLID_579_">
			
				<rect x="153.6" y="249.4" transform="matrix(0.5006 -0.8657 0.8657 0.5006 -139.3792 258.3991)" class="st3" width="1.4" height="1.3"/>
		</g>
	</g>
	<g>
		<g id="XMLID_5143_">
			
				<rect x="304.7" y="148.6" transform="matrix(6.533194e-03 -1 1 6.533194e-03 155.9336 455.1134)" class="st3" width="4.6" height="1"/>
		</g>
		<g id="XMLID_5142_">
			
				<rect x="313.1" y="152" transform="matrix(0.7136 -0.7006 0.7006 0.7136 -16.4958 264.6824)" class="st3" width="4.6" height="1"/>
		</g>
		<g id="XMLID_5141_">
			
				<rect x="316.2" y="149.5" transform="matrix(0.6988 -0.7153 0.7153 0.6988 -12.7068 272.0639)" class="st3" width="1" height="3.3"/>
		</g>
		<g id="XMLID_5140_">
			
				<rect x="296" y="150.6" transform="matrix(0.7149 -0.6993 0.6993 0.7149 -20.8092 251.2106)" class="st3" width="3.3" height="1"/>
		</g>
		<g id="XMLID_5139_">
			
				<rect x="298.5" y="150.2" transform="matrix(0.7005 -0.7137 0.7137 0.7005 -19.286 259.0752)" class="st3" width="1" height="4.6"/>
		</g>
		
			<ellipse id="XMLID_5138_" transform="matrix(0.7316 -0.6817 0.6817 0.7316 -27.3964 252.4643)" class="st2" cx="307" cy="161" rx="11.9" ry="11.9"/>
		<path id="XMLID_5137_" class="st5" d="M307,149.2c6.6,0,11.9,5.3,11.9,11.9H307V149.2z"/>
		<path id="XMLID_5136_" class="st3" d="M307.5,151.2c0,0.3-0.2,0.5-0.5,0.5c-0.3,0-0.5-0.2-0.5-0.5c0-0.3,0.2-0.5,0.5-0.5
			C307.2,150.7,307.5,150.9,307.5,151.2z"/>
		<path id="XMLID_5135_" class="st3" d="M312.3,152.8c-0.1,0.3-0.5,0.3-0.7,0.2c-0.3-0.1-0.3-0.5-0.2-0.7c0.1-0.3,0.5-0.3,0.7-0.2
			C312.4,152.2,312.5,152.5,312.3,152.8z"/>
		<path id="XMLID_5134_" class="st3" d="M315.7,156.6c-0.3,0.1-0.6,0.1-0.7-0.2c-0.1-0.3-0.1-0.6,0.2-0.7c0.3-0.1,0.6-0.1,0.7,0.2
			C316.1,156.1,316,156.4,315.7,156.6z"/>
		<path id="XMLID_5133_" class="st3" d="M316.8,161.5c-0.3,0-0.5-0.2-0.5-0.5c0-0.3,0.2-0.5,0.5-0.5c0.3,0,0.5,0.2,0.5,0.5
			C317.3,161.3,317.1,161.5,316.8,161.5z"/>
		<path id="XMLID_5132_" class="st3" d="M315.2,166.4c-0.3-0.1-0.3-0.5-0.2-0.7c0.1-0.3,0.5-0.3,0.7-0.2c0.3,0.1,0.3,0.5,0.2,0.7
			C315.8,166.4,315.5,166.5,315.2,166.4z"/>
		<path id="XMLID_5131_" class="st3" d="M311.5,169.8c-0.1-0.3-0.1-0.6,0.2-0.7c0.3-0.1,0.6-0.1,0.7,0.2c0.1,0.3,0.1,0.6-0.2,0.7
			C311.9,170.1,311.6,170,311.5,169.8z"/>
		<path id="XMLID_5130_" class="st3" d="M306.5,170.8c0-0.3,0.2-0.5,0.5-0.5c0.3,0,0.5,0.2,0.5,0.5c0,0.3-0.2,0.5-0.5,0.5
			C306.7,171.4,306.5,171.1,306.5,170.8z"/>
		<path id="XMLID_5129_" class="st3" d="M301.6,169.3c0.1-0.3,0.5-0.3,0.7-0.2c0.3,0.1,0.3,0.5,0.2,0.7c-0.1,0.3-0.5,0.3-0.7,0.2
			C301.6,169.9,301.5,169.6,301.6,169.3z"/>
		<path id="XMLID_5128_" class="st3" d="M298.2,165.5c0.3-0.1,0.6-0.1,0.7,0.2c0.1,0.3,0.1,0.6-0.2,0.7c-0.3,0.1-0.6,0.1-0.7-0.2
			C297.9,166,298,165.7,298.2,165.5z"/>
		<path id="XMLID_5127_" class="st3" d="M297.1,160.6c0.3,0,0.5,0.2,0.5,0.5c0,0.3-0.2,0.5-0.5,0.5c-0.3,0-0.5-0.2-0.5-0.5
			C296.6,160.8,296.8,160.6,297.1,160.6z"/>
		<path id="XMLID_5126_" class="st3" d="M298.7,155.7c0.3,0.1,0.3,0.5,0.2,0.7c-0.1,0.3-0.5,0.3-0.7,0.2c-0.3-0.1-0.3-0.5-0.2-0.7
			C298.1,155.7,298.4,155.6,298.7,155.7z"/>
		<path id="XMLID_5125_" class="st3" d="M302.4,152.3c0.1,0.3,0.1,0.6-0.2,0.7c-0.3,0.1-0.6,0.1-0.7-0.2c-0.1-0.3-0.1-0.6,0.2-0.7
			C302,152,302.3,152,302.4,152.3z"/>
		<rect id="XMLID_5124_" x="305" y="145.6" class="st0" width="4" height="1.5"/>
		<g id="XMLID_5123_">
			<path class="st3" d="M309.5,147.7h-5v-2.5h5V147.7z M305.6,146.6h2.9v-0.5h-2.9V146.6z"/>
		</g>
		<path id="XMLID_5122_" class="st1" d="M308.2,161c0,0.7-0.5,1.2-1.2,1.2c-0.7,0-1.2-0.5-1.2-1.2c0-0.7,0.5-1.2,1.2-1.2
			C307.6,159.8,308.2,160.3,308.2,161z"/>
		<g id="XMLID_5121_">
			<path class="st3" d="M306.9,162.7c-1,0-1.7-0.8-1.7-1.7c0-1,0.8-1.7,1.7-1.7c1,0,1.7,0.8,1.7,1.7
				C308.7,161.9,307.9,162.7,306.9,162.7z M306.9,160.3c-0.4,0-0.7,0.3-0.7,0.7c0,0.4,0.3,0.7,0.7,0.7c0.4,0,0.7-0.3,0.7-0.7
				C307.7,160.6,307.3,160.3,306.9,160.3z"/>
		</g>
		<g id="XMLID_5120_">
			<rect x="308.2" y="160.5" class="st3" width="6" height="1"/>
		</g>
		<g id="XMLID_5119_">
			<path class="st3" d="M307,173.4c-6.8,0-12.4-5.6-12.4-12.4c0-6.8,5.6-12.4,12.4-12.4s12.4,5.6,12.4,12.4
				C319.3,167.9,313.8,173.4,307,173.4z M307,149.7c-6.3,0-11.4,5.1-11.4,11.4c0,6.3,5.1,11.4,11.4,11.4c6.3,0,11.4-5.1,11.4-11.4
				C318.3,154.8,313.2,149.7,307,149.7z"/>
		</g>
	</g>
	<g id="XMLID_33_">
		<polygon id="XMLID_58_" class="st2" points="312.3,354.2 309.9,353.2 307.4,354.2 307.4,346.4 312.3,346.4 		"/>
		<g id="XMLID_57_">
			<polygon class="st3" points="312.9,355.1 309.9,353.8 306.8,355.1 306.8,349.5 307.9,349.5 307.9,353.4 309.9,352.6 311.8,353.4 
				311.8,349.5 312.9,349.5 			"/>
		</g>
		<path id="XMLID_56_" class="st5" d="M315,349.8l-5-2.5c-0.1,0-0.2,0-0.3,0l-4.9,2.7c-0.2,0.1-0.5-0.1-0.5-0.3l0.9-5.5
			c0-0.1,0-0.2-0.1-0.3l-4.1-3.9c-0.2-0.2-0.1-0.5,0.2-0.6l5.5-0.9c0.1,0,0.2-0.1,0.2-0.2l2.4-5.1c0.1-0.2,0.5-0.3,0.6,0l2.5,5
			c0,0.1,0.1,0.2,0.3,0.2l5.6,0.7c0.3,0,0.4,0.4,0.2,0.6l-4,4c-0.1,0.1-0.1,0.2-0.1,0.3l1,5.5C315.6,349.7,315.3,350,315,349.8z"/>
		<g id="XMLID_55_">
			<path class="st3" d="M304.6,350.6c-0.2,0-0.4-0.1-0.5-0.2c-0.3-0.2-0.4-0.5-0.4-0.9l0.9-5.4l-4-3.8c-0.2-0.2-0.3-0.6-0.2-0.9
				c0.1-0.3,0.4-0.6,0.7-0.6l5.4-0.9l2.4-5c0.1-0.3,0.5-0.5,0.8-0.5c0.3,0,0.7,0.2,0.8,0.5l2.5,4.9l5.4,0.7c0.3,0,0.6,0.3,0.7,0.6
				c0.1,0.3,0,0.7-0.2,0.9l-3.9,3.9l1,5.4c0.1,0.3-0.1,0.7-0.3,0.9c-0.3,0.2-0.6,0.2-0.9,0.1l-4.9-2.5l-4.8,2.6
				C304.9,350.5,304.8,350.6,304.6,350.6z M301.8,339.8l3.7,3.5c0.2,0.2,0.3,0.5,0.3,0.8l-0.8,5.1l4.5-2.4c0.3-0.1,0.6-0.1,0.8,0
				l4.6,2.3l-0.9-5.1c-0.1-0.3,0-0.6,0.2-0.8l3.6-3.6l-5.1-0.7c-0.3,0-0.6-0.2-0.7-0.5l-2.3-4.6l-2.2,4.6c-0.1,0.3-0.4,0.5-0.7,0.5
				L301.8,339.8z"/>
		</g>
		<g id="XMLID_54_">
			<rect x="309.2" y="329" class="st3" width="1.1" height="2.2"/>
		</g>
		<g id="XMLID_53_">
			
				<rect x="311.8" y="330" transform="matrix(0.2591 -0.9658 0.9658 0.2591 -87.4522 547.0734)" class="st3" width="2.2" height="1.1"/>
		</g>
		<g id="XMLID_52_">
			
				<rect x="314.6" y="331.2" transform="matrix(0.5013 -0.8653 0.8653 0.5013 -129.5766 438.6599)" class="st3" width="2.2" height="1.1"/>
		</g>
		<g id="XMLID_51_">
			
				<rect x="317.1" y="333.1" transform="matrix(0.7087 -0.7055 0.7055 0.7087 -142.6902 321.6898)" class="st3" width="2.2" height="1.1"/>
		</g>
		<g id="XMLID_50_">
			
				<rect x="319" y="335.6" transform="matrix(0.8674 -0.4975 0.4975 0.8674 -124.8045 203.8371)" class="st3" width="2.2" height="1.1"/>
		</g>
		<g id="XMLID_49_">
			
				<rect x="320.2" y="338.5" transform="matrix(0.9669 -0.2551 0.2551 0.9669 -75.8599 93.1929)" class="st3" width="2.2" height="1.1"/>
		</g>
		<g id="XMLID_48_">
			
				<rect x="321.1" y="341" transform="matrix(4.611659e-03 -1 1 4.611659e-03 -21.8974 662.2664)" class="st3" width="1.1" height="2.2"/>
		</g>
		<g id="XMLID_47_">
			
				<rect x="320.7" y="344.1" transform="matrix(0.2643 -0.9645 0.9645 0.2643 -96.5697 563.8718)" class="st3" width="1.1" height="2.2"/>
		</g>
		<g id="XMLID_46_">
			
				<rect x="319.5" y="347" transform="matrix(0.5055 -0.8628 0.8628 0.5055 -142.0875 448.2838)" class="st3" width="1.1" height="2.2"/>
		</g>
		<g id="XMLID_45_">
			
				<rect x="317.6" y="349.5" transform="matrix(0.7122 -0.702 0.702 0.7122 -154.5324 324.2409)" class="st3" width="1.1" height="2.2"/>
		</g>
		<g id="XMLID_44_">
			
				<rect x="315.1" y="351.3" transform="matrix(0.8699 -0.4932 0.4932 0.8699 -132.767 201.5197)" class="st3" width="1.1" height="2.2"/>
		</g>
		<g id="XMLID_43_">
			
				<rect x="302.6" y="351.8" transform="matrix(0.5091 -0.8607 0.8607 0.5091 -154.1824 434.3539)" class="st3" width="2.2" height="1.1"/>
		</g>
		<g id="XMLID_42_">
			
				<rect x="300.1" y="349.8" transform="matrix(0.7152 -0.6989 0.6989 0.7152 -159.1159 310.3118)" class="st3" width="2.2" height="1.1"/>
		</g>
		<g id="XMLID_41_">
			
				<rect x="298.2" y="347.3" transform="matrix(0.8723 -0.4889 0.4889 0.8723 -131.8745 190.7695)" class="st3" width="2.2" height="1.1"/>
		</g>
		<g id="XMLID_40_">
			
				<rect x="297.1" y="344.4" transform="matrix(0.9692 -0.2462 0.2462 0.9692 -75.7577 84.0329)" class="st3" width="2.2" height="1.1"/>
		</g>
		<g id="XMLID_39_">
			
				<rect x="297.3" y="340.8" transform="matrix(1.413667e-02 -0.9999 0.9999 1.413667e-02 -48.2347 634.8693)" class="st3" width="1.1" height="2.2"/>
		</g>
		<g id="XMLID_38_">
			
				<rect x="297.7" y="337.7" transform="matrix(0.2732 -0.962 0.962 0.2732 -109.1051 533.2062)" class="st3" width="1.1" height="2.2"/>
		</g>
		<g id="XMLID_37_">
			
				<rect x="299" y="334.8" transform="matrix(0.5137 -0.858 0.858 0.5137 -142.5586 420.351)" class="st3" width="1.1" height="2.2"/>
		</g>
		<g id="XMLID_36_">
			
				<rect x="300.9" y="332.4" transform="matrix(0.7189 -0.6952 0.6952 0.7189 -147.0667 303.3333)" class="st3" width="1.1" height="2.2"/>
		</g>
		<g id="XMLID_35_">
			
				<rect x="303.4" y="330.5" transform="matrix(0.8746 -0.4848 0.4848 0.8746 -122.6597 188.9537)" class="st3" width="1.1" height="2.2"/>
		</g>
		<g id="XMLID_34_">
			
				<rect x="306.3" y="329.4" transform="matrix(0.9705 -0.2411 0.2411 0.9705 -70.6163 83.7283)" class="st3" width="1.1" height="2.2"/>
		</g>
	</g>
	<g id="XMLID_4125_">
		<g id="XMLID_4126_">
			<g id="XMLID_4132_">
				<path class="st2" d="M168.8,103.9h-38.1c-1.4,0-2.6-1.2-2.6-2.6V37.5c0-1.4,1.2-2.6,2.6-2.6h38.1c1.4,0,2.6,1.2,2.6,2.6v63.8
					C171.4,102.7,170.3,103.9,168.8,103.9z"/>
			</g>
			<g id="XMLID_4131_">
				<path class="st3" d="M167.6,104.9h-35.6c-2.7,0-4.9-2.2-4.9-4.9V38.8c0-2.7,2.2-4.9,4.9-4.9h2.4v2h-2.4c-1.6,0-2.9,1.3-2.9,2.9
					V100c0,1.6,1.3,2.9,2.9,2.9h35.6c1.6,0,2.9-1.3,2.9-2.9V38.8c0-1.6-1.3-2.9-2.9-2.9H143v-2h24.5c2.7,0,4.9,2.2,4.9,4.9V100
					C172.4,102.7,170.2,104.9,167.6,104.9z"/>
			</g>
			<g id="XMLID_4130_">
				<rect x="136.6" y="33.9" class="st3" width="4.8" height="2"/>
			</g>
			<g id="XMLID_4129_">
				<rect x="143.3" y="39.1" class="st3" width="12.8" height="2"/>
			</g>
			<g id="XMLID_4128_">
				<path class="st3" d="M149.8,101.3c-1.7,0-3.1-1.4-3.1-3.1c0-1.7,1.4-3.1,3.1-3.1s3.1,1.4,3.1,3.1
					C152.8,99.9,151.4,101.3,149.8,101.3z M149.8,97.2c-0.6,0-1.1,0.5-1.1,1.1s0.5,1.1,1.1,1.1s1.1-0.5,1.1-1.1
					S150.4,97.2,149.8,97.2z"/>
			</g>
			<g id="XMLID_4127_">
				<path class="st8" d="M165.1,93.7h-30.7c-1.1,0-2-0.9-2-2V46.8c0-1.1,0.9-2,2-2h30.7c1.1,0,2,0.9,2,2v44.9
					C167.1,92.8,166.2,93.7,165.1,93.7z"/>
			</g>
		</g>
	</g>
	<g>
		<g>
			<g id="XMLID_2_">
				<g id="XMLID_3_">
					<g id="XMLID_12_">
						<path class="st2" d="M155.6,51.1l7.5,7.5v26.3c0,1.2-1,2.2-2.2,2.2h-22.5c-1.2,0-2.2-1-2.2-2.2V53.2c0-1.2,1-2.2,2.2-2.2
							H155.6z"/>
					</g>
					<g id="XMLID_11_">
						<polygon class="st4" points="155.6,58.6 155.6,51.1 163.1,58.6 						"/>
					</g>
					<g id="XMLID_10_">
						<path class="st3" d="M163.1,59.1h-6.8c-0.7,0-1.3-0.6-1.3-1.3v-6.8h1.1v6.8c0,0.1,0.1,0.2,0.2,0.2h6.8V59.1z"/>
					</g>
					<g id="XMLID_9_">
						<rect x="152" y="63.5" class="st3" width="7.5" height="1.1"/>
					</g>
					<g id="XMLID_8_">
						<rect x="152" y="66.6" class="st3" width="7.5" height="1.1"/>
					</g>
					<g id="XMLID_7_">
						<rect x="152" y="69.6" class="st3" width="7.5" height="1.1"/>
					</g>
					<g id="XMLID_6_">
						<rect x="140.4" y="75.7" class="st3" width="19.2" height="1.1"/>
					</g>
					<g id="XMLID_5_">
						<rect x="140.4" y="78.7" class="st3" width="19.2" height="1.1"/>
					</g>
					<g id="XMLID_4_">
						<rect x="140.4" y="72.6" class="st3" width="19.2" height="1.1"/>
					</g>
				</g>
			</g>
			<g id="XMLID_1_">
				<g>
					<path class="st3" d="M161,87.6h-22.5c-1.5,0-2.7-1.2-2.7-2.7V53.2c0-1.5,1.2-2.7,2.7-2.7h17.3l7.8,7.8v26.5
						C163.7,86.4,162.5,87.6,161,87.6z M138.5,51.6c-0.9,0-1.6,0.7-1.6,1.6v31.7c0,0.9,0.7,1.6,1.6,1.6H161c0.9,0,1.6-0.7,1.6-1.6
						V58.8l-7.2-7.2H138.5z"/>
				</g>
			</g>
			<g>
				<rect x="141.4" y="64.6" class="st5" width="8.4" height="5"/>
				<g>
					<path class="st3" d="M150.8,70.6h-10.5v-7.1h10.5V70.6z M141.4,69.6h8.4v-5h-8.4V69.6z"/>
				</g>
				<g>
					
						<rect x="145.1" y="62.2" transform="matrix(0.5144 -0.8575 0.8575 0.5144 13.1672 157.435)" class="st3" width="1" height="9.8"/>
				</g>
				<g>
					
						<rect x="140.7" y="66.6" transform="matrix(0.8575 -0.5145 0.5145 0.8575 -13.7682 84.4735)" class="st3" width="9.8" height="1"/>
				</g>
			</g>
			<g>
				<path class="st4" d="M145,56.9c0-1.3-1-2.3-2.3-2.3c-1.3,0-2.3,1-2.3,2.3c0,1.3,1,2.3,2.3,2.3c0.6,0,1.2-0.2,1.6-0.6v0.2
					c0,0.2,0.2,0.4,0.4,0.4c0.2,0,0.4-0.2,0.4-0.4L145,56.9L145,56.9z M144.2,56.9L144.2,56.9c0,0.9-0.7,1.6-1.6,1.6
					c-0.9,0-1.6-0.7-1.6-1.6s0.7-1.6,1.6-1.6C143.5,55.3,144.2,56,144.2,56.9L144.2,56.9z"/>
			</g>
		</g>
	</g>
	<g>
		<circle class="st5" cx="127.1" cy="106" r="8.4"/>
		<g>
			<path class="st3" d="M127.1,115.2c-2.3,0-4.4-0.8-6.1-2.3l1-1.1c1.4,1.3,3.2,1.9,5.1,1.9c4.2,0,7.7-3.4,7.7-7.7
				c0-4.2-3.4-7.7-7.7-7.7c-2,0-4,0.8-5.4,2.2l-1.1-1.1c1.7-1.7,4-2.7,6.5-2.7c5.1,0,9.2,4.1,9.2,9.2
				C136.3,111.1,132.2,115.2,127.1,115.2z"/>
		</g>
		<g>
			<polygon class="st3" points="126.2,109.1 122.9,105.9 124.1,104.8 126.2,106.9 130.1,102.9 131.3,104 			"/>
		</g>
	</g>
</g>
</svg>
