<?xml version="1.0" encoding="utf-8"?>
<!-- Generator: Adobe Illustrator 22.1.0, SVG Export Plug-In . SVG Version: 6.00 Build 0)  -->
<svg version="1.1" id="apps_development" xmlns="http://www.w3.org/2000/svg" xmlns:xlink="http://www.w3.org/1999/xlink" x="0px"
	 y="0px" viewBox="0 0 500 500" style="enable-background:new 0 0 500 500;" xml:space="preserve">
<style type="text/css">
	.st0{fill:#FFFFFF;}
	.st1{fill:none;stroke:#2D333A;stroke-width:4;stroke-miterlimit:10;stroke-dasharray:5;}
	.st2{fill:#2D333A;}
	.st3{fill:#B7BFC7;}
	.st4{fill:#F2F2F2;}
	.st5{fill:#00BFFF;}
	.st6{fill:#FFB13E;}
	.st7{fill:#FF5B40;}
	.st8{fill:#FF5B40;stroke:#2D333A;stroke-width:6;stroke-miterlimit:10;}
	.st9{fill:#FFFFFF;stroke:#2D333A;stroke-width:6;stroke-miterlimit:10;}
	.st10{fill:#00BFFF;stroke:#2D333A;stroke-width:6;stroke-linejoin:round;stroke-miterlimit:10;}
	.st11{fill:#F2F2F2;stroke:#2D333A;stroke-width:6;stroke-miterlimit:10;}
	.st12{fill:#F2F2F2;stroke:#2D333A;stroke-width:6;stroke-linecap:round;stroke-miterlimit:10;}
	.st13{fill:none;stroke:#2D333A;stroke-width:6;stroke-miterlimit:10;}
	.st14{fill:none;stroke:#2D333A;stroke-width:6;stroke-linecap:round;stroke-miterlimit:10;}
	.st15{fill:#FFFFFF;stroke:#2D333A;stroke-width:6;stroke-linecap:round;stroke-linejoin:round;stroke-miterlimit:10;}
	.st16{opacity:0.2;fill:#2D333A;}
	.st17{fill:#FFEBD7;}
	.st18{fill:#B79C92;}
	.st19{fill:#DCE4E8;}
	.st20{fill:#58595B;}
	.st21{fill:#414042;}
	.st22{opacity:0.3;}
	.st23{fill:#231F20;}
	.st24{fill:#BCBEC0;}
</style>
<g>
	<g>
		<path class="st0" d="M182.3,441h205c10.8,0,19.6-8.8,19.6-19.6l0,0c0-10.8-8.8-19.6-19.6-19.6H341c-6.5,0-11.8-5.3-11.8-11.8l0,0
			c0-6.5,5.3-11.8,11.8-11.8h96.7c9.6,0,17.5-7.8,17.5-17.5v0c0-9.6-7.8-17.5-17.5-17.5H302.1c-7.7,0-13.8-6.2-13.8-13.9l0,0
			c0-7.6,6.2-13.7,13.8-13.7h161.5c7.8,0,14.1-6.3,14.1-14.1v-1.9c0-7.8-6.3-14.1-14.1-14.1H63.7c-10.9,0-19.8,8.9-19.8,19.8v0
			c0,10.9,8.9,19.8,19.8,19.8H92c7.9,0,14.2,6.4,14.2,14.2l0,0c0,7.9-6.4,14.2-14.2,14.2H20.3c-9.9,0-18,8-18,18l0,0
			c0,9.9,8,18,18,18h204c6.4,0,11.6,5.2,11.6,11.6l0,0c0,6.4-5.2,11.6-11.6,11.6H114c-7.8,0-14.1,6.3-14.1,14.1l0,0
			c0,7.8,6.3,14.1,14.1,14.1H182.3z"/>
	</g>
	<g>
		<path class="st0" d="M317.7,109.1h-205c-10.8,0-19.6,8.8-19.6,19.6l0,0c0,10.8,8.8,19.6,19.6,19.6H159c6.5,0,11.8,5.3,11.8,11.8
			l0,0c0,6.5-5.3,11.8-11.8,11.8H62.3c-9.6,0-17.5,7.8-17.5,17.5v0c0,9.6,7.8,17.5,17.5,17.5h135.6c7.7,0,13.8,6.2,13.8,13.9l0,0
			c0,7.6-6.2,13.7-13.8,13.7H36.5c-7.8,0-14.1,6.3-14.1,14.1v1.9c0,7.8,6.3,14.1,14.1,14.1h399.9c10.9,0,19.8-8.9,19.8-19.8v0
			c0-10.9-8.9-19.8-19.8-19.8H408c-7.9,0-14.2-6.4-14.2-14.2l0,0c0-7.9,6.4-14.2,14.2-14.2h71.8c9.9,0,18-8,18-18l0,0
			c0-9.9-8-18-18-18h-204c-6.4,0-11.6-5.2-11.6-11.6l0,0c0-6.4,5.2-11.6,11.6-11.6H416c7.8,0,14.1-6.3,14.1-14.1l0,0
			c0-7.8-6.3-14.1-14.1-14.1H317.7z"/>
	</g>
	<circle class="st1" cx="199.5" cy="265.3" r="119.8"/>
	<g>
		<path class="st2" d="M298.7,387.1c-1.7,0-3.4-0.1-5.1-0.2l0.2-4c1.6,0.1,3.3,0.1,4.9,0.2L298.7,387.1z M303.8,387.1l-0.1-4
			c1.6,0,3.3-0.1,4.9-0.2l0.3,4C307.2,387,305.5,387.1,303.8,387.1z M288.6,386.6c-1.7-0.2-3.4-0.4-5-0.6l0.6-4
			c1.6,0.2,3.2,0.4,4.9,0.6L288.6,386.6z M313.9,386.4l-0.4-4c1.6-0.2,3.3-0.4,4.9-0.6l0.6,4C317.3,386,315.6,386.2,313.9,386.4z
			 M278.5,385.2c-1.7-0.3-3.3-0.6-5-1l0.9-3.9c1.6,0.4,3.2,0.7,4.8,1L278.5,385.2z M324,384.9l-0.8-3.9c1.6-0.3,3.2-0.7,4.8-1
			l0.9,3.9C327.3,384.2,325.6,384.6,324,384.9z M268.6,382.9c-1.6-0.4-3.3-0.9-4.9-1.4l1.2-3.8c1.6,0.5,3.1,1,4.7,1.4L268.6,382.9z
			 M333.9,382.5l-1.1-3.8c1.6-0.4,3.2-0.9,4.7-1.4l1.3,3.8C337.1,381.6,335.5,382.1,333.9,382.5z M258.9,379.9
			c-1.6-0.6-3.2-1.2-4.8-1.8l1.5-3.7c1.5,0.6,3.1,1.2,4.6,1.8L258.9,379.9z M343.5,379.3l-1.4-3.7c1.5-0.6,3.1-1.2,4.5-1.8l1.6,3.7
			C346.7,378.1,345.1,378.7,343.5,379.3z M249.5,376c-1.5-0.7-3.1-1.5-4.6-2.2l1.8-3.6c1.5,0.7,2.9,1.5,4.4,2.2L249.5,376z
			 M352.8,375.4l-1.7-3.6c1.5-0.7,2.9-1.4,4.4-2.2l1.9,3.5C355.9,373.9,354.4,374.6,352.8,375.4z M240.4,371.3
			c-1.5-0.8-3-1.7-4.4-2.6l2.1-3.4c1.4,0.9,2.8,1.7,4.2,2.5L240.4,371.3z M361.8,370.6l-2-3.5c1.4-0.8,2.8-1.7,4.2-2.6l2.2,3.4
			C364.7,368.9,363.2,369.8,361.8,370.6z M231.8,366c-1.4-1-2.8-2-4.1-3l2.4-3.2c1.3,1,2.6,1.9,4,2.9L231.8,366z M370.3,365.1
			l-2.3-3.3c1.3-0.9,2.7-1.9,4-2.9l2.4,3.2C373.1,363.2,371.7,364.2,370.3,365.1z M223.6,359.9c-1.3-1.1-2.6-2.2-3.9-3.3l2.6-3
			c1.2,1.1,2.5,2.2,3.8,3.2L223.6,359.9z M378.4,359l-2.6-3.1c1.3-1,2.5-2.1,3.7-3.2l2.7,3C381,356.8,379.7,357.9,378.4,359z
			 M216,353.1c-1.2-1.2-2.4-2.4-3.6-3.6l2.9-2.8c1.1,1.2,2.3,2.3,3.5,3.5L216,353.1z M385.9,352.1l-2.8-2.9c1.2-1.1,2.3-2.3,3.4-3.5
			l2.9,2.7C388.3,349.7,387.1,351,385.9,352.1z M209,345.8c-1.1-1.3-2.2-2.6-3.3-3.9l3.1-2.5c1,1.3,2.1,2.5,3.2,3.8L209,345.8z
			 M392.9,344.7l-3-2.6c1.1-1.2,2.1-2.5,3.1-3.8l3.1,2.5C395.1,342.1,394,343.4,392.9,344.7z M202.6,337.9c-1-1.4-2-2.8-2.9-4.1
			l3.3-2.2c0.9,1.3,1.9,2.7,2.8,4L202.6,337.9z M399.2,336.7l-3.2-2.3c1-1.3,1.9-2.7,2.8-4l3.3,2.2
			C401.1,334,400.2,335.4,399.2,336.7z M196.9,329.5c-0.9-1.4-1.8-2.9-2.6-4.4l3.5-2c0.8,1.4,1.6,2.8,2.5,4.2L196.9,329.5z
			 M191.9,320.7c-0.8-1.5-1.5-3-2.2-4.6l3.6-1.7c0.7,1.5,1.4,3,2.1,4.4L191.9,320.7z M187.7,311.5c-0.6-1.6-1.3-3.2-1.8-4.7l3.8-1.4
			c0.6,1.5,1.1,3.1,1.8,4.6L187.7,311.5z M184.2,301.9c-0.5-1.6-1-3.2-1.4-4.9l3.9-1c0.4,1.6,0.9,3.2,1.4,4.7L184.2,301.9z
			 M181.6,292.1c-0.4-1.7-0.7-3.3-1-5l3.9-0.7c0.3,1.6,0.6,3.2,1,4.8L181.6,292.1z M179.8,282.1c-0.2-1.7-0.4-3.4-0.6-5l4-0.4
			c0.2,1.6,0.3,3.3,0.6,4.9L179.8,282.1z M178.8,272c-0.1-1.7-0.1-3.4-0.2-5.1l4-0.1c0,1.6,0.1,3.3,0.2,4.9L178.8,272z M182.7,261.9
			l-4-0.1c0-1.7,0.1-3.4,0.2-5.1l4,0.3C182.8,258.6,182.8,260.3,182.7,261.9z M418,257.4c-0.1-1.6-0.3-3.3-0.4-4.9l4-0.4
			c0.2,1.7,0.3,3.4,0.4,5.1L418,257.4z M183.4,252.1l-4-0.4c0.2-1.7,0.4-3.4,0.7-5l4,0.6C183.8,248.9,183.6,250.5,183.4,252.1z
			 M417,247.6c-0.2-1.6-0.5-3.2-0.8-4.8l3.9-0.8c0.3,1.7,0.6,3.3,0.9,5L417,247.6z M184.9,242.4l-3.9-0.8c0.3-1.7,0.7-3.3,1.1-5
			l3.9,0.9C185.6,239.2,185.2,240.8,184.9,242.4z M415.1,238c-0.4-1.6-0.8-3.2-1.2-4.8l3.8-1.1c0.5,1.6,0.9,3.3,1.3,4.9L415.1,238z
			 M187.2,232.9l-3.8-1.1c0.5-1.6,1-3.3,1.5-4.9l3.8,1.3C188.1,229.7,187.6,231.3,187.2,232.9z M412.4,228.5
			c-0.5-1.5-1.1-3.1-1.6-4.6l3.7-1.4c0.6,1.6,1.2,3.2,1.7,4.8L412.4,228.5z M190.3,223.5l-3.7-1.4c0.6-1.6,1.2-3.2,1.9-4.7l3.7,1.6
			C191.5,220.5,190.9,222,190.3,223.5z M409,219.3c-0.6-1.5-1.3-3-2-4.5l3.6-1.7c0.7,1.5,1.4,3.1,2.1,4.6L409,219.3z M194.2,214.5
			l-3.6-1.7c0.7-1.5,1.5-3,2.3-4.5l3.5,1.9C195.6,211.5,194.9,213,194.2,214.5z M404.8,210.5c-0.8-1.4-1.6-2.9-2.4-4.3l3.5-2
			c0.8,1.5,1.7,2.9,2.5,4.4L404.8,210.5z M198.8,205.8l-3.5-2c0.9-1.5,1.8-2.9,2.7-4.3l3.4,2.2C200.5,203,199.6,204.4,198.8,205.8z
			 M204.1,197.5l-3.3-2.3c1-1.4,2-2.8,3-4.1l3.2,2.4C206,194.8,205.1,196.2,204.1,197.5z M210.1,189.7l-3.1-2.6
			c1.1-1.3,2.2-2.6,3.3-3.8l3,2.7C212.3,187.2,211.2,188.5,210.1,189.7z M216.7,182.5l-2.8-2.8c1.2-1.2,2.4-2.4,3.6-3.5l2.7,2.9
			C219.1,180.1,217.9,181.3,216.7,182.5z M223.9,175.8l-2.6-3c1.3-1.1,2.6-2.2,3.9-3.2l2.5,3.1C226.4,173.7,225.2,174.7,223.9,175.8
			z M373.6,172.9c-1.3-1-2.6-2-3.9-3l2.4-3.2c1.4,1,2.7,2,4.1,3.1L373.6,172.9z M231.7,169.7l-2.3-3.2c1.4-1,2.8-2,4.2-2.9l2.2,3.3
			C234.3,167.8,233,168.7,231.7,169.7z M365.6,167.2c-1.4-0.9-2.8-1.8-4.2-2.6l2.1-3.4c1.4,0.9,2.9,1.8,4.3,2.7L365.6,167.2z
			 M239.9,164.3l-2.1-3.4c1.4-0.9,2.9-1.7,4.4-2.5l1.9,3.5C242.7,162.6,241.2,163.4,239.9,164.3z M357.2,162.1
			c-1.4-0.8-2.9-1.6-4.4-2.3l1.8-3.6c1.5,0.8,3,1.5,4.5,2.4L357.2,162.1z M248.5,159.6l-1.8-3.6c1.5-0.7,3.1-1.5,4.6-2.1l1.6,3.7
			C251.4,158.2,249.9,158.9,248.5,159.6z M348.4,157.7c-1.5-0.7-3-1.3-4.5-1.9l1.5-3.7c1.6,0.6,3.1,1.3,4.7,2L348.4,157.7z
			 M257.4,155.6l-1.5-3.7c1.6-0.6,3.2-1.2,4.8-1.8l1.3,3.8C260.5,154.5,258.9,155,257.4,155.6z M339.3,154c-1.5-0.5-3.1-1-4.7-1.5
			l1.2-3.8c1.6,0.5,3.3,1,4.8,1.6L339.3,154z M266.7,152.4l-1.1-3.8c1.6-0.5,3.3-0.9,4.9-1.4l1,3.9
			C269.9,151.5,268.3,152,266.7,152.4z M329.8,151.2c-1.6-0.4-3.2-0.8-4.8-1.1l0.8-3.9c1.7,0.4,3.3,0.7,4.9,1.2L329.8,151.2z
			 M276.2,150l-0.8-3.9c1.7-0.3,3.3-0.7,5-0.9l0.7,3.9C279.5,149.4,277.8,149.7,276.2,150z M320.2,149.2c-1.6-0.3-3.3-0.5-4.9-0.7
			l0.5-4c1.7,0.2,3.4,0.5,5,0.7L320.2,149.2z M285.9,148.4l-0.5-4c1.7-0.2,3.4-0.4,5.1-0.5l0.3,4C289.2,148,287.6,148.2,285.9,148.4
			z M310.5,147.9c-1.6-0.1-3.3-0.2-4.9-0.3l0.2-4c1.7,0.1,3.4,0.2,5.1,0.3L310.5,147.9z M295.7,147.6l-0.2-4
			c1.6-0.1,3.2-0.1,4.9-0.1c0,0,0,0,0,0h0.2v4h-0.2C298.9,147.5,297.3,147.5,295.7,147.6z"/>
	</g>
	<g id="XMLID_472_">
		<path class="st3" d="M96,405.7c0,1.4-1.1,2.5-2.5,2.5c-1.4,0-2.5-1.1-2.5-2.5c0-1.4,1.1-2.5,2.5-2.5C94.9,403.2,96,404.3,96,405.7
			z"/>
	</g>
	<g id="XMLID_471_">
		<path class="st3" d="M266.2,62.5c0,1.2-1,2.2-2.2,2.2c-1.2,0-2.2-1-2.2-2.2c0-1.2,1-2.2,2.2-2.2C265.3,60.4,266.2,61.3,266.2,62.5
			z"/>
	</g>
	<g id="XMLID_469_">
		<path class="st3" d="M214.9,40.9c-4.1,1.1-4.9,1.9-6,6c-1.1-4.1-1.9-4.9-6-6c4.1-1.1,4.9-1.9,6-6C210,39,210.9,39.9,214.9,40.9z"
			/>
	</g>
	<g id="XMLID_468_">
		<path class="st3" d="M431.9,100.7c-3.9,1-4.8,1.9-5.8,5.8c-1-3.9-1.9-4.8-5.8-5.8c3.9-1,4.8-1.9,5.8-5.8
			C427.1,98.8,428,99.6,431.9,100.7z"/>
	</g>
	<g id="XMLID_466_">
		<path class="st3" d="M48.5,282.9c-5.1,1.3-6.2,2.4-7.5,7.5c-1.3-5.1-2.4-6.2-7.5-7.5c5.1-1.3,6.2-2.4,7.5-7.5
			C42.3,280.5,43.4,281.6,48.5,282.9z"/>
	</g>
	<g id="XMLID_459_">
		<path class="st3" d="M477.4,339.4c-4.1,1.1-4.9,1.9-6,6c-1.1-4.1-1.9-4.9-6-6c4.1-1.1,4.9-1.9,6-6
			C472.5,337.4,473.4,338.3,477.4,339.4z"/>
	</g>
	<g id="XMLID_458_">
		<path class="st3" d="M169.3,92c-2.8,0.8-3.5,1.4-4.2,4.2c-0.8-2.8-1.4-3.5-4.2-4.2c2.8-0.8,3.5-1.4,4.2-4.2
			C165.9,90.7,166.5,91.3,169.3,92z"/>
	</g>
	<g>
		<g>
			<g id="XMLID_14_">
				<g id="XMLID_15_">
					<g id="XMLID_24_">
						<path class="st4" d="M105.4,322.7l13,13v45.5c0,2.1-1.7,3.7-3.7,3.7H75.8c-2.1,0-3.7-1.7-3.7-3.7v-54.8c0-2.1,1.7-3.7,3.7-3.7
							H105.4z"/>
					</g>
					<g id="XMLID_23_">
						<polygon class="st5" points="105.4,335.8 105.4,322.7 118.5,335.8 						"/>
					</g>
					<g id="XMLID_22_">
						<path class="st2" d="M118.5,336.7h-11.7c-1.2,0-2.2-1-2.2-2.2v-11.7h1.8v11.7c0,0.2,0.2,0.4,0.4,0.4h11.7V336.7z"/>
					</g>
					<g id="XMLID_21_">
						<rect x="99.2" y="344.3" class="st2" width="13" height="1.8"/>
					</g>
					<g id="XMLID_20_">
						<rect x="99.2" y="349.6" class="st2" width="13" height="1.8"/>
					</g>
					<g id="XMLID_19_">
						<rect x="99.2" y="354.8" class="st2" width="13" height="1.8"/>
					</g>
					<g id="XMLID_18_">
						<rect x="79.1" y="365.3" class="st2" width="33.1" height="1.8"/>
					</g>
					<g id="XMLID_17_">
						<rect x="79.1" y="370.5" class="st2" width="33.1" height="1.8"/>
					</g>
					<g id="XMLID_16_">
						<rect x="79.1" y="360" class="st2" width="33.1" height="1.8"/>
					</g>
				</g>
			</g>
			<g id="XMLID_13_">
				<g>
					<path class="st2" d="M114.7,385.9H75.8c-2.5,0-4.6-2.1-4.6-4.6v-54.8c0-2.5,2.1-4.6,4.6-4.6h30l13.5,13.5v45.8
						C119.3,383.8,117.3,385.9,114.7,385.9z M75.8,323.6c-1.6,0-2.8,1.3-2.8,2.8v54.8c0,1.6,1.3,2.8,2.8,2.8h38.9
						c1.6,0,2.8-1.3,2.8-2.8v-45.1l-12.5-12.5H75.8z"/>
				</g>
			</g>
			<g>
				<rect x="80.9" y="346.1" class="st6" width="14.5" height="8.7"/>
				<g>
					<path class="st2" d="M97.2,356.6H79.1v-12.3h18.1V356.6z M80.9,354.8h14.5v-8.7H80.9V354.8z"/>
				</g>
				<g>
					
						<rect x="87.2" y="342" transform="matrix(0.5144 -0.8575 0.8575 0.5144 -257.7355 245.722)" class="st2" width="1.8" height="16.9"/>
				</g>
				<g>
					
						<rect x="79.6" y="349.6" transform="matrix(0.8575 -0.5145 0.5145 0.8575 -167.7483 95.2754)" class="st2" width="16.9" height="1.8"/>
				</g>
			</g>
			<g>
				<path class="st5" d="M87,332.8c0-2.2-1.8-4-4-4s-4,1.8-4,4c0,2.2,1.8,4,4,4c1,0,2-0.4,2.7-1.1v0.3c0,0.4,0.3,0.6,0.6,0.6
					c0.4,0,0.6-0.3,0.6-0.6L87,332.8L87,332.8z M85.8,332.8L85.8,332.8c0,1.5-1.2,2.7-2.7,2.7c-1.5,0-2.7-1.2-2.7-2.7
					s1.2-2.7,2.7-2.7C84.5,330.1,85.8,331.3,85.8,332.8L85.8,332.8z"/>
			</g>
		</g>
		<g>
			<circle class="st6" cx="117.7" cy="384.2" r="8.4"/>
			<g>
				<path class="st2" d="M117.7,393.4c-2.3,0-4.4-0.8-6.1-2.3l1-1.1c1.4,1.3,3.2,1.9,5.1,1.9c4.2,0,7.7-3.4,7.7-7.7
					c0-4.2-3.4-7.7-7.7-7.7c-2,0-4,0.8-5.4,2.2l-1.1-1.1c1.7-1.7,4-2.7,6.5-2.7c5.1,0,9.2,4.1,9.2,9.2
					C126.9,389.3,122.8,393.4,117.7,393.4z"/>
			</g>
			<g>
				<polygon class="st2" points="116.8,387.3 113.6,384.1 114.7,383 116.8,385 120.8,381.1 121.9,382.2 				"/>
			</g>
		</g>
	</g>
	<g>
		<g id="XMLID_168_">
			<g id="XMLID_169_">
				<path class="st0" d="M85.6,96.6c-0.2-1.1-0.2-1.6-0.1-2.2c0-0.2,0-0.4,0-0.7c0-3.6,0.7-7.1,2.1-10.4c1.3-3.2,3.3-6,5.7-8.5
					c0.2-0.2,0.3-0.3,0.4-0.4c0.4-0.5,0.7-0.8,1.5-1.3l4.4,5.7c-0.4,0.3-0.4,0.3-0.6,0.5c-0.1,0.1-0.3,0.3-0.6,0.6
					c-1.8,1.8-3.2,3.9-4.2,6.2c-1,2.4-1.5,4.9-1.5,7.6c0,0.4,0,0.7,0,0.9c0,0.4,0,0.4,0.1,0.9L85.6,96.6z"/>
			</g>
		</g>
		<g id="XMLID_165_">
			<g id="XMLID_166_">
				<path class="st3" d="M112.1,120.3c-3.6,0-7.1-0.7-10.4-2.1c-3.2-1.3-6-3.3-8.5-5.7c-2.4-2.4-4.4-5.3-5.7-8.5
					c-0.4-0.9-0.7-1.8-1-2.8l6.9-2c0.2,0.7,0.4,1.4,0.7,2c1,2.3,2.4,4.4,4.2,6.2c1.8,1.8,3.9,3.2,6.2,4.2c4.8,2,10.3,2,15.1,0
					c2.3-1,4.4-2.4,6.2-4.2c1.8-1.8,3.2-3.9,4.2-6.2l6.6,2.8c-1.3,3.2-3.3,6-5.7,8.5c-2.4,2.4-5.3,4.4-8.5,5.7
					C119.1,119.6,115.6,120.3,112.1,120.3z"/>
			</g>
		</g>
		<g id="XMLID_157_">
			<g id="XMLID_164_">
				<path class="st5" d="M138.1,99.2l-7-1.5c0.3-1.3,0.4-2.7,0.4-4c0-2.6-0.5-5.2-1.5-7.6c-1-2.3-2.4-4.4-4.2-6.2
					c-1.8-1.8-3.9-3.2-6.2-4.2c-4.8-2-10.3-2-15.1,0c-0.3,0.1-0.6,0.2-0.8,0.3c-0.3,0.1-0.4,0.1-0.7,0.4l-3.7-6.2
					c0.8-0.5,1.2-0.7,1.8-0.9c0.1-0.1,0.3-0.1,0.6-0.2c6.6-2.8,14.2-2.8,20.7,0c3.2,1.3,6,3.3,8.5,5.7c2.4,2.4,4.4,5.3,5.7,8.5
					c1.4,3.3,2.1,6.8,2.1,10.4C138.7,95.6,138.5,97.4,138.1,99.2z"/>
			</g>
		</g>
		<g id="XMLID_136_">
			<g id="XMLID_141_">
				<path class="st2" d="M86.3,98.1c-0.5,0-1-0.2-1.5-0.5c-0.5-0.4-0.9-1-0.9-1.7c-0.1-0.6-0.1-1,0-1.5l0-0.7
					c0-5.5,1.5-10.6,4.5-15.3c1-1.6,2.3-3.1,3.8-4.7l0.3-0.3c0.3-0.3,0.6-0.6,0.9-0.9c0.5-0.4,1.2-0.6,1.8-0.6
					c0.7,0.1,1.3,0.4,1.6,0.9l3.4,4.4c0.7,1,0.6,2.3-0.2,3.1L99.4,81c-1.7,1.7-2.9,3.6-3.8,5.7c-0.9,2.2-1.4,4.5-1.4,7
					c0,0.4,0,0.7,0,0.9c0,0.3,0,0.4,0,0.7l0.2,1.5L86.6,98C86.5,98,86.4,98.1,86.3,98.1z M94.9,75.4c0,0-0.1,0.1-0.1,0.1l-0.3,0.4
					c-1.4,1.5-2.6,2.8-3.4,4.2c-2.7,4.2-4,8.8-4,13.6c0,0.3,0,0.6,0,0.7c0,0.2,0,0.3,0,0.4l4.1-0.6c0-0.2,0-0.3,0-0.5
					c0-2.8,0.6-5.6,1.6-8.2c1.1-2.5,2.6-4.7,4.5-6.7l0.2-0.2L94.9,75.4z"/>
			</g>
		</g>
		<g id="XMLID_134_">
			<g id="XMLID_135_">
				<path class="st2" d="M112.1,121.9c-3.8,0-7.5-0.7-11-2.2c-3.4-1.4-6.4-3.5-9-6c-2.6-2.6-4.6-5.6-6-9c-0.3-0.7-0.6-1.5-0.8-2.2
					c-0.2-0.6-0.1-1.2,0.1-1.7c0.3-0.5,0.8-1,1.4-1.1l5.5-1.6c1.2-0.3,2.4,0.3,2.8,1.5c0.1,0.4,0.3,0.8,0.5,1.3
					c0.9,2.1,2.2,4,3.8,5.7c2.5,2.5,5.5,4.1,9,4.9c2.4,0.5,4.9,0.5,7.2,0c3.5-0.8,6.5-2.4,9-4.9c1.5-1.5,2.7-3.2,3.6-5.1
					c0.5-1.1,1.8-1.6,3-1.2l5.2,2.2c0.6,0.2,1,0.7,1.3,1.3c0.2,0.6,0.2,1.2-0.1,1.8c-1.4,3-3.3,5.8-5.7,8.2c-2.6,2.6-5.6,4.6-9,6
					C119.5,121.1,115.9,121.9,112.1,121.9z M88.5,102.3c0.1,0.4,0.3,0.8,0.5,1.2c1.3,3,3.1,5.7,5.4,8c2.3,2.3,5,4.1,8,5.4
					c6.2,2.6,13.3,2.6,19.5,0c3-1.3,5.7-3.1,8-5.4c1.9-1.9,3.5-4.1,4.7-6.6l-3.8-1.6c-1,1.9-2.3,3.7-3.8,5.3
					c-2.9,2.9-6.5,4.8-10.6,5.7c-2.8,0.6-5.7,0.6-8.5,0c-4.1-0.9-7.6-2.8-10.6-5.7c-1.9-1.9-3.4-4.2-4.5-6.7
					c-0.1-0.2-0.2-0.5-0.3-0.7L88.5,102.3z"/>
			</g>
		</g>
		<g id="XMLID_131_">
			<g id="XMLID_133_">
				<path class="st2" d="M137.5,100.6c-0.2,0-0.3,0-0.5,0l-5.6-1.2c-1.2-0.3-2-1.4-1.8-2.6c0.2-1,0.3-2,0.3-3c0-2.4-0.5-4.8-1.4-7
					c-0.9-2.1-2.2-4-3.8-5.7c-1.6-1.6-3.6-2.9-5.7-3.8c-4.4-1.9-9.5-1.9-13.9,0l-0.9,0.4c-1.1,0.5-2.3,0.1-2.9-0.9l-2.9-4.9
					c-0.3-0.5-0.4-1.2-0.2-1.8c0.2-0.6,0.6-1.1,1.1-1.4c0.5-0.3,0.8-0.4,1.3-0.6l0.3-0.1c3.5-1.4,7.1-2.2,10.6-2.3l0.1,3.1
					c-3.2,0.1-6.4,0.8-9.5,2.1l-0.4,0.2c-0.1,0-0.1,0.1-0.2,0.1l2.2,3.6l0.3-0.1c5.2-2.2,11.1-2.2,16.3,0c2.5,1.1,4.7,2.6,6.7,4.5
					c1.9,1.9,3.4,4.2,4.5,6.7c1.1,2.6,1.6,5.3,1.6,8.2c0,0.9-0.1,1.9-0.2,2.8l4,0.9c0.2-1.2,0.3-2.5,0.3-3.7c0-3.4-0.7-6.7-2-9.8
					c-1.3-3-3.1-5.7-5.4-8c-2.3-2.3-5-4.1-8-5.4l1.2-2.8c3.4,1.4,6.4,3.4,8.9,6c2.6,2.6,4.6,5.6,6,9c1.5,3.5,2.2,7.2,2.2,11
					c0,1.7-0.2,3.4-0.4,5c-0.1,0.6-0.5,1.1-1,1.5C138.4,100.5,138,100.6,137.5,100.6z"/>
			</g>
			<g id="XMLID_132_">
				<path class="st2" d="M119.5,69.7c-1-0.3-2-0.6-3.1-0.8l0.6-3c1.2,0.2,2.3,0.5,3.4,0.9L119.5,69.7z"/>
			</g>
		</g>
		<g id="XMLID_130_">
			<rect x="99.5" y="92.9" class="st6" width="5.5" height="10.8"/>
		</g>
		<g id="XMLID_129_">
			<rect x="108.8" y="88.7" class="st7" width="5.5" height="15"/>
		</g>
		<g id="XMLID_128_">
			<rect x="118.1" y="82.5" class="st6" width="5.5" height="21.2"/>
		</g>
		<g id="XMLID_122_">
			<path class="st2" d="M106.5,105.2h-8.6V91.4h8.6V105.2z M101,102.2h2.4v-7.7H101V102.2z"/>
		</g>
		<g id="XMLID_120_">
			<path class="st2" d="M115.8,105.2h-8.6V87.2h8.6V105.2z M110.3,102.2h2.4V90.2h-2.4V102.2z"/>
		</g>
		<g id="XMLID_119_">
			<path class="st2" d="M125.2,105.2h-8.6V81h8.6V105.2z M119.7,102.2h2.4V84h-2.4V102.2z"/>
		</g>
	</g>
	<g id="XMLID_5308_">
		<path class="st3" d="M262.2,426c-5.4,1.4-6.6,2.6-8,8c-1.4-5.4-2.6-6.6-8-8c5.4-1.4,6.6-2.6,8-8
			C255.6,423.4,256.8,424.6,262.2,426z"/>
	</g>
	<g id="XMLID_5307_">
		<path class="st3" d="M333.6,464.6c-2.8,0.8-3.5,1.4-4.2,4.2c-0.8-2.8-1.4-3.5-4.2-4.2c2.8-0.8,3.5-1.4,4.2-4.2
			C330.1,463.2,330.7,463.9,333.6,464.6z"/>
	</g>
	<g>
		<g id="XMLID_5462_">
			<path class="st5" d="M386.8,437l-2.6,0c-0.3-1.3-0.8-2.6-1.5-3.7l1.8-1.8c0.7-0.7,0.7-1.7,0-2.4l-1.4-1.4c-0.7-0.7-1.7-0.7-2.4,0
				l-1.8,1.8c-1.1-0.7-2.4-1.2-3.7-1.5v-2.6c0-0.9-0.8-1.7-1.7-1.7h-1.9c-0.9,0-1.7,0.7-1.7,1.7v2.6c-1.3,0.3-2.6,0.8-3.7,1.5
				l-1.8-1.8c-0.7-0.7-1.7-0.7-2.4,0l-1.4,1.4c-0.7,0.6-0.7,1.7,0,2.4l1.8,1.8c-0.7,1.1-1.3,2.4-1.6,3.7l-2.6,0
				c-0.9,0-1.7,0.7-1.7,1.7l0,1.9c0,0.9,0.7,1.7,1.7,1.7l2.6,0c0.3,1.3,0.8,2.6,1.5,3.7l-1.8,1.8c-0.7,0.6-0.7,1.7,0,2.4l1.4,1.4
				c0.7,0.7,1.7,0.7,2.4,0l1.8-1.8c1.1,0.7,2.4,1.3,3.7,1.6l0,2.6c0,0.9,0.7,1.7,1.7,1.7l1.9,0c0.9,0,1.7-0.7,1.7-1.7l0-2.6
				c1.3-0.3,2.6-0.8,3.7-1.5l1.8,1.8c0.6,0.7,1.7,0.7,2.4,0l1.4-1.4c0.7-0.6,0.7-1.7,0-2.4l-1.8-1.8c0.7-1.1,1.2-2.4,1.5-3.7l2.6,0
				c0.9,0,1.7-0.7,1.7-1.7v-1.9C388.4,437.8,387.7,437,386.8,437z M372.6,445c-2.9,0-5.3-2.4-5.3-5.3c0-2.9,2.4-5.3,5.3-5.3
				c2.9,0,5.3,2.4,5.3,5.3C377.9,442.6,375.5,445,372.6,445z"/>
		</g>
		<g id="XMLID_5419_">
			<path class="st7" d="M412.8,403.9l-3.6,0c-0.4-1.8-1.1-3.6-2.1-5.1l2.5-2.5c0.9-0.9,0.9-2.4,0-3.3l-1.9-1.9
				c-0.9-0.9-2.4-0.9-3.3,0l-2.5,2.5c-1.5-1-3.3-1.7-5.1-2.1V388c0-1.3-1-2.3-2.3-2.3h-2.7c-1.3,0-2.3,1-2.3,2.3v3.6
				c-1.8,0.4-3.5,1.1-5.1,2.1l-2.5-2.5c-0.9-0.9-2.4-0.9-3.3,0l-1.9,1.9c-0.9,0.9-0.9,2.4,0,3.3l2.5,2.5c-1,1.5-1.7,3.3-2.1,5.1
				l-3.6,0c-1.3,0-2.3,1-2.3,2.3l0,2.7c0,1.3,1,2.3,2.3,2.3l3.6,0c0.4,1.9,1.1,3.6,2.1,5.1l-2.5,2.5c-0.9,0.9-0.9,2.3,0,3.2l1.9,1.9
				c0.9,0.9,2.4,0.9,3.3,0l2.5-2.5c1.6,1,3.3,1.7,5.1,2.1l0,3.6c0,1.3,1,2.3,2.3,2.3l2.7,0c1.3,0,2.3-1,2.3-2.3l0-3.6
				c1.8-0.4,3.6-1.1,5.1-2.1l2.5,2.5c0.9,0.9,2.4,0.9,3.3,0l1.9-1.9c0.9-0.9,0.9-2.4,0-3.2l-2.5-2.5c1-1.6,1.7-3.3,2.1-5.1l3.6,0
				c1.3,0,2.3-1,2.3-2.3v-2.7C415.1,405,414.1,403.9,412.8,403.9z M393.2,414.8c-4,0-7.3-3.3-7.3-7.3c0-4,3.3-7.3,7.3-7.3
				c4,0,7.3,3.3,7.3,7.3C400.5,411.6,397.3,414.8,393.2,414.8z"/>
		</g>
	</g>
	<path class="st8" d="M350.7,403.8H149.3c-2.8,0-5-2.2-5-5V129.9c0-2.8,2.2-5,5-5h201.3c2.8,0,5,2.2,5,5v268.9
		C355.7,401.5,353.4,403.8,350.7,403.8z"/>
	<path class="st9" d="M290.9,385.4l46.1-46.1V158.4c0-7.3-5.9-13.2-13.2-13.2H176.2c-7.3,0-13.2,5.9-13.2,13.2v213.8
		c0,7.3,5.9,13.2,13.2,13.2H290.9z"/>
	<path class="st10" d="M290.9,385.4v-36.1c0-5.5,4.5-10,10-10H337L290.9,385.4z"/>
	<path class="st11" d="M288.1,165.1h-76.2c-6.1,0-10.8-5.4-9.9-11.4l7.1-49.4c0.7-4.9,4.9-8.6,9.9-8.6H281c5,0,9.2,3.7,9.9,8.6
		l7.1,49.4C298.9,159.7,294.2,165.1,288.1,165.1z"/>
	<line class="st12" x1="216" y1="145.2" x2="284" y2="145.2"/>
	<line class="st12" x1="225" y1="124.9" x2="275" y2="124.9"/>
	<path class="st13" d="M215.9,221.4h-27.7c-2.3,0-4.2-1.9-4.2-4.2v-27.7c0-2.3,1.9-4.2,4.2-4.2h27.7c2.3,0,4.2,1.9,4.2,4.2v27.7
		C220.1,219.6,218.2,221.4,215.9,221.4z"/>
	<line class="st14" x1="235.2" y1="192.5" x2="306" y2="192.5"/>
	<line class="st14" x1="235.2" y1="203.4" x2="306" y2="203.4"/>
	<line class="st14" x1="235.2" y1="214.3" x2="276" y2="214.3"/>
	<line class="st14" x1="235.2" y1="244.4" x2="306" y2="244.4"/>
	<line class="st14" x1="235.2" y1="255.3" x2="306" y2="255.3"/>
	<line class="st14" x1="235.2" y1="266.2" x2="276" y2="266.2"/>
	<line class="st14" x1="235.2" y1="296.3" x2="306" y2="296.3"/>
	<line class="st14" x1="235.2" y1="307.2" x2="306" y2="307.2"/>
	<line class="st14" x1="235.2" y1="318.1" x2="276" y2="318.1"/>
	<path class="st13" d="M215.9,273.3h-27.7c-2.3,0-4.2-1.9-4.2-4.2v-27.7c0-2.3,1.9-4.2,4.2-4.2h27.7c2.3,0,4.2,1.9,4.2,4.2v27.7
		C220.1,271.4,218.2,273.3,215.9,273.3z"/>
	<path class="st13" d="M215.9,325.2h-27.7c-2.3,0-4.2-1.9-4.2-4.2v-27.7c0-2.3,1.9-4.2,4.2-4.2h27.7c2.3,0,4.2,1.9,4.2,4.2V321
		C220.1,323.3,218.2,325.2,215.9,325.2z"/>
	<circle class="st2" cx="250" cy="109.6" r="3"/>
	<polyline class="st15" points="194.4,207.5 201.2,211.4 209.7,195.5 	"/>
	<polyline class="st15" points="194.4,259.4 201.2,263.2 209.7,247.3 	"/>
	<path class="st16" d="M329.5,170L204.8,294.6l-10.5,23.1c-0.4,0.9-0.2,2,0.5,2.7c0.7,0.7,1.8,0.9,2.7,0.5l22.5-10.1l125.3-125.1
		L329.5,170z"/>
	<g id="XMLID_347_">
		<path id="XMLID_346_" class="st0" d="M206.1,290l123.3-123.3l13.1,13.1L219.2,303.1l-22.5,10.1c-0.4,0.2-0.9-0.3-0.7-0.7
			L206.1,290z"/>
		
			<rect id="XMLID_345_" x="187.1" y="225.6" transform="matrix(-0.7071 0.7071 -0.7071 -0.7071 634.4392 206.9509)" class="st7" width="174.4" height="18.5"/>
		
			<rect id="XMLID_344_" x="190.4" y="233.5" transform="matrix(-0.7071 0.7071 -0.7071 -0.7071 642.3521 210.2285)" class="st6" width="174.4" height="9.3"/>
		
			<rect id="XMLID_343_" x="325.9" y="167.6" transform="matrix(-0.7071 0.7071 -0.7071 -0.7071 691.9473 68.1148)" class="st5" width="11.8" height="19.6"/>
		
			<rect id="XMLID_5589_" x="319.7" y="175.4" transform="matrix(-0.7071 0.7071 -0.7071 -0.7071 684.1564 86.9235)" class="st3" width="8.8" height="19.6"/>
		<g id="XMLID_342_">
			<path class="st2" d="M329.5,164l15.8,15.8L220,304.8l-22.5,10.1c-0.9,0.4-2,0.2-2.7-0.5c-0.7-0.7-0.9-1.8-0.5-2.7l10.5-23.1
				L329.5,164z M339.9,179.8l-10.4-10.4L207.7,291.1l-8.5,18.9l18.9-8.5L339.9,179.8z"/>
		</g>
		<g id="XMLID_341_">
			
				<rect x="318.7" y="178.8" transform="matrix(0.7071 -0.7071 0.7071 0.7071 -39.2543 281.8295)" class="st2" width="3.8" height="19.1"/>
		</g>
		<g id="XMLID_5588_">
			
				<rect x="325.1" y="172.3" transform="matrix(0.7071 -0.7071 0.7071 0.7071 -32.8213 284.4942)" class="st2" width="3.8" height="19.1"/>
		</g>
		<g id="XMLID_340_">
			
				<rect x="210.8" y="288.4" transform="matrix(0.7071 -0.7071 0.7071 0.7071 -147.396 237.2471)" class="st2" width="3.8" height="16.2"/>
		</g>
	</g>
	<g>
		<circle class="st16" cx="91.1" cy="236.1" r="35"/>
		<circle class="st4" cx="91.1" cy="232.5" r="35"/>
		<g>
			<g id="XMLID_1090_">
				<g id="XMLID_5577_">
					<path id="XMLID_5578_" class="st6" d="M97,224l5.1-3.8v4.7c0,1-0.9,1.8-1.8,1.7l-3.2-0.3V224z"/>
				</g>
				<g id="XMLID_5573_">
					<path id="XMLID_5574_" class="st2" d="M100.1,227.6h-2.5l-1.5-3.8l6.7-5v6.1C102.8,226.3,101.6,227.6,100.1,227.6z M98.6,226.1
						h1.5c0.7,0,1.2-0.6,1.2-1.2v-3.1l-3.4,2.6L98.6,226.1z"/>
				</g>
				<g id="XMLID_5571_">
					<path id="XMLID_5572_" class="st17" d="M81.9,230.3c0,0.7-0.6,1.3-1.3,1.3l0,0c-0.7,0-1.3-0.6-1.3-1.3v-1.2
						c0-0.7,0.6-1.3,1.3-1.3l0,0c0.7,0,1.3,0.6,1.3,1.3V230.3z"/>
				</g>
				<g id="XMLID_5567_">
					<path id="XMLID_5568_" class="st2" d="M80.6,232.4c-1.1,0-2-0.9-2-2v-1.2c0-1.1,0.9-2,2-2s2,0.9,2,2v1.2
						C82.6,231.4,81.7,232.4,80.6,232.4z M80.6,228.5c-0.3,0-0.5,0.2-0.5,0.5v1.2c0,0.3,0.2,0.5,0.5,0.5s0.5-0.2,0.5-0.5v-1.2
						C81.1,228.8,80.9,228.5,80.6,228.5z"/>
				</g>
				<g id="XMLID_5291_">
					<path id="XMLID_5292_" class="st17" d="M102,230.3c0,0.7-0.6,1.3-1.3,1.3l0,0c-0.7,0-1.3-0.6-1.3-1.3v-1.2
						c0-0.7,0.6-1.3,1.3-1.3l0,0c0.7,0,1.3,0.6,1.3,1.3V230.3z"/>
				</g>
				<g id="XMLID_5287_">
					<path id="XMLID_5288_" class="st2" d="M100.8,232.4c-1.1,0-2-0.9-2-2v-1.2c0-1.1,0.9-2,2-2c1.1,0,2,0.9,2,2v1.2
						C102.8,231.4,101.9,232.4,100.8,232.4z M100.8,228.5c-0.3,0-0.5,0.2-0.5,0.5v1.2c0,0.3,0.2,0.5,0.5,0.5c0.3,0,0.5-0.2,0.5-0.5
						v-1.2C101.3,228.8,101.1,228.5,100.8,228.5z"/>
				</g>
				<g id="XMLID_5285_">
					<path id="XMLID_5286_" class="st7" d="M104,255.8v-3.9c0-6.5-6.2-11.8-13.7-11.8l0,0c-7.5,0-13.7,5.3-13.7,11.8v3.9H104z"/>
				</g>
				<g id="XMLID_5283_">
					<path id="XMLID_5284_" class="st2" d="M77.4,255.8h-1.5v-3.9c0-1,0.1-2,0.4-3l1.4,0.4c-0.2,0.8-0.4,1.7-0.4,2.6V255.8z"/>
				</g>
				<g id="XMLID_5281_">
					<path id="XMLID_5282_" class="st2" d="M78.7,247.1l-1.3-0.7c0.7-1.2,1.6-2.3,2.7-3.3l1,1.1C80.1,245.1,79.3,246.1,78.7,247.1z"
						/>
				</g>
				<g id="XMLID_5279_">
					<path id="XMLID_5280_" class="st2" d="M104.8,255.8h-1.5v-3.9c0-6.1-5.8-11-13-11c-2.6,0-5.2,0.7-7.4,2l-0.8-1.3
						c2.4-1.4,5.2-2.2,8.1-2.2c8,0,14.4,5.6,14.4,12.5V255.8z"/>
				</g>
				<g id="XMLID_5278_">
					<path class="st17" d="M98,249l-5.9,1.9c-0.9,0.3-1.9,0.3-2.7,0l-5.9-1.9c-1.2-0.4-2-1.5-2-2.7v-22c0-3.7,3-6.7,6.7-6.7h4.9
						c3.7,0,6.7,3,6.7,6.7v22C99.9,247.6,99.1,248.7,98,249z"/>
				</g>
				<g id="XMLID_5277_">
					<path class="st6" d="M98,249l-5.9,1.9c-0.9,0.3-1.9,0.3-2.7,0l-5.9-1.9c-1.2-0.4-2-1.5-2-2.7v-10l0,0c0.6,0.3,1.4,0.3,2,0
						l4.1-1.8c0.7-0.1,1.4,0.1,1.9,0.7l1.1,1.1c0,0,0.1,0,0.1,0l1.2-1.1c0.5-0.5,1.2-0.7,1.9-0.6l3.8,1.8c0.7,0.3,1.5,0.3,2.2,0l0,0
						v10C99.9,247.6,99.1,248.7,98,249z"/>
				</g>
				<g id="XMLID_5275_">
					<path id="XMLID_5276_" class="st2" d="M82.6,237.4c-0.5,0-0.9-0.1-1.3-0.3l0.6-1.3c0.4,0.2,1,0.2,1.4,0l4.3-1.9
						c0.9-0.1,1.9,0.2,2.6,0.9l0.7,0.7l0.7-0.7c0.7-0.7,1.6-1,2.5-0.8l0.2,0.1l3.8,1.8c0.5,0.2,1.1,0.2,1.6,0l0.6,1.4
						c-0.9,0.4-1.9,0.4-2.8,0l-3.7-1.7c-0.4,0-0.9,0.1-1.2,0.4l-1.2,1.1c-0.3,0.3-0.9,0.3-1.2,0l-1.1-1.1c-0.3-0.3-0.8-0.5-1.2-0.5
						l-3.9,1.8C83.5,237.3,83,237.4,82.6,237.4z"/>
				</g>
				<g id="XMLID_5271_">
					<path id="XMLID_5272_" class="st2" d="M90.8,251.9c-0.5,0-1.1-0.1-1.6-0.3l-5.9-1.9c-1.5-0.5-2.5-1.8-2.5-3.4v-22
						c0-4.1,3.4-7.5,7.5-7.5h4.9c4.1,0,7.5,3.4,7.5,7.5v22c0,1.6-1,2.9-2.5,3.4l-5.9,1.9C91.8,251.8,91.3,251.9,90.8,251.9z
						 M88.3,218.3c-3.3,0-6,2.7-6,6v22c0,0.9,0.6,1.7,1.4,2l5.9,1.9c0.7,0.2,1.5,0.2,2.3,0l5.9-1.9c0.9-0.3,1.4-1.1,1.4-2v-22
						c0-3.3-2.7-6-6-6H88.3z"/>
				</g>
				<g id="XMLID_5269_">
					<path id="XMLID_5270_" class="st0" d="M88.4,238.5h4.8c0,1.3-1.1,2.4-2.4,2.4C89,240.9,88.4,238.5,88.4,238.5z"/>
				</g>
				<g id="XMLID_1109_">
					<path id="XMLID_1110_" class="st2" d="M90.8,241.6c-1.7,0-3.1-1.4-3.1-3.1v-0.7H94v0.7C94,240.2,92.5,241.6,90.8,241.6z
						 M89.3,239.2c0.3,0.5,0.8,0.9,1.5,0.9s1.2-0.4,1.5-0.9H89.3z"/>
				</g>
				<g id="XMLID_1107_">
					<path id="XMLID_1108_" class="st6" d="M81.6,227L81.6,227c0-2.3,1.1-4.5,2.9-5.9l2.7-2.1l11.1,3.2c2.4,0.7,5.1-0.1,6.4-2.1
						c1.4-2,1.5-5.2-3.4-9.9c0,0-0.1,0-0.1,0c0,0.7,0.7,5.3-2.6,4.7c0,0-7-1.2-12.2-1.3c-1.9,0-3.5,1.5-3.5,3.4v0.2h-1.9
						c-1,0-1.8,0.8-1.8,1.8v1.9v4.1c0.1,1.1,0.9,1.9,2,1.9H81.6z"/>
				</g>
				<g id="XMLID_1103_">
					<path id="XMLID_1104_" class="st2" d="M82.3,227.8h-1c-1.5,0-2.7-1.1-2.7-2.6l0-6.1c0-1.4,1.2-2.6,2.6-2.6h1.2
						c0.1-0.9,0.5-1.8,1.2-2.5c0.8-0.8,1.9-1.2,3-1.2c5.1,0.1,12,1.3,12.3,1.3c0.8,0.2,1.1-0.1,1.2-0.2c0.8-0.7,0.6-2.8,0.6-3.4
						c0-0.1,0-0.2,0-0.3l0-0.5l0.9-0.4l0.4,0.4c5.4,5.2,4.9,8.8,3.5,10.9c-1.5,2.2-4.5,3.2-7.3,2.4l-10.8-3.1l-2.4,1.8
						c-1.7,1.3-2.7,3.3-2.7,5.4V227.8z M81.2,218c-0.6,0-1.1,0.5-1.1,1.1v6.1c0,0.5,0.4,0.9,0.8,1.1c0.2-2.2,1.4-4.3,3.2-5.7l3-2.3
						l11.5,3.3c2.2,0.6,4.5-0.1,5.6-1.8c1.4-2,0.7-4.6-2.1-7.6c0,1.1-0.3,2.3-1.1,3c-0.6,0.6-1.4,0.7-2.4,0.6c-0.1,0-7-1.2-12.1-1.3
						c-0.7,0-1.4,0.3-1.9,0.8c-0.5,0.5-0.8,1.2-0.8,1.9v0.9H81.2z"/>
				</g>
				<g id="XMLID_1101_">
					
						<rect id="XMLID_1102_" x="86.4" y="216.8" transform="matrix(0.3636 -0.9316 0.9316 0.3636 -148.3563 220.4772)" class="st2" width="1.5" height="4.1"/>
				</g>
				<g id="XMLID_1099_">
					<polygon id="XMLID_1100_" class="st2" points="92.4,233 88.5,233 88.5,231.5 90.9,231.5 90.9,225.2 92.4,225.2 					"/>
				</g>
				<g id="XMLID_1097_">
					<rect id="XMLID_1098_" x="84.8" y="225.1" class="st2" width="4.3" height="1.5"/>
				</g>
				<g id="XMLID_1095_">
					<rect id="XMLID_1096_" x="85.8" y="226.1" class="st2" width="1.8" height="1.5"/>
				</g>
				<g id="XMLID_1093_">
					<rect id="XMLID_1094_" x="93.7" y="227.1" class="st2" width="1.8" height="1.5"/>
				</g>
				<g id="XMLID_1091_">
					<rect id="XMLID_1092_" x="92.7" y="225.1" class="st2" width="4.3" height="1.5"/>
				</g>
			</g>
			<g>
				<g>
					<g>
						<path class="st2" d="M118.7,249.6c0.4-0.6,0.7-1.2,1-1.8l2.3,1.2c-0.4,0.7-0.7,1.3-1.1,1.9L118.7,249.6z"/>
					</g>
					<g>
						<path class="st2" d="M56.1,232.5c0-4.7,0.9-9.3,2.8-13.6c1.8-4.2,4.3-7.9,7.5-11.1c3.2-3.2,7-5.7,11.1-7.5
							c4.3-1.8,8.9-2.8,13.6-2.8s9.3,0.9,13.6,2.8c4.2,1.8,7.9,4.3,11.1,7.5c3.2,3.2,5.7,7,7.5,11.1c3.2,7.7,3.6,16.5,1.1,24.4
							c-0.3,0.9-0.7,1.9-1.1,2.8l-2.4-1c0.4-0.9,0.7-1.7,1-2.6c2.4-7.3,2-15.5-1-22.6c-1.6-3.9-4-7.3-6.9-10.3
							c-3-3-6.4-5.3-10.3-6.9c-4-1.7-8.2-2.5-12.6-2.5s-8.6,0.9-12.6,2.5c-3.9,1.6-7.3,4-10.3,6.9c-3,3-5.3,6.4-6.9,10.3
							c-3.4,8-3.4,17.2,0,25.2c1.6,3.9,4,7.3,6.9,10.3c3,3,6.4,5.3,10.3,6.9c4,1.7,8.2,2.5,12.6,2.5s8.6-0.9,12.6-2.5
							c2.2-0.9,4.3-2.1,6.2-3.5c0.5-0.4,1-0.7,1.5-1.1l1.6,2c-0.5,0.4-1.1,0.8-1.6,1.2c-2.1,1.5-4.4,2.8-6.7,3.8
							c-4.3,1.8-8.9,2.8-13.6,2.8s-9.3-0.9-13.6-2.8c-4.2-1.8-7.9-4.3-11.1-7.5c-3.2-3.2-5.7-7-7.5-11.1
							C57.1,241.8,56.1,237.3,56.1,232.5z"/>
					</g>
					<g>
						<path class="st2" d="M114.1,255.4c0.4-0.4,0.8-0.9,1.2-1.3c0.4-0.5,0.9-1,1.3-1.5l2,1.6c-0.5,0.6-0.9,1.1-1.4,1.7
							c-0.4,0.5-0.9,0.9-1.3,1.4L114.1,255.4z"/>
					</g>
				</g>
			</g>
		</g>
	</g>
	<g id="XMLID_4866_">
		<g id="XMLID_4891_">
			<path class="st6" d="M374.5,95.3c14.3-14.3,14.3-37.5,0-51.8c-14.3-14.3-37.5-14.3-51.8,0c-12.4,12.4-14,31.3-5.1,45.5
				l-10.4,21.5c-0.3,0.6,0.3,1.1,0.9,0.9l21.4-10.7C343.6,109.3,362.2,107.5,374.5,95.3z"/>
		</g>
		<g id="XMLID_4889_">
			<path id="XMLID_4890_" class="st2" d="M307.7,113.1c-0.6,0-1.1-0.2-1.6-0.6c-0.7-0.7-0.9-1.7-0.4-2.6l10.1-20.8
				c-8.9-14.9-6.6-34.4,5.7-46.7c7.2-7.2,16.8-11.2,27-11.2c10.2,0,19.8,4,27,11.2c1.5,1.5,2.8,3.1,4.1,4.8l-2.6,1.8
				c-1.1-1.6-2.4-3-3.7-4.4c-6.6-6.6-15.4-10.3-24.8-10.3c-9.4,0-18.2,3.6-24.8,10.3c-11.5,11.5-13.5,29.8-4.8,43.5l0.5,0.7
				l-9.6,19.9l19.8-9.9l0.7,0.5c13.9,8.5,31.6,6.4,43.1-5.1c1.6-1.6,3-3.3,4.3-5.2l2.6,1.8c-1.4,2-2.9,3.9-4.6,5.6
				c-12.3,12.3-31.2,14.8-46.2,6l-20.7,10.3C308.4,113,308.1,113.1,307.7,113.1z"/>
		</g>
		<g id="XMLID_4887_">
			<rect id="XMLID_4888_" x="322.9" y="51.9" class="st2" width="10.8" height="3.2"/>
		</g>
		<g id="XMLID_4885_">
			<rect id="XMLID_4886_" x="336.3" y="51.9" class="st2" width="54.5" height="3.2"/>
		</g>
		<g id="XMLID_4883_">
			<rect id="XMLID_4884_" x="329.4" y="59.4" class="st2" width="19.2" height="3.2"/>
		</g>
		<g id="XMLID_4881_">
			<rect id="XMLID_4882_" x="325.1" y="66.8" class="st2" width="13.9" height="3.2"/>
		</g>
		<g id="XMLID_4879_">
			<rect id="XMLID_4880_" x="342.9" y="66.8" class="st2" width="51.1" height="3.2"/>
		</g>
		<g id="XMLID_4877_">
			<rect id="XMLID_4878_" x="326.9" y="74.8" class="st2" width="27.7" height="3.2"/>
		</g>
		<g id="XMLID_4875_">
			<rect id="XMLID_4876_" x="326.9" y="83.3" class="st2" width="12" height="3.2"/>
		</g>
		<g id="XMLID_4873_">
			<rect id="XMLID_4874_" x="342.9" y="83.3" class="st2" width="63.6" height="3.2"/>
		</g>
		<g id="XMLID_4871_">
			<rect id="XMLID_4872_" x="357.8" y="74.8" class="st2" width="15.3" height="3.2"/>
		</g>
		<g id="XMLID_4869_">
			<rect id="XMLID_4870_" x="351.8" y="59.4" class="st2" width="9.6" height="3.2"/>
		</g>
		<g id="XMLID_4867_">
			<rect id="XMLID_4868_" x="394" y="51.9" class="st2" width="12.5" height="3.2"/>
		</g>
	</g>
	<g>
		<circle class="st16" cx="409.3" cy="297.1" r="35"/>
		<circle class="st4" cx="409.3" cy="293.5" r="35"/>
		<g>
			<g id="XMLID_5579_">
				<g id="XMLID_5644_">
					<path id="XMLID_5645_" class="st7" d="M426.4,286.4c0-0.9-0.5-1.7-1.2-2.1c0.7-0.5,1.2-1.2,1.2-2.1c0-1.4-1.1-2.6-2.6-2.6
						c-0.3,0-0.5,0.1-0.8,0.1c0.1-0.3,0.2-0.6,0.2-0.9c0-1.4-1.1-2.6-2.6-2.6c-0.2,0-0.3,0-0.5,0.1c0,0,0,0,0-0.1
						c0-1.4-1.1-2.6-2.6-2.6c-0.5,0-0.9,0.1-1.3,0.3c-0.3-1-1.3-1.7-2.4-1.7c-0.5,0-0.9,0.1-1.3,0.4c-0.4-0.9-1.3-1.6-2.4-1.6
						c-1.1,0-2,0.7-2.4,1.6c-0.4-0.3-0.9-0.4-1.4-0.4c-1,0-1.9,0.6-2.3,1.5c-0.4-0.4-1-0.6-1.6-0.6c-1.4,0-2.6,1.1-2.6,2.6
						c0,0.1,0,0.1,0,0.2c-0.3-0.1-0.6-0.2-0.9-0.2c-1.4,0-2.6,1.1-2.6,2.6c0,0.2,0,0.3,0,0.4c0,0-0.1,0-0.1,0
						c-1.4,0-2.6,1.1-2.6,2.6c0,0.7,0.3,1.3,0.7,1.7c-1.2,0.2-2,1.3-2,2.5c0,1,0.5,1.8,1.3,2.2c-0.9,0.4-1.6,1.3-1.6,2.4
						c0,0.9,0.4,1.6,1.1,2.1c-0.6,0.5-1.1,1.2-1.1,2.1c0,1.4,1.1,2.6,2.6,2.6c0.1,0,0.1,0,0.2,0c-0.1,0.3-0.2,0.7-0.2,1
						c0,1.4,1.1,2.6,2.6,2.6c0.1,0,0.1,0,0.2,0c-0.1,0.2-0.1,0.4-0.1,0.7c0,1.4,1.1,2.6,2.6,2.6c0,0,0,0,0,0c0,0.1,0,0.3,0,0.5
						c0,1.4,1.1,2.6,2.6,2.6c1.4,0,2.5-1.1,2.6-2.5c1.4,0.4,2.8,0.6,4.3,0.6c1.6,0,3.1-0.2,4.6-0.7c0.4,0.9,1.3,1.5,2.3,1.5
						c1.4,0,2.6-1.1,2.6-2.6c1.3,0,2.4-1,2.5-2.4c0.1,0,0.2,0,0.4,0c1.4,0,2.6-1.1,2.6-2.6c0-0.6-0.2-1.1-0.5-1.5
						c0.9-0.4,1.5-1.3,1.5-2.3c0-0.7-0.3-1.3-0.7-1.7c1-0.3,1.8-1.3,1.8-2.4c0-0.7-0.3-1.4-0.8-1.8
						C426.1,287.8,426.4,287.1,426.4,286.4z"/>
				</g>
				<g id="XMLID_5640_">
					<path id="XMLID_5641_" class="st2" d="M402.5,307.3c-1.8,0-3.2-1.4-3.3-3.1c-1.5-0.3-2.6-1.6-2.6-3.2c-1.5-0.3-2.7-1.6-2.7-3.2
						c0-0.1,0-0.2,0-0.3c-1.5-0.3-2.6-1.7-2.6-3.2c0-0.8,0.3-1.5,0.7-2.1c-0.5-0.6-0.7-1.3-0.7-2.1c0-1,0.4-1.9,1.1-2.5
						c-0.5-0.6-0.8-1.3-0.8-2.1c0-1.2,0.7-2.3,1.7-2.9c-0.2-0.4-0.3-0.9-0.3-1.4c0-1.6,1.2-2.9,2.7-3.2c0.1-1.8,1.7-3.2,3.5-3
						c0.3-1.5,1.7-2.6,3.2-2.6c0.5,0,0.9,0.1,1.4,0.3c0.9-1.1,2.4-1.5,3.7-1c0.6-0.9,1.6-1.4,2.7-1.4c1.1,0,2,0.5,2.7,1.3
						c1.4-0.5,3,0.1,3.8,1.4c0.3-0.1,0.6-0.1,0.9-0.1c1.6,0,2.9,1.1,3.2,2.6c1.8,0.1,3.2,1.5,3.2,3.3c0,0,0,0.1,0,0.1
						c1.7,0.1,3.1,1.5,3.1,3.3c0,0.8-0.3,1.6-0.8,2.1c0.5,0.6,0.8,1.3,0.8,2.1c0,0.7-0.2,1.3-0.6,1.8c0.4,0.5,0.6,1.2,0.6,1.8
						c0,1.1-0.5,2.1-1.4,2.7c0.2,0.4,0.3,0.9,0.3,1.4c0,1-0.5,1.9-1.2,2.6c0.2,0.4,0.2,0.8,0.2,1.2c0,1.7-1.4,3.2-3.1,3.3
						c-0.4,1.1-1.3,2-2.5,2.3c-0.3,1.5-1.6,2.6-3.2,2.6c-1.1,0-2-0.5-2.7-1.4c-2.6,0.7-5.3,0.7-7.9,0.1
						C405.3,306.3,404,307.3,402.5,307.3z M398.5,299.5l-0.3,1c-0.1,0.2-0.1,0.3-0.1,0.5c0,1,0.8,1.8,1.8,1.8h0.9l-0.1,0.9
						c0,0.1,0,0.2,0,0.3c0,1,0.8,1.8,1.8,1.8c1,0,1.8-0.8,1.8-1.8l0-1l0.9,0.3c2.8,0.8,5.7,0.8,8.5-0.1l0.6-0.2l0.3,0.6
						c0.3,0.6,0.9,1.1,1.6,1.1c1,0,1.8-0.8,1.8-1.8v-0.7h0.7c1,0,1.7-0.7,1.8-1.7l0.1-0.8l0.8,0.1c0.1,0,0.2,0,0.3,0
						c1,0,1.8-0.8,1.8-1.8c0-0.4-0.1-0.7-0.3-1l-0.5-0.7l0.8-0.4c0.6-0.3,1-0.9,1-1.6c0-0.4-0.2-0.9-0.5-1.2l-0.8-0.8l1.1-0.4
						c0.7-0.3,1.2-0.9,1.2-1.7c0-0.5-0.2-1-0.6-1.3l-0.6-0.5l0.6-0.5c0.4-0.3,0.6-0.8,0.6-1.3c0-0.6-0.3-1.2-0.8-1.5l-0.9-0.6
						l0.9-0.6c0.5-0.3,0.8-0.9,0.8-1.5c0-1-0.8-1.8-1.8-1.8c-0.2,0-0.3,0-0.5,0.1l-1.5,0.5l0.6-1.4c0.1-0.2,0.1-0.4,0.1-0.7
						c0-1.1-1.1-2-2.2-1.8l-0.9,0.2l0-1c0-0.9-0.8-1.7-1.8-1.7c-0.3,0-0.6,0.1-0.9,0.3L416,275l-0.3-0.8c-0.4-1-1.7-1.6-2.6-1
						l-0.7,0.4l-0.3-0.8c-0.3-0.7-0.9-1.1-1.7-1.1c-0.7,0-1.4,0.5-1.7,1.2l-0.3,0.9l-0.8-0.5c-0.3-0.2-0.7-0.3-1-0.3
						c-0.7,0-1.4,0.4-1.7,1.1l-0.4,0.9l-0.7-0.6c-0.2-0.2-0.6-0.4-1.1-0.4c-1,0-1.8,0.8-1.8,1.8l0,0.1l0.1,1.1l-1.1-0.4
						c-1.3-0.5-2.5,0.5-2.5,1.7c0,0.1,0,0.2,0,0.3l0.2,0.9l-1.1-0.1l0,0c-1,0-1.8,0.8-1.8,1.8c0,0.4,0.2,0.9,0.5,1.2l0.9,1l-1.3,0.3
						c-0.8,0.2-1.4,0.9-1.4,1.8c0,0.7,0.3,1.2,0.9,1.6l1.3,0.8l-1.4,0.6c-0.7,0.3-1.1,0.9-1.1,1.7c0,0.6,0.3,1.1,0.8,1.5l0.8,0.6
						l-0.8,0.6c-0.5,0.3-0.8,0.9-0.8,1.5c0,1,0.8,1.8,1.8,1.8l1.4-0.1l-0.5,1.1c-0.1,0.2-0.1,0.5-0.1,0.7c0,1,0.8,1.8,1.8,1.8l0.1,0
						L398.5,299.5z"/>
				</g>
				<g id="XMLID_5638_">
					<path id="XMLID_5639_" class="st5" d="M421.3,316.8v-2c0-6.6-5.4-12-12-12l0,0c-6.6,0-12,5.4-12,12v2H421.3z"/>
				</g>
				<g id="XMLID_5636_">
					<path id="XMLID_5637_" class="st6" d="M421.3,316.8v-2c0-6.6-5.4-12-12-12l0,0c-6.6,0-12,5.4-12,12v2H421.3z"/>
				</g>
				<g id="XMLID_5634_">
					<path id="XMLID_5635_" class="st18" d="M416.3,305.1c-2-1.4-4.4-2.3-7-2.3c-2.8,0-5.4,1-7.5,2.7l0,0c0,2,1.7,3.7,3.7,3.7h7.1
						c2,0,3.7-1.7,3.7-3.7V305.1z"/>
				</g>
				<g id="XMLID_5630_">
					<path id="XMLID_5631_" class="st2" d="M412.6,309.9h-7.1c-2.4,0-4.4-2-4.4-4.4v-0.4l0.3-0.2c2.3-1.8,5.1-2.8,8-2.8
						c2.7,0,5.2,0.8,7.4,2.4l0.3,0.2v0.8C417,307.9,415,309.9,412.6,309.9z M402.6,305.8c0.2,1.5,1.4,2.6,2.9,2.6h7.1
						c1.6,0,3-1.3,3-3c-1.9-1.3-4-1.9-6.2-1.9C406.8,303.6,404.5,304.4,402.6,305.8z"/>
				</g>
				<g id="XMLID_5628_">
					<path id="XMLID_5629_" class="st2" d="M422,316.8h-1.5v-2c0-6.2-5-11.2-11.2-11.2c-2.7,0-5.3,1-7.3,2.7l-1-1.1
						c2.3-2,5.3-3.1,8.3-3.1c7,0,12.7,5.7,12.7,12.7V316.8z"/>
				</g>
				<g id="XMLID_5626_">
					<path id="XMLID_5627_" class="st2" d="M399.4,309.5l-1.3-0.7c0.4-0.7,0.8-1.4,1.3-2l1.2,0.9
						C400.1,308.3,399.7,308.9,399.4,309.5z"/>
				</g>
				<g id="XMLID_5624_">
					<path id="XMLID_5625_" class="st2" d="M398.1,316.8h-1.5v-2c0-1,0.1-2,0.3-2.9l1.4,0.3c-0.2,0.8-0.3,1.7-0.3,2.6V316.8z"/>
				</g>
				<g id="XMLID_5622_">
					<path id="XMLID_5623_" class="st18" d="M409.1,296.9c-1.4,0-2.6,1.2-2.6,2.6v5.5h5.2v-5.5C411.7,298.1,410.5,296.9,409.1,296.9
						z"/>
				</g>
				<g id="XMLID_5620_">
					<path id="XMLID_5621_" class="st2" d="M412.4,305.1h-1.5v-5.5c0-1-0.8-1.9-1.9-1.9c-1,0-1.9,0.8-1.9,1.9v5.5h-1.5v-5.5
						c0-1.8,1.5-3.4,3.4-3.4c1.9,0,3.4,1.5,3.4,3.4V305.1z"/>
				</g>
				<g id="XMLID_5618_">
					<path id="XMLID_5619_" class="st18" d="M418.9,296.8l0.8-9.2c0.1-7-3.3-7.8-7.4-7.8h-6.5h-0.5c-3.4,0-6.2,2.9-6.2,6.5l0.9,10.4
						c0.1,1,0.7,1.9,1.5,2.4l6.7,3.4c0.6,0.3,1.3,0.3,1.8,0l7.3-3.5C418.2,298.7,418.8,297.8,418.9,296.8z"/>
				</g>
				<g id="XMLID_5614_">
					<path id="XMLID_5615_" class="st2" d="M409.1,303.5c-0.4,0-0.9-0.1-1.3-0.3l-6.7-3.3c-1.1-0.5-1.8-1.6-2-2.8l-0.9-10.9
						c0-3.9,3.1-7,7-7h7c2.3,0,4.7,0.2,6.3,1.8c1.3,1.3,1.9,3.4,1.9,6.3l-0.8,9.8c-0.1,1.2-0.9,2.3-2,2.9l-7.3,3.3
						C409.9,303.4,409.5,303.5,409.1,303.5z M405.3,280.6c-3,0-5.5,2.5-5.5,5.5l0.9,10.9c0.1,0.7,0.5,1.3,1.1,1.6l6.7,3.3
						c0.4,0.2,0.8,0.2,1.2,0l7.3-3.3c0.7-0.3,1.1-0.9,1.2-1.6l0.8-9.7c0-2.5-0.5-4.2-1.5-5.2c-1.1-1.2-2.9-1.4-5.2-1.4H405.3z"/>
				</g>
				<g id="XMLID_5612_">
					<path id="XMLID_5613_" class="st2" d="M410.9,298.7h-3.2c-0.8,0-1.6-0.3-2.2-0.8l-0.7-0.6l0.9-1.1l0.7,0.6
						c0.3,0.3,0.8,0.4,1.2,0.4h3.2c0.5,0,0.9-0.2,1.2-0.4l0.7-0.6l0.9,1.1l-0.7,0.6C412.4,298.4,411.6,298.7,410.9,298.7z"/>
				</g>
				<g id="XMLID_5610_">
					<path id="XMLID_5611_" class="st7" d="M418.1,280.4c-0.7,0-1.3,0.3-1.7,0.7c-0.5-0.4-1.1-0.7-1.7-0.7c-0.7,0-1.3,0.3-1.8,0.7
						c-0.5-0.4-1.1-0.7-1.8-0.7c-1,0-1.8,0.5-2.2,1.3c-0.4-0.3-0.9-0.4-1.4-0.4c-0.6,0-1.1,0.2-1.6,0.5c-0.3-1.1-1.3-2-2.5-2
						c-0.8,0-1.5,0.4-2,1c-0.4-0.3-0.9-0.5-1.5-0.5c-1.4,0-2.6,1.1-2.6,2.6c0,1.4,1.1,2.6,2.6,2.6c0.8,0,1.5-0.4,2-1
						c0.4,0.3,0.9,0.5,1.5,0.5c0.6,0,1.1-0.2,1.6-0.5c0.3,1.1,1.3,2,2.5,2c1,0,1.8-0.5,2.2-1.3c0.4,0.3,0.9,0.4,1.4,0.4
						c0.7,0,1.3-0.3,1.8-0.7c0.5,0.4,1.1,0.7,1.8,0.7c0.7,0,1.3-0.3,1.7-0.7c0.5,0.4,1.1,0.7,1.7,0.7c1.4,0,2.6-1.1,2.6-2.6
						C420.7,281.5,419.6,280.4,418.1,280.4z"/>
				</g>
				<g id="XMLID_5608_">
					<path id="XMLID_5609_" class="st2" d="M407.5,287.1c-1.2,0-2.3-0.6-2.9-1.6c-0.8,0.3-1.8,0.3-2.6-0.1c-0.6,0.5-1.4,0.8-2.2,0.8
						c-1.8,0-3.3-1.5-3.3-3.3h1.5c0,1,0.8,1.8,1.8,1.8c0.6,0,1.1-0.3,1.4-0.7l0.4-0.6l0.6,0.4c0.3,0.2,0.7,0.4,1.1,0.4
						c0.5,0,0.9-0.2,1.1-0.4l0.9-0.7l0.3,1.1c0.2,0.8,0.9,1.4,1.8,1.4c0.6,0,1.3-0.4,1.6-0.9l0.4-0.7l0.7,0.4
						c0.7,0.4,1.6,0.4,2.2-0.2l0.5-0.5l0.5,0.5c0.7,0.6,1.8,0.7,2.5,0l0.5-0.5l0.5,0.5c0.3,0.3,0.8,0.5,1.2,0.5c1,0,1.8-0.8,1.8-1.8
						h1.5c0,1.8-1.5,3.3-3.3,3.3c-0.6,0-1.2-0.2-1.7-0.5c-1.1,0.7-2.5,0.6-3.5,0c-0.9,0.5-2,0.7-2.9,0.3
						C409.4,286.7,408.5,287.1,407.5,287.1z"/>
				</g>
				<g id="XMLID_5606_">
					<ellipse id="XMLID_5607_" class="st7" cx="410.9" cy="279.9" rx="10.6" ry="2.6"/>
				</g>
				<g id="XMLID_5604_">
					<path id="XMLID_5605_" class="st2" d="M401,284.7c-0.6-0.6-1-1.5-1-2.3c0-0.9,0.3-1.7,1-2.3c0.6-0.6,1.5-1,2.3-1v1.5
						c-0.5,0-0.9,0.2-1.3,0.5c-0.3,0.3-0.5,0.8-0.5,1.3s0.2,0.9,0.5,1.3L401,284.7z"/>
				</g>
				<g id="XMLID_5602_">
					<path id="XMLID_5603_" class="st2" d="M408.9,280.7c-0.6-0.6-1-1.5-1-2.3c0-0.9,0.3-1.7,1-2.3c0.6-0.6,1.5-1,2.3-1v1.5
						c-0.5,0-0.9,0.2-1.3,0.5c-0.3,0.3-0.5,0.8-0.5,1.3c0,0.5,0.2,0.9,0.5,1.3L408.9,280.7z"/>
				</g>
				<g id="XMLID_5600_">
					<path id="XMLID_5601_" class="st2" d="M406.5,289.4c-0.7-0.7-1.9-0.7-2.6,0l-1-1.1c1.2-1.2,3.4-1.2,4.7,0L406.5,289.4z"/>
				</g>
				<g id="XMLID_5598_">
					<path id="XMLID_5599_" class="st2" d="M415.4,289.4c-0.7-0.7-1.9-0.7-2.6,0l-1-1.1c1.2-1.2,3.4-1.2,4.7,0L415.4,289.4z"/>
				</g>
				<g id="XMLID_5596_">
					<path id="XMLID_5597_" class="st2" d="M397.2,292.3l-1.1-1c0.3-0.3,0.5-0.8,0.5-1.3c0-0.5-0.2-0.9-0.5-1.3
						c-0.7-0.7-1.9-0.7-2.6,0l-1-1.1c1.2-1.2,3.4-1.2,4.7,0c0.6,0.6,1,1.5,1,2.3C398.1,290.9,397.8,291.7,397.2,292.3z"/>
				</g>
				<g id="XMLID_5594_">
					<path id="XMLID_5595_" class="st2" d="M417.8,281.3c-0.7-0.6-1-1.4-1.1-2.3c0-0.9,0.3-1.7,0.8-2.4c0.6-0.7,1.4-1,2.3-1.1
						l0.1,1.5c-0.5,0-0.9,0.2-1.3,0.6c-0.3,0.4-0.5,0.8-0.5,1.3c0,0.5,0.2,0.9,0.6,1.3L417.8,281.3z"/>
				</g>
				<g id="XMLID_5592_">
					<path id="XMLID_5593_" class="st2" d="M421.2,301.1c-0.7-0.6-1-1.4-1.1-2.3c0-0.9,0.3-1.7,0.8-2.4l1.1,1
						c-0.3,0.4-0.5,0.8-0.5,1.3c0,0.5,0.2,0.9,0.6,1.3L421.2,301.1z"/>
				</g>
				<g id="XMLID_5590_">
					<path id="XMLID_5591_" class="st2" d="M400.4,279.9l-1.1-1c0.3-0.3,0.5-0.8,0.5-1.3c0-0.5-0.2-0.9-0.5-1.3l1.1-1
						c0.6,0.6,1,1.5,1,2.3C401.4,278.4,401.1,279.3,400.4,279.9z"/>
				</g>
				<g id="XMLID_5586_">
					<path id="XMLID_5587_" class="st2" d="M400.4,304.1l-1.1-1c0.3-0.3,0.5-0.8,0.5-1.3s-0.2-0.9-0.5-1.3l1.1-1.1
						c0.6,0.6,1,1.5,1,2.3S401.1,303.5,400.4,304.1z"/>
				</g>
				<g id="XMLID_5584_">
					<path id="XMLID_5585_" class="st2" d="M423.2,290.5l-1.4-0.5c0.3-0.8,0.9-1.5,1.7-1.9c0.8-0.4,1.7-0.4,2.5-0.2l-0.5,1.4
						c-0.5-0.2-1-0.1-1.4,0.1C423.7,289.7,423.3,290,423.2,290.5z"/>
				</g>
				<g id="XMLID_5582_">
					<path id="XMLID_5583_" class="st2" d="M410.5,285.1l-1-1c0.3-0.3,0.5-0.8,0.5-1.3h1.5C411.5,283.6,411.1,284.5,410.5,285.1z"/>
				</g>
				<g id="XMLID_5580_">
					<polygon id="XMLID_5581_" class="st2" points="411.2,294.8 407.6,294.8 407.6,291.3 409,291.3 409,293.3 409.8,293.3 
						409.8,293.2 411.2,293.2 					"/>
				</g>
			</g>
			<g>
				<g>
					<g>
						<path class="st2" d="M426.4,266c-0.6-0.4-1.2-0.7-1.8-1l1.2-2.3c0.7,0.4,1.3,0.7,1.9,1.1L426.4,266z"/>
					</g>
					<g>
						<path class="st2" d="M409.3,328.5c-4.7,0-9.3-0.9-13.6-2.8c-4.2-1.8-7.9-4.3-11.1-7.5c-3.2-3.2-5.7-7-7.5-11.1
							c-1.8-4.3-2.8-8.9-2.8-13.6c0-4.7,0.9-9.3,2.8-13.6c1.8-4.2,4.3-7.9,7.5-11.1c3.2-3.2,7-5.7,11.1-7.5
							c7.7-3.2,16.5-3.6,24.4-1.1c0.9,0.3,1.9,0.7,2.8,1.1l-1,2.4c-0.9-0.4-1.7-0.7-2.6-1c-7.3-2.4-15.5-2-22.6,1
							c-3.9,1.6-7.3,4-10.3,6.9c-3,3-5.3,6.4-6.9,10.3c-1.7,4-2.5,8.2-2.5,12.6s0.9,8.6,2.5,12.6c1.6,3.9,4,7.3,6.9,10.3
							c3,3,6.4,5.3,10.3,6.9c8,3.4,17.2,3.4,25.2,0c3.9-1.6,7.3-4,10.3-6.9c3-3,5.3-6.4,6.9-10.3c1.7-4,2.5-8.2,2.5-12.6
							s-0.9-8.6-2.5-12.6c-0.9-2.2-2.1-4.3-3.5-6.2c-0.4-0.5-0.7-1-1.1-1.5l2-1.6c0.4,0.5,0.8,1.1,1.2,1.6c1.5,2.1,2.8,4.4,3.8,6.7
							c1.8,4.3,2.8,8.9,2.8,13.6c0,4.7-0.9,9.3-2.8,13.6c-1.8,4.2-4.3,7.9-7.5,11.1c-3.2,3.2-7,5.7-11.1,7.5
							C418.6,327.6,414,328.5,409.3,328.5z"/>
					</g>
					<g>
						<path class="st2" d="M432.2,270.6c-0.4-0.4-0.9-0.8-1.3-1.2c-0.5-0.4-1-0.9-1.5-1.3l1.6-2c0.6,0.5,1.1,0.9,1.7,1.4
							c0.5,0.4,0.9,0.9,1.4,1.3L432.2,270.6z"/>
					</g>
				</g>
			</g>
		</g>
	</g>
	<g>
		<g id="XMLID_3675_">
			<path class="st6" d="M71.5,191.2v22.2c0,1.2-1,2.2-2.2,2.2h-1.2v4.5v8.5c0,0.5-0.6,0.7-0.9,0.3L56,215.6H24.8
				c-1.2,0-2.2-1-2.2-2.2v-22.2c0-1.2,1-2.2,2.2-2.2h44.5C70.5,189,71.5,190,71.5,191.2z"/>
		</g>
		<g id="XMLID_3674_">
			<path class="st2" d="M67.6,230.5c-0.6,0-1.1-0.2-1.5-0.7L55.4,217H24.8c-2,0-3.6-1.6-3.6-3.6v-22.2c0-2,1.6-3.6,3.6-3.6h44.5
				c2,0,3.6,1.6,3.6,3.6v22.2c0,1.9-1.5,3.5-3.4,3.6v11.6c0,0.8-0.5,1.5-1.3,1.8C68.1,230.5,67.8,230.5,67.6,230.5z M24.8,190.4
				c-0.4,0-0.8,0.3-0.8,0.8v22.2c0,0.4,0.3,0.8,0.8,0.8h31.9l10,11.9v-11.9h2.6c0.4,0,0.8-0.3,0.8-0.8v-22.2c0-0.4-0.3-0.8-0.8-0.8
				H24.8z"/>
		</g>
		<g id="XMLID_3673_">
			<rect x="33.5" y="195.1" class="st2" width="27.1" height="2.9"/>
		</g>
		<g id="XMLID_3672_">
			<rect x="33.5" y="200.9" class="st2" width="27.1" height="2.9"/>
		</g>
		<g id="XMLID_3671_">
			<rect x="33.5" y="206.8" class="st2" width="14.7" height="2.9"/>
		</g>
	</g>
	<g>
		<g id="XMLID_5672_">
			<path class="st6" d="M428.9,252.2v22.2c0,1.2,1,2.2,2.2,2.2h1.2v4.5v8.5c0,0.5,0.6,0.7,0.9,0.3l11.2-13.3h31.3
				c1.2,0,2.2-1,2.2-2.2v-22.2c0-1.2-1-2.2-2.2-2.2h-44.5C429.9,250,428.9,251,428.9,252.2z"/>
		</g>
		<g id="XMLID_5671_">
			<path class="st2" d="M432.2,291.4c-0.8-0.3-1.3-1-1.3-1.8V278c-1.9-0.1-3.4-1.7-3.4-3.6v-22.2c0-2,1.6-3.6,3.6-3.6h44.5
				c2,0,3.6,1.6,3.6,3.6v22.2c0,2-1.6,3.6-3.6,3.6h-30.6l-10.8,12.8c-0.4,0.4-0.9,0.7-1.5,0.7C432.6,291.5,432.4,291.5,432.2,291.4z
				 M431.1,251.4c-0.4,0-0.8,0.3-0.8,0.8v22.2c0,0.4,0.3,0.8,0.8,0.8h2.6V287l10-11.9h31.9c0.4,0,0.8-0.3,0.8-0.8v-22.2
				c0-0.4-0.3-0.8-0.8-0.8H431.1z"/>
		</g>
		<g id="XMLID_5670_">
			<rect x="439.8" y="256.1" class="st2" width="27.1" height="2.9"/>
		</g>
		<g id="XMLID_5669_">
			<rect x="439.8" y="261.9" class="st2" width="27.1" height="2.9"/>
		</g>
		<g id="XMLID_5668_">
			<rect x="452.3" y="267.8" class="st2" width="14.7" height="2.9"/>
		</g>
	</g>
	<g id="XMLID_1_">
		<polygon id="XMLID_38_" class="st0" points="382.1,245.8 379.6,244.8 377.1,245.8 377.1,238 382.1,238 		"/>
		<g id="XMLID_37_">
			<polygon class="st2" points="382.7,246.7 379.6,245.4 376.6,246.7 376.6,241.1 377.7,241.1 377.7,245 379.6,244.2 381.5,245 
				381.5,241.1 382.7,241.1 			"/>
		</g>
		<path id="XMLID_36_" class="st6" d="M384.8,241.4l-5-2.5c-0.1,0-0.2,0-0.3,0l-4.9,2.7c-0.2,0.1-0.5-0.1-0.5-0.3l0.9-5.5
			c0-0.1,0-0.2-0.1-0.3l-4.1-3.9c-0.2-0.2-0.1-0.5,0.2-0.6l5.5-0.9c0.1,0,0.2-0.1,0.2-0.2l2.4-5.1c0.1-0.2,0.5-0.3,0.6,0l2.5,5
			c0,0.1,0.1,0.2,0.3,0.2l5.6,0.7c0.3,0,0.4,0.4,0.2,0.6l-4,4c-0.1,0.1-0.1,0.2-0.1,0.3l1,5.5C385.3,241.3,385,241.5,384.8,241.4z"
			/>
		<g id="XMLID_35_">
			<path class="st2" d="M374.4,242.2c-0.2,0-0.4-0.1-0.5-0.2c-0.3-0.2-0.4-0.5-0.4-0.9l0.9-5.4l-4-3.8c-0.2-0.2-0.3-0.6-0.2-0.9
				c0.1-0.3,0.4-0.6,0.7-0.6l5.4-0.9l2.4-5c0.1-0.3,0.5-0.5,0.8-0.5c0.3,0,0.7,0.2,0.8,0.5l2.5,4.9l5.4,0.7c0.3,0,0.6,0.3,0.7,0.6
				c0.1,0.3,0,0.7-0.2,0.9l-3.9,3.9l1,5.4c0.1,0.3-0.1,0.7-0.3,0.9c-0.3,0.2-0.6,0.2-0.9,0.1l-4.9-2.5l-4.8,2.6
				C374.7,242.1,374.5,242.2,374.4,242.2z M371.5,231.4l3.7,3.5c0.2,0.2,0.3,0.5,0.3,0.8l-0.8,5.1l4.5-2.4c0.3-0.1,0.6-0.1,0.8,0
				l4.6,2.3l-0.9-5.1c-0.1-0.3,0-0.6,0.2-0.8l3.6-3.6l-5.1-0.7c-0.3,0-0.6-0.2-0.7-0.5l-2.3-4.6l-2.2,4.6c-0.1,0.3-0.4,0.5-0.7,0.5
				L371.5,231.4z"/>
		</g>
		<g id="XMLID_34_">
			<rect x="379" y="220.6" class="st2" width="1.1" height="2.2"/>
		</g>
		<g id="XMLID_33_">
			
				<rect x="381.5" y="221.6" transform="matrix(0.2591 -0.9658 0.9658 0.2591 68.9274 534.1281)" class="st2" width="2.2" height="1.1"/>
		</g>
		<g id="XMLID_32_">
			
				<rect x="384.4" y="222.8" transform="matrix(0.5013 -0.8653 0.8653 0.5013 -0.9905 444.9518)" class="st2" width="2.2" height="1.1"/>
		</g>
		<g id="XMLID_31_">
			
				<rect x="386.9" y="224.7" transform="matrix(0.7087 -0.7055 0.7055 0.7087 -45.8959 339.3226)" class="st2" width="2.2" height="1.1"/>
		</g>
		<g id="XMLID_30_">
			
				<rect x="388.8" y="227.2" transform="matrix(0.8674 -0.4975 0.4975 0.8674 -61.6218 224.1708)" class="st2" width="2.2" height="1.1"/>
		</g>
		<g id="XMLID_29_">
			
				<rect x="390" y="230.1" transform="matrix(0.9669 -0.2551 0.2551 0.9669 -45.8953 107.4005)" class="st2" width="2.2" height="1.1"/>
		</g>
		<g id="XMLID_28_">
			
				<rect x="390.9" y="232.6" transform="matrix(4.611659e-03 -1 1 4.611659e-03 155.9389 624.1096)" class="st2" width="1.1" height="2.2"/>
		</g>
		<g id="XMLID_27_">
			
				<rect x="390.5" y="235.7" transform="matrix(0.2643 -0.9645 0.9645 0.2643 59.304 551.3832)" class="st2" width="1.1" height="2.2"/>
		</g>
		<g id="XMLID_26_">
			
				<rect x="389.3" y="238.6" transform="matrix(0.5055 -0.8628 0.8628 0.5055 -14.0649 454.8631)" class="st2" width="1.1" height="2.2"/>
		</g>
		<g id="XMLID_25_">
			
				<rect x="387.3" y="241" transform="matrix(0.7122 -0.702 0.702 0.7122 -58.3562 342.0047)" class="st2" width="1.1" height="2.2"/>
		</g>
		<g id="XMLID_12_">
			
				<rect x="384.8" y="242.9" transform="matrix(0.8699 -0.4932 0.4932 0.8699 -70.2305 221.8188)" class="st2" width="1.1" height="2.2"/>
		</g>
		<g id="XMLID_11_">
			
				<rect x="372.3" y="243.4" transform="matrix(0.5091 -0.8607 0.8607 0.5091 -26.6333 441.1718)" class="st2" width="2.2" height="1.1"/>
		</g>
		<g id="XMLID_10_">
			
				<rect x="369.9" y="241.4" transform="matrix(0.7152 -0.6989 0.6989 0.7152 -63.4879 328.1892)" class="st2" width="2.2" height="1.1"/>
		</g>
		<g id="XMLID_9_">
			
				<rect x="368" y="238.9" transform="matrix(0.8723 -0.4889 0.4889 0.8723 -69.9695 211.0317)" class="st2" width="2.2" height="1.1"/>
		</g>
		<g id="XMLID_8_">
			
				<rect x="366.8" y="236" transform="matrix(0.9692 -0.2462 0.2462 0.9692 -46.9219 97.8684)" class="st2" width="2.2" height="1.1"/>
		</g>
		<g id="XMLID_7_">
			
				<rect x="367" y="232.4" transform="matrix(1.413667e-02 -0.9999 0.9999 1.413667e-02 128.9275 597.7388)" class="st2" width="1.1" height="2.2"/>
		</g>
		<g id="XMLID_6_">
			
				<rect x="367.5" y="229.3" transform="matrix(0.2732 -0.962 0.962 0.2732 45.8787 521.5093)" class="st2" width="1.1" height="2.2"/>
		</g>
		<g id="XMLID_5_">
			
				<rect x="368.7" y="226.4" transform="matrix(0.5137 -0.858 0.858 0.5137 -15.6292 427.4777)" class="st2" width="1.1" height="2.2"/>
		</g>
		<g id="XMLID_4_">
			
				<rect x="370.7" y="224" transform="matrix(0.7189 -0.6952 0.6952 0.7189 -52.0958 321.3435)" class="st2" width="1.1" height="2.2"/>
		</g>
		<g id="XMLID_3_">
			
				<rect x="373.2" y="222.1" transform="matrix(0.8746 -0.4848 0.4848 0.8746 -61.3583 209.1777)" class="st2" width="1.1" height="2.2"/>
		</g>
		<g id="XMLID_2_">
			
				<rect x="376.1" y="221" transform="matrix(0.9705 -0.2411 0.2411 0.9705 -42.4263 97.3458)" class="st2" width="1.1" height="2.2"/>
		</g>
	</g>
	<g>
		<g id="XMLID_5143_">
			
				<rect x="114.9" y="278.7" transform="matrix(6.533194e-03 -1 1 6.533194e-03 -162.816 394.5566)" class="st2" width="4.6" height="1"/>
		</g>
		<g id="XMLID_5142_">
			
				<rect x="123.3" y="282.1" transform="matrix(0.7136 -0.7006 0.7006 0.7136 -162.0474 168.9522)" class="st2" width="4.6" height="1"/>
		</g>
		<g id="XMLID_5141_">
			
				<rect x="126.4" y="279.6" transform="matrix(0.6988 -0.7153 0.7153 0.6988 -162.9749 175.4595)" class="st2" width="1" height="3.3"/>
		</g>
		<g id="XMLID_5140_">
			
				<rect x="106.1" y="280.8" transform="matrix(0.7149 -0.6993 0.6993 0.7149 -165.9457 155.5621)" class="st2" width="3.3" height="1"/>
		</g>
		<g id="XMLID_5139_">
			
				<rect x="108.7" y="280.4" transform="matrix(0.7005 -0.7137 0.7137 0.7005 -169.0214 162.5644)" class="st2" width="1" height="4.6"/>
		</g>
		
			<ellipse id="XMLID_5138_" transform="matrix(0.7316 -0.6817 0.6817 0.7316 -167.0581 157.9693)" class="st0" cx="117.1" cy="291.2" rx="11.9" ry="11.9"/>
		<path id="XMLID_5137_" class="st6" d="M117.1,279.3c6.6,0,11.9,5.3,11.9,11.9h-11.9V279.3z"/>
		<path id="XMLID_5136_" class="st2" d="M117.6,281.4c0,0.3-0.2,0.5-0.5,0.5c-0.3,0-0.5-0.2-0.5-0.5c0-0.3,0.2-0.5,0.5-0.5
			C117.4,280.8,117.6,281.1,117.6,281.4z"/>
		<path id="XMLID_5135_" class="st2" d="M122.5,282.9c-0.1,0.3-0.5,0.3-0.7,0.2c-0.3-0.1-0.3-0.5-0.2-0.7c0.1-0.3,0.5-0.3,0.7-0.2
			C122.5,282.3,122.6,282.7,122.5,282.9z"/>
		<path id="XMLID_5134_" class="st2" d="M125.9,286.7c-0.3,0.1-0.6,0.1-0.7-0.2c-0.1-0.3-0.1-0.6,0.2-0.7c0.3-0.1,0.6-0.1,0.7,0.2
			C126.2,286.2,126.1,286.6,125.9,286.7z"/>
		<path id="XMLID_5133_" class="st2" d="M126.9,291.7c-0.3,0-0.5-0.2-0.5-0.5c0-0.3,0.2-0.5,0.5-0.5c0.3,0,0.5,0.2,0.5,0.5
			C127.5,291.4,127.2,291.7,126.9,291.7z"/>
		<path id="XMLID_5132_" class="st2" d="M125.4,296.5c-0.3-0.1-0.3-0.5-0.2-0.7c0.1-0.3,0.5-0.3,0.7-0.2c0.3,0.1,0.3,0.5,0.2,0.7
			C126,296.6,125.6,296.7,125.4,296.5z"/>
		<path id="XMLID_5131_" class="st2" d="M121.6,299.9c-0.1-0.3-0.1-0.6,0.2-0.7c0.3-0.1,0.6-0.1,0.7,0.2c0.1,0.3,0.1,0.6-0.2,0.7
			C122.1,300.3,121.7,300.2,121.6,299.9z"/>
		<path id="XMLID_5130_" class="st2" d="M116.6,301c0-0.3,0.2-0.5,0.5-0.5c0.3,0,0.5,0.2,0.5,0.5c0,0.3-0.2,0.5-0.5,0.5
			C116.9,301.5,116.6,301.3,116.6,301z"/>
		<path id="XMLID_5129_" class="st2" d="M111.8,299.4c0.1-0.3,0.5-0.3,0.7-0.2c0.3,0.1,0.3,0.5,0.2,0.7c-0.1,0.3-0.5,0.3-0.7,0.2
			C111.7,300,111.6,299.7,111.8,299.4z"/>
		<path id="XMLID_5128_" class="st2" d="M108.4,295.7c0.3-0.1,0.6-0.1,0.7,0.2c0.1,0.3,0.1,0.6-0.2,0.7c-0.3,0.1-0.6,0.1-0.7-0.2
			C108,296.1,108.1,295.8,108.4,295.7z"/>
		<path id="XMLID_5127_" class="st2" d="M107.3,290.7c0.3,0,0.5,0.2,0.5,0.5c0,0.3-0.2,0.5-0.5,0.5c-0.3,0-0.5-0.2-0.5-0.5
			C106.8,290.9,107,290.7,107.3,290.7z"/>
		<path id="XMLID_5126_" class="st2" d="M108.8,285.9c0.3,0.1,0.3,0.5,0.2,0.7c-0.1,0.3-0.5,0.3-0.7,0.2c-0.3-0.1-0.3-0.5-0.2-0.7
			C108.3,285.8,108.6,285.7,108.8,285.9z"/>
		<path id="XMLID_5125_" class="st2" d="M112.6,282.4c0.1,0.3,0.1,0.6-0.2,0.7c-0.3,0.1-0.6,0.1-0.7-0.2c-0.1-0.3-0.1-0.6,0.2-0.7
			C112.1,282.1,112.4,282.2,112.6,282.4z"/>
		<rect id="XMLID_5124_" x="115.2" y="275.8" class="st4" width="4" height="1.5"/>
		<g id="XMLID_5123_">
			<path class="st2" d="M119.7,277.8h-5v-2.5h5V277.8z M115.7,276.8h2.9v-0.5h-2.9V276.8z"/>
		</g>
		<path id="XMLID_5122_" class="st3" d="M118.3,291.1c0,0.7-0.5,1.2-1.2,1.2c-0.7,0-1.2-0.5-1.2-1.2c0-0.7,0.5-1.2,1.2-1.2
			C117.8,289.9,118.3,290.5,118.3,291.1z"/>
		<g id="XMLID_5121_">
			<path class="st2" d="M117.1,292.9c-1,0-1.7-0.8-1.7-1.7c0-1,0.8-1.7,1.7-1.7c1,0,1.7,0.8,1.7,1.7
				C118.8,292.1,118,292.9,117.1,292.9z M117.1,290.4c-0.4,0-0.7,0.3-0.7,0.7c0,0.4,0.3,0.7,0.7,0.7s0.7-0.3,0.7-0.7
				C117.8,290.7,117.5,290.4,117.1,290.4z"/>
		</g>
		<g id="XMLID_5120_">
			<rect x="118.3" y="290.6" class="st2" width="6" height="1"/>
		</g>
		<g id="XMLID_5119_">
			<path class="st2" d="M117.1,303.5c-6.8,0-12.4-5.6-12.4-12.4c0-6.8,5.6-12.4,12.4-12.4c6.8,0,12.4,5.6,12.4,12.4
				C129.5,298,123.9,303.5,117.1,303.5z M117.1,279.8c-6.3,0-11.4,5.1-11.4,11.4c0,6.3,5.1,11.4,11.4,11.4c6.3,0,11.4-5.1,11.4-11.4
				C128.5,284.9,123.4,279.8,117.1,279.8z"/>
		</g>
	</g>
	<g>
		<g id="XMLID_606_">
			<g id="XMLID_607_">
				<path class="st19" d="M103.7,150.2h2.9v-5.9c0-3,2.4-5.4,5.4-5.4c3,0,5.4,2.4,5.4,5.4v5.9h2.9v-5.9c0-4.6-3.7-8.3-8.3-8.3
					c-4.6,0-8.3,3.7-8.3,8.3V150.2z"/>
			</g>
		</g>
		<g id="XMLID_604_">
			<g id="XMLID_605_">
				<path class="st2" d="M121,150.8h-4.2v-6.6c0-2.6-2.1-4.8-4.8-4.8c-2.6,0-4.8,2.1-4.8,4.8v6.6H103v-6.6c0-4.9,4-9,9-9
					c4.9,0,9,4,9,9V150.8z M118,149.6h1.7v-5.3c0-4.2-3.5-7.7-7.7-7.7s-7.7,3.5-7.7,7.7v5.3h1.7v-5.3c0-3.3,2.7-6,6-6
					c3.3,0,6,2.7,6,6V149.6z"/>
			</g>
		</g>
		<g id="XMLID_597_">
			<circle class="st0" cx="112" cy="155.7" r="10.8"/>
		</g>
		<g id="XMLID_596_">
			<ellipse transform="matrix(0.9734 -0.229 0.229 0.9734 -32.6772 29.7991)" class="st7" cx="112" cy="155.7" rx="6.1" ry="6.1"/>
		</g>
		<g id="XMLID_595_">
			<path class="st5" d="M109.5,155.7c0,1.4,1.1,2.5,2.5,2.5c1.4,0,2.5-1.1,2.5-2.5c0-1.4-1.1-2.5-2.5-2.5
				C110.6,153.1,109.5,154.3,109.5,155.7z"/>
		</g>
		<g id="XMLID_594_">
			<circle class="st2" cx="112" cy="155.7" r="1"/>
		</g>
		<g id="XMLID_593_">
			<path class="st2" d="M112,158.9c-1.8,0-3.2-1.4-3.2-3.2c0-1.8,1.4-3.2,3.2-3.2c1.8,0,3.2,1.4,3.2,3.2
				C115.2,157.4,113.8,158.9,112,158.9z M112,153.8c-1.1,0-1.9,0.9-1.9,1.9c0,1.1,0.9,1.9,1.9,1.9c1.1,0,1.9-0.9,1.9-1.9
				C114,154.6,113.1,153.8,112,153.8z"/>
		</g>
		<g id="XMLID_592_">
			<path class="st2" d="M112,167.1c-3.4,0-6.7-1.5-8.8-4.2l1-0.8c1.9,2.4,4.8,3.7,7.9,3.7c5.6,0,10.1-4.5,10.1-10.1
				c0-5.6-4.5-10.1-10.1-10.1c-5.6,0-10.1,4.5-10.1,10.1c0,1.1,0.2,2.1,0.5,3.1l-1.2,0.4c-0.4-1.1-0.6-2.3-0.6-3.5
				c0-6.3,5.1-11.4,11.4-11.4c6.3,0,11.4,5.1,11.4,11.4C123.4,162,118.3,167.1,112,167.1z"/>
		</g>
		<g id="XMLID_591_">
			<path class="st2" d="M102.5,161.9c-0.2-0.3-0.3-0.5-0.5-0.8l1.1-0.6c0.1,0.2,0.3,0.5,0.4,0.7L102.5,161.9z"/>
		</g>
		<g id="XMLID_590_">
			<rect x="111.4" y="150.9" class="st2" width="1.3" height="1.4"/>
		</g>
		<g id="XMLID_589_">
			
				<rect x="109.3" y="151.5" transform="matrix(0.8659 -0.5002 0.5002 0.8659 -61.3651 75.4031)" class="st2" width="1.3" height="1.4"/>
		</g>
		<g id="XMLID_588_">
			
				<rect x="107.9" y="153" transform="matrix(0.5002 -0.8659 0.8659 0.5002 -78.84 170.7629)" class="st2" width="1.3" height="1.4"/>
		</g>
		<g id="XMLID_587_">
			<rect x="107.3" y="155.1" class="st2" width="1.4" height="1.3"/>
		</g>
		<g id="XMLID_586_">
			
				<rect x="107.8" y="157.1" transform="matrix(0.8662 -0.4998 0.4998 0.8662 -64.3103 75.3557)" class="st2" width="1.4" height="1.3"/>
		</g>
		<g id="XMLID_585_">
			
				<rect x="109.3" y="158.6" transform="matrix(0.5006 -0.8657 0.8657 0.5006 -82.8816 174.7764)" class="st2" width="1.4" height="1.3"/>
		</g>
		<g id="XMLID_75_">
			<rect x="111.4" y="159.1" class="st2" width="1.3" height="1.4"/>
		</g>
		<g id="XMLID_583_">
			
				<rect x="113.5" y="158.5" transform="matrix(0.8663 -0.4995 0.4995 0.8663 -64.2567 78.2731)" class="st2" width="1.3" height="1.4"/>
		</g>
		<g id="XMLID_582_">
			
				<rect x="115" y="157" transform="matrix(0.5008 -0.8655 0.8655 0.5008 -78.786 178.7494)" class="st2" width="1.3" height="1.4"/>
		</g>
		<g id="XMLID_581_">
			<rect x="115.4" y="155" class="st2" width="1.4" height="1.3"/>
		</g>
		<g id="XMLID_580_">
			
				<rect x="114.9" y="153" transform="matrix(0.8667 -0.4988 0.4988 0.8667 -61.2189 78.1049)" class="st2" width="1.4" height="1.3"/>
		</g>
		<g id="XMLID_579_">
			
				<rect x="113.4" y="151.5" transform="matrix(0.5006 -0.8657 0.8657 0.5006 -74.7439 174.7099)" class="st2" width="1.4" height="1.3"/>
		</g>
	</g>
	<g id="XMLID_2599_">
		<g id="XMLID_2669_">
			<path class="st20" d="M446.6,197.6h-66c-0.5,0-1-0.4-1-1v-46.9c0-0.6,0.5-1,1-1h66c0.6,0,1,0.4,1,1v46.9
				C447.6,197.1,447.2,197.6,446.6,197.6z"/>
		</g>
		<g id="XMLID_2667_">
			<path id="XMLID_2668_" class="st21" d="M381.3,198.3c-1.3,0-2.4-1.1-2.4-2.4v-28.7h1.5v28.7c0,0.5,0.4,0.9,0.9,0.9V198.3z"/>
		</g>
		<g id="XMLID_2665_">
			<path id="XMLID_2666_" class="st21" d="M448.4,194.8h-1.5v-44.4c0-0.5-0.4-0.9-0.9-0.9h-35.8v-1.5h35.8c1.3,0,2.4,1.1,2.4,2.4
				V194.8z"/>
		</g>
		<g id="XMLID_2664_">
			<rect x="382.9" y="152.5" class="st5" width="61" height="39.7"/>
		</g>
		<g id="XMLID_2663_">
			<path class="st0" d="M446.4,200.3H380c-1.6,0-3-1.2-3.2-2.7l-0.5-2.9h30.8l1.2,1.7h8.5l1.3-1.7h32.4l-0.4,2.5
				C449.8,199,448.2,200.3,446.4,200.3z"/>
		</g>
		<g id="XMLID_2659_">
			<path id="XMLID_2660_" class="st21" d="M446.4,201H380c-2,0-3.6-1.4-4-3.4l-0.6-3.8h32l1.2,1.7h7.7l1.3-1.7h33.7l-0.6,3.4
				C450.5,199.5,448.6,201,446.4,201z M377.2,195.4l0.3,2c0.2,1.2,1.2,2.1,2.5,2.1h66.4c1.5,0,2.7-1,2.9-2.5l0.3-1.6h-31.2l-1.3,1.7
				h-9.3l-1.2-1.7H377.2z"/>
		</g>
		<g id="XMLID_2623_">
			<g id="XMLID_2658_">
				<rect x="390.9" y="156.5" class="st0" width="6.8" height="0.9"/>
			</g>
			<g id="XMLID_2657_">
				<rect x="394.3" y="159.5" class="st0" width="4.7" height="0.9"/>
			</g>
			<g id="XMLID_2656_">
				<rect x="409.5" y="159.5" class="st0" width="32.9" height="0.9"/>
			</g>
			<g id="XMLID_2655_">
				
					<rect x="402.3" y="159.5" transform="matrix(-1 -1.224647e-16 1.224647e-16 -1 809.8924 319.9398)" class="st0" width="5.3" height="0.9"/>
			</g>
			<g id="XMLID_2654_">
				<rect x="395.9" y="162.1" class="st0" width="9.4" height="0.9"/>
			</g>
			<g id="XMLID_2653_">
				<rect x="399.7" y="165.7" class="st0" width="11.9" height="0.9"/>
			</g>
			<g id="XMLID_2652_">
				<rect x="390.9" y="169.1" class="st0" width="13" height="0.9"/>
			</g>
			<g id="XMLID_2651_">
				
					<rect x="405.3" y="169.1" transform="matrix(-1 -1.224647e-16 1.224647e-16 -1 820.073 339.0424)" class="st0" width="9.4" height="0.9"/>
			</g>
			<g id="XMLID_2650_">
				<rect x="394.3" y="172.5" class="st0" width="17.5" height="0.9"/>
			</g>
			<g id="XMLID_2649_">
				
					<rect x="418.9" y="172.5" transform="matrix(-1 -1.224647e-16 1.224647e-16 -1 849.4632 345.8279)" class="st0" width="11.6" height="0.9"/>
			</g>
			<g id="XMLID_2648_">
				<rect x="412.5" y="172.5" class="st0" width="5.5" height="0.9"/>
			</g>
			<g id="XMLID_2647_">
				<rect x="400.1" y="175.9" class="st0" width="15.3" height="0.9"/>
			</g>
			<g id="XMLID_2646_">
				
					<rect x="395.9" y="175.9" transform="matrix(-1 -1.224647e-16 1.224647e-16 -1 795.0894 352.613)" class="st0" width="3.2" height="0.9"/>
			</g>
			<g id="XMLID_2645_">
				<rect x="390.9" y="178.4" class="st0" width="10.4" height="0.9"/>
			</g>
			<g id="XMLID_2644_">
				<rect x="402.2" y="178.4" class="st0" width="3.6" height="0.9"/>
			</g>
			<g id="XMLID_2643_">
				<rect x="406.7" y="178.4" class="st0" width="17.1" height="0.9"/>
			</g>
			<g id="XMLID_2642_">
				
					<rect x="425.2" y="178.4" transform="matrix(-1 -1.224647e-16 1.224647e-16 -1 865.7385 357.5966)" class="st0" width="15.4" height="0.9"/>
			</g>
			<g id="XMLID_2641_">
				<rect x="394.3" y="181.7" class="st0" width="5.4" height="0.9"/>
			</g>
			<g id="XMLID_2640_">
				
					<rect x="401.3" y="181.7" transform="matrix(-1 -1.224647e-16 1.224647e-16 -1 815.5184 364.3819)" class="st0" width="12.8" height="0.9"/>
			</g>
			<g id="XMLID_2639_">
				<rect x="397.3" y="185.1" class="st0" width="10.4" height="0.9"/>
			</g>
			<g id="XMLID_2638_">
				<rect x="409.9" y="185.1" class="st0" width="10.4" height="0.9"/>
			</g>
			<g id="XMLID_2637_">
				<rect x="421.9" y="185.1" class="st0" width="9.8" height="0.9"/>
			</g>
			<g id="XMLID_2636_">
				
					<rect x="438.4" y="165.7" transform="matrix(-1 -1.224647e-16 1.224647e-16 -1 879.7874 332.2571)" class="st0" width="2.9" height="0.9"/>
			</g>
			<g id="XMLID_2635_">
				<rect x="412.7" y="165.7" class="st0" width="24.4" height="0.9"/>
			</g>
			<g id="XMLID_2634_">
				<rect x="399.7" y="156.5" class="st0" width="27.7" height="0.9"/>
			</g>
			<g id="XMLID_2633_">
				<rect x="386.3" y="155.1" class="st0" width="1.4" height="1.4"/>
			</g>
			<g id="XMLID_2632_">
				<rect x="386.3" y="158.9" class="st0" width="1.4" height="1.4"/>
			</g>
			<g id="XMLID_2631_">
				<rect x="386.3" y="162.7" class="st0" width="1.4" height="1.4"/>
			</g>
			<g id="XMLID_2630_">
				<rect x="386.3" y="166.5" class="st0" width="1.4" height="1.4"/>
			</g>
			<g id="XMLID_2629_">
				<rect x="386.3" y="170.3" class="st0" width="1.4" height="1.4"/>
			</g>
			<g id="XMLID_2628_">
				<rect x="386.3" y="174.1" class="st0" width="1.4" height="1.4"/>
			</g>
			<g id="XMLID_2627_">
				<rect x="386.3" y="177.9" class="st0" width="1.4" height="1.4"/>
			</g>
			<g id="XMLID_2626_">
				<rect x="386.3" y="181.7" class="st0" width="1.4" height="1.4"/>
			</g>
			<g id="XMLID_2625_">
				<rect x="386.3" y="185.5" class="st0" width="1.4" height="1.4"/>
			</g>
			<g id="XMLID_2624_">
				<rect x="386.3" y="189.3" class="st0" width="1.4" height="1.4"/>
			</g>
		</g>
		<g id="XMLID_2621_" class="st22">
			<path id="XMLID_2622_" class="st23" d="M380.2,148.7c-0.3,0-0.6,0.3-0.6,0.6v16.4h27.3c1.6,0,2.9-1.3,2.9-2.9v-14.2H380.2z"/>
		</g>
		<g id="XMLID_2620_">
			<path class="st4" d="M405.8,164.5H377c-1.5,0-2.7-1.2-2.7-2.7v-19.4c0-1.5,1.2-2.7,2.7-2.7h28.8c1.5,0,2.7,1.2,2.7,2.7v19.4
				C408.5,163.3,407.3,164.5,405.8,164.5z"/>
		</g>
		<g id="XMLID_2619_">
			<path class="st24" d="M374.2,144.9v-3.6c0-0.9,0.8-1.7,1.7-1.7h30.9c0.9,0,1.7,0.8,1.7,1.7v3.6H374.2z"/>
		</g>
		<g id="XMLID_2617_">
			<path id="XMLID_2618_" class="st21" d="M406.8,165.2H376c-1.4,0-2.5-1.1-2.5-2.5v-21.4c0-1.4,1.1-2.5,2.5-2.5h4.6v1.5H376
				c-0.5,0-1,0.4-1,1v21.4c0,0.5,0.4,1,1,1h30.9c0.5,0,1-0.4,1-1v-21.4c0-0.5-0.4-1-1-1h-20.3v-1.5h20.3c1.4,0,2.5,1.1,2.5,2.5v21.4
				C409.3,164.1,408.2,165.2,406.8,165.2z"/>
		</g>
		<g id="XMLID_2615_">
			<rect id="XMLID_2616_" x="381.8" y="138.9" class="st21" width="2.7" height="1.5"/>
		</g>
		<g id="XMLID_2613_">
			<rect id="XMLID_2614_" x="374.3" y="144.3" class="st21" width="34.3" height="1.5"/>
		</g>
		<g id="XMLID_2611_">
			<rect id="XMLID_2612_" x="377" y="141.8" class="st21" width="0.6" height="1.5"/>
		</g>
		<g id="XMLID_2609_">
			<rect id="XMLID_2610_" x="379.2" y="141.8" class="st21" width="0.6" height="1.5"/>
		</g>
		<g id="XMLID_2607_">
			<rect id="XMLID_2608_" x="381.4" y="141.8" class="st21" width="0.6" height="1.5"/>
		</g>
		<g id="XMLID_2600_">
			<path id="XMLID_2605_" class="st21" d="M384.8,153.8v-1l3.7-1.7v1.1l-2.4,1.1l2.4,1.2v1.1L384.8,153.8z"/>
			<path id="XMLID_2603_" class="st21" d="M392.5,150.2h1.1l-3.2,7h-1.1L392.5,150.2z"/>
			<path id="XMLID_2601_" class="st21" d="M398,152.8v1l-3.7,1.7v-1.1l2.4-1.2l-2.4-1.1V151L398,152.8z"/>
		</g>
	</g>
	<g>
		<circle class="st6" cx="447.3" cy="197.2" r="8.4"/>
		<g>
			<path class="st2" d="M447.3,206.3c-2.3,0-4.4-0.8-6.1-2.3l1-1.1c1.4,1.3,3.2,1.9,5.1,1.9c4.2,0,7.7-3.4,7.7-7.7
				c0-4.2-3.4-7.7-7.7-7.7c-2,0-4,0.8-5.4,2.2l-1.1-1.1c1.7-1.7,4-2.7,6.5-2.7c5.1,0,9.2,4.1,9.2,9.2
				C456.5,202.2,452.4,206.3,447.3,206.3z"/>
		</g>
		<g>
			<polygon class="st2" points="446.4,200.3 443.2,197 444.3,195.9 446.4,198 450.4,194.1 451.5,195.2 			"/>
		</g>
	</g>
</g>
</svg>
