<svg id="Layer_5" enable-background="new 0 0 64 64" height="512" viewBox="0 0 64 64" width="512" xmlns="http://www.w3.org/2000/svg"><path d="m58 1h-46c-2.757 0-5 2.243-5 5v25.702c-1.2.776-2 2.12-2 3.652 0 .556.104 1.1.311 1.617l2.754 6.885c.531 1.329 1.581 2.318 2.86 2.805l-8.596 8.596c-.857.857-1.329 1.996-1.329 3.207 0 2.501 2.035 4.536 4.536 4.536 1.211 0 2.351-.472 3.207-1.329l8.888-8.888c2.516 1.425 5.391 2.217 8.369 2.217 5.018 0 9.749-2.245 12.95-6h12.05c1.103 0 2-.897 2-2v-2c0-1.103-.897-2-2-2h-2v-2h9c2.757 0 5-2.243 5-5v-30c0-2.757-2.243-5-5-5zm-46 2h46c1.654 0 3 1.346 3 3v27h-2v-26c0-1.103-.897-2-2-2h-44c-1.103 0-2 .897-2 2v23.013c-.171.322-.331.651-.483.987h-1.163-.354v-25c0-1.654 1.346-3 3-3zm30.646 28h-.646-.517c-1.393-3.083-3.614-5.603-6.346-7.342.644-.248 1.238-.62 1.741-1.123l.369-.369c.791.525 1.736.834 2.753.834h1v2h-2v2h2c1.103 0 2-.897 2-2v-2h2v4h2v-4h2v2c0 1.103.897 2 2 2h2v-2h-2v-2.101c2.279-.465 4-2.484 4-4.899s-1.721-4.434-4-4.899v-2.101h2v-2h-2c-1.103 0-2 .897-2 2v2h-2v-4h-2v4h-2v-2c0-1.103-.897-2-2-2h-2v2h2v2h-1c-1.017 0-1.962.309-2.753.833l-.369-.369c-.944-.944-2.199-1.464-3.535-1.464h-2.343v2h2.343c.79 0 1.562.32 2.121.878l.369.369c-.524.791-.833 1.736-.833 2.753s.309 1.962.833 2.753l-.369.369c-.558.558-1.331.878-2.121.878h-1.599c-1.808-.645-3.741-1-5.744-1-5.129 0-9.832 2.268-13 6.039v-20.039h44v26h-10.702c-.776-1.2-2.12-2-3.652-2zm-5.697 0c-2.38-3.713-6.519-6-10.949-6-4.429 0-8.569 2.287-10.949 6h-2.313c2.579-4.902 7.629-8 13.262-8 5.632 0 10.682 3.098 13.262 8zm-2.489 0h-16.92c2.072-2.495 5.166-4 8.46-4s6.388 1.505 8.46 4zm15.54-16c1.302 0 2.402.839 2.816 2h-9.198l-1-2zm0 6h-7.382l1-2h9.198c-.414 1.161-1.514 2-2.816 2zm-9.618-6 1.5 3-1.5 3h-.382c-1.654 0-3-1.346-3-3s1.346-3 3-3zm-30.459 28.114-2.754-6.885c-.112-.28-.169-.574-.169-.875 0-1.298 1.056-2.354 2.354-2.354h32.646.646c1.298 0 2.354 1.056 2.354 2.354 0 .301-.057.595-.168.874l-2.754 6.886c-.459 1.146-1.552 1.886-2.786 1.886h-5.82c-1.144 0-2.172-.635-2.683-1.658l-1-2c-.722-1.445-2.174-2.342-3.789-2.342s-3.067.897-3.789 2.342l-1 2c-.511 1.023-1.539 1.658-2.683 1.658h-5.82c-1.234 0-2.327-.74-2.785-1.886zm22.553 3.775c-1.867 1.359-4.132 2.111-6.476 2.111-2.343 0-4.61-.752-6.477-2.11 1.492-.3 2.777-1.253 3.477-2.653l1-2c.381-.763 1.147-1.237 2-1.237s1.619.474 2 1.236l1 2c.7 1.4 1.984 2.353 3.476 2.653zm-25.147 13.368c-.479.479-1.116.743-1.793.743-1.398 0-2.536-1.138-2.536-2.536 0-.677.264-1.314.743-1.793l8.583-8.583c1.02 1.378 2.233 2.581 3.591 3.581zm18.671-7.257c-4.737 0-9.182-2.262-11.995-6h2.638c2.445 2.54 5.822 4 9.358 4 3.537 0 6.911-1.46 9.357-4h2.636c-2.814 3.737-7.261 6-11.994 6zm25-6h-10.586c.034-.054.068-.108.102-.163 1.11-.278 2.083-.922 2.767-1.837h7.717zm-4-4h-2.723l.8-2h1.923zm11-4h-12.123l.812-2.029c.207-.517.311-1.061.311-1.617 0-.121-.026-.235-.036-.354h14.036v1c0 1.654-1.346 3-3 3z"/><path d="m15 9h14v2h-14z"/><path d="m15 13h14v2h-14z"/><path d="m27 17h2v2h-2z"/><path d="m15 17h10v2h-10z"/><path d="m10 35h2v2h-2z"/><path d="m14 35h2v2h-2z"/><path d="m18 35h2v2h-2z"/><path d="m32 35h2v2h-2z"/><path d="m36 35h2v2h-2z"/><path d="m40 35h2v2h-2z"/></svg>