<?xml version="1.0"?>
<svg xmlns="http://www.w3.org/2000/svg" viewBox="0 0 512 512" width="512" height="512"><g id="filled_outline" data-name="filled outline"><path d="M420.023,446.047a24,24,0,0,1-4.034-13.316V240c0-76.435-53.635-140.251-125.3-156.118L304,24H208l13.306,59.877C149.635,99.736,95.989,163.558,95.989,240V432.739a23.987,23.987,0,0,1-4.026,13.3l-3.1,4.653a24,24,0,0,0,0,26.608l0,.005A24,24,0,0,0,108.836,488H403.158a24,24,0,0,0,19.965-10.685h0a23.994,23.994,0,0,0,0-26.627Z" style="fill:#7bb089"/><path d="M407.124,477.314a23.993,23.993,0,0,0,0-26.626l-3.1-4.641a24,24,0,0,1-4.034-13.317V240c0-76.435-53.635-140.251-125.3-156.118L288,24H208l13.306,59.877C149.635,99.736,95.989,163.558,95.989,240V432.739a24,24,0,0,1-4.026,13.3l-3.1,4.653a24,24,0,0,0,0,26.608l0,.005A24,24,0,0,0,108.836,488H387.158A24,24,0,0,0,407.124,477.314Z" style="fill:#83bd93"/><path d="M415.989,240a158.9,158.9,0,0,0-18.908-75.219l-80.474,80.474-67.882-11.314L141.244,352.735,336.959,371.98l79.03-79.03Z" style="fill:#e9c8b2"/><path d="M322.406,316.266a88.48,88.48,0,0,1-62.367-25.758A8,8,0,0,1,271.352,279.2a72.237,72.237,0,0,0,61.093,20.36,8,8,0,1,1,2.266,15.843A86.881,86.881,0,0,1,322.406,316.266Z" style="fill:#d6b7a3"/><path d="M146.9,347.078l79.2,79.2L248.725,448.9a16,16,0,0,0,22.627-22.627,16,16,0,0,0,22.627-22.628,16,16,0,0,0,22.628-22.627,16,16,0,1,0,22.627-22.627l-22.627-22.628-62.226-62.225L203.47,245.255l-85.7-85.7A158.924,158.924,0,0,0,95.989,240v44.853l33.942,33.941Z" style="fill:#e6ae85"/><path d="M288,144v-5.406a26.537,26.537,0,0,0-24-26.332V104H248v8.262a26.518,26.518,0,0,0-5.812,51.574l22.562,7.508A10.6,10.6,0,0,1,261.406,192H250.594A10.6,10.6,0,0,1,240,181.406V176H224v5.406a26.537,26.537,0,0,0,24,26.332V216h16v-8.262a26.518,26.518,0,0,0,5.812-51.574l-22.562-7.508A10.6,10.6,0,0,1,250.594,128h10.812A10.6,10.6,0,0,1,272,138.594V144Z" style="fill:#5d8668"/><path d="M256,96a88.847,88.847,0,0,1-64.328-27.734L170.18,45.492a8,8,0,0,1,11.641-10.984l21.492,22.773a72.453,72.453,0,0,0,105.375,0L330.18,34.508a8,8,0,0,1,11.641,10.984L320.329,68.266A88.848,88.848,0,0,1,256,96Z" style="fill:#5d8668"/><path d="M237.411,414.96a16,16,0,0,0-22.628,0,16,16,0,0,0-22.627-22.627,16,16,0,1,0-22.628-22.627A16,16,0,0,0,146.9,347.078l-5.657,5.657a16,16,0,0,0,22.628,22.627A16,16,0,1,0,186.5,397.99a16,16,0,0,0,22.627,22.627,16,16,0,1,0,22.628,22.628l5.657-5.657A16,16,0,0,0,237.411,414.96Z" style="fill:#e9c8b2"/><rect x="189.411" y="255.196" width="96" height="48" rx="24" ry="24" transform="translate(-127.885 249.649) rotate(-45)" style="fill:#e9c8b2"/><path d="M429.759,446.256l-3.082-4.583A16.2,16.2,0,0,1,424,432.72V240a167.043,167.043,0,0,0-19.766-78.937l-.06-.117a168.8,168.8,0,0,0-97.4-80.99,87.924,87.924,0,0,0,13.553-11.694l21.493-22.771a8,8,0,1,0-11.634-10.982l-21.494,22.77c-1.564,1.659-3.211,3.225-4.916,4.718l8.038-36.267A8,8,0,0,0,304,16H208a8,8,0,0,0-7.81,9.733l8.05,36.276c-1.709-1.5-3.36-3.067-4.929-4.73l-21.494-22.77a8,8,0,0,0-11.634,10.982l21.493,22.771A87.926,87.926,0,0,0,205.2,79.931,168.026,168.026,0,0,0,88,240V432.72a16.8,16.8,0,0,1-2.693,8.977l-3.074,4.57A32,32,0,0,0,108.8,496H403.12a32.011,32.011,0,0,0,26.639-49.744ZM408,289.646l-63.121,63.121-.012-.013L307.1,314.9a88.061,88.061,0,0,0,15.314,1.37,87.106,87.106,0,0,0,12.3-.872,8,8,0,1,0-2.262-15.839,72.365,72.365,0,0,1-59.792-19.1l-1.237-1.236a8,8,0,0,0-1.992-1.449c-.042-.022-.085-.039-.127-.06-.17-.084-.34-.167-.515-.239a8,8,0,0,0-8.744,1.72c-.036.036-.066.076-.1.113l-28.13,28.131a16.013,16.013,0,1,1-22.71-22.582l21.845-21.845.041-.041,20.48-20.481,63.856,10.681a8.008,8.008,0,0,0,6.98-2.236l72.584-72.657A149.154,149.154,0,0,1,408,240ZM217.97,32h76.063l-9.316,42.038a72.139,72.139,0,0,1-57.417.007Zm-.193,60.94c1.812-.471,3.523-.918,5.2-1.283a7.99,7.99,0,0,0,2.607-1.087,87.887,87.887,0,0,0,60.745.03,7.972,7.972,0,0,0,2.688,1.137c.98.213,1.96.451,2.928.685.781.189,1.554.376,2.314.55a152.722,152.722,0,0,1,92.911,70.386L313.894,236.71l-63.855-10.681a8.015,8.015,0,0,0-6.977,2.234l-19.181,19.182L208.3,238.827,127.87,158.321A152.663,152.663,0,0,1,217.777,92.94ZM119.7,172.776l78.085,78.159a7.98,7.98,0,0,0,1.787,1.345l12.541,6.937-14.325,14.326a31.919,31.919,0,0,0,22.647,54.536,32.1,32.1,0,0,0,22.667-9.3l22.622-22.623,67.859,67.939a7.98,7.98,0,1,1-11.282,11.29A8,8,0,0,0,310.982,386.7a8.008,8.008,0,1,1-11.325,11.325,8,8,0,0,0-11.314,11.315,7.98,7.98,0,1,1-11.29,11.282,8,8,0,1,0-11.385,11.242,8.009,8.009,0,1,1-11.291,11.363l-6.637-6.638a23.923,23.923,0,0,0-20.307-34.237A23.923,23.923,0,0,0,204.77,379.72a23.855,23.855,0,0,0-22.592-22.626,23.978,23.978,0,0,0-32.588-21.08l-12.812-21.333a7.99,7.99,0,0,0-1.2-1.538L104,281.565V240A151.471,151.471,0,0,1,119.7,172.776Zm72.46,242.184a8,8,0,0,1,0-11.313l5.657-5.657A8,8,0,1,1,209.126,409.3l-5.655,5.656A8.011,8.011,0,0,1,192.156,414.96Zm-22.627-22.627a8,8,0,0,1,0-11.313l5.657-5.657A8,8,0,0,1,186.5,386.676l-5.657,5.657A8.009,8.009,0,0,1,169.529,392.333Zm-16.971-20.284a7.948,7.948,0,0,1-5.657-2.343h0a8.007,8.007,0,0,1,0-11.312l5.658-5.658a8,8,0,1,1,11.312,11.314l-5.656,5.656A7.946,7.946,0,0,1,152.558,372.049Zm62.226,54.225,5.656-5.656a8,8,0,0,1,11.314,11.313l-5.657,5.657a8,8,0,1,1-11.313-11.314Zm201.679,46.569A16.012,16.012,0,0,1,403.12,480H108.8a15.774,15.774,0,0,1-13.274-7.174,16,16,0,0,1-.007-17.642l3.12-4.64c.033-.05.066-.1.1-.15A32.765,32.765,0,0,0,104,432.72V304.194l19.567,19.568,13.259,22.077-1.239,1.239a24,24,0,0,0,15.673,40.934A23.853,23.853,0,0,0,173.886,410.6a23.853,23.853,0,0,0,22.591,22.626A24.008,24.008,0,0,0,237.411,448.9l.009-.008,5.642,5.643a23.963,23.963,0,0,0,40.9-15.591,24.1,24.1,0,0,0,22.679-22.66,24.072,24.072,0,0,0,15.616-6.914c.024-.023.048-.047.071-.071a24.067,24.067,0,0,0,6.914-15.616,24.09,24.09,0,0,0,22.693-23.966c0-.45-.015-.9-.04-1.344l56.1-56.1V432.72a32.208,32.208,0,0,0,5.361,17.824l3.082,4.582a16.045,16.045,0,0,1,.02,17.717Z"/><path d="M248,207.872V216h16v-8.128a26.6,26.6,0,0,0,5.814-51.7l-22.568-7.524A10.6,10.6,0,0,1,250.6,128H261.4A10.609,10.609,0,0,1,272,138.6V144h16v-5.4a26.634,26.634,0,0,0-24-26.469V104H248v8.128a26.6,26.6,0,0,0-5.814,51.7l22.568,7.524A10.6,10.6,0,0,1,261.4,192H250.6A10.609,10.609,0,0,1,240,181.4V176H224v5.4A26.634,26.634,0,0,0,248,207.872Z"/></g></svg>
