<?xml version="1.0" encoding="iso-8859-1"?>
<!-- Generator: Adobe Illustrator 19.0.0, SVG Export Plug-In . SVG Version: 6.00 Build 0)  -->
<svg version="1.1" id="Layer_1" xmlns="http://www.w3.org/2000/svg" xmlns:xlink="http://www.w3.org/1999/xlink" x="0px" y="0px"
	 viewBox="0 0 512.002 512.002" style="enable-background:new 0 0 512.002 512.002;" xml:space="preserve">
<path style="fill:#A8DE6C;" d="M105.159,401.062v50.856h301.685v-50.856c0-68.919-46.221-127.04-109.354-145.062
	c63.133-18.024,109.354-76.144,109.354-145.061V60.082H105.159v50.857c0,68.917,46.221,127.039,109.354,145.061
	C151.378,274.022,105.159,332.144,105.159,401.062z"/>
<rect x="72.923" y="11.553" style="fill:#0071AB;" width="366.157" height="48.534"/>
<path d="M361.86,107.978c-3.038,0-6.019-1.236-8.168-3.386c-0.531-0.531-1.017-1.121-1.433-1.756
	c-0.415-0.624-0.774-1.294-1.063-1.987c-0.289-0.705-0.519-1.433-0.657-2.16c-0.15-0.751-0.231-1.515-0.231-2.264
	c0-0.751,0.081-1.515,0.231-2.253c0.139-0.739,0.369-1.468,0.657-2.16c0.289-0.705,0.648-1.375,1.063-1.997
	c0.416-0.637,0.901-1.226,1.433-1.757c0.531-0.531,1.122-1.017,1.757-1.433c0.624-0.415,1.294-0.774,1.997-1.063
	c0.694-0.289,1.421-0.507,2.16-0.657c1.49-0.302,3.015-0.302,4.517,0c0.728,0.15,1.456,0.369,2.16,0.657
	c0.693,0.289,1.363,0.648,1.987,1.063c0.635,0.416,1.226,0.901,1.757,1.433c0.531,0.531,1.017,1.121,1.431,1.757
	c0.416,0.623,0.774,1.293,1.063,1.997c0.289,0.693,0.52,1.421,0.659,2.16c0.15,0.739,0.231,1.502,0.231,2.253
	c0,0.75-0.081,1.513-0.231,2.264c-0.139,0.728-0.37,1.456-0.659,2.16c-0.289,0.693-0.647,1.363-1.063,1.987
	c-0.415,0.635-0.9,1.225-1.431,1.756s-1.122,1.018-1.757,1.444c-0.624,0.416-1.294,0.762-1.987,1.051
	c-0.705,0.289-1.433,0.52-2.16,0.659C363.372,107.897,362.611,107.978,361.86,107.978z"/>
<rect x="72.923" y="451.914" style="fill:#0071AB;" width="366.157" height="48.534"/>
<path style="fill:#8AC837;" d="M151.369,401.255v50.663h209.263v-50.663c0-49.576-34.659-91.209-81.019-101.942v-86.649
	c37.407-8.666,67.198-37.43,77.304-74.271H155.085c10.105,36.841,39.897,65.605,77.304,74.271v86.649
	C186.029,310.047,151.369,351.68,151.369,401.255z"/>
<path d="M385.014,209.577c21.838-28.522,33.383-62.63,33.383-98.64V71.635h20.683c6.379,0,11.553-5.173,11.553-11.553V11.553
	C450.633,5.173,445.46,0,439.081,0H72.922c-6.381,0-11.553,5.173-11.553,11.553v48.529c0,6.379,5.172,11.553,11.553,11.553h20.684
	v39.304c0,36.009,11.544,70.118,33.382,98.64c14.925,19.492,34.248,35.408,56.026,46.423
	c-21.778,11.013-41.102,26.931-56.026,46.423c-21.838,28.522-33.382,62.632-33.382,98.641v39.303H72.922
	c-6.381,0-11.553,5.173-11.553,11.553v48.529c0,6.379,5.172,11.553,11.553,11.553h366.158c6.379,0,11.553-5.173,11.553-11.553
	V451.92c0-6.38-5.173-11.553-11.553-11.553h-20.683v-39.303c0-36.009-11.544-70.119-33.382-98.641
	c-14.925-19.492-34.25-35.408-56.027-46.423C350.766,244.987,370.09,229.069,385.014,209.577z M84.475,23.106h343.052v25.423
	h-20.683H105.159H84.475V23.106z M116.712,401.062c0-61.898,41.521-116.982,100.971-133.953c1.141-0.326,2.197-0.824,3.153-1.45
	v24.859c-21.589,6.891-40.99,20.144-55.338,37.952c-16.56,20.555-25.681,46.403-25.681,72.785v39.11h-23.106v-39.304H116.712z
	 M277.005,201.409c-5.237,1.214-8.945,5.879-8.945,11.255v86.649c0,5.377,3.71,10.042,8.947,11.255
	c41.761,9.669,72.073,47.809,72.073,90.688v39.11H162.922v-39.11c0-42.878,30.31-81.019,72.073-90.688
	c5.238-1.213,8.947-5.878,8.947-11.255v-86.649c0-5.376-3.708-10.041-8.945-11.255c-28.247-6.544-51.467-25.695-63.422-51.463
	h168.854C328.473,175.714,305.253,194.866,277.005,201.409z M427.528,488.894H84.475v-25.423h20.684h46.211h209.263h46.211h20.683
	L427.528,488.894L427.528,488.894z M395.291,401.062v39.303h-23.106v-39.11c0-26.382-9.121-52.23-25.681-72.785
	c-14.349-17.809-33.749-31.061-55.337-37.952v-24.859c0.955,0.626,2.01,1.124,3.153,1.45
	C353.77,284.08,395.291,339.164,395.291,401.062z M294.319,244.891c-1.141,0.326-2.196,0.824-3.153,1.45v-24.87
	c37.367-11.846,66.407-41.797,76.892-80.021c0.953-3.476,0.23-7.196-1.955-10.063c-2.186-2.864-5.582-4.547-9.186-4.547H155.085
	c-3.603,0-7.001,1.682-9.187,4.547c-2.186,2.865-2.908,6.587-1.955,10.063c10.485,38.224,39.526,68.175,76.892,80.021v24.87
	c-0.955-0.626-2.011-1.124-3.153-1.45c-59.45-16.971-100.971-72.055-100.971-133.952v-2.959h207.025
	c6.379,0,11.553-5.173,11.553-11.553c0-6.379-5.173-11.553-11.553-11.553H116.712v-13.24h278.579v39.304
	C395.291,172.836,353.77,227.918,294.319,244.891z"/>
<g>
</g>
<g>
</g>
<g>
</g>
<g>
</g>
<g>
</g>
<g>
</g>
<g>
</g>
<g>
</g>
<g>
</g>
<g>
</g>
<g>
</g>
<g>
</g>
<g>
</g>
<g>
</g>
<g>
</g>
</svg>
