<svg width="18" height="13" viewBox="0 0 18 13" fill="none" xmlns="http://www.w3.org/2000/svg">
<path d="M0.870117 0.229492H11.1709L11.3818 4.01758H10.7666C10.6846 3.36133 10.5791 2.83105 10.4502 2.42676C10.3213 2.02246 10.1367 1.71191 9.89648 1.49512C9.66211 1.27246 9.35742 1.12305 8.98242 1.04688C8.60742 0.970703 8.13574 0.932617 7.56738 0.932617H6.85547V12.2969H8.78906V13H3.20801V12.2969H5.1416V0.932617H4.47363C4.09277 0.932617 3.75586 0.947266 3.46289 0.976562C3.16992 1.00586 2.91211 1.06152 2.68945 1.14355C2.47266 1.22559 2.28516 1.33984 2.12695 1.48633C1.96875 1.63281 1.83398 1.82031 1.72266 2.04883C1.61133 2.27734 1.51465 2.55273 1.43262 2.875C1.35645 3.19727 1.28906 3.57812 1.23047 4.01758H0.615234L0.870117 0.229492Z" fill="black"/>
<path d="M11.4834 5.90527H17.2061L17.3232 8.00977H16.9814C16.9359 7.64518 16.8773 7.35059 16.8057 7.12598C16.734 6.90137 16.6315 6.72884 16.498 6.6084C16.3678 6.4847 16.1986 6.40169 15.9902 6.35938C15.7819 6.31706 15.5199 6.2959 15.2041 6.2959H14.8086V12.6094H15.8828V13H12.7822V12.6094H13.8564V6.2959H13.4854C13.2738 6.2959 13.0866 6.30404 12.9238 6.32031C12.7611 6.33659 12.6178 6.36751 12.4941 6.41309C12.3737 6.45866 12.2695 6.52214 12.1816 6.60352C12.0938 6.6849 12.0189 6.78906 11.957 6.91602C11.8952 7.04297 11.8415 7.19596 11.7959 7.375C11.7536 7.55404 11.7161 7.76562 11.6836 8.00977H11.3418L11.4834 5.90527Z" fill="black"/>
</svg>
